<?xml version="1.0" standalone="no"?>
<!DOCTYPE svg PUBLIC "-//W3C//DTD SVG 1.1//EN" "http://www.w3.org/Graphics/SVG/1.1/DTD/svg11.dtd" >
<svg>
<metadata>
Created by FontForge 20090622 at Thu Feb 14 09:45:32 2019
 By deploy user
&#194;&#169; 1992 Fonts Collection.
</metadata>
<defs>
<font id="Century-Bold" horiz-adv-x="659" >
  <font-face 
    font-family="Century"
    font-weight="700"
    font-stretch="normal"
    units-per-em="1000"
    panose-1="0 0 0 0 0 0 0 0 0 0"
    ascent="800"
    descent="-200"
    x-height="482"
    cap-height="732"
    bbox="-52 -209 1156 963"
    underline-thickness="20"
    underline-position="-123"
    unicode-range="U+001D-U+26AD"
  />
<missing-glyph horiz-adv-x="791" 
d="M49 0v791h693v-791h-693zM693 49v693h-595v-693h595z" />
    <glyph glyph-name=".notdef" horiz-adv-x="791" 
d="M49 0v791h693v-791h-693zM693 49v693h-595v-693h595z" />
    <glyph glyph-name=".null" horiz-adv-x="0" 
 />
    <glyph glyph-name=".null" horiz-adv-x="0" 
 />
    <glyph glyph-name="nonmarkingreturn" horiz-adv-x="329" 
 />
    <glyph glyph-name="nonmarkingreturn.1" unicode=" " horiz-adv-x="329" 
 />
    <glyph glyph-name="exclam" unicode="!" horiz-adv-x="339" 
d="M149 241q0 108 -23 214l-52 204q0 39 28 65t68 26t68 -26t28 -65q-30 -103 -51 -203q-24 -110 -24 -215h-42zM170 165q37 0 64 -27t27 -65t-26.5 -64.5t-64.5 -26.5q-39 0 -65.5 26.5t-26.5 64.5t27 65t65 27z" />
    <glyph glyph-name="quotedbl" unicode="&#x22;" horiz-adv-x="400" 
d="M65 678q-1 8 -1 11q0 26 13.5 43.5t40.5 17.5q22 0 34.5 -15.5t12.5 -38.5q0 -22 -5 -50l-23 -138q-3 -21 -5 -27q-6 -17 -20 -17q-10 0 -16 7.5t-9 28.5zM237 678q-1 8 -1 11q0 26 13.5 43.5t40.5 17.5q22 0 34.5 -15.5t12.5 -38.5q0 -22 -5 -50l-23 -138q-3 -21 -5 -27
q-6 -17 -20 -17q-10 0 -16 7.5t-9 28.5z" />
    <glyph glyph-name="numbersign" unicode="#" horiz-adv-x="560" 
d="M500 227h-103l-32 -227h-81l32 227h-99l-32 -227h-82l32 227h-103v78h111l20 129h-99v78h107l30 213h82l-30 -213h99l30 213h81l-30 -213h96v-78h-104l-20 -129h95v-78zM245 434l-20 -129h99l20 129h-99z" />
    <glyph glyph-name="dollar" unicode="$" 
d="M349 -129h-52v117q-88 11 -152 66q-72 61 -72 145q0 33 15 52.5t47 19.5q26 0 41.5 -19.5t15.5 -46.5q0 -14 -3 -25q-6 -15 -8 -22q-5 -11 -8.5 -20.5t-3.5 -17.5q0 -41 53 -69q45 -24 90 -24q54 0 94 30q44 33 44 86q0 47 -26.5 74t-122.5 74q-77 40 -97 52
q-50 32 -76 70q-31 46 -31 107q0 87 56 143.5t144 68.5v110h52v-110q76 0 137.5 -56t61.5 -131q0 -65 -58 -65q-26 0 -42.5 20.5t-16.5 47.5q0 12 7 39t7 39q0 35 -40 53q-31 14 -72 14q-53 0 -91.5 -28.5t-38.5 -79.5q0 -62 93 -113l174 -93q94 -66 94 -164q0 -92 -60 -154
t-155 -73v-117z" />
    <glyph glyph-name="percent" unicode="%" horiz-adv-x="793" 
d="M31 545q0 75 47.5 133t122.5 58q62 0 108 -49q52 -55 52 -145q0 -70 -48 -124.5t-118 -54.5q-65 0 -113 49q-51 52 -51 133zM126 554q0 -61 10 -98q17 -64 61 -64q41 0 58 58q11 38 11 93q0 101 -21 138q-15 26 -46 26q-41 0 -60 -60q-13 -41 -13 -93zM549 732h76
l-381 -732h-76zM432 177q0 75 47.5 133t122.5 58q62 0 108 -49q52 -55 52 -145q0 -70 -48 -124.5t-118 -54.5q-65 0 -113 49q-51 52 -51 133zM527 186q0 -61 10 -98q17 -64 61 -64q41 0 58 58q11 38 11 93q0 101 -21 138q-15 26 -46 26q-41 0 -60 -60q-13 -41 -13 -93z" />
    <glyph glyph-name="ampersand" unicode="&#x26;" horiz-adv-x="840" 
d="M187 257q0 -79 48 -146q53 -75 130 -75q25 0 53 7.5t47 21.5q-57 63 -111 146q-45 69 -91 161q-76 -30 -76 -115zM574 437h249v-33q-48 -11 -64 -26q-24 -22 -50 -92q-17 -48 -39 -86t-56 -73q20 -31 45.5 -49.5t58.5 -18.5q31 0 62 19q11 6 33 24l19 -18
q-37 -48 -83.5 -75t-104.5 -27q-41 0 -72 12t-67 40q-47 -27 -98 -39.5t-108 -12.5q-138 0 -208 69q-54 54 -54 127q0 80 65 145q54 54 140 90q-20 43 -29 71q-12 39 -12 77q0 86 66 137.5t155 51.5q68 0 118 -34q56 -38 56 -103q0 -57 -63 -108q-32 -26 -114 -68
q32 -67 77 -140q28 -45 89 -135q37 32 59 74t22 88q0 41 -25 60.5t-67 19.5v33zM495 630q0 37 -19 62t-56 25t-56.5 -23t-19.5 -61q0 -35 17 -81q13 -35 37 -77q46 25 71.5 64.5t25.5 90.5z" />
    <glyph glyph-name="quotesingle" unicode="'" horiz-adv-x="220" 
d="M61 678q-1 8 -1 11q0 26 13.5 43.5t40.5 17.5q22 0 34.5 -15.5t12.5 -38.5q0 -22 -5 -50l-23 -138q-3 -21 -5 -27q-6 -17 -20 -17q-10 0 -16 7.5t-9 28.5z" />
    <glyph glyph-name="parenleft" unicode="(" horiz-adv-x="388" 
d="M372 723q-99 -71 -144 -205q-36 -108 -36 -253q0 -139 38 -246q45 -127 142 -199l-21 -29q-142 77 -221 195q-85 127 -85 282q0 162 82 285q76 114 224 197z" />
    <glyph glyph-name="parenright" unicode=")" horiz-adv-x="388" 
d="M16 -182q99 71 144 205q36 108 36 253q0 139 -38 246q-45 127 -142 199l21 29q142 -77 221 -195q85 -127 85 -282q0 -162 -82 -285q-76 -114 -224 -197z" />
    <glyph glyph-name="asterisk" unicode="*" horiz-adv-x="556" 
d="M235 692q0 24 10 41t33 17q21 0 32 -17.5t11 -40.5t-7 -59t-10 -54q43 25 63 35q44 22 65 22q18 0 31.5 -11.5t13.5 -28.5q0 -45 -88 -58l-69 -8q58 -54 59 -55q37 -39 37 -65q0 -16 -10.5 -28.5t-27.5 -12.5q-38 0 -73 71q-14 29 -27 59l-37 -78q-30 -52 -60 -52
q-18 0 -29 11t-11 30q0 30 52 80q33 30 43 40l-93 12q-63 15 -63 54q0 18 13 29t31 11q16 0 44 -12t84 -45q-6 28 -11.5 58t-5.5 55z" />
    <glyph glyph-name="plus" unicode="+" horiz-adv-x="560" 
d="M240 313v181h81v-181h181v-81h-181v-181h-81v181h-181v81h181z" />
    <glyph glyph-name="comma" unicode="," horiz-adv-x="329" 
d="M62 -145q58 29 78 54t20 67q-36 0 -61 28t-25 65q0 42 28 68t70 26q47 0 73 -37q23 -33 23 -82q0 -76 -58 -139q-51 -56 -130 -85z" />
    <glyph glyph-name="hyphen" unicode="-" horiz-adv-x="322" 
d="M44 304h234v-95h-234v95z" />
    <glyph glyph-name="period" unicode="." horiz-adv-x="329" 
d="M165 165q37 0 64 -27t27 -65t-26.5 -64.5t-64.5 -26.5q-39 0 -65.5 26.5t-26.5 64.5t27 65t65 27z" />
    <glyph glyph-name="slash" unicode="/" horiz-adv-x="509" 
d="M395 732h90l-425 -835h-89z" />
    <glyph glyph-name="zero" unicode="0" 
d="M622 354q0 -159 -89 -265q-85 -101 -200 -101q-125 0 -210 100t-85 258q0 174 88 284q85 106 211 106q110 0 192 -95q93 -107 93 -287zM468 350q0 194 -40 278q-33 69 -95 69q-81 0 -117 -132q-24 -87 -24 -200q0 -172 38 -258q35 -80 100 -80q83 0 117 127q21 79 21 196
z" />
    <glyph glyph-name="one" unicode="1" 
d="M413 157q0 -81 18 -100q24 -26 127 -26v-31h-443v31q90 0 115 23q33 30 33 135v291q0 65 -33 98q-36 36 -115 36v31q161 19 298 91v-579z" />
    <glyph glyph-name="two" unicode="2" 
d="M386 125q77 0 111.5 20.5t70.5 90.5l39 -10l-56 -226h-521v48q41 57 98 113q46 45 140 122q75 63 110 118q45 71 45 154q0 65 -31 102.5t-95 37.5q-36 0 -61 -18.5t-25 -53.5q0 -12 4 -37t4 -37q0 -33 -24.5 -56.5t-58.5 -23.5q-38 0 -60 24t-22 62q0 62 57 113
q76 68 218 68q143 0 209 -72q49 -53 49 -131q0 -69 -28 -109q-49 -69 -212 -164q-95 -55 -122 -75q-35 -26 -63 -60h224z" />
    <glyph glyph-name="three" unicode="3" 
d="M606 201q0 -74 -63 -135q-80 -78 -226 -78q-93 0 -176 33q-110 44 -110 123q0 33 21 54t54 21q38 0 63.5 -23t25.5 -67q0 -54 17 -75q22 -27 84 -27q70 0 108 45.5t38 116.5q0 80 -42 128t-121 48q-9 0 -28 -3t-28 -3q-12 0 -20 7t-8 19q0 14 8.5 21.5t24.5 7.5
q8 0 27.5 -2t20.5 -2q73 0 110 42t37 117q0 56 -25 90q-28 38 -83 38q-92 0 -92 -81q0 -47 -21 -73t-57 -26q-29 0 -50.5 21.5t-21.5 50.5q0 51 52 93q67 54 191 54q99 0 174 -36q97 -47 97 -135q0 -67 -54 -114q-41 -36 -116 -62q86 -32 127 -65q62 -50 62 -123z" />
    <glyph glyph-name="four" unicode="4" 
d="M500 224h137v-54h-137v-76q0 -38 19.5 -50.5t76.5 -12.5v-31h-354v31q63 0 82.5 13t19.5 47v79h-322v54l379 501h99v-501zM344 565l-259 -341h259v341z" />
    <glyph glyph-name="five" unicode="5" 
d="M572 725l-32 -130h-370l-21 -197q96 67 207 67q108 0 182 -54q87 -63 87 -177q0 -99 -74 -166q-88 -80 -252 -80q-121 0 -192 51q-59 42 -59 91q0 38 25.5 62.5t63.5 24.5q37 0 59 -22t22 -69q6 -54 26.5 -76.5t63.5 -22.5q76 0 114 62q31 51 31 132q0 79 -41 130
q-44 54 -121 54q-44 0 -89 -23q-39 -20 -75 -56l-37 14l37 385h445z" />
    <glyph glyph-name="six" unicode="6" 
d="M427 466q94 0 148.5 -59.5t54.5 -153.5q0 -123 -85 -196q-81 -69 -206 -69q-134 0 -219 103q-80 97 -80 233q0 151 96 274q107 138 268 138q66 0 115 -24q64 -31 64 -90q0 -31 -21.5 -50.5t-54.5 -19.5q-59 0 -80 68.5t-63 68.5q-63 0 -102 -66q-50 -84 -50 -265
q43 49 96 77q58 31 119 31zM345 27q69 0 104 69q27 54 27 131q0 66 -24 110q-31 57 -91 57q-39 0 -83 -31q-36 -26 -64 -64q0 -110 18 -170q31 -102 113 -102z" />
    <glyph glyph-name="seven" unicode="7" 
d="M627 682q-88 -129 -116 -174q-60 -98 -91 -184q-37 -102 -37 -202q0 -134 -99 -134q-42 0 -65.5 29.5t-23.5 72.5q0 64 59 170q48 86 129 190q69 89 125 145h-188q-103 0 -139 -16q-53 -23 -89 -109h-38l64 255h509v-43z" />
    <glyph glyph-name="eight" unicode="8" 
d="M475 569q0 60 -49 92q-42 28 -104 28q-49 0 -84 -21q-42 -25 -42 -71q0 -61 74 -104q26 -15 127 -52q41 31 56 53q22 32 22 75zM242 328q-36 -34 -52 -63q-19 -34 -19 -78q0 -78 47 -119t126 -41q59 0 104 29q53 34 53 91t-55 94q-27 18 -106 49zM629 214q0 -84 -73 -149
q-87 -77 -238 -77q-110 0 -186 37q-101 49 -101 147q0 61 53 110q27 25 106 72q-54 33 -81 69q-34 45 -34 100q0 103 87 161q77 52 185 52q93 0 162 -35q87 -44 87 -129q0 -54 -43 -96q-34 -33 -93 -56q85 -42 119 -77q50 -51 50 -129z" />
    <glyph glyph-name="nine" unicode="9" 
d="M623 397q0 -160 -101 -281q-107 -128 -266 -128q-69 0 -119 29q-56 32 -56 83q0 33 22 50.5t57 17.5q52 0 85 -90q16 -43 52 -43q65 0 102 60q50 81 50 269q-44 -48 -102 -77.5t-118 -29.5q-93 0 -146 61.5t-53 155.5q0 119 84 190.5t204 71.5q136 0 223 -104
q82 -98 82 -235zM315 697q-70 0 -104 -68q-27 -54 -27 -132q0 -65 25 -111q31 -57 91 -57q51 0 103 48q19 18 46 52q0 99 -22 166q-33 102 -112 102z" />
    <glyph glyph-name="colon" unicode=":" horiz-adv-x="329" 
d="M165 165q37 0 64 -27t27 -65t-26.5 -64.5t-64.5 -26.5q-39 0 -65.5 26.5t-26.5 64.5t27 65t65 27zM165 494q37 0 64 -27t27 -65t-26.5 -64.5t-64.5 -26.5q-39 0 -65.5 26.5t-26.5 64.5t27 65t65 27z" />
    <glyph glyph-name="semicolon" unicode=";" horiz-adv-x="329" 
d="M62 -145q58 29 78 54t20 67q-36 0 -61 28t-25 65q0 42 28 68t70 26q47 0 73 -37q23 -33 23 -82q0 -76 -58 -139q-51 -56 -130 -85zM166 494q37 0 64 -27t27 -65t-26.5 -64.5t-64.5 -26.5q-39 0 -65.5 26.5t-26.5 64.5t27 65t65 27z" />
    <glyph glyph-name="less" unicode="&#x3c;" horiz-adv-x="560" 
d="M516 19l-472 215v78l472 217v-80l-393 -177l393 -174v-79z" />
    <glyph glyph-name="equal" unicode="=" horiz-adv-x="560" 
d="M502 381v-81h-443v81h443zM502 245v-81h-443v81h443z" />
    <glyph glyph-name="greater" unicode="&#x3e;" horiz-adv-x="560" 
d="M437 272l-393 177v80l472 -217v-78l-472 -215v79z" />
    <glyph glyph-name="question" unicode="?" horiz-adv-x="473" 
d="M142 439q72 0 117 37q49 41 49 112q0 39 -12 67q-16 37 -51 37q-29 0 -53 -49.5t-71 -49.5q-30 0 -51.5 20.5t-21.5 49.5q0 45 46 68q38 19 86 19q100 0 172 -61q77 -65 77 -163q0 -102 -67 -161q-63 -56 -168 -56v-81h-52v211zM166 165q37 0 64 -27t27 -65t-26.5 -64.5
t-64.5 -26.5q-39 0 -65.5 26.5t-26.5 64.5t27 65t65 27z" />
    <glyph glyph-name="at" unicode="@" horiz-adv-x="720" 
d="M476 305q-7 -17 -12 -31t-5 -22q0 -12 11.5 -16t18.5 -4q43 0 95 52q64 65 64 157q0 104 -77.5 169.5t-188.5 65.5q-124 0 -215.5 -89.5t-91.5 -215.5q0 -134 89.5 -224.5t222.5 -90.5q84 0 155.5 37t113.5 107h66q-42 -107 -135 -164q-88 -54 -206 -54q-159 0 -271 111
t-112 272t112 273t271 112q144 0 243 -87t99 -218q0 -129 -86 -212q-78 -75 -177 -75q-29 0 -50.5 14t-21.5 41q-28 -24 -55.5 -38.5t-58.5 -14.5q-53 0 -77.5 34.5t-24.5 92.5q0 98 60 188q66 98 153 98q43 0 75 -34l6 15h104zM271 259q0 -9 7 -18t17 -9q35 0 83 102
q45 95 45 140q0 11 -4.5 18t-15.5 7q-44 0 -91 -101q-41 -89 -41 -139z" />
    <glyph glyph-name="A" unicode="A" horiz-adv-x="690" 
d="M620 159q22 -72 35 -90q26 -36 87 -36v-33h-351v33q46 0 62.5 10.5t16.5 34.5q0 15 -2 25t-10 33l-36 118h-255l-22 -63q-8 -22 -14 -44t-6 -40q0 -36 26.5 -55t63.5 -19v-33h-266v33q63 18 95 58q22 27 49 100l195 520l146 47zM306 622l-119 -321h219z" />
    <glyph glyph-name="B" unicode="B" horiz-adv-x="756" 
d="M280 157q0 -76 11 -94q18 -30 90 -30q78 0 122 40q49 45 49 137q0 76 -38 112q-49 46 -176 46h-58v-211zM19 0v33q54 0 75.5 19.5t21.5 72.5v482q0 52 -21 72t-76 20v33h363q177 0 251 -50q60 -40 60 -118q0 -70 -63 -116q-50 -37 -129 -53q104 -22 154 -58
q71 -50 71 -142t-69 -143.5t-212 -51.5h-426zM337 415q95 0 138.5 34.5t43.5 111.5q0 75 -40 106.5t-117 31.5q-30 0 -45 -4.5t-24.5 -14.5t-11 -21.5t-1.5 -32.5v-211h57z" />
    <glyph glyph-name="C" unicode="C" horiz-adv-x="704" 
d="M686 525l-45 -14q-38 84 -94 136q-68 64 -147 64q-101 0 -150 -111q-36 -82 -36 -199q0 -169 74 -262q64 -80 158 -80q68 0 124 43q43 33 90 100l26 -19q-55 -97 -124 -146q-78 -55 -183 -55q-146 0 -242.5 105.5t-96.5 252.5q0 163 95 283q101 127 251 127
q24 0 45.5 -4.5t48 -13t31.5 -9.5q18 -5 31 -5q17 0 32 5.5t41 17.5l11 5z" />
    <glyph glyph-name="D" unicode="D" horiz-adv-x="802" 
d="M286 136q0 -61 11 -76q16 -21 77 -21q104 0 156 69q62 82 62 276q0 174 -63 247q-54 62 -166 62q-53 0 -67 -22q-10 -16 -10 -71v-464zM25 33q54 0 75.5 19.5t21.5 72.5v482q0 52 -21 72t-76 20v33h348q48 0 90 -6t80 -21q101 -40 160 -126q63 -92 63 -221
q0 -118 -63 -209q-59 -86 -155 -123q-38 -15 -79.5 -20.5t-95.5 -5.5h-348v33z" />
    <glyph glyph-name="E" unicode="E" horiz-adv-x="707" 
d="M22 33q54 0 75.5 19.5t21.5 72.5v482q0 52 -21 72t-76 20v33h603l63 -187l-31 -13q-54 70 -125 113q-79 48 -160 48q-62 0 -78 -24q-11 -16 -11 -80v-195h20q79 0 114 21q39 24 64 97h39v-289h-39q-20 73 -59 98.5t-117 25.5h-22v-211q0 -52 11 -70q16 -27 66 -27
q89 0 174 46q76 41 139 115l27 -14l-75 -186h-603v33z" />
    <glyph glyph-name="F" unicode="F" horiz-adv-x="637" 
d="M284 397h48q63 0 94.5 26.5t48.5 91.5h39v-290h-39q-7 65 -41 95t-93 30h-57v-225q0 -52 22 -72t76 -20v-33h-359v33q54 0 75.5 19.5t21.5 72.5v482q0 52 -21 72t-76 20v33h594l57 -196l-34 -13q-48 74 -117 119q-78 51 -159 51q-54 0 -67 -15t-13 -68v-213z" />
    <glyph glyph-name="G" unicode="G" horiz-adv-x="782" 
d="M690 538l-33 -12q-74 98 -122 137q-58 48 -121 48q-82 0 -134 -77q-62 -91 -62 -268q0 -180 52 -266q48 -79 136 -79q76 0 105 52q22 39 22 122q0 60 -19 77t-79 17v39h339v-39q-60 -7 -75.5 -27.5t-15.5 -80.5v-148q-53 0 -66.5 -2.5t-71.5 -19.5q-41 -13 -79 -21
t-73 -8q-160 0 -254.5 97.5t-94.5 260.5q0 160 99 281q106 129 263 129q22 0 38 -3.5t36 -9.5l37 -11t28 -5q18 0 42 8.5t42 20.5z" />
    <glyph glyph-name="H" unicode="H" horiz-adv-x="830" 
d="M549 399v208q0 52 -21 72t-76 20v33h358v-33q-54 0 -75.5 -19.5t-21.5 -72.5v-482q0 -52 21 -72t76 -20v-33h-358v33q54 0 75.5 19.5t21.5 72.5v227h-268v-227q0 -52 21 -72t76 -20v-33h-358v33q54 0 75.5 19.5t21.5 72.5v482q0 52 -21 72t-76 20v33h358v-33
q-54 0 -75.5 -19.5t-21.5 -72.5v-208h268z" />
    <glyph glyph-name="I" unicode="I" horiz-adv-x="408" 
d="M122 607q0 52 -21 72t-76 20v33h358v-33q-54 0 -75.5 -19.5t-21.5 -72.5v-482q0 -52 21 -72t76 -20v-33h-358v33q54 0 75.5 19.5t21.5 72.5v482z" />
    <glyph glyph-name="J" unicode="J" horiz-adv-x="476" 
d="M362 258q0 -146 -54 -208q-59 -68 -204 -68q-59 0 -102 24q-53 30 -53 84q0 35 22.5 58.5t57.5 23.5q38 0 58.5 -21.5t28.5 -73.5q3 -26 8 -36q9 -20 28 -20q33 0 42 66q4 30 4 64v34v422q0 54 -21 73t-85 19v33h368v-33q-58 -6 -73 -17q-25 -18 -25 -75v-349z" />
    <glyph glyph-name="K" unicode="K" horiz-adv-x="759" 
d="M480 487l206 -349q32 -54 53 -72q28 -23 86 -33v-33h-365v33q42 0 56.5 9.5t14.5 26.5q0 7 -3.5 16t-15.5 32l-146 254l-80 -83v-163q0 -52 21 -72t77 -20v-33h-359v33q54 0 75.5 19.5t21.5 72.5v482q0 52 -21 72t-76 20v33h358v-33q-54 0 -75.5 -19.5t-21.5 -72.5v-250
l194 200q39 39 54 62.5t15 41.5q0 29 -40 35q-26 2 -36 3v33h308v-33q-70 -13 -110 -34t-93 -77z" />
    <glyph glyph-name="L" unicode="L" horiz-adv-x="629" 
d="M24 33q54 0 75.5 19.5t21.5 72.5v482q0 52 -21 72t-76 20v33h358v-33q-54 0 -75.5 -19.5t-21.5 -72.5v-482q0 -52 9 -65q14 -21 66 -21q86 0 169 51q68 42 134 119l25 -10l-62 -199h-602v33z" />
    <glyph glyph-name="M" unicode="M" horiz-adv-x="944" 
d="M829 125q0 -52 21 -72t76 -20v-33h-358v33q54 0 75.5 19.5t21.5 72.5v524l-227 -649h-36l-227 629l-2 -407q0 -122 15.5 -152t82.5 -37v-33h-253v33q68 13 85.5 42.5t17.5 146.5v385q0 54 -22 73t-75 19v33h293l160 -459l164 459h285v-33q-56 0 -76.5 -18t-20.5 -74v-482
z" />
    <glyph glyph-name="N" unicode="N" horiz-adv-x="797" 
d="M624 223v334q0 72 -16 99q-22 37 -91 43v33h263v-33q-66 -11 -87 -44q-17 -27 -17 -98v-557h-91l-402 569v-384q0 -82 20 -109t97 -43v-33h-283v33q71 11 92.5 38.5t21.5 98.5v460q-44 55 -114 69v33h254z" />
    <glyph glyph-name="O" unicode="O" horiz-adv-x="813" 
d="M44 358q0 165 96 276q100 116 263 116q168 0 266.5 -104t98.5 -273q0 -160 -96 -271q-104 -120 -270 -120q-163 0 -260.5 104t-97.5 272zM218 367q0 -180 49 -267q45 -79 130 -79q84 0 132 59q39 48 54 135q11 62 11 151q0 183 -52 269q-46 76 -133 76q-90 0 -139 -81
q-52 -86 -52 -263z" />
    <glyph glyph-name="P" unicode="P" horiz-adv-x="722" 
d="M285 375h59q92 0 133.5 37t41.5 125q0 80 -40 118t-113 38q-56 0 -71 -23q-10 -16 -10 -76v-219zM285 336v-211q0 -52 21 -72t76 -20v-33h-358v33q54 0 75.5 19.5t21.5 72.5v482q0 52 -21 72t-76 20v33h360q157 0 238 -59q71 -52 71 -134q0 -95 -64 -145
q-74 -58 -258 -58h-86z" />
    <glyph glyph-name="Q" unicode="Q" horiz-adv-x="814" 
d="M794 -44q-26 -44 -67.5 -72.5t-89.5 -28.5q-62 0 -102.5 36.5t-59.5 97.5q-34 -7 -72 -7q-156 0 -257.5 114t-101.5 272q0 160 105 271t265 111q154 0 257 -108t103 -265q0 -100 -40.5 -184t-119.5 -143l44 -62q15 -19 26 -28q17 -14 35 -14q14 0 24 6t24 20l5 5z
M380 216q41 0 78 -18t97 -80q25 59 35 125.5t10 144.5q0 169 -60 253q-50 70 -134 70q-90 0 -137 -81q-51 -87 -51 -265q0 -95 10 -145t30 -93q12 42 44.5 65.5t77.5 23.5zM374 177q-32 0 -53 -23t-21 -55q0 -36 28.5 -57t65.5 -21q18 0 37 6l35 14q0 55 -18 90
q-24 46 -74 46z" />
    <glyph glyph-name="R" unicode="R" horiz-adv-x="722" 
d="M291 396q119 0 167 38.5t48 121.5q0 73 -41 105t-124 32q-46 0 -57.5 -17t-11.5 -65v-215h19zM605 169q38 -69 60 -93q40 -43 97 -43v-33h-247q-8 13 -22 41l-21 43l-59 125q-41 88 -77 118q-26 22 -64 22v-224q0 -52 21 -72t76 -20v-33h-358v33q54 0 75.5 19.5
t21.5 72.5v482q0 52 -21 72t-76 20v33h430q109 0 174 -52t65 -134q0 -76 -60 -124q-51 -41 -133 -56q20 -13 37 -40q9 -14 27 -49z" />
    <glyph glyph-name="S" unicode="S" horiz-adv-x="612" 
d="M555 541l-38 -13q-43 70 -105 121q-76 62 -145 62q-54 0 -89.5 -28.5t-35.5 -80.5q0 -53 51 -85q26 -16 99 -39l59 -19q114 -37 168 -82q75 -62 75 -163q0 -100 -72 -166t-173 -66q-31 0 -61 5.5t-65 16.5l-25 7.5t-26 3.5q-15 0 -26.5 -4t-62.5 -28l-65 231l39 13
q54 -87 115 -139q79 -67 162 -67q57 0 101.5 36t44.5 92q0 54 -48 87q-27 19 -96 40q-96 31 -136 49q-78 35 -116 79q-48 55 -48 135q0 93 65 152t159 59q29 0 54 -4.5t56 -15.5l24 -8t18 -2q18 0 40 11.5t37 25.5z" />
    <glyph glyph-name="T" unicode="T" horiz-adv-x="598" 
d="M596 732l54 -200l-37 -10q-43 67 -98 113q-70 58 -135 58v-568q0 -52 21 -72t76 -20v-33h-358v33q54 0 75.5 19.5t21.5 72.5v568q-70 -8 -133 -59q-52 -42 -98 -112l-37 10l49 200h599z" />
    <glyph glyph-name="U" unicode="U" horiz-adv-x="785" 
d="M274 255q0 -131 41 -185q37 -49 122 -49q104 0 149 62q41 57 41 173v351q0 52 -21 72t-76 20v33h246v-33q-54 0 -75.5 -19.5t-21.5 -72.5v-359q0 -134 -62 -198q-66 -68 -209 -68q-147 0 -222.5 63.5t-75.5 181.5v380q0 52 -21 72t-76 20v33h358v-33q-54 0 -75.5 -19.5
t-21.5 -72.5v-352z" />
    <glyph glyph-name="V" unicode="V" horiz-adv-x="642" 
d="M289 732v-33q-49 0 -66 -12q-13 -9 -13 -30q0 -12 3 -22q0 -1 8 -21l154 -431l131 376l11 34t6 34q0 36 -23.5 54t-59.5 18v33h246v-33q-53 -12 -74 -33q-31 -31 -61 -125l-190 -553h-84l-203 565q-29 79 -38 94q-28 47 -80 52v33h333z" />
    <glyph glyph-name="W" unicode="W" horiz-adv-x="970" 
d="M265 732v-33q-32 -3 -41 -8q-18 -10 -18 -36q0 -13 6 -36t13 -44l116 -359l109 328l-20 61l-8 20q-14 40 -29 55q-20 19 -57 19v33h314v-33q-28 0 -45.5 -9.5t-17.5 -35.5q0 -10 4.5 -26l6.5 -23l129 -395l122 366q5 15 8.5 29t3.5 27q0 35 -25 51t-62 16v33h240v-33
q-48 -10 -64 -27q-29 -31 -65 -139l-179 -545h-69l-163 476l-158 -476h-70l-198 617q-14 44 -19 53q-18 34 -73 41v33h309z" />
    <glyph glyph-name="X" unicode="X" horiz-adv-x="679" 
d="M298 732v-33q-39 0 -50 -7.5t-11 -23.5q0 -10 5 -21q2 -3 12 -19l11 -18l95 -140l91 121q12 16 19 28q11 19 11 32q0 21 -14 33q-18 15 -59 15v33h263v-33q-48 0 -82 -22q-27 -18 -61 -63l-140 -186l190 -273q46 -66 59 -80q40 -42 86 -42v-33h-354v33q37 4 51.5 12
t14.5 24q0 12 -9 28q-4 7 -17 26l-121 176l-100 -128q-17 -23 -26 -37q-14 -24 -14 -43q0 -28 26 -43q20 -11 53 -15v-33h-271v33q53 10 93 43q29 24 70 78l140 187l-187 274q-31 43 -34 46q-30 33 -82 38v33h342z" />
    <glyph glyph-name="Y" unicode="Y" horiz-adv-x="668" 
d="M302 732v-33q-35 0 -50 -9.5t-15 -27.5q0 -13 3.5 -21t12.5 -23l132 -222l115 188q10 16 17 31.5t7 30.5q0 30 -27 42q-15 7 -54 11v33h269v-33q-51 -6 -80 -27q-23 -17 -56 -65l-15 -23l-150 -236v-223q0 -50 21 -71t77 -21v-33h-360v33q58 6 73 17q25 18 25 75v191
l-191 311q-22 36 -41.5 50.5t-58.5 21.5v33h346z" />
    <glyph glyph-name="Z" unicode="Z" horiz-adv-x="592" 
d="M12 0l-23 33l402 660h-41q-111 0 -179 -40q-54 -32 -136 -129l-29 17l56 191h514l16 -33l-408 -660h39q119 0 198 44q60 34 155 134l31 -24l-61 -193h-534z" />
    <glyph glyph-name="bracketleft" unicode="[" horiz-adv-x="388" 
d="M322 732v-60h-114v-715h114v-60h-248v835h248z" />
    <glyph glyph-name="backslash" unicode="\" horiz-adv-x="280" 
d="M-37 732h88l266 -732h-88z" />
    <glyph glyph-name="bracketright" unicode="]" horiz-adv-x="388" 
d="M314 -103h-248v60h114v715h-114v60h248v-835z" />
    <glyph glyph-name="asciicircum" unicode="^" horiz-adv-x="560" 
d="M285 653l-177 -393h-80l217 472h78l215 -472h-79z" />
    <glyph glyph-name="underscore" unicode="_" horiz-adv-x="500" 
d="M500 -138h-500v76h500v-76z" />
    <glyph glyph-name="grave" unicode="`" horiz-adv-x="336" 
d="M202 529l-57 79q-39 54 -46 65q-36 53 -36 68q0 17 16 24.5t37 7.5q35 0 51 -15q13 -12 26 -47l60 -173z" />
    <glyph glyph-name="a" unicode="a" horiz-adv-x="534" 
d="M332 265q-71 -8 -113 -36q-53 -36 -53 -101q0 -36 17.5 -58t52.5 -22q26 0 51 15.5t45 39.5v162zM476 116q0 -29 3 -37q7 -19 31 -19q9 0 25 6l7 -18q-19 -27 -49 -43.5t-62 -16.5q-31 0 -57 16t-42 44q-77 -60 -169 -60q-65 0 -104 30q-43 33 -43 96q0 64 58 109
q46 36 128 59q49 14 130 27v27v19q0 47 -10 70q-15 36 -56 36q-32 0 -50 -23q-11 -14 -23.5 -48.5t-27.5 -51.5q-20 -23 -48 -23q-24 0 -43.5 16.5t-19.5 41.5q0 45 50 79q63 42 179 42q42 0 81.5 -8t65.5 -29q31 -25 40 -60q6 -22 6 -68v-213z" />
    <glyph glyph-name="b" unicode="b" horiz-adv-x="600" 
d="M216 90q36 -48 102 -48q61 0 90 72q21 52 21 126q0 77 -18 124q-27 70 -91 70q-29 0 -54 -12t-50 -35v-297zM96 -17l-24 27v552q0 45 -13 65q-17 26 -58 31v31l215 61v-313q34 27 71.5 42t77.5 15q99 0 156 -74q52 -68 52 -170q0 -132 -75 -203q-63 -59 -151 -59
q-38 0 -76 16t-71 43z" />
    <glyph glyph-name="c" unicode="c" horiz-adv-x="515" 
d="M507 124q-42 -63 -105 -99.5t-138 -36.5q-98 0 -165 69t-67 169q0 113 79.5 190.5t193.5 77.5q65 0 117 -24q69 -32 69 -89q0 -30 -22 -49t-52 -19q-37 0 -52 23q-9 14 -17 50t-22 51q-17 18 -46 18q-53 0 -79 -64q-19 -48 -19 -110q0 -91 31 -153q40 -80 122 -80
q43 0 83 30q27 20 64 65z" />
    <glyph glyph-name="d" unicode="d" horiz-adv-x="623" 
d="M399 386q-22 20 -51 34t-55 14q-51 0 -83 -61q-26 -50 -26 -125q0 -70 25 -126q33 -74 95 -74q30 0 54 16q17 12 41 40v282zM399 567q0 48 -15 70q-18 27 -62 27v31l221 55v-625q0 -44 15.5 -67t58.5 -27v-31q-126 0 -218 -18v65q-56 -59 -140 -59q-105 0 -165 68.5
t-60 175.5q0 129 77 201q65 61 148 61q35 0 71.5 -15t68.5 -40v128z" />
    <glyph glyph-name="e" unicode="e" horiz-adv-x="535" 
d="M175 243q0 -75 45 -132q50 -63 125 -63q41 0 81 21q33 17 66 52l24 -21q-47 -56 -101.5 -84t-125.5 -28q-108 0 -181 64q-77 68 -77 175q0 102 65 181q71 86 185 86q103 0 167 -71t64 -180h-337zM384 286q0 81 -19 119q-23 46 -79 46q-58 0 -89 -58q-24 -45 -24 -107h211
z" />
    <glyph glyph-name="f" unicode="f" horiz-adv-x="302" 
d="M325 486v-47h-110v-343q0 -38 18 -51.5t62 -13.5v-31h-305v31q46 0 60 11q21 16 21 71v326h-90v47h87q0 62 20 115q16 41 41 72q60 77 158 77q44 0 78.5 -22.5t34.5 -64.5q0 -29 -19 -48t-49 -19q-33 0 -72 46q-19 23 -34 23q-9 0 -15 -7.5t-6 -26.5q3 -29 5 -61t7 -84
h108z" />
    <glyph glyph-name="g" unicode="g" horiz-adv-x="516" 
d="M350 313q0 53 -19 92q-25 50 -72 50t-73 -43q-22 -36 -22 -87q0 -53 19 -91q25 -49 73 -49q46 0 72 42q22 36 22 86zM152 -27q-17 -13 -27 -28.5t-10 -35.5q0 -45 49 -63q33 -12 87 -12q60 0 97 9q66 16 66 57q0 23 -15 31q-20 11 -84 18zM25 71q0 35 32 60q12 10 63 35
l9 5q-52 23 -78 55q-31 37 -31 89q0 84 78 135q68 44 157 44q25 0 47.5 -4t48.5 -11q19 38 51 65q37 32 75 32q24 0 42.5 -17.5t18.5 -41.5q0 -25 -18 -42t-44 -17q-13 0 -35 9t-27 9q-6 0 -10.5 -3t-10.5 -10q44 -28 65 -58q26 -37 26 -84q0 -84 -78 -133q-67 -42 -157 -42
q-31 0 -66 8q-13 -7 -18 -11q-11 -9 -11 -18q0 -10 7 -16t18 -9.5t121.5 -14.5t141.5 -20q44 -13 69.5 -39.5t25.5 -69.5q0 -69 -66 -108q-79 -47 -242 -47q-86 0 -137 13q-91 23 -91 83q0 35 32 58q20 14 64 29q-38 22 -50 33q-22 21 -22 54z" />
    <glyph glyph-name="h" unicode="h" horiz-adv-x="620" 
d="M229 417q51 39 79 54q45 23 93 23q57 0 99 -40t42 -98v-260q0 -39 20 -54q15 -11 44 -11v-31h-274v31q34 0 46 11q20 18 20 71v228q0 19 -14 39q-20 29 -59 29q-25 0 -61 -19l-35 -19v-275q0 -39 20 -54q15 -11 44 -11v-31h-274v31q34 0 46 11q20 18 20 71v449
q0 45 -13 65q-17 26 -58 31v31l215 61v-333z" />
    <glyph glyph-name="i" unicode="i" horiz-adv-x="308" 
d="M20 0v31q34 0 46 11q20 18 20 71v203q0 45 -13 65q-17 26 -58 31v31l215 61v-408q0 -39 20 -54q15 -11 44 -11v-31h-274zM151 750q36 0 60 -24t24 -60t-24 -60t-60 -24q-35 0 -59.5 24.5t-24.5 59.5t24.5 59.5t59.5 24.5z" />
    <glyph glyph-name="j" unicode="j" horiz-adv-x="269" 
d="M231 504v-497q0 -93 -58 -146q-53 -49 -129 -49q-33 0 -55.5 19.5t-22.5 51.5q0 26 18 45t45 19q28 0 45 -13l31 -30q4 0 7 4.5t3 8.5t-2.5 11.5t-3.5 9.5q-14 33 -18 51t-4 47v20v260q0 45 -13 65q-17 26 -58 31v31zM162 750q36 0 60 -24t24 -60t-24 -60t-60 -24
q-35 0 -59.5 24.5t-24.5 59.5t24.5 59.5t59.5 24.5z" />
    <glyph glyph-name="k" unicode="k" horiz-adv-x="597" 
d="M232 244l109 104q18 17 29 30q19 23 19 36q0 21 -17 29t-40 8v31h264v-29q-54 -7 -109 -44q-39 -26 -92 -77l-12 -13l141 -203q29 -42 42 -54q22 -20 62 -31v-31h-278v31q14 0 26 7.5t12 21.5q0 9 -4 17.5t-21 32.5l-84 119l-47 -42v-91q0 -39 21 -54q16 -11 44 -11v-31
h-275v31q34 0 46 11q20 18 20 71v449q0 45 -13 65q-17 26 -58 31v31l215 61v-506z" />
    <glyph glyph-name="l" unicode="l" horiz-adv-x="301" 
d="M231 750v-654q0 -39 20 -54q15 -11 44 -11v-31h-275v31q34 0 47 11q20 17 20 71v449q0 45 -13 65q-17 26 -58 31v31z" />
    <glyph glyph-name="m" unicode="m" horiz-adv-x="924" 
d="M230 96q0 -39 20 -54q15 -11 44 -11v-31h-274v31q34 0 46 11q20 18 20 71v203q0 45 -13 65q-17 26 -58 31v31l215 61v-95q42 38 78 58q48 27 92 27q41 0 74 -23t56 -62q50 42 78 58q46 27 91 27q67 0 107 -48t40 -125v-225q0 -39 20 -54q15 -11 44 -11v-31h-274v31
q34 0 46 11q20 18 20 71v206q0 46 -20 68t-52 22q-23 0 -50 -16q-22 -13 -42 -34v-263q0 -39 20 -54q15 -11 44 -11v-31h-274v31q34 0 46 11q20 18 20 71v206q0 39 -12 61q-16 29 -52 29q-24 0 -53 -15.5t-47 -34.5v-263z" />
    <glyph glyph-name="n" unicode="n" horiz-adv-x="618" 
d="M226 96q0 -39 20 -54q15 -11 44 -11v-31h-274v31q34 0 46 11q20 18 20 71v203q0 45 -13 65q-17 26 -58 31v31l215 61v-92q57 41 80 54q50 28 92 28q63 0 106 -48q39 -44 39 -97v-253q0 -39 20 -54q15 -11 44 -11v-31h-274v31q34 0 46 11q20 18 20 71v168q0 72 -18.5 100
t-61.5 28q-26 0 -52 -16q-21 -13 -41 -37v-260z" />
    <glyph glyph-name="o" unicode="o" horiz-adv-x="569" 
d="M28 234q0 121 89 195q78 65 181 65q114 0 183 -78q61 -69 61 -161q0 -116 -71.5 -191.5t-186.5 -75.5q-106 0 -181 70t-75 176zM172 237q0 -79 20 -132q30 -78 95 -78q64 0 92 78q19 53 19 132q0 86 -16 136q-26 82 -93 82q-66 0 -96 -81q-21 -56 -21 -137z" />
    <glyph glyph-name="p" unicode="p" horiz-adv-x="612" 
d="M223 95q33 -33 54 -43t45 -10q63 0 92 80q21 57 21 133q0 68 -19 114q-27 65 -85 65q-31 0 -58.5 -16t-49.5 -43v-280zM223 -92q0 -39 20 -54q15 -11 44 -11v-31h-274v31q34 0 46 11q20 18 20 71v391q0 45 -13 65q-17 26 -58 31v31l215 61v-75q30 31 68.5 48t80.5 17
q98 0 155 -75q52 -68 52 -170q0 -124 -78 -199q-65 -62 -137 -62q-38 0 -71 13.5t-70 40.5v-134z" />
    <glyph glyph-name="q" unicode="q" horiz-adv-x="600" 
d="M385 394q-22 20 -42.5 30t-47.5 10q-45 0 -77 -41q-42 -54 -42 -165q0 -82 24 -127q28 -53 84 -53q27 0 54.5 11.5t46.5 30.5v304zM511 499l18 -13v-578q0 -39 20 -54q15 -11 44 -11v-31h-274v31q34 0 46 11q20 18 20 71v116q-40 -26 -66 -37q-37 -16 -75 -16
q-101 0 -162 74q-56 68 -56 172q0 131 82 203q65 57 142 57q45 0 80.5 -15.5t72.5 -46.5z" />
    <glyph glyph-name="r" unicode="r" horiz-adv-x="436" 
d="M232 96q0 -39 17.5 -52t53.5 -13v-31h-285v31q39 0 52 12q18 17 18 70v200q0 45 -13 65q-17 26 -58 31v31l215 61v-115q41 51 67 75q47 43 87 43q29 0 48.5 -23.5t19.5 -54.5q0 -26 -18 -46t-45 -20q-17 0 -47.5 12.5t-38.5 12.5q-15 0 -38.5 -24t-34.5 -42v-223z" />
    <glyph glyph-name="s" unicode="s" horiz-adv-x="502" 
d="M457 341l-39 -14q-43 53 -87 85q-58 43 -111 43q-29 0 -53 -17t-24 -45q0 -45 78 -63q7 -2 65 -11q112 -19 156 -62q38 -37 38 -96q0 -41 -15.5 -75.5t-44.5 -58.5q-49 -41 -126 -41q-23 0 -60 5q-6 1 -26.5 5.5t-32.5 4.5q-27 0 -48 -4t-44 -16l-50 173l36 11
q48 -61 95 -95q62 -45 124 -45q30 0 52 14q26 17 26 46q0 39 -40 61q-23 13 -75 24q-93 19 -137 45q-70 41 -70 117q0 69 50.5 115.5t119.5 46.5q20 0 47 -6q64 -14 73 -14q20 0 37.5 7.5t36.5 22.5z" />
    <glyph glyph-name="t" unicode="t" horiz-adv-x="332" 
d="M2 439v47q86 8 126 58q23 28 52 117h38v-175h139v-47h-141v-307q0 -33 13.5 -52.5t50.5 -19.5q19 0 38 10t39 26l23 -22q-28 -36 -75 -61t-92 -25q-72 0 -110 48q-31 39 -31 91v312h-70z" />
    <glyph glyph-name="u" unicode="u" horiz-adv-x="632" 
d="M401 69q-48 -39 -84 -57q-48 -24 -98 -24q-68 0 -102.5 41t-34.5 107v180q0 45 -13 65q-17 26 -58 31v31l215 61v-366q0 -29 19 -47t51 -18q27 0 57 17q18 10 48 36v190q0 45 -13 65q-17 26 -58 31v31l215 61v-379q0 -45 14.5 -67.5t57.5 -26.5v-31h-216v69z" />
    <glyph glyph-name="v" unicode="v" horiz-adv-x="504" 
d="M234 482v-31q-20 0 -33 -7t-13 -26q0 -9 2.5 -18t7.5 -21l98 -235l74 169q8 17 15 38.5t7 36.5q0 28 -18 44t-47 19v31h214v-31q-47 -19 -67 -41q-15 -17 -38 -69l-151 -348h-75l-164 378q-18 38 -30 51q-17 18 -53 29v31h271z" />
    <glyph glyph-name="w" unicode="w" horiz-adv-x="743" 
d="M219 482v-31q-15 0 -29.5 -9t-14.5 -23t8 -35q4 -11 9 -21l76 -197l79 180l-10 22q-12 31 -19 42q-20 32 -62 41v31h262v-31q-19 -2 -23 -3q-20 -6 -20 -29q0 -12 6 -29q6 -13 7 -17l78 -207l68 168l11 30t6 30q0 28 -16.5 42.5t-44.5 14.5v31h189v-31q-34 -9 -56 -42
q-13 -20 -32 -66l-142 -350h-66l-111 284l-121 -284h-64l-152 376q-15 38 -23 51q-17 26 -45 31v31h252z" />
    <glyph glyph-name="x" unicode="x" horiz-adv-x="526" 
d="M251 482v-31q-16 -2 -25.5 -7.5t-9.5 -18.5q0 -10 12.5 -27.5t16.5 -22.5l42 -55l39 40q16 16 23 25q14 18 14 31q0 16 -9 23.5t-42 11.5v31h213v-31q-39 -3 -64 -20q-16 -11 -49 -46l-94 -104l116 -149q28 -37 53 -59q31 -28 68 -42v-31h-284v31q16 2 27.5 7t11.5 18
q0 10 -5 19.5t-26 35.5l-55 67l-37 -39q-16 -16 -26 -30q-16 -22 -16 -36q0 -19 15.5 -30.5t35.5 -11.5v-31h-222v31q39 11 63 26t55 47l20 22l84 90l-127 161q-30 37 -38 45q-23 22 -51 29v31h271z" />
    <glyph glyph-name="y" unicode="y" horiz-adv-x="493" 
d="M226 482v-31q-19 -2 -31 -11t-12 -27q0 -13 6 -30q3 -9 12 -29l88 -187l75 163q8 18 14 33.5t6 29.5q0 24 -14.5 38t-52.5 20v31h209v-31q-45 -11 -71 -45q-12 -16 -39 -76l-150 -334q-40 -89 -72 -125q-52 -59 -128 -59q-34 0 -60 19t-26 52q0 27 20 46t48 19
q25 0 61 -35q16 -16 28 -16q22 0 50 42q21 31 32 62l-178 378q-18 40 -27 50q-19 22 -51 22v31h263z" />
    <glyph glyph-name="z" unicode="z" horiz-adv-x="443" 
d="M454 455l-292 -416h32q75 0 139 42q55 36 93 99l28 -12l-47 -168h-411l-11 31l288 412h-30q-67 0 -117 -33q-42 -27 -89 -88l-32 14l51 146h385z" />
    <glyph glyph-name="braceleft" unicode="{" horiz-adv-x="388" 
d="M265 12q0 -47 19.5 -74t69.5 -39q-16 -1 -34 -1h-27q-50 0 -82.5 7t-55 27t-28.5 48.5t-6 67.5v163q0 53 -15 75q-19 27 -75 38q44 9 64 29q26 26 26 79v185q0 39 8.5 65t36.5 42.5t56 21t73 4.5h59q-52 -14 -70.5 -40t-18.5 -75v-185q0 -56 -18 -82q-22 -31 -82 -42
q61 -12 83 -50q17 -30 17 -92v-172z" />
    <glyph glyph-name="bar" unicode="|" horiz-adv-x="280" 
d="M99 732h81v-732h-81v732z" />
    <glyph glyph-name="braceright" unicode="}" horiz-adv-x="388" 
d="M123 635q0 47 -18 72q-21 29 -71 41h30.5t30.5 1q51 0 83 -7t54.5 -27t28.5 -48.5t6 -67.5v-163q0 -53 16.5 -76t73.5 -34q-44 -9 -64 -30q-26 -27 -26 -81v-185q0 -39 -7 -60q-10 -31 -41 -49q-25 -15 -53 -19.5t-73 -4.5h-59q52 14 70.5 40t18.5 75v185q0 56 18 83
q22 33 82 44q-61 12 -83 49q-17 29 -17 90v172z" />
    <glyph glyph-name="asciitilde" unicode="~" horiz-adv-x="560" 
d="M529 308q-37 -52 -58 -71q-37 -33 -84 -33q-23 0 -45 6q-8 2 -43 15l-42 16l-40.5 14.5t-36.5 7.5q-29 0 -52 -24q-8 -8 -35 -49l-62 41q32 51 59 75q39 34 88 34q25 0 53 -8t60 -21l52.5 -19.5t43.5 -9.5q19 0 34 11.5t45 54.5z" />
    <glyph glyph-name="quotesinglbase" unicode="&#x201a;" horiz-adv-x="280" 
d="M38 -145q58 29 78 54t20 67q-36 0 -61 28t-25 65q0 42 28 68t70 26q47 0 73 -37q23 -33 23 -82q0 -76 -58 -139q-51 -56 -130 -85z" />
    <glyph glyph-name="quotedblbase" unicode="&#x201e;" horiz-adv-x="515" 
d="M38 -145q58 29 78 54t20 67q-36 0 -61 28t-25 65q0 42 28 68t70 26q47 0 73 -37q23 -33 23 -82q0 -76 -58 -139q-51 -56 -130 -85zM272 -145q58 29 78 54t20 67q-36 0 -61 28t-25 65q0 42 28 68t70 26q47 0 73 -37q23 -33 23 -82q0 -76 -58 -139q-51 -56 -130 -85z" />
    <glyph glyph-name="ellipsis" unicode="&#x2026;" horiz-adv-x="1000" 
d="M167 165q37 0 64 -27t27 -65t-26.5 -64.5t-64.5 -26.5q-39 0 -65.5 26.5t-26.5 64.5t27 65t65 27zM500 165q37 0 64 -27t27 -65t-26.5 -64.5t-64.5 -26.5q-39 0 -65.5 26.5t-26.5 64.5t27 65t65 27zM833 165q37 0 64 -27t27 -65t-26.5 -64.5t-64.5 -26.5
q-39 0 -65.5 26.5t-26.5 64.5t27 65t65 27z" />
    <glyph glyph-name="dagger" unicode="&#x2020;" horiz-adv-x="560" 
d="M300 -188h-41v260q0 129 -11 181q-7 34 -34 78q32 31 40 55.5t8 70.5q-26 0 -37.5 -2.5t-39.5 -18.5q-22 -11 -29 -14q-16 -7 -28 -7q-26 0 -45 18t-19 44t19 44t45 18q14 0 28 -6l29 -15q24 -14 39.5 -17.5t37.5 -3.5q0 27 -15 72q-33 99 -33 114q0 27 19 47t47 20
q27 0 46 -20t19 -47q0 -21 -24 -88t-24 -98q26 0 37.5 2.5t39.5 18.5q22 11 29 14q16 7 28 7q26 0 45 -18t19 -44t-19 -44t-45 -18q-14 0 -28 6l-29 15q-24 14 -39.5 17.5t-37.5 3.5q0 -49 7.5 -71t40.5 -55q-27 -44 -34 -77q-11 -52 -11 -182v-260z" />
    <glyph glyph-name="daggerdbl" unicode="&#x2021;" horiz-adv-x="560" 
d="M262 -188v38q0 91 -13 148q-9 41 -28 71q21 19 31.5 44t10.5 55q-24 3 -71 -16.5t-59 -19.5q-25 0 -42 17t-17 42q0 23 17 39t40 16q11 0 25 -5q7 -2 23 -10q37 -17 81 -17q0 51 -6 78q-9 38 -35 71q23 20 33.5 49.5t10.5 64.5q-24 3 -71 -16.5t-59 -19.5q-25 0 -42 17
t-17 42q0 23 17 39t40 16q11 0 25 -5q7 -2 23 -10q37 -17 81 -17q0 29 -5 51t-23 60q-8 16 -12 27t-4 25q0 26 19 45t45 19t45 -19t19 -45q0 -16 -4 -27q-8 -16 -12 -25q-16 -34 -22 -60.5t-6 -50.5q44 0 81 17q15 7 25.5 11t22.5 4q23 0 40 -16t17 -39q0 -25 -17 -42
t-42 -17q-7 0 -78 26q-34 13 -52 10q0 -34 10.5 -64t33.5 -50q-25 -31 -33 -65.5t-8 -83.5q44 0 81 17q15 7 25.5 11t22.5 4q23 0 40 -16t17 -39q0 -25 -17 -42t-42 -17q-7 0 -78 26q-34 13 -52 10q0 -61 42 -99q-19 -30 -28 -70q-13 -56 -13 -149v-38h-36z" />
    <glyph glyph-name="perthousand" unicode="&#x2030;" horiz-adv-x="1176" 
d="M549 732h76l-381 -732h-76zM432 177q0 75 47.5 133t122.5 58q62 0 108 -49q52 -55 52 -145q0 -70 -48 -124.5t-118 -54.5q-65 0 -113 49q-51 52 -51 133zM527 186q0 -61 10 -98q17 -64 61 -64q41 0 58 58q11 38 11 93q0 101 -21 138q-15 26 -46 26q-41 0 -60 -60
q-13 -41 -13 -93zM814 177q0 75 47.5 133t122.5 58q62 0 108 -49q52 -55 52 -145q0 -70 -48 -124.5t-118 -54.5q-65 0 -113 49q-51 52 -51 133zM909 186q0 -61 10 -98q17 -64 61 -64q41 0 58 58q11 38 11 93q0 101 -21 138q-15 26 -46 26q-41 0 -60 -60q-13 -41 -13 -93z
M31 545q0 75 47.5 133t122.5 58q62 0 108 -49q52 -55 52 -145q0 -70 -48 -124.5t-118 -54.5q-65 0 -113 49q-51 52 -51 133zM126 554q0 -61 10 -98q17 -64 61 -64q41 0 58 58q11 38 11 93q0 101 -21 138q-15 26 -46 26q-41 0 -60 -60q-13 -41 -13 -93z" />
    <glyph glyph-name="guilsinglleft" unicode="&#x2039;" horiz-adv-x="372" 
d="M328 443l-133 -190l133 -184l-15 -17l-269 201l269 208z" />
    <glyph glyph-name="quoteleft" unicode="&#x2018;" horiz-adv-x="280" 
d="M243 715q-58 -29 -78 -54t-20 -67q36 0 61 -28t25 -65q0 -42 -28 -68t-70 -26q-47 0 -71.5 35t-24.5 84q0 76 58 139q51 56 130 85z" />
    <glyph glyph-name="quoteright" unicode="&#x2019;" horiz-adv-x="280" 
d="M37 442q58 29 78 54t20 67q-36 0 -61 28t-25 65q0 42 28 68t70 26q47 0 73 -37q23 -33 23 -82q0 -76 -58 -139q-51 -56 -130 -85z" />
    <glyph glyph-name="quotedblleft" unicode="&#x201c;" horiz-adv-x="515" 
d="M477 715q-58 -29 -78 -54t-20 -67q36 0 61 -28t25 -65q0 -42 -28 -68t-70 -26q-47 0 -71.5 35t-24.5 84q0 76 58 139q51 56 130 85zM243 715q-58 -29 -78 -54t-20 -67q36 0 61 -28t25 -65q0 -42 -28 -68t-70 -26q-47 0 -71.5 35t-24.5 84q0 76 58 139q51 56 130 85z" />
    <glyph glyph-name="quotedblright" unicode="&#x201d;" horiz-adv-x="515" 
d="M38 442q58 29 78 54t20 67q-36 0 -61 28t-25 65q0 42 28 68t70 26q47 0 73 -37q23 -33 23 -82q0 -76 -58 -139q-51 -56 -130 -85zM272 442q58 29 78 54t20 67q-36 0 -61 28t-25 65q0 42 28 68t70 26q47 0 73 -37q23 -33 23 -82q0 -76 -58 -139q-51 -56 -130 -85z" />
    <glyph glyph-name="bullet" unicode="&#x2022;" horiz-adv-x="620" 
d="M310 183q-75 0 -129 54t-54 129t54 129t129 54t129 -54t54 -129t-54 -129t-129 -54z" />
    <glyph glyph-name="endash" unicode="&#x2013;" horiz-adv-x="500" 
d="M0 304h500v-95h-500v95z" />
    <glyph glyph-name="emdash" unicode="&#x2014;" horiz-adv-x="1000" 
d="M0 304h1000v-95h-1000v95z" />
    <glyph glyph-name="trademark" unicode="&#x2122;" horiz-adv-x="860" 
d="M349 732l25 -94l-17 -4q-21 30 -48 52q-34 27 -65 27v-265q0 -25 10.5 -34.5t36.5 -9.5v-15h-171v15q26 0 36.5 9.5t10.5 34.5v265q-34 -4 -64 -27q-26 -19 -47 -52l-18 4l24 94h287zM607 517l79 215h136v-15q-28 -2 -37.5 -10t-9.5 -34v-225q0 -25 10.5 -34.5t36.5 -9.5
v-15h-171v15q27 0 36.5 9.5t9.5 34.5v245l-108 -304h-18l-108 295h-1v-191q0 -57 7 -71t40 -18v-15h-121v15q32 6 40.5 20t8.5 69v180q0 25 -10.5 34.5t-35.5 9.5v15h139z" />
    <glyph glyph-name="guilsinglright" unicode="&#x203a;" horiz-adv-x="372" 
d="M328 253l-269 -201l-15 17l133 184l-133 190l15 18z" />
    <glyph glyph-name="uni00A0" unicode="&#xa0;" horiz-adv-x="500" 
 />
    <glyph glyph-name="sterling" unicode="&#xa3;" horiz-adv-x="476" 
d="M362 258q0 -146 -54 -208q-59 -68 -204 -68q-59 0 -102 24q-53 30 -53 84q0 35 22.5 58.5t57.5 23.5q38 0 58.5 -21.5t28.5 -73.5q3 -26 8 -36q9 -20 28 -20q33 0 42 66q4 30 4 64v34v422q0 54 -21 73t-85 19v33h368v-33q-58 -6 -73 -17q-25 -18 -25 -75v-349z" />
    <glyph glyph-name="uni2606" unicode="&#x2606;" horiz-adv-x="764" 
d="M744 402l-224 -163l85 -262l-223 162l-224 -162l86 262l-224 163h276l86 263l85 -263h277zM594 354h-162l-50 153l-50 -153h-163l132 -97l-50 -153l131 95l131 -95l-51 153z" />
    <glyph glyph-name="uni2618" unicode="&#x2618;" horiz-adv-x="899" 
d="M858 323q0 -19 -8.5 -56.5t-8.5 -57.5q0 -11 3 -32.5t3 -32.5q0 -43 -32 -67q-29 -21 -73 -21q-48 0 -109 39q-31 20 -96 73q-48 39 -61 39t-13 -14q0 5 3 -28q1 -20 1 -45q0 -37 -12 -110q-14 -76 -26 -105q-16 -34 -43 -34q-31 0 -31 22q0 -1 38 94q36 91 36 164
q0 55 -17 55q-14 0 -59 -40q-38 -34 -94 -64q-65 -35 -104 -35q-48 0 -80 26q-34 28 -34 75q0 22 8.5 64t8.5 64q0 9 -2.5 26.5t-2.5 26.5q0 97 100 97q48 0 114 -36l104 -66q-11 37 -78 126q-56 74 -56 134q0 57 34.5 94t90.5 37q22 0 65.5 -8.5t65.5 -8.5q15 0 43.5 7
t43.5 7q52 0 80 -44q24 -39 24 -94q0 -43 -65 -128l-94 -122l107 61q67 36 115 36q111 0 111 -118z" />
    <glyph glyph-name="uni2661" unicode="&#x2661;" horiz-adv-x="762" 
d="M713 594q0 -66 -43 -143q-27 -49 -87 -124q-82 -104 -119 -161q-60 -94 -83 -181q-24 87 -84 181q-36 57 -118 161q-60 75 -87 124q-43 77 -43 143q0 67 46.5 111.5t113.5 44.5q63 0 112 -46q46 -44 60 -107q14 63 60 107q49 46 111 46q68 0 114.5 -44.5t46.5 -111.5z
M673 594q0 51 -34.5 83.5t-86.5 32.5q-76 0 -117 -81q-5 -9 -15 -41q-12 -38 -39 -38t-39 38q-4 14 -15 41q-41 81 -118 81q-51 0 -85.5 -32.5t-34.5 -83.5q0 -58 41 -130q24 -42 80 -112q126 -160 171 -254q45 94 171 254q55 70 80 112q41 72 41 130z" />
    <glyph glyph-name="heart" unicode="&#x2665;" horiz-adv-x="762" 
d="M713 594q0 -66 -43 -143q-27 -49 -87 -124q-82 -104 -119 -161q-60 -94 -83 -181q-24 87 -84 181q-36 57 -118 161q-60 75 -87 124q-43 77 -43 143q0 67 46.5 111.5t113.5 44.5q63 0 112 -46q46 -44 60 -107q14 63 60 107q49 46 111 46q68 0 114.5 -44.5t46.5 -111.5z
" />
    <glyph glyph-name="infinity" unicode="&#x221e;" horiz-adv-x="1000" 
d="M943 216q0 -89 -51 -155q-56 -72 -142 -72q-65 0 -129 37q-58 35 -100 91l-30 40q-103 -168 -245 -168q-85 0 -140 73q-50 66 -50 154t51 154q56 72 142 72q64 0 128 -38q60 -35 101 -90l30 -40q105 168 245 168q85 0 140 -72q50 -66 50 -154zM917 216q0 73 -40 129
q-44 62 -114 62q-127 0 -227 -170l66 -84q40 -50 72 -78q40 -34 92 -34q67 0 110 55q41 52 41 120zM463 194l-65 84q-40 50 -73 78q-40 34 -92 34q-67 0 -110 -55q-41 -52 -41 -120q0 -72 40 -129q45 -62 114 -62q127 0 227 170z" />
    <glyph glyph-name="uni26AD" unicode="&#x26ad;" horiz-adv-x="784" 
d="M745 284q0 -90 -63 -153t-153 -63q-77 0 -137 48q-59 -48 -137 -48q-90 0 -153 63t-63 153q0 91 63 153.5t153 62.5q78 0 137 -48q60 48 137 48q90 0 153 -62.5t63 -153.5zM697 284q0 70 -49 119.5t-119 49.5q-58 0 -103 -35q46 -59 46 -134t-46 -134q45 -34 103 -34
q70 0 119 49t49 119zM424 284q0 55 -32 99q-32 -44 -32 -99t32 -99q32 44 32 99zM358 150q-45 59 -45 134t45 134q-45 35 -103 35q-70 0 -119 -49.5t-49 -119.5t49 -119t119 -49q58 0 103 34z" />
    <glyph glyph-name="logicalnot" unicode="&#xac;" horiz-adv-x="560" 
d="M422 300h-363v81h444v-269h-81v188z" />
    <glyph glyph-name="uni00AD" unicode="&#xad;" horiz-adv-x="526" 
d="M453 686v-88h-380v88h380z" />
    <glyph glyph-name="registered" unicode="&#xae;" horiz-adv-x="760" 
d="M758 366q0 -162 -112 -273t-270 -111q-154 0 -263.5 113.5t-109.5 270.5q0 159 108.5 271.5t265.5 112.5q159 0 270 -111t111 -273zM74 367q0 -134 88 -224t221 -90q122 0 213 92t91 222q0 135 -97 226q-92 86 -213 86q-116 0 -207 -89q-96 -93 -96 -223zM301 235
q0 -44 5 -50t39 -10v-21h-155v21q21 0 26 7t5 26v346q0 16 -8 21l-18 6v22h196q161 0 161 -110q0 -48 -40.5 -83.5t-91.5 -35.5q36 -8 65 -45q13 -17 40 -67l36 -66q12 -21 28 -21v-21h-35q-44 0 -61 14t-50 85l-28 63q-25 44 -93 44h-21v-125zM318 395q69 0 96 13
q42 20 42 81q0 50 -25 68.5t-77 18.5q-35 0 -44 -6t-9 -34v-141h17z" />
    <glyph glyph-name="macron" unicode="&#xaf;" horiz-adv-x="408" 
d="M122 607q0 52 -21 72t-76 20v33h358v-33q-54 0 -75.5 -19.5t-21.5 -72.5v-482q0 -52 21 -72t76 -20v-33h-358v33q54 0 75.5 19.5t21.5 72.5v482zM94 946q31 0 52.5 -21.5t21.5 -52.5q0 -30 -21.5 -51.5t-52.5 -21.5q-30 0 -51.5 21.5t-21.5 51.5t21 52t52 22zM314 946
q31 0 52.5 -21.5t21.5 -52.5q0 -30 -21.5 -51.5t-52.5 -21.5q-30 0 -51.5 21.5t-21.5 51.5t21 52t52 22z" />
    <glyph glyph-name="degree" unicode="&#xb0;" horiz-adv-x="515" 
d="M257 426q-63 0 -109 46t-46 109q0 62 46.5 108.5t108.5 46.5t108.5 -46.5t46.5 -108.5q0 -63 -46 -109t-109 -46zM257 484q41 0 69 27t28 70q0 41 -28 69t-70 28q-41 0 -68.5 -27.5t-27.5 -69.5t27.5 -69.5t69.5 -27.5z" />
    <glyph glyph-name="plusminus" unicode="&#xb1;" horiz-adv-x="560" 
d="M240 358v136h81v-136h181v-81h-181v-136h-81v136h-181v81h181zM59 81h443v-81h-443v81z" />
    <glyph glyph-name="uni00B2" unicode="&#xb2;" horiz-adv-x="408" 
d="M122 607q0 52 -21 72t-76 20v33h358v-33q-54 0 -75.5 -19.5t-21.5 -72.5v-482q0 -52 21 -72t76 -20v-33h-358v33q54 0 75.5 19.5t21.5 72.5v482z" />
    <glyph glyph-name="uni00B3" unicode="&#xb3;" horiz-adv-x="308" 
d="M20 0v31q34 0 46 11q20 18 20 71v203q0 45 -13 65q-17 26 -58 31v31l215 61v-408q0 -39 20 -54q15 -11 44 -11v-31h-274zM151 750q36 0 60 -24t24 -60t-24 -60t-60 -24q-35 0 -59.5 24.5t-24.5 59.5t24.5 59.5t59.5 24.5z" />
    <glyph glyph-name="mu" unicode="&#xb5;" horiz-adv-x="632" 
d="M401 69q-45 -37 -82 -56q-49 -25 -97 -25q11 -45 14 -61t3 -29q0 -41 -24 -70t-64 -29t-65.5 25.5t-25.5 66.5q0 39 12 82.5l24 87.5q-14 34 -14 75v180q0 45 -13 65q-17 26 -58 31v31l215 61v-366q0 -29 19 -47t51 -18q27 0 57 17q18 10 48 36v190q0 45 -13 65
q-17 26 -58 31v31l215 61v-379q0 -45 14.5 -67.5t57.5 -26.5v-31h-216v69z" />
    <glyph glyph-name="paragraph" unicode="&#xb6;" horiz-adv-x="620" 
d="M242 315h-26q-102 0 -166 48q-73 55 -73 155q0 92 61 151q65 63 174 63h431v-33q-54 0 -75.5 -19.5t-21.5 -72.5v-658q0 -52 21 -72t76 -20v-33h-498v33q54 0 75.5 19.5t21.5 72.5v366zM360 699v-842h68v842h-68zM242 699q-68 0 -97 -52q-24 -44 -24 -127q0 -70 21 -115
q27 -57 81 -57h19v351z" />
    <glyph glyph-name="periodcentered" unicode="&#xb7;" horiz-adv-x="329" 
d="M165 367q37 0 64 -27t27 -65t-26.5 -64.5t-64.5 -26.5q-39 0 -65.5 26.5t-26.5 64.5t27 65t65 27z" />
    <glyph glyph-name="periodcentered" unicode="&#x2219;" horiz-adv-x="329" 
d="M165 367q37 0 64 -27t27 -65t-26.5 -64.5t-64.5 -26.5q-39 0 -65.5 26.5t-26.5 64.5t27 65t65 27z" />
    <glyph glyph-name="cedilla" unicode="&#xb8;" horiz-adv-x="535" 
d="M158 696q31 0 52.5 -21.5t21.5 -52.5q0 -30 -21.5 -51.5t-52.5 -21.5q-30 0 -51.5 21.5t-21.5 51.5t21 52t52 22zM378 696q31 0 52.5 -21.5t21.5 -52.5q0 -30 -21.5 -51.5t-52.5 -21.5q-30 0 -51.5 21.5t-21.5 51.5t21 52t52 22zM175 243q0 -75 45 -132q50 -63 125 -63
q41 0 81 21q33 17 66 52l24 -21q-47 -56 -101.5 -84t-125.5 -28q-108 0 -181 64q-77 68 -77 175q0 102 65 181q71 86 185 86q103 0 167 -71t64 -180h-337zM384 286q0 81 -19 119q-23 46 -79 46q-58 0 -89 -58q-24 -45 -24 -107h211z" />
    <glyph glyph-name="uni00B9" unicode="&#xb9;" horiz-adv-x="395" 
d="M26 581q0 74 53.5 121.5t127.5 47.5q67 0 114.5 -42.5t47.5 -113.5q0 -78 -48 -126t-125 -48q-70 0 -120 46t-50 115zM124 582q0 -51 13 -85q19 -50 62 -50q42 0 60 52q12 35 12 87t-11 85q-17 52 -59 52q-43 0 -63 -52q-14 -37 -14 -89zM27 357h341v-57h-341v57z" />
    <glyph glyph-name="guillemotright" unicode="&#xbb;" horiz-adv-x="582" 
d="M328 253l-269 -201l-15 17l133 184l-133 190l15 18zM538 253l-269 -201l-15 17l133 184l-133 190l15 18z" />
    <glyph glyph-name="onequarter" unicode="&#xbc;" horiz-adv-x="269" 
d="M231 504v-497q0 -93 -58 -146q-53 -49 -129 -49q-33 0 -55.5 19.5t-22.5 51.5q0 26 18 45t45 19q28 0 45 -13l31 -30q4 0 7 4.5t3 8.5t-2.5 11.5t-3.5 9.5q-14 33 -18 51t-4 47v20v260q0 45 -13 65q-17 26 -58 31v31zM162 750q36 0 60 -24t24 -60t-24 -60t-60 -24
q-35 0 -59.5 24.5t-24.5 59.5t24.5 59.5t59.5 24.5z" />
    <glyph glyph-name="onehalf" unicode="&#xbd;" horiz-adv-x="612" 
d="M555 541l-38 -13q-43 70 -105 121q-76 62 -145 62q-54 0 -89.5 -28.5t-35.5 -80.5q0 -53 51 -85q26 -16 99 -39l59 -19q114 -37 168 -82q75 -62 75 -163q0 -100 -72 -166t-173 -66q-31 0 -61 5.5t-65 16.5l-25 7.5t-26 3.5q-15 0 -26.5 -4t-62.5 -28l-65 231l39 13
q54 -87 115 -139q79 -67 162 -67q57 0 101.5 36t44.5 92q0 54 -48 87q-27 19 -96 40q-96 31 -136 49q-78 35 -116 79q-48 55 -48 135q0 93 65 152t159 59q29 0 54 -4.5t56 -15.5l24 -8t18 -2q18 0 40 11.5t37 25.5z" />
    <glyph glyph-name="threequarters" unicode="&#xbe;" horiz-adv-x="502" 
d="M457 341l-39 -14q-43 53 -87 85q-58 43 -111 43q-29 0 -53 -17t-24 -45q0 -45 78 -63q7 -2 65 -11q112 -19 156 -62q38 -37 38 -96q0 -41 -15.5 -75.5t-44.5 -58.5q-49 -41 -126 -41q-23 0 -60 5q-6 1 -26.5 5.5t-32.5 4.5q-27 0 -48 -4t-44 -16l-50 173l36 11
q48 -61 95 -95q62 -45 124 -45q30 0 52 14q26 17 26 46q0 39 -40 61q-23 13 -75 24q-93 19 -137 45q-70 41 -70 117q0 69 50.5 115.5t119.5 46.5q20 0 47 -6q64 -14 73 -14q20 0 37.5 7.5t36.5 22.5z" />
    <glyph glyph-name="questiondown" unicode="&#xbf;" horiz-adv-x="308" 
d="M230 504v-408q0 -39 20 -54q15 -11 44 -11v-31h-274v31q34 0 46 11q20 18 20 71v203q0 45 -13 65q-17 26 -58 31v31zM44 696q31 0 52.5 -21.5t21.5 -52.5q0 -30 -21.5 -51.5t-52.5 -21.5q-30 0 -51.5 21.5t-21.5 51.5t21 52t52 22zM264 696q31 0 52.5 -21.5t21.5 -52.5
q0 -30 -21.5 -51.5t-52.5 -21.5q-30 0 -51.5 21.5t-21.5 51.5t21 52t52 22z" />
    <glyph glyph-name="Agrave" unicode="&#xc0;" horiz-adv-x="725" 
d="M620 159q22 -72 35 -90q26 -36 87 -36v-33h-351v33q46 0 62.5 10.5t16.5 34.5q0 15 -2 25t-10 33l-36 118h-255l-22 -63q-8 -22 -14 -44t-6 -40q0 -36 26.5 -55t63.5 -19v-33h-266v33q63 18 95 58q22 27 49 100l195 520l146 47zM306 622l-119 -321h219z" />
    <glyph glyph-name="Aacute" unicode="&#xc1;" horiz-adv-x="722" 
d="M286 607v-211h86q184 0 258 -57q64 -49 64 -146q0 -83 -70 -134q-81 -59 -239 -59h-360v33q54 0 75.5 19.5t21.5 72.5v482q0 52 -21 72t-76 20v33h587l57 -196l-34 -13q-48 74 -117 119q-78 51 -159 51q-54 0 -63.5 -10.5t-9.5 -75.5zM286 138q0 -59 10 -75
q15 -24 71 -24q73 0 113 38t40 118q0 87 -41.5 124.5t-133.5 37.5h-59v-219z" />
    <glyph glyph-name="Acircumflex" unicode="&#xc2;" horiz-adv-x="756" 
d="M19 0v33q54 0 75.5 19.5t21.5 72.5v482q0 52 -21 72t-76 20v33h363q177 0 251 -50q60 -40 60 -118q0 -70 -63 -116q-50 -37 -129 -53q104 -22 154 -58q71 -50 71 -142t-69 -143.5t-212 -51.5h-426zM280 157q0 -76 11 -94q18 -30 90 -30q78 0 122 40q49 45 49 137
q0 76 -38 112q-49 46 -176 46h-58v-211zM337 415q95 0 138.5 34.5t43.5 111.5q0 75 -40 106.5t-117 31.5q-30 0 -45 -4.5t-24.5 -14.5t-11 -21.5t-1.5 -32.5v-211h57z" />
    <glyph glyph-name="Atilde" unicode="&#xc3;" horiz-adv-x="637" 
d="M284 125q0 -53 21.5 -72.5t76.5 -19.5v-33h-359v33q54 0 75.5 19.5t21.5 72.5v482q0 52 -21 72t-76 20v33h594l57 -196l-34 -13q-48 74 -117 119q-78 51 -159 51q-54 0 -67 -15t-13 -68v-485z" />
    <glyph glyph-name="Adieresis" unicode="&#xc4;" horiz-adv-x="756" 
d="M198 257v350q0 54 -21 73t-85 19v33h641v-33q-54 0 -75.5 -19.5t-21.5 -72.5v-390q0 -125 21 -158q17 -26 76 -26l54 -196l-37 -10q-43 67 -99 114q-70 59 -135 59h-277q-66 0 -131 -56q-49 -42 -98 -117l-37 10l49 196q116 0 154 79q22 45 22 145zM349 694q-47 0 -62 -5
q-37 -12 -37 -82v-350q0 -96 -18 -145t-54 -72h197q73 0 85 22.5t12 154.5v390q0 65 -12 76t-85 11h-26z" />
    <glyph glyph-name="Aring" unicode="&#xc5;" horiz-adv-x="707" 
d="M22 33q54 0 75.5 19.5t21.5 72.5v482q0 52 -21 72t-76 20v33h603l63 -187l-31 -13q-54 70 -125 113q-79 48 -160 48q-62 0 -78 -24q-11 -16 -11 -80v-195h20q79 0 114 21q39 24 64 97h39v-289h-39q-20 73 -59 98.5t-117 25.5h-22v-211q0 -52 11 -70q16 -27 66 -27
q89 0 174 46q76 41 139 115l27 -14l-75 -186h-603v33z" />
    <glyph glyph-name="AE" unicode="&#xc6;" horiz-adv-x="1136" 
d="M386 0v33q56 0 76.5 19.5t20.5 72.5v163l-60 73l-136 -244q-13 -24 -16 -31.5t-3 -16.5q0 -17 14 -26.5t57 -9.5v-33h-365v33q59 10 86 32q20 17 53 73l206 349l-98 101q-53 56 -93 77t-110 34v33h308v-33q-34 0 -48 -4q-28 -8 -28 -34q0 -19 14.5 -41.5t54.5 -62.5
l164 -200v250q0 52 -21 72t-76 20v33h358v-33q-54 0 -75.5 -19.5t-21.5 -72.5v-250l164 200q39 39 54 62.5t15 41.5q0 25 -22.5 31.5t-53.5 6.5v33h308v-33q-70 -13 -110 -34t-93 -77l-98 -101l206 -349q32 -54 53 -72q28 -23 86 -33v-33h-365v33q42 0 56.5 9.5t14.5 26.5
q0 7 -3.5 16t-15.5 32l-136 244l-60 -73v-163q0 -52 21 -72t76 -20v-33h-358z" />
    <glyph glyph-name="Ccedilla" unicode="&#xc7;" horiz-adv-x="612" 
d="M584 201q0 -78 -59 -135q-81 -78 -252 -78q-90 0 -155 50q-46 36 -77 95q-11 25 -21 51l35 9q22 -55 43 -82q65 -82 176 -82q67 0 106.5 45t39.5 115q0 83 -41 129.5t-123 46.5q-38 0 -54.5 -0.5t-31.5 -2.5v51q8 0 38.5 -1.5t44.5 -1.5q72 0 112 41t40 108q0 69 -29 108
t-83 39q-78 0 -149 -83q-14 -17 -71 -94l-37 12l56 208q14 -16 30.5 -23t32.5 -7q15 0 81 19q35 10 58 10q145 0 213 -64q53 -50 53 -129q0 -70 -50 -116q-46 -42 -115 -50q75 0 127 -43q62 -51 62 -145z" />
    <glyph glyph-name="Egrave" unicode="&#xc8;" horiz-adv-x="830" 
d="M549 604q0 55 -21 75t-76 20v33h358v-33q-54 0 -75.5 -19.5t-21.5 -72.5v-482q0 -52 21 -72t76 -20v-33h-358v33q54 0 75.5 19.5t21.5 72.5v395l-268 -392q0 -55 21 -75t76 -20v-33h-358v33q54 0 75.5 19.5t21.5 72.5v482q0 52 -21 72t-76 20v33h358v-33
q-54 0 -75.5 -19.5t-21.5 -72.5v-395z" />
    <glyph glyph-name="Eacute" unicode="&#xc9;" horiz-adv-x="830" 
d="M250 963q34 -37 76 -58t89 -21q45 0 88.5 21.5t76.5 57.5l40 -24q-24 -65 -80 -107.5t-125 -42.5q-67 0 -124 42.5t-81 107.5zM549 604q0 55 -21 75t-76 20v33h358v-33q-54 0 -75.5 -19.5t-21.5 -72.5v-482q0 -52 21 -72t76 -20v-33h-358v33q54 0 75.5 19.5t21.5 72.5
v395l-268 -392q0 -55 21 -75t76 -20v-33h-358v33q54 0 75.5 19.5t21.5 72.5v482q0 52 -21 72t-76 20v33h358v-33q-54 0 -75.5 -19.5t-21.5 -72.5v-395z" />
    <glyph glyph-name="Ecircumflex" unicode="&#xca;" horiz-adv-x="759" 
d="M480 487l206 -349q32 -54 53 -72q28 -23 86 -33v-33h-365v33q42 0 56.5 9.5t14.5 26.5q0 7 -3.5 16t-15.5 32l-146 254l-80 -83v-163q0 -52 21 -72t77 -20v-33h-359v33q54 0 75.5 19.5t21.5 72.5v482q0 52 -21 72t-76 20v33h358v-33q-54 0 -75.5 -19.5t-21.5 -72.5v-250
l194 200q39 39 54 62.5t15 41.5q0 29 -40 35q-26 2 -36 3v33h308v-33q-70 -13 -110 -34t-93 -77z" />
    <glyph glyph-name="Edieresis" unicode="&#xcb;" horiz-adv-x="756" 
d="M349 699q-54 0 -73 -14q-26 -19 -26 -78v-349q0 -148 -33 -208q-37 -68 -133 -68q-54 0 -92 25q-43 29 -43 78q0 36 23.5 61.5t64.5 25.5q42 0 60 -22.5t18 -63.5q-1 -17 -1 -25q0 -14 5 -17.5t16 -3.5q26 0 42 42q21 55 21 175v350q0 54 -21 73t-85 19v33h641v-33
q-54 0 -75.5 -19.5t-21.5 -72.5v-482q0 -52 21 -72t76 -20v-33h-358v33q54 0 75.5 19.5t21.5 72.5v482q0 62 -15 77t-82 15h-26z" />
    <glyph glyph-name="Igrave" unicode="&#xcc;" horiz-adv-x="944" 
d="M829 125q0 -52 21 -72t76 -20v-33h-358v33q54 0 75.5 19.5t21.5 72.5v524l-227 -649h-36l-227 629l-2 -407q0 -122 15.5 -152t82.5 -37v-33h-253v33q68 13 85.5 42.5t17.5 146.5v385q0 54 -22 73t-75 19v33h293l160 -459l164 459h285v-33q-56 0 -76.5 -18t-20.5 -74v-482
z" />
    <glyph glyph-name="Iacute" unicode="&#xcd;" horiz-adv-x="830" 
d="M549 399v208q0 52 -21 72t-76 20v33h358v-33q-54 0 -75.5 -19.5t-21.5 -72.5v-482q0 -52 21 -72t76 -20v-33h-358v33q54 0 75.5 19.5t21.5 72.5v227h-268v-227q0 -52 21 -72t76 -20v-33h-358v33q54 0 75.5 19.5t21.5 72.5v482q0 52 -21 72t-76 20v33h358v-33
q-54 0 -75.5 -19.5t-21.5 -72.5v-208h268z" />
    <glyph glyph-name="Icircumflex" unicode="&#xce;" horiz-adv-x="813" 
d="M44 358q0 165 96 276q100 116 263 116q168 0 266.5 -104t98.5 -273q0 -160 -96 -271q-104 -120 -270 -120q-163 0 -260.5 104t-97.5 272zM218 367q0 -180 49 -267q45 -79 130 -79q84 0 132 59q39 48 54 135q11 62 11 151q0 183 -52 269q-46 76 -133 76q-90 0 -139 -81
q-52 -86 -52 -263z" />
    <glyph glyph-name="Idieresis" unicode="&#xcf;" horiz-adv-x="830" 
d="M810 732v-33q-54 0 -75.5 -19.5t-21.5 -72.5v-482q0 -52 21 -72t76 -20v-33h-358v33q54 0 75.5 19.5t21.5 72.5v482q0 62 -12.5 72.5t-84.5 10.5h-74q-73 0 -85 -10t-12 -73v-482q0 -52 21 -72t76 -20v-33h-358v33q54 0 75.5 19.5t21.5 72.5v482q0 52 -21 72t-76 20v33
h790z" />
    <glyph glyph-name="Eth" unicode="&#xd0;" horiz-adv-x="722" 
d="M285 336v-211q0 -52 21 -72t76 -20v-33h-358v33q54 0 75.5 19.5t21.5 72.5v482q0 52 -21 72t-76 20v33h360q157 0 238 -59q71 -52 71 -134q0 -95 -64 -145q-74 -58 -258 -58h-86zM285 375h59q92 0 133.5 37t41.5 125q0 80 -40 118t-113 38q-56 0 -71 -23q-10 -16 -10 -76
v-219z" />
    <glyph glyph-name="Ntilde" unicode="&#xd1;" horiz-adv-x="704" 
d="M686 525l-45 -14q-38 84 -94 136q-68 64 -147 64q-101 0 -150 -111q-36 -82 -36 -199q0 -169 74 -262q64 -80 158 -80q68 0 124 43q43 33 90 100l26 -19q-55 -97 -124 -146q-78 -55 -183 -55q-146 0 -242.5 105.5t-96.5 252.5q0 163 95 283q101 127 251 127
q24 0 45.5 -4.5t48 -13t31.5 -9.5q18 -5 31 -5q17 0 32 5.5t41 17.5l11 5z" />
    <glyph glyph-name="Ograve" unicode="&#xd2;" horiz-adv-x="598" 
d="M596 732l54 -200l-37 -10q-46 72 -94 113q-68 58 -139 58v-568q0 -54 20 -73t77 -19v-33h-358v33q56 0 76.5 19.5t20.5 72.5v568q-66 0 -132 -55q-51 -42 -99 -116l-37 10l49 200h599z" />
    <glyph glyph-name="Oacute" unicode="&#xd3;" horiz-adv-x="668" 
d="M324 189l-268 438q-25 38 -43 52t-57 20v33h346v-33q-35 0 -50 -9.5t-15 -27.5q0 -13 3.5 -21t12.5 -23l151 -266l104 232q8 21 12 34t4 28q0 30 -27 42q-15 7 -54 11v33h269v-33q-55 -6 -84 -25t-52 -67l-197 -418q-52 -110 -92 -154q-48 -53 -113 -53q-68 0 -103 26
t-35 82q0 34 26 58t61 24q79 0 79 -85q0 -4 -1 -13t-1 -12q0 -10 4 -15t17 -5q26 0 67 73q13 24 36 74z" />
    <glyph glyph-name="Ocircumflex" unicode="&#xd4;" horiz-adv-x="896" 
d="M367 627q0 39 -21.5 55.5t-75.5 16.5v33h358v-33q-54 0 -75.5 -16.5t-21.5 -54.5q139 -1 233 -69q101 -73 101 -192q0 -118 -100 -190q-94 -68 -234 -68v-4q0 -39 21.5 -55.5t75.5 -16.5v-33h-358v33q53 0 75 17t22 55v4q-138 0 -233 68q-101 73 -101 190q0 118 100 191
q95 69 234 69zM367 588q-57 0 -109 -63q-56 -68 -56 -159q0 -87 56 -155q52 -63 109 -63v440zM531 148q58 0 109 62q56 67 56 157t-56 158q-52 63 -109 63v-440z" />
    <glyph glyph-name="Otilde" unicode="&#xd5;" horiz-adv-x="679" 
d="M298 732v-33q-39 0 -50 -7.5t-11 -23.5q0 -10 5 -21q2 -3 12 -19l11 -18l95 -140l91 121q12 16 19 28q11 19 11 32q0 21 -14 33q-18 15 -59 15v33h263v-33q-48 0 -82 -22q-27 -18 -61 -63l-140 -186l190 -273q46 -66 59 -80q40 -42 86 -42v-33h-354v33q37 4 51.5 12
t14.5 24q0 12 -9 28q-4 7 -17 26l-121 176l-100 -128q-17 -23 -26 -37q-14 -24 -14 -43q0 -28 26 -43q20 -11 53 -15v-33h-271v33q53 10 93 43q29 24 70 78l140 187l-187 274q-31 43 -34 46q-30 33 -82 38v33h342z" />
    <glyph glyph-name="Odieresis" unicode="&#xd6;" horiz-adv-x="830" 
d="M20 0v33q54 0 75.5 19.5t21.5 72.5v482q0 52 -21 72t-76 20v33h357v-33q-53 0 -74.5 -19.5t-21.5 -72.5v-482q0 -61 14 -72t83 -11h74q69 0 83 11t14 72v482q0 53 -20.5 72.5t-76.5 19.5v33h358v-33q-54 0 -75.5 -19.5t-21.5 -72.5v-482q0 -52 21 -72t76 -20l54 -194
l-37 -10q-43 67 -98 113q-70 58 -135 58h-574z" />
    <glyph glyph-name="multiply" unicode="&#xd7;" horiz-adv-x="830" 
d="M549 399v208q0 52 -21 72t-76 20v33h358v-33q-54 0 -75.5 -19.5t-21.5 -72.5v-482q0 -52 21 -72t76 -20v-33h-358v33q54 0 75.5 19.5t21.5 72.5v227q-38 -22 -107 -39t-134 -17q-85 0 -133 30q-58 36 -58 113v168q0 55 -20.5 73.5t-76.5 18.5v33h358v-33
q-54 0 -75.5 -19.5t-21.5 -72.5v-168q0 -39 31.5 -57t82.5 -18q36 0 78 9.5t76 25.5z" />
    <glyph glyph-name="Oslash" unicode="&#xd8;" horiz-adv-x="1086" 
d="M461 125v482q0 55 -13 73.5t-59 18.5v33h308v-33q-45 0 -58.5 -18.5t-13.5 -73.5v-482q0 -62 11.5 -72.5t78.5 -10.5q68 0 79 10t11 73v482q0 55 -13 73.5t-59 18.5v33h333v-33q-54 0 -75.5 -19.5t-21.5 -72.5v-482q0 -52 21 -72t76 -20v-33h-1046v33q54 0 75.5 19.5
t21.5 72.5v482q0 52 -21 72t-76 20v33h333v-33q-45 0 -58.5 -18.5t-13.5 -73.5v-482q0 -62 11.5 -72.5t78.5 -10.5q68 0 79 10t11 73z" />
    <glyph glyph-name="Ugrave" unicode="&#xd9;" horiz-adv-x="1086" 
d="M20 0v33q54 0 75.5 19.5t21.5 72.5v482q0 52 -21 72t-76 20v33h333v-33q-45 0 -58.5 -18.5t-13.5 -73.5v-482q0 -62 11.5 -72.5t78.5 -10.5q68 0 79 10t11 73v482q0 55 -13 73.5t-59 18.5v33h308v-33q-45 0 -58.5 -18.5t-13.5 -73.5v-482q0 -62 11.5 -72.5t78.5 -10.5
q68 0 79 10t11 73v482q0 55 -13 73.5t-59 18.5v33h333v-33q-54 0 -75.5 -19.5t-21.5 -72.5v-482q0 -52 21 -72t76 -20l54 -194l-37 -10q-43 67 -98 113q-70 58 -135 58h-830z" />
    <glyph glyph-name="Uacute" unicode="&#xda;" horiz-adv-x="830" 
d="M501 732v-33q-54 0 -75.5 -19.5t-21.5 -72.5v-211h86q184 0 258 -57q64 -49 64 -146q0 -83 -70 -134q-81 -59 -239 -59h-360v33q54 0 75.5 19.5t21.5 72.5v482q0 56 -16 74q-11 12 -40 12q-38 0 -81 -33q-53 -41 -116 -138l-37 10l49 200h502zM404 138q0 -59 10 -75
q15 -24 71 -24q73 0 113 38t40 118q0 87 -41.5 124.5t-133.5 37.5h-59v-219z" />
    <glyph glyph-name="Ucircumflex" unicode="&#xdb;" horiz-adv-x="1086" 
d="M371 396q184 0 258 -57q64 -49 64 -146q0 -83 -70 -134q-81 -59 -239 -59h-360v33q54 0 75.5 19.5t21.5 72.5v482q0 52 -21 72t-76 20v33h358v-33q-54 0 -75.5 -19.5t-21.5 -72.5v-211h86zM800 607q0 52 -21 72t-76 20v33h358v-33q-54 0 -75.5 -19.5t-21.5 -72.5v-482
q0 -52 21 -72t76 -20v-33h-358v33q54 0 75.5 19.5t21.5 72.5v482zM285 138q0 -59 10 -75q15 -24 71 -24q73 0 113 38t40 118q0 87 -41.5 124.5t-133.5 37.5h-59v-219z" />
    <glyph glyph-name="Udieresis" unicode="&#xdc;" horiz-adv-x="722" 
d="M372 396q184 0 258 -57q64 -49 64 -146q0 -83 -70 -134q-81 -59 -239 -59h-360v33q54 0 75.5 19.5t21.5 72.5v482q0 52 -21 72t-76 20v33h358v-33q-54 0 -75.5 -19.5t-21.5 -72.5v-211h86zM286 138q0 -59 10 -75q15 -24 71 -24q73 0 113 38t40 118q0 87 -41.5 124.5
t-133.5 37.5h-59v-219z" />
    <glyph glyph-name="Yacute" unicode="&#xdd;" horiz-adv-x="704" 
d="M492 399q0 120 -36 202q-48 110 -150 110q-79 0 -147 -64q-56 -52 -94 -136l-45 14l60 221l11 -5q28 -13 35 -16q19 -7 38 -7q13 0 31 5q5 1 32.5 10t47.5 13t45 4q150 0 251 -127q95 -120 95 -283q0 -147 -96.5 -252.5t-242.5 -105.5q-104 0 -182 55q-71 50 -125 146
l26 19q47 -67 89 -99q57 -44 125 -44q90 0 154 68q76 81 76 225h-312v47h314z" />
    <glyph glyph-name="Thorn" unicode="&#xde;" horiz-adv-x="1086" 
d="M383 352h-102v-227q0 -52 21 -72t76 -20v-33h-358v33q54 0 75.5 19.5t21.5 72.5v482q0 52 -21 72t-76 20v33h358v-33q-54 0 -75.5 -19.5t-21.5 -72.5v-208h103q0 152 85 249q90 102 243 102q164 0 252 -105q83 -99 83 -272q0 -185 -81 -285q-86 -106 -255 -106
q-158 0 -245 104q-83 99 -83 266zM557 367q0 -185 36.5 -265.5t112.5 -80.5q83 0 123 76q44 84 44 269q0 181 -39.5 263t-115.5 82q-81 0 -121 -80.5t-40 -263.5z" />
    <glyph glyph-name="germandbls" unicode="&#xdf;" horiz-adv-x="722" 
d="M144 277q14 26 39 52t51 37q-85 16 -137 55q-65 49 -65 125q0 81 64.5 133.5t174.5 52.5h430v-33q-54 0 -75.5 -19.5t-21.5 -72.5v-482q0 -52 21 -72t76 -20v-33h-358v33q54 0 75.5 19.5t21.5 72.5v224q-56 0 -81.5 -22t-69.5 -118l-59 -125q-14 -28 -20 -42
q-13 -26 -23 -42h-237v33q52 0 83 42l51 94zM440 396v215q0 49 -9 62q-14 20 -60 20q-84 0 -124.5 -31t-40.5 -106q0 -83 47 -121.5t168 -38.5h19z" />
    <glyph glyph-name="agrave" unicode="&#xe0;" horiz-adv-x="534" 
d="M476 116q0 -29 3 -37q7 -19 31 -19q9 0 25 6l7 -18q-19 -27 -49 -43.5t-62 -16.5q-31 0 -57 16t-42 44q-77 -60 -169 -60q-65 0 -104 30q-43 33 -43 96q0 64 58 109q46 36 128 59q49 14 130 27v27v19q0 47 -10 70q-15 36 -56 36q-32 0 -50 -23q-11 -14 -23.5 -48.5
t-27.5 -51.5q-20 -23 -48 -23q-24 0 -43.5 16.5t-19.5 41.5q0 45 50 79q63 42 179 42q42 0 81.5 -8t65.5 -29q31 -25 40 -60q6 -22 6 -68v-213zM332 265q-71 -8 -113 -36q-53 -36 -53 -101q0 -36 17.5 -58t52.5 -22q26 0 51 15.5t45 39.5v162z" />
    <glyph glyph-name="aacute" unicode="&#xe1;" horiz-adv-x="569" 
d="M304 496q104 0 173 -70t69 -173q0 -123 -77 -196q-72 -69 -180 -69q-118 0 -185 79q-74 87 -74 257q0 158 65 256q79 119 237 119q109 0 125.5 3.5t27.5 29.5h35q0 -58 -27 -90q-49 -59 -183 -59q-102 0 -157 -38q-72 -50 -72 -165q41 57 85 83q56 33 138 33zM287 27
q67 0 97 79q20 53 20 133q0 81 -18 135q-27 82 -91 82q-68 0 -99 -83q-22 -58 -22 -134q0 -77 23 -135q30 -77 90 -77z" />
    <glyph glyph-name="acircumflex" unicode="&#xe2;" horiz-adv-x="569" 
d="M16 0v31q33 0 45 9q21 15 21 65v272q0 50 -20 65q-12 9 -46 9v31h279q111 0 162 -22q61 -26 61 -89q0 -54 -45 -84q-41 -27 -103 -27q81 -8 117 -27q60 -31 60 -105q0 -62 -43 -93q-48 -35 -153 -35h-335zM226 85q0 -40 7.5 -46.5t45.5 -6.5q61 0 88.5 24.5t27.5 81.5
q0 54 -27.5 77t-90.5 23h-51v-153zM266 276q58 0 79 23t21 70q0 49 -28 68q-22 15 -70 15q-28 0 -35 -8t-7 -40v-128h40z" />
    <glyph glyph-name="atilde" unicode="&#xe3;" horiz-adv-x="443" 
d="M226 105q0 -56 7 -65t59 -9v-31h-276v31q46 0 56 7t10 41v26v269v23q0 37 -9.5 45.5t-56.5 8.5v31h418l57 -196l-34 -13l-80 123q-46 55 -106 55q-32 0 -38.5 -6.5t-6.5 -43.5v-296z" />
    <glyph glyph-name="adieresis" unicode="&#xe4;" horiz-adv-x="569" 
d="M145 171v206q0 49 -19 64q-13 10 -47 10v31h470v-31q-34 0 -46 -9q-20 -15 -20 -65v-272q0 -50 20 -64q13 -9 47 -9l54 -200l-37 -10q-68 106 -76 116q-50 61 -107 61h-194q-63 0 -122 -85l-59 -92l-37 10l49 200q60 0 90 30q34 35 34 109zM296 43q12 -1 17 -1
q17 0 21.5 16t4.5 47v304q0 21 -7 26.5t-41 5.5h-55q-29 0 -37.5 -9.5t-8.5 -54.5v-207q0 -57 -15 -87.5t-37 -39.5h158z" />
    <glyph glyph-name="aring" unicode="&#xe5;" horiz-adv-x="535" 
d="M175 243q0 -75 45 -132q50 -63 125 -63q41 0 81 21q33 17 66 52l24 -21q-47 -56 -101.5 -84t-125.5 -28q-108 0 -181 64q-77 68 -77 175q0 102 65 181q71 86 185 86q103 0 167 -71t64 -180h-337zM384 286q0 81 -19 119q-23 46 -79 46q-58 0 -89 -58q-24 -45 -24 -107h211
z" />
    <glyph glyph-name="ae" unicode="&#xe6;" horiz-adv-x="830" 
d="M276 0v31q32 0 44 9q21 16 21 65v82l-37 40l-74 -117q-13 -19 -19 -31t-6 -19q0 -14 11.5 -21.5t26.5 -7.5v-31h-278v31q38 10 61 31q15 14 43 54l141 203l-13 17q-75 98 -201 115v31h248v-31q-22 0 -31.5 -5.5t-9.5 -27.5q0 -13 16 -35q13 -18 27 -31l95 -108v133
q0 49 -21 65q-12 9 -45 9v31h278v-31q-33 0 -45 -9q-21 -15 -21 -65v-133l95 108q13 12 26 30q17 24 17 36q0 21 -9.5 27t-31.5 6v31h248v-31q-61 -8 -113 -38t-88 -77l-13 -17l141 -203q29 -42 42 -54q22 -20 62 -31v-31h-278v31q14 0 26 7.5t12 21.5q0 11 -12 29.5
t-13 20.5l-74 117l-37 -40v-82q0 -50 20 -65q12 -9 45 -9v-31h-276z" />
    <glyph glyph-name="ccedilla" unicode="&#xe7;" horiz-adv-x="493" 
d="M452 366q0 -50 -32 -76t-91 -32q64 -1 103 -31.5t39 -88.5q0 -66 -62.5 -108t-150.5 -42q-72 0 -135 36.5t-108 99.5l25 19q48 -61 95 -86q39 -21 82 -21q51 0 76.5 24.5t25.5 77.5q0 42 -21 66q-26 30 -82 30h-66l-1 42h66q59 0 80.5 21.5t21.5 68.5q0 39 -25 61t-66 22
q-55 0 -98 -41q-21 -20 -62 -81l-39 14l49 163q15 -13 35.5 -21.5t38.5 -8.5q1 0 63 11q34 6 53 6q81 0 133.5 -31.5t52.5 -93.5z" />
    <glyph glyph-name="egrave" unicode="&#xe8;" horiz-adv-x="618" 
d="M292 31v-31h-276v31q34 0 46 9q20 15 20 65v272q0 50 -19 65q-12 9 -47 9v31h276v-31q-35 0 -47 -9q-19 -15 -19 -65v-204l173 204q0 39 -11 56.5t-55 17.5v31h276v-31q-34 0 -46 -9q-20 -15 -20 -65v-272q0 -50 19 -65q11 -9 47 -9v-31h-276v31q34 0 46 9q20 15 20 65
v204l-173 -204q0 -49 21 -65q12 -9 45 -9z" />
    <glyph glyph-name="eacute" unicode="&#xe9;" horiz-adv-x="618" 
d="M145 711q34 -37 76 -58t89 -21q45 0 88.5 21.5t76.5 57.5l40 -24q-24 -65 -80 -107.5t-125 -42.5q-67 0 -124 42.5t-81 107.5zM292 31v-31h-276v31q34 0 46 9q20 15 20 65v272q0 50 -19 65q-12 9 -47 9v31h276v-31q-35 0 -47 -9q-19 -15 -19 -65v-204l173 204
q0 39 -11 56.5t-55 17.5v31h276v-31q-34 0 -46 -9q-20 -15 -20 -65v-272q0 -50 19 -65q11 -9 47 -9v-31h-276v31q34 0 46 9q20 15 20 65v204l-173 -204q0 -49 21 -65q12 -9 45 -9z" />
    <glyph glyph-name="ecircumflex" unicode="&#xea;" horiz-adv-x="597" 
d="M226 244l110 108q19 17 29 30q19 23 19 36q0 21 -13.5 27t-37.5 6v31h258v-31q-61 -8 -113 -38t-88 -77l-13 -17l141 -203q29 -42 42 -54q22 -20 62 -31v-31h-278v31q14 0 26 7.5t12 21.5q0 9 -4 17.5t-21 32.5l-84 119l-47 -42v-82q0 -50 20 -65q12 -9 45 -9v-31h-275
v31q34 0 46 9q20 15 20 65v272q0 50 -19 65q-12 9 -47 9v30l276 1v-31q-33 0 -45 -9q-21 -15 -21 -65v-133z" />
    <glyph glyph-name="edieresis" unicode="&#xeb;" horiz-adv-x="569" 
d="M236 439q-29 0 -37.5 -8.5t-8.5 -53.5v-207q0 -103 -37 -148q-31 -38 -90 -38q-60 0 -87 33q-19 24 -19 62q0 31 21.5 51.5t56.5 20.5q38 0 52 -21t14 -62q0 -15 1.5 -20t9.5 -5q11 0 21.5 32t10.5 96l1 206q0 49 -19 64q-13 10 -47 10v31h470v-31q-34 0 -46 -9
q-20 -15 -20 -65v-272q0 -49 21 -65q12 -9 45 -9v-31h-276v31q33 0 45 9q21 15 21 65v304q0 22 -6 26t-42 4h-55z" />
    <glyph glyph-name="igrave" unicode="&#xec;" horiz-adv-x="759" 
d="M674 105q0 -50 20 -65q12 -9 46 -9v-31h-276v31q34 0 46 9q20 15 20 65v309l-174 -414h-52l-174 414l-2 -268q0 -81 8 -95t58 -20v-31h-178v31q50 5 58 19.5t8 95.5v231q0 50 -20 65q-12 9 -46 9v31h238l125 -302l130 302h231v-31q-36 0 -47 -6q-19 -10 -19 -45v-295z
" />
    <glyph glyph-name="iacute" unicode="&#xed;" horiz-adv-x="618" 
d="M226 105q0 -50 21 -65q12 -9 45 -9v-31h-276v31q34 0 46 9q20 15 20 65v272q0 50 -19 65q-12 9 -47 9v31h276v-31q-35 0 -47 -9q-19 -15 -19 -65v-107h173v107q0 50 -19 65q-12 9 -47 9v31h276v-31q-34 0 -46 -9q-20 -15 -20 -65v-272q0 -50 19 -65q11 -9 47 -9v-31h-276
v31q34 0 46 9q20 15 20 65v122h-173v-122z" />
    <glyph glyph-name="icircumflex" unicode="&#xee;" horiz-adv-x="569" 
d="M28 234q0 121 89 195q78 65 181 65q114 0 183 -78q61 -69 61 -161q0 -116 -71.5 -191.5t-186.5 -75.5q-106 0 -181 70t-75 176zM172 237q0 -79 20 -132q30 -78 95 -78q64 0 92 78q19 53 19 132q0 86 -16 136q-26 82 -93 82q-66 0 -96 -81q-21 -56 -21 -137z" />
    <glyph glyph-name="idieresis" unicode="&#xef;" horiz-adv-x="618" 
d="M226 105q0 -50 21 -65q12 -9 45 -9v-31h-276v31q34 0 46 9q20 15 20 65v272q0 50 -19 65q-12 9 -47 9v31h593v-31q-34 0 -46 -9q-20 -15 -20 -65v-272q0 -50 19 -65q11 -9 47 -9v-31h-276v31q34 0 46 9q20 15 20 65v301q0 33 -32 33h-107q-6 -1 -10 -2q-24 -8 -24 -31
v-301z" />
    <glyph glyph-name="eth" unicode="&#xf0;" horiz-adv-x="612" 
d="M223 -92q0 -39 20 -54q15 -11 44 -11v-31h-274v31q34 0 46 11q20 18 20 71v391q0 45 -13 65q-17 26 -58 31v31l215 61v-75q30 31 68.5 48t80.5 17q98 0 155 -75q52 -68 52 -170q0 -124 -78 -199q-65 -62 -137 -62q-38 0 -71 13.5t-70 40.5v-134zM223 95q33 -33 54 -43
t45 -10q63 0 92 80q21 57 21 133q0 68 -19 114q-27 65 -85 65q-31 0 -58.5 -16t-49.5 -43v-280z" />
    <glyph glyph-name="ntilde" unicode="&#xf1;" horiz-adv-x="515" 
d="M507 124q-42 -63 -105 -99.5t-138 -36.5q-98 0 -165 69t-67 169q0 113 79.5 190.5t193.5 77.5q65 0 117 -24q69 -32 69 -89q0 -30 -22 -49t-52 -19q-37 0 -52 23q-9 14 -17 50t-22 51q-17 18 -46 18q-53 0 -79 -64q-19 -48 -19 -110q0 -91 31 -153q40 -80 122 -80
q43 0 83 30q27 20 64 65z" />
    <glyph glyph-name="ograve" unicode="&#xf2;" horiz-adv-x="493" 
d="M486 482l54 -200l-37 -10q-68 106 -76 116q-50 61 -107 61v-344q0 -50 20 -65q12 -9 46 -9v-31h-276v31q35 0 46 8q20 15 20 66v344q-63 0 -122 -85l-59 -92l-37 10l49 200h479z" />
    <glyph glyph-name="oacute" unicode="&#xf3;" horiz-adv-x="493" 
d="M226 482v-31q-19 -2 -31 -11t-12 -27q0 -13 6 -30q3 -9 12 -29l88 -187l75 163q8 18 14 33.5t6 29.5q0 24 -14.5 38t-52.5 20v31h209v-31q-45 -11 -71 -45q-12 -16 -39 -76l-150 -334q-40 -89 -72 -125q-52 -59 -128 -59q-34 0 -60 19t-26 52q0 27 20 46t48 19
q25 0 61 -35q16 -16 28 -16q22 0 50 42q21 31 32 62l-178 378q-18 40 -27 50q-19 22 -51 22v31h263z" />
    <glyph glyph-name="ocircumflex" unicode="&#xf4;" horiz-adv-x="813" 
d="M335 429v87q0 45 -13 65q-17 26 -58 31v31l215 61v-275q32 34 58 48q31 17 71 17q96 0 145 -75q42 -65 42 -170q0 -126 -68 -199q-57 -62 -127 -62q-36 0 -64 15q-9 5 -57 39v-134q0 -39 20 -54q15 -11 44 -11v-31h-274v31q34 0 46 11q20 18 20 71v117l-42 -30
q-38 -24 -79 -24q-70 0 -126 61q-69 75 -69 200q0 107 41 170q49 75 146 75q40 0 71 -17q26 -14 58 -48zM479 95q7 -16 31 -34.5t48 -18.5q61 0 82 80q11 42 11 133q0 74 -12 114q-20 65 -72 65q-30 0 -58 -22q-23 -18 -30 -37v-280zM335 375q-6 17 -30 36q-29 23 -58 23
q-51 0 -71 -64q-13 -42 -13 -115q0 -91 11 -133q21 -80 82 -80q26 0 48.5 17.5t30.5 35.5v280z" />
    <glyph glyph-name="otilde" unicode="&#xf5;" horiz-adv-x="526" 
d="M251 482v-31q-16 -2 -25.5 -7.5t-9.5 -18.5q0 -10 12.5 -27.5t16.5 -22.5l42 -55l39 40q16 16 23 25q14 18 14 31q0 16 -9 23.5t-42 11.5v31h213v-31q-39 -3 -64 -20q-16 -11 -49 -46l-94 -104l116 -149q28 -37 53 -59q31 -28 68 -42v-31h-284v31q16 2 27.5 7t11.5 18
q0 10 -5 19.5t-26 35.5l-55 67l-37 -39q-16 -16 -26 -30q-16 -22 -16 -36q0 -19 15.5 -30.5t35.5 -11.5v-31h-222v31q39 11 63 26t55 47l20 22l84 90l-127 161q-30 37 -38 45q-23 22 -51 29v31h271z" />
    <glyph glyph-name="odieresis" unicode="&#xf6;" horiz-adv-x="618" 
d="M16 0v31q34 0 46 9q20 15 20 65v272q0 50 -20 65q-12 9 -46 9v31h276v-31q-31 0 -44 -9q-22 -16 -22 -65v-301q0 -19 17 -28q5 -2 17 -5h107q32 0 32 33v301q0 50 -20 65q-12 9 -46 9v31h276v-31q-35 0 -47 -9q-19 -15 -19 -65v-272q0 -50 20 -65q12 -9 46 -9l54 -194
l-37 -10q-64 100 -78 114q-58 58 -155 58z" />
    <glyph glyph-name="divide" unicode="&#xf7;" horiz-adv-x="618" 
d="M399 377q0 50 -20 65q-12 9 -46 9v31h276v-31q-34 0 -46 -9q-20 -15 -20 -65v-272q0 -50 20 -65q12 -9 46 -9v-31h-276v31q34 0 46 9q20 15 20 65v122q-41 -25 -83 -38.5t-89 -13.5q-62 0 -103.5 32t-41.5 88v83q0 48 -20 63q-13 10 -46 10v31h276v-31q-34 0 -46 -9
q-20 -15 -20 -65v-80q0 -22 20 -41.5t55 -19.5q36 0 80 28q7 4 18 13v100z" />
    <glyph glyph-name="oslash" unicode="&#xf8;" horiz-adv-x="924" 
d="M356 43q17 0 24.5 8.5t7.5 24.5v301q0 50 -20 65q-12 9 -46 9v31h276v-31q-35 0 -47 -9q-19 -15 -19 -65v-302q0 -21 10 -28q6 -4 25 -4h95q32 0 32 33v301q0 50 -20 65q-12 9 -46 9v31h276v-31q-35 0 -47 -9q-19 -15 -19 -65v-272q0 -50 20 -65q12 -9 46 -9v-31h-888v31
q34 0 46 9q20 15 20 65v272q0 50 -20 65q-12 9 -46 9v31h276v-31q-31 0 -44 -9q-22 -16 -22 -65v-301q0 -19 17 -28q5 -2 17 -5h96z" />
    <glyph glyph-name="ugrave" unicode="&#xf9;" horiz-adv-x="924" 
d="M16 0v31q34 0 46 9q20 15 20 65v272q0 50 -20 65q-12 9 -46 9v31h276v-31q-31 0 -44 -9q-22 -16 -22 -65v-301q0 -19 17 -28q5 -2 17 -5h96q17 0 24.5 8.5t7.5 24.5v301q0 50 -20 65q-12 9 -46 9v31h276v-31q-35 0 -47 -9q-19 -15 -19 -65v-302q0 -21 10 -28q6 -4 25 -4
h95q32 0 32 33v301q0 50 -20 65q-12 9 -46 9v31h276v-31q-35 0 -47 -9q-19 -15 -19 -65v-272q0 -50 20 -65q12 -9 46 -9l54 -194l-37 -10q-64 100 -78 114q-58 58 -155 58z" />
    <glyph glyph-name="uacute" unicode="&#xfa;" horiz-adv-x="637" 
d="M383 482v-31q-34 0 -46 -9q-20 -15 -20 -64v-102h94q96 0 145 -27q62 -34 62 -115q0 -54 -47 -91q-55 -43 -155 -43h-309v31q34 0 46 9q20 15 20 64v274q0 24 -3 44.5t-21 20.5q-37 0 -85 -54q-41 -46 -78 -117l-37 10l49 200h385zM317 96q0 -31 2 -45.5t20 -14.5
q66 0 94 17q37 22 37 81q0 63 -37 86q-28 17 -94 17h-22v-141z" />
    <glyph glyph-name="ucircumflex" unicode="&#xfb;" horiz-adv-x="830" 
d="M320 276q96 0 145 -27q62 -34 62 -115q0 -54 -47 -91q-55 -43 -155 -43h-309v31q34 0 46 9q20 15 20 64v274q0 49 -20 64q-12 9 -46 9v31h276v-31q-34 0 -46 -9q-20 -15 -20 -64v-102h94zM743 105q0 -47 16 -63q11 -11 37 -11h13v-31h-276v31q34 0 46 9q20 15 20 65v272
q0 50 -19 65q-12 9 -47 9v31h276v-31q-35 0 -47 -9q-19 -15 -19 -65v-272zM226 96q0 -31 2 -45.5t20 -14.5q66 0 94 17q37 22 37 81q0 63 -37 86q-28 17 -94 17h-22v-141z" />
    <glyph glyph-name="udieresis" unicode="&#xfc;" horiz-adv-x="535" 
d="M320 276q96 0 145 -27q62 -34 62 -115q0 -54 -47 -91q-55 -43 -155 -43h-309v31q34 0 46 9q20 15 20 64v274q0 49 -20 64q-12 9 -46 9v31h276v-31q-34 0 -46 -9q-20 -15 -20 -64v-102h94zM226 96q0 -31 2 -45.5t20 -14.5q66 0 94 17q37 22 37 81q0 63 -37 86
q-28 17 -94 17h-22v-141z" />
    <glyph glyph-name="yacute" unicode="&#xfd;" horiz-adv-x="515" 
d="M340 270q0 72 -18 120q-23 62 -71 62q-45 0 -86 -24q-51 -30 -99 -101l-39 14l49 163q15 -13 35.5 -21.5t38.5 -8.5l58 11.5t58 5.5q92 0 158 -80.5t66 -184.5q0 -100 -67 -169t-165 -69q-74 0 -137.5 36t-105.5 100l25 19q38 -46 63 -65q39 -30 84 -30q68 0 108 57
q32 46 42 122h-213v43h216z" />
    <glyph glyph-name="thorn" unicode="&#xfe;" horiz-adv-x="830" 
d="M316 227h-90v-122q0 -50 21 -65q12 -9 45 -9v-31h-276v31q34 0 46 9q20 15 20 65v272q0 50 -19 65q-12 9 -47 9v31h276v-31q-35 0 -47 -9q-19 -15 -19 -65v-107h92q13 105 93 168q72 56 165 56q113 0 178 -78q56 -68 56 -161q0 -117 -67 -192t-181 -75
q-103 0 -174.5 68.5t-71.5 170.5zM460 237q0 -85 15 -132q25 -78 90 -78q63 0 87 78q14 46 14 132q0 94 -11 136q-22 82 -88 82q-65 0 -91 -81q-16 -50 -16 -137z" />
    <glyph glyph-name="ydieresis" unicode="&#xff;" horiz-adv-x="569" 
d="M-30 0v31q23 0 35.5 9t25.5 33l42 76q20 36 54.5 59t67.5 26q-102 10 -139.5 41.5t-37.5 82.5q0 59 44 90q49 34 152 34h335v-31q-33 0 -45 -9q-21 -15 -21 -65v-272q0 -50 20 -65q12 -9 46 -9v-31l-273 -1v32q28 0 42 13q21 20 21 72v112q-33 0 -56.5 -17.5t-48.5 -62.5
l-82 -148h-182zM339 405q0 34 -6.5 39.5t-46.5 5.5q-57 0 -86.5 -21t-29.5 -71q0 -38 32 -66t86 -28h51v141z" />
    </font>
</defs>
</svg>
