<?xml version="1.0" standalone="no"?>
<!DOCTYPE svg PUBLIC "-//W3C//DTD SVG 1.1//EN" "http://www.w3.org/Graphics/SVG/1.1/DTD/svg11.dtd" >
<svg>
<metadata>
Created by FontForge 20090622 at Tue Feb 12 04:21:18 2019
 By deploy user
Copyright Mecanorma International 1991. \ All rights reserved.  This product is licensed, not sold, \ and may not be reproduced without the consent of \ Mecanorma International.
</metadata>
<defs>
<font id="DynamoMN-Shadow" horiz-adv-x="620" >
  <font-face 
    font-family="Dynamo MN"
    font-weight="400"
    font-stretch="normal"
    units-per-em="1000"
    panose-1="2 0 5 6 0 0 0 2 0 4"
    ascent="800"
    descent="-200"
    x-height="508"
    cap-height="667"
    bbox="-21 -221 1219 917"
    underline-thickness="41"
    underline-position="-135"
    unicode-range="U+001D-U+FB02"
  />
<missing-glyph horiz-adv-x="307" 
 />
    <glyph glyph-name="uniFB01" unicode="fi" horiz-adv-x="637" 
d="M528 666h-123l-27 -108h122zM547 218h-35v272h-131l-30 -125h36v-272h127zM374 507l-18 33l36 144h155l43 -80l-37 -141h-7l17 -34v-195h5l35 -76l-40 -158h-156l-38 81v190h-4l-37 76l-19 -76h-43v-271h-156l-37 80v191h-11l-40 79l41 156h10v31q0 45 11 73.5t31 45
t49.5 22.5t66.5 6h78l39 -80l-30 -114l30 -64zM215 93v272h44l31 125h-75q0 40 8 51.5t37 10.5l29 114h-69q-37 0 -62 -7.5t-40 -24.5t-21 -44t-6 -67v-33h-16l-31 -125h47v-272h124z" />
    <glyph glyph-name="uniFB02" unicode="fl" horiz-adv-x="626" 
d="M513 93l34 126h-34v447h-132l-33 -133h40v-440h125zM215 93v273h44l31 124h-75q0 40 8 51.5t37 10.5l29 114h-69q-37 0 -62 -7.5t-40 -24.5t-21 -44t-6 -67v-33h-16l-31 -124h47v-273h124zM348 604l21 80h154l40 -82v-367h5l36 -79l-41 -156h-157l-36 82v355l-45 81
l-7 -28l30 -64l-39 -155h-43v-271h-156l-37 80v191h-11l-40 79l41 156h10v31q0 45 11 73.5t31 45t49.5 22.5t66.5 6h78z" />
    <glyph glyph-name=".notdef" horiz-adv-x="307" 
 />
    <glyph glyph-name=".null" horiz-adv-x="0" 
 />
    <glyph glyph-name=".null" horiz-adv-x="0" 
 />
    <glyph glyph-name="nonmarkingreturn" horiz-adv-x="307" 
 />
    <glyph glyph-name="space" unicode=" " horiz-adv-x="307" 
 />
    <glyph glyph-name="space" unicode="&#xa0;" horiz-adv-x="307" 
 />
    <glyph glyph-name="exclam" unicode="!" horiz-adv-x="389" 
d="M250 157q0 30 -20.5 51.5t-49.5 21.5q-32 0 -52.5 -20.5t-20.5 -52.5q0 -29 21.5 -49.5t50.5 -20.5t50 20.5t21 49.5zM253 649h-143l-30 -124h22l17 -216h116zM309 588l-20 -373h-38q9 -13 18.5 -31.5t17 -38t12.5 -37t5 -29.5q0 -20 -8 -36.5t-21 -27.5t-29 -17t-32 -6
q-35 0 -57 22.5t-42 62.5q-12 24 -19.5 45t-7.5 37q0 45 40 75l-27 54l-10 148l-35 69l40 162h175z" />
    <glyph glyph-name="quotedbl" unicode="&#x22;" horiz-adv-x="501" 
d="M293 650l14 -88h78l11 88h-103zM273 668h142l-14 -188h-112zM107 650l14 -88h78l11 88h-103zM87 668h142l-14 -188h-112z" />
    <glyph glyph-name="dollar" unicode="$" horiz-adv-x="532" 
d="M421 611q-57 25 -116 32v33h-120v-36q-66 -10 -101 -52t-35 -102q0 -56 32.5 -92.5t98.5 -59.5l52 -17.5t37 -15.5t22 -18.5t7 -26.5q0 -21 -18.5 -36t-50.5 -15q-41 0 -72.5 12.5t-61.5 28.5l-32 -128q26 -13 56.5 -20t65.5 -12v-43h120v48q23 5 43.5 12.5t37.5 19.5
q29 21 45 55.5t16 76.5q0 117 -134 159q-31 10 -53 16.5t-35.5 14t-19.5 17.5t-6 25q0 20 18 33t49 13q26 0 59.5 -8t65.5 -24zM362 -50h-156l-25 49q-21 4 -45.5 10.5t-57.5 22.5l-37 75l41 170q43 -28 80.5 -41t62.5 -13q5 0 13 1t13 3q-49 15 -79.5 30t-50 31.5
t-32.5 36.5t-26 46q-16 30 -24.5 57t-8.5 64q0 53 34 98t103 64v40h156l17 -38l41 -10.5t63 -22.5l34 -74l-37 -149q-37 17 -71 30t-79 11q38 -12 66 -24.5t50.5 -31.5t40.5 -48t36 -74q7 -18 12.5 -38t5.5 -44q0 -64 -34.5 -113t-105.5 -65v-53z" />
    <glyph glyph-name="percent" unicode="%" horiz-adv-x="920" 
d="M528 650l-237 -559h80l237 559h-80zM516 668h116l23 -79l-250 -589h-116l-24 74zM699 180q31 4 31 70q-13 -3 -22 -16t-9 -54zM648 259q0 39 13.5 62.5t34.5 23.5q25 0 38.5 -25t13.5 -57q0 -49 -11.5 -75.5t-38.5 -26.5q-23 0 -36.5 27t-13.5 71zM570 256
q0 -38 9.5 -69.5t27.5 -54.5t44 -36t59 -13q21 0 42.5 12t39 34.5t28 56t10.5 76.5q0 34 -9.5 64.5t-27.5 52.5t-43.5 35t-56.5 13q-27 0 -49.5 -13t-39 -36t-25.5 -54t-9 -68zM551 256q0 41 10.5 76t30 60t46 39t58.5 14q34 0 57.5 -10t46.5 -36q15 -17 29 -43t25 -55.5
t17.5 -60.5t6.5 -59q0 -89 -39.5 -139.5t-100.5 -50.5q-53 0 -87.5 29.5t-60.5 84.5q-16 34 -27.5 69t-11.5 82zM188 410q31 4 31 71q-13 -3 -22 -16.5t-9 -54.5zM137 490q0 39 13.5 62t34.5 23q25 0 38.5 -25t13.5 -57q0 -49 -11.5 -75.5t-38.5 -26.5q-23 0 -36.5 27.5
t-13.5 71.5zM59 487q0 -38 9.5 -70t27.5 -55t44 -36t59 -13q21 0 42.5 12t39 34.5t28 56t10.5 76.5q0 34 -9.5 64.5t-27.5 52.5t-43.5 35t-56.5 13q-27 0 -49.5 -13t-39 -35.5t-25.5 -53.5t-9 -68zM40 486q0 41 10.5 76t29.5 60t45.5 39t58.5 14q34 0 58 -10t47 -36
q15 -17 29 -42.5t25 -55t17.5 -60.5t6.5 -59q0 -89 -39.5 -139.5t-100.5 -50.5q-53 0 -87.5 29.5t-60.5 84.5q-16 34 -27.5 68.5t-11.5 81.5z" />
    <glyph glyph-name="ampersand" unicode="&#x26;" horiz-adv-x="614" 
d="M329 221v28q-24 0 -40.5 -4.5t-27.5 -22.5q5 -1 14 -1h14h40zM346 203h-62q-43 0 -65 19.5t-22 52.5q0 14 7.5 28t18.5 23q15 12 34.5 14t43.5 2h45v-139zM473 93v230h22l31 123h-53v54l-127 -33v-28h-57q-44 0 -68 13.5t-24 46.5q0 20 17.5 38.5t46.5 18.5
q14 0 24.5 -3.5t21.5 -10.5l52 95q-58 26 -116 26q-36 0 -65.5 -11.5t-50.5 -31.5t-32.5 -47t-11.5 -58q0 -42 26.5 -72.5t78.5 -51.5q-63 -19 -94 -52t-31 -88q0 -92 68 -133q32 -20 70 -22.5t81 -2.5h191zM526 0h-235q-51 0 -84.5 7.5t-57.5 23.5t-40.5 41t-32.5 60
q-13 29 -22.5 57t-9.5 60q0 42 17 74t52 57q-20 37 -34.5 70t-14.5 71q0 31 13 60t37 51.5t58 35.5t76 13q30 0 65 -8.5t70 -25.5l38 -79l-38 -73l106 28l28 -59h29l39 -78l-39 -157h-20v-229z" />
    <glyph glyph-name="quotesingle" unicode="'" horiz-adv-x="316" 
d="M107 650l14 -88h78l11 88h-103zM87 668h142l-14 -188h-112z" />
    <glyph glyph-name="parenleft" unicode="(" horiz-adv-x="389" 
d="M264 0q-22 47 -35.5 89.5t-20.5 82t-9.5 76t-2.5 72.5q0 28 1 61t7 73.5t19.5 89t39.5 105.5h-136q-14 -34 -26.5 -69.5t-21.5 -75.5t-14 -87t-5 -104q0 -46 4.5 -86.5t13.5 -78.5t22.5 -74.5t31.5 -73.5h132zM324 589q-15 -33 -28.5 -67.5t-24 -74t-16.5 -85.5t-6 -102
q0 -76 8.5 -132t20 -97.5t24.5 -71.5t22 -54h-172l-37.5 86.5t-36 92t-27 103t-10.5 119.5q0 69 7 123t18 97t24.5 77l25.5 64h173z" />
    <glyph glyph-name="parenright" unicode=")" horiz-adv-x="389" 
d="M81 649l23 -59t22 -68t16.5 -82t6.5 -101q0 -87 -13 -170.5t-55 -168.5h135q27 64 41 115.5t20.5 93.5t7 75t0.5 60q0 48 -7.5 94.5t-18.5 87t-24 72.5t-24 51h-130zM56 -17q26 52 41 97.5t23 88t10.5 84t2.5 85.5q0 64 -8 114.5t-20 90t-25.5 70l-23.5 54.5h167
l42.5 -91.5t36.5 -93.5t26 -101t10 -114q0 -72 -8 -127t-19.5 -97.5t-24 -76l-22.5 -61.5h-173z" />
    <glyph glyph-name="asterisk" unicode="*" horiz-adv-x="431" 
d="M319 565l-46 80l-50 -59l27 72h-95l25 -65l-45 52l-47 -80l81 -14l-81 -14l47 -81l45 55l-25 -67h95l-27 73l50 -61l46 81l-74 14zM368 456l-73 -107h-128l-39 60l-65 146l68 121h145l68 -121z" />
    <glyph glyph-name="comma" unicode="," horiz-adv-x="340" 
d="M122 40q51 10 78.5 43.5t27.5 76.5q0 15 -5.5 28.5t-15.5 24.5t-23.5 17.5t-29.5 6.5q-32 0 -52 -21.5t-20 -53.5q0 -20 15.5 -39t48.5 -29zM119 76q-25 13 -40.5 38t-15.5 54q0 18 7 34t19.5 27.5t29.5 18.5t36 7q26 0 50.5 -17t43 -41t30 -51t11.5 -48q0 -58 -39 -99.5
t-110 -45.5l-49 65z" />
    <glyph glyph-name="hyphen" unicode="-" horiz-adv-x="350" 
d="M253 258l21 71h-208l-22 -71h209zM298 163h-246l-32 75l32 109h246l32 -76z" />
    <glyph glyph-name="hyphen" unicode="&#xad;" horiz-adv-x="350" 
d="M253 258l21 71h-208l-22 -71h209zM298 163h-246l-32 75l32 109h246l32 -76z" />
    <glyph glyph-name="period" unicode="." horiz-adv-x="340" 
d="M235 159q0 31 -22 52t-55 21q-26 0 -46.5 -22t-20.5 -51q0 -30 21.5 -51.5t50.5 -21.5q32 0 52 20.5t20 52.5zM279 85q0 -42 -25.5 -67t-63.5 -25q-18 0 -37.5 9t-30.5 20q-8 8 -16.5 26t-16 38.5t-12.5 38.5t-5 25q0 49 26.5 74.5t64.5 25.5q28 0 51 -16.5t37 -45.5
q6 -12 11 -26t8.5 -28t6 -27t2.5 -22z" />
    <glyph glyph-name="slash" unicode="/" horiz-adv-x="497" 
d="M242 649l-155 -631h115l154 631h-114zM228 667h152l40 -84l-165 -672h-148l-44 89z" />
    <glyph glyph-name="zero" unicode="0" horiz-adv-x="590" 
d="M318 427q-29 0 -45.5 -29.5t-16.5 -79.5v-42t5 -42q4 -1 10 -1q28 0 45 36t17 111q0 11 -1.5 23.5t-3.5 23.5h-10zM352 373q0 -78 -21.5 -118t-59.5 -40t-62 42.5t-24 114.5t21.5 110.5t60.5 38.5q36 0 60.5 -39.5t24.5 -108.5zM486 365q0 70 -16.5 124.5t-45.5 92
t-69 57t-86 19.5q-49 0 -88.5 -20t-67.5 -57.5t-43.5 -91.5t-15.5 -123q0 -68 18.5 -120t49.5 -88t70 -54.5t81 -18.5q45 0 84 20.5t67.5 57.5t45 88.5t16.5 113.5zM555 302q0 -74 -18.5 -132t-50 -98t-74 -61t-91.5 -21q-124 0 -219 151q-19 30 -32 57.5t-20.5 55.5
t-11 56.5t-3.5 60.5q0 70 17 126t48 96t75.5 61.5t98.5 21.5q64 0 112 -34.5t90 -98.5q37 -56 58 -114t21 -127z" />
    <glyph glyph-name="one" unicode="1" horiz-adv-x="344" 
d="M227 93v556h-147l-36 -142h41v-414h142zM281 0h-174l-40 76v337h-6l-38 80l43 174h175l40 -77v-590z" />
    <glyph glyph-name="two" unicode="2" horiz-adv-x="528" 
d="M252 431q-11 -4 -17.5 -10.5t-6.5 -19.5q0 -5 1 -8zM394 93l37 143h-136l67 114l19 30.5t18.5 33.5t14 39t5.5 47q0 33 -12.5 62.5t-35.5 51.5t-55.5 35t-72.5 13q-47 0 -83.5 -14.5t-61 -38.5t-37.5 -56t-13 -66q0 -24 2 -36.5t5 -23.5l122 42v10q0 21 13.5 33.5
t35.5 12.5q23 0 39 -16.5t16 -39.5q0 -14 -5.5 -28.5t-13.5 -27.5l-189 -320h321zM445 0h-366l-39 78l177 296l-131 -45l-47 84q-4 14 -7 30t-3 32q0 46 15 84t43.5 65t69 41.5t91.5 14.5q54 0 97 -24.5t73 -73.5q23 -37 34.5 -65t16 -49t4.5 -36.5v-26.5q0 -27 -10.5 -52.5
t-25.5 -52.5l-25 -46h43l39 -78z" />
    <glyph glyph-name="three" unicode="3" horiz-adv-x="486" 
d="M49 112q32 -11 69 -20.5t85 -9.5q46 0 82 12t61.5 33.5t39 50.5t13.5 63q0 54 -29 88t-77 61q42 28 62.5 56t20.5 74q0 31 -12.5 57t-35.5 45t-55.5 29.5t-71.5 10.5q-17 0 -37.5 -2.5t-40.5 -7.5l-35 -134q11 4 25.5 8.5t37.5 4.5q33 0 57.5 -17t24.5 -43t-18.5 -37
t-52.5 -11h-39l-27 -100h62q44 0 69.5 -10t25.5 -47q0 -17 -19 -34.5t-50 -17.5q-49 0 -101 25zM109 666q16 4 38 9t57 5q56 0 98.5 -20.5t68.5 -60.5q10 -17 20.5 -38.5t18.5 -43.5t13 -42.5t5 -34.5q0 -50 -42 -103q32 -51 49.5 -93t17.5 -80q0 -37 -14.5 -69t-42 -56
t-67.5 -37.5t-90 -13.5q-29 0 -73 8t-101 24l-38 81l45 166l24 -13l-24 53l29 108l-6 -1l-34 74z" />
    <glyph glyph-name="four" unicode="4" horiz-adv-x="567" 
d="M432 93v96h22l34 129h-56v103l-130 -32v-76h-116l200 336h-159l-169 -289v-171h238v-96h136zM481 0h-171l-33 75v18h-204l-33 80v193l176 301h203l32 -77l-100 -171l99 25l41 -97v-11h21l33 -81l-43 -162h-21v-93z" />
    <glyph glyph-name="five" unicode="5" horiz-adv-x="500" 
d="M382 649h-293v-311h99q20 0 37 -2t29.5 -8.5t19.5 -18.5t7 -31q0 -29 -20.5 -48t-55.5 -19q-22 0 -43.5 9.5t-42.5 26.5l-71 -108q47 -26 90 -40t85 -14q41 0 76 14.5t61 39.5t40.5 58t14.5 71q0 48 -21.5 87t-57.5 60q-27 16 -58.5 20.5t-66.5 5.5v74h135zM442 581
l-46 -165h-29q18 -15 35.5 -40.5t32 -55.5t23 -63.5t8.5 -65.5q0 -44 -16 -81t-44 -64t-66 -42.5t-82 -15.5t-92.5 15t-103.5 44l-39 85l77 121l-29 71v343h336z" />
    <glyph glyph-name="six" unicode="6" horiz-adv-x="546" 
d="M307 259q-3 1 -9 1q-19 0 -32 -4.5t-24 -20.5q3 -1 5.5 -2t6.5 -1q19 0 30.5 6t22.5 21zM335 288q0 -32 -21.5 -53t-52.5 -21q-33 0 -55.5 22t-22.5 55q0 31 22.5 52t56.5 21q30 0 51.5 -22t21.5 -54zM369 649h-164l-79 -157l-50.5 -101t-23.5 -100q0 -43 16.5 -81
t44 -66.5t64 -45t77.5 -16.5q43 0 82 14.5t68 42.5t46.5 68t17.5 90q0 33 -13.5 65t-38 57t-60.5 40.5t-81 16.5zM435 577l-60 -103q48 -24 74.5 -64t46.5 -103q8 -26 14 -53.5t6 -59.5q0 -43 -17 -82t-47 -68.5t-69.5 -47t-84.5 -17.5q-60 0 -111.5 23.5t-83.5 68.5
q-12 17 -24.5 42.5t-22.5 55t-16.5 61t-6.5 61.5q0 42 16 80.5t37 80.5l110 215h205z" />
    <glyph glyph-name="seven" unicode="7" horiz-adv-x="455" 
d="M205 93l155 556h-274l-36 -142h124l-113 -414h144zM255 0h-184l-32 76l90 334h-69l-36 78l47 179h314l33 -80z" />
    <glyph glyph-name="eight" unicode="8" horiz-adv-x="521" 
d="M284 251q-2 0 -4 0.5t-4 0.5q-5 0 -16 -6.5t-21 -16.5q3 0 4.5 -0.5t4.5 -0.5q11 0 20 6.5t16 16.5zM311 281q0 -31 -19.5 -51t-48.5 -20t-49 19.5t-20 48.5t20 48.5t49 19.5q27 0 47.5 -20t20.5 -45zM284 468q-14 -2 -22.5 -4.5t-18.5 -16.5q2 0 4 -0.5t4 -0.5
q7 0 16.5 6.5t16.5 15.5zM310 497q0 -29 -19 -48.5t-47 -19.5q-29 0 -48 19t-19 48t19 48t47 19q27 0 47 -20t20 -46zM351 395q51 54 51 118q0 27 -12 53.5t-33.5 47t-52.5 33.5t-68 13q-33 0 -60.5 -12t-47.5 -33t-31 -49t-11 -59q0 -33 12.5 -57t30.5 -49
q-39 -28 -58.5 -60.5t-19.5 -74.5q0 -35 14 -67.5t40 -57.5t62 -40t80 -15q34 0 66.5 13t57.5 36t40.5 54.5t15.5 69.5q0 83 -76 136zM432 337q20 -33 37.5 -69.5t17.5 -81.5q0 -42 -16.5 -78t-44.5 -62.5t-65 -41.5t-79 -15q-31 0 -63 10.5t-57 27.5q-23 16 -46.5 43.5
t-42 61t-30 69.5t-11.5 69q0 40 18.5 74t52.5 59q-17 26 -26.5 51.5t-9.5 58.5q0 32 13 61.5t36 52.5t55 37t71 14q41 0 79 -19t65 -52q14 -18 27.5 -40.5t24 -46t17 -46t6.5 -39.5q0 -31 -9 -53.5t-20 -44.5z" />
    <glyph glyph-name="nine" unicode="9" horiz-adv-x="556" 
d="M306 429q-2 1 -3.5 1.5t-3.5 0.5q-23 0 -33 -6t-23 -25q3 -1 5.5 -2t5.5 -1q34 0 52 32zM332 454q0 -32 -22 -53.5t-55 -21.5q-32 0 -53 22.5t-21 56.5q0 29 22 50.5t53 21.5q32 0 54 -22t22 -54zM311 93l93 186l22.5 45t18 41.5t12 41t4.5 44.5q0 46 -16.5 85t-45 66.5
t-66.5 43t-80 15.5q-43 0 -80 -16t-64.5 -44t-43.5 -65.5t-16 -80.5q0 -60 28.5 -105.5t78.5 -66.5q20 -8 42.5 -11.5t44.5 -5.5l-93 -173h161zM183 193q-47 21 -73.5 55.5t-49.5 85.5q-11 23 -20.5 51.5t-9.5 72.5t17.5 84t47.5 70.5t71 48.5t89 18q45 0 86.5 -16.5
t72.5 -47.5q19 -19 38.5 -49t35.5 -62t25.5 -63.5t9.5 -53.5q0 -36 -12 -74.5t-34 -85t-51.5 -102.5l-65.5 -125h-208l-34 73z" />
    <glyph glyph-name="colon" unicode=":" horiz-adv-x="340" 
d="M235 442q0 31 -22 52t-55 21q-26 0 -46.5 -22t-20.5 -51q0 -30 21.5 -51.5t50.5 -21.5q32 0 52 20.5t20 52.5zM279 368q0 -42 -25.5 -66.5t-63.5 -24.5q-17 0 -37 8.5t-31 19.5q-8 7 -16.5 25.5t-16 39t-12.5 38.5t-5 25q0 49 26.5 74.5t64.5 25.5q28 0 51 -16t37 -45
q6 -12 11 -26t8.5 -28.5t6 -27.5t2.5 -22zM235 159q0 31 -22 52t-55 21q-26 0 -46.5 -22t-20.5 -51q0 -30 21.5 -51.5t50.5 -21.5q32 0 52 20.5t20 52.5zM279 85q0 -42 -25.5 -67t-63.5 -25q-18 0 -37.5 9t-30.5 20q-8 8 -16.5 26t-16 38.5t-12.5 38.5t-5 25q0 49 26.5 74.5
t64.5 25.5q28 0 51 -16.5t37 -45.5q6 -12 11 -26t8.5 -28t6 -27t2.5 -22z" />
    <glyph glyph-name="semicolon" unicode=";" horiz-adv-x="340" 
d="M226 442q0 31 -21.5 52t-54.5 21q-26 0 -46.5 -22t-20.5 -51q0 -30 20.5 -51.5t50.5 -21.5q32 0 52 20.5t20 52.5zM122 40q51 10 78.5 43.5t27.5 76.5q0 15 -5.5 28.5t-15.5 24.5t-23.5 17.5t-29.5 6.5q-32 0 -52 -21.5t-20 -53.5q0 -20 15.5 -39t48.5 -29zM270 368
q0 -42 -25 -66.5t-63 -24.5q-17 0 -37.5 8.5t-31.5 19.5q-8 8 -16.5 26t-15.5 38.5t-12 38.5t-5 25q0 49 26 74.5t64 25.5q28 0 51.5 -16t37.5 -45q5 -11 10 -25.5t8.5 -29t6 -27.5t2.5 -22zM119 76q-25 13 -40.5 38t-15.5 54q0 18 7 34t19.5 27.5t29.5 18.5t36 7
q26 0 50.5 -17t43 -41t30 -51t11.5 -48q0 -58 -39 -99.5t-110 -45.5l-49 65z" />
    <glyph glyph-name="semicolon" unicode="&#x37e;" horiz-adv-x="340" 
d="M226 442q0 31 -21.5 52t-54.5 21q-26 0 -46.5 -22t-20.5 -51q0 -30 20.5 -51.5t50.5 -21.5q32 0 52 20.5t20 52.5zM122 40q51 10 78.5 43.5t27.5 76.5q0 15 -5.5 28.5t-15.5 24.5t-23.5 17.5t-29.5 6.5q-32 0 -52 -21.5t-20 -53.5q0 -20 15.5 -39t48.5 -29zM270 368
q0 -42 -25 -66.5t-63 -24.5q-17 0 -37.5 8.5t-31.5 19.5q-8 8 -16.5 26t-15.5 38.5t-12 38.5t-5 25q0 49 26 74.5t64 25.5q28 0 51.5 -16t37.5 -45q5 -11 10 -25.5t8.5 -29t6 -27.5t2.5 -22zM119 76q-25 13 -40.5 38t-15.5 54q0 18 7 34t19.5 27.5t29.5 18.5t36 7
q26 0 50.5 -17t43 -41t30 -51t11.5 -48q0 -58 -39 -99.5t-110 -45.5l-49 65z" />
    <glyph glyph-name="question" unicode="?" horiz-adv-x="483" 
d="M235 435q-3 1 -5 1.5t-5 0.5q-20 0 -35 -2.5t-32 -19.5q4 -1 6.5 -2t6.5 -1q22 0 36.5 4t27.5 19zM269 159q0 29 -20.5 50.5t-47.5 21.5q-32 0 -53.5 -20.5t-21.5 -52.5q0 -30 21 -50.5t52 -20.5q29 0 49.5 21t20.5 51zM152 308q11 -2 25.5 -2.5t26.5 -0.5q36 0 67.5 14
t54.5 37.5t36 54.5t13 66q0 41 -15 75t-41 58t-60.5 37.5t-72.5 13.5q-39 0 -73.5 -12.5t-68.5 -37.5l71 -99q14 8 30 15.5t36 7.5q41 0 61 -22t20 -47q0 -34 -21.5 -53t-56.5 -19q-7 0 -15.5 0.5t-16.5 2.5v-89zM20 613q40 33 79.5 49.5t90.5 16.5q66 0 117 -36t83 -105
q18 -39 28 -72.5t10 -59.5q0 -73 -41.5 -124t-113.5 -71q11 -16 20 -34.5t16 -37t10.5 -35t3.5 -27.5q0 -16 -6.5 -31.5t-18 -28t-28.5 -20.5t-38 -8q-35 0 -56 18.5t-37 52.5q-14 31 -23 56t-9 42q0 54 51 83l-24 55v130l-78 106z" />
    <glyph glyph-name="A" unicode="A" horiz-adv-x="668" 
d="M366 308l-24 94l-23 -94h47zM390 290h-134l65 268zM594 93l-162 556h-267l-36 -142h47l-118 -414h150l20 79h191l20 -79h155zM654 0h-205l-25 77h-159l-19 -77h-174l-39 77l104 356l-31 59l45 175h295l34 -66z" />
    <glyph glyph-name="B" unicode="B" horiz-adv-x="603" 
d="M282 235q13 0 24 1.5t23 12.5h-47v-14zM226 218v128h49q88 0 88 -59q0 -41 -24 -55t-67 -14h-46zM226 415v114h56q76 0 76 -53q0 -36 -22 -48.5t-64 -12.5h-46zM298 93q104 0 156.5 35.5t52.5 116.5q0 51 -27 86.5t-81 52.5q90 35 90 129q0 35 -16 65t-44 47
q-20 12 -51 18t-70 6h-227l-38 -142h42v-414h213zM311 667q47 0 79.5 -7.5t56.5 -24.5t41 -44.5t34 -68.5q6 -15 14.5 -34.5t8.5 -48.5q0 -35 -11.5 -63t-33.5 -44l44 -87.5t20 -86.5q0 -45 -24 -82t-66 -56q-27 -12 -60 -16t-71 -4h-240l-36 75v340h-8l-39 75l46 177h245z
" />
    <glyph glyph-name="C" unicode="C" horiz-adv-x="588" 
d="M390 651q-13 3 -27.5 4t-28.5 1q-58 0 -109 -22t-89.5 -61t-61 -91t-22.5 -112q0 -56 21.5 -106.5t60 -89.5t92 -62t118.5 -23q82 0 166 61l-63 127q-26 -24 -54.5 -35t-60.5 -11q-27 0 -52.5 10.5t-45 29t-31 44.5t-11.5 57q0 30 11.5 57t32 46.5t48.5 31t61 11.5
q27 0 51 -10.5t48 -27.5l67 149l-113 42zM567 71q-46 -38 -97 -57.5t-102 -19.5q-56 0 -105.5 19t-91.5 55q-24 22 -49 58.5t-44.5 78.5t-32 86t-12.5 80q0 65 24.5 120.5t66 96t95.5 63.5t113 23q10 0 22.5 -1t23.5 -3l11 21l148 -55l23 -67l-84 -197q-27 24 -54 38.5
t-55 14.5q-56 0 -90.5 -33.5t-36.5 -98.5q20 -21 43 -32.5t51 -11.5q33 0 61.5 15.5t56.5 44.5l86 -168z" />
    <glyph glyph-name="D" unicode="D" horiz-adv-x="608" 
d="M278 258q86 23 86 123q0 6 -1 10q-20 16 -41 21.5t-44 7.5v-162zM225 515q20 0 40 -2.5t40 -10.5q36 -16 57 -50t21 -80q0 -64 -40 -100t-118 -38v281zM83 93h107q52 0 101 6t101 39q60 38 93 102t33 143q0 34 -9 67.5t-26 62.5t-41 53.5t-53 41.5q-41 24 -87.5 32.5
t-102.5 8.5h-120l-37 -142h41v-414zM102 0l-37 76v338h-5l-40 79l45 174h138q67 0 117.5 -12t90 -38t69.5 -66.5t57 -96.5q14 -30 25.5 -65.5t11.5 -88.5q0 -25 -2.5 -45.5t-7.5 -39t-14 -37t-22 -39.5q-47 -75 -118.5 -107t-179.5 -32h-128z" />
    <glyph glyph-name="E" unicode="E" horiz-adv-x="533" 
d="M386 93l37 143h-199v89h173l26 100h-199v82h173l40 165h-123l-7 -23h-230l-35 -142h40v-414h304zM436 0h-336l-36 79v334h-6l-38 78l44 176h229l6 23h160l36 -81l-45 -177l31 -69l-31 -119l31 -67z" />
    <glyph glyph-name="F" unicode="F" horiz-adv-x="512" 
d="M224 93v203h150l32 123h-182v88h171l42 166h-123l-8 -24h-228l-35 -142h41v-414h140zM278 0h-175l-37 79v336h-7l-39 76l45 176h227l6 24h161l36 -81l-48 -195h-7l24 -57l-40 -157h-146v-201z" />
    <glyph glyph-name="G" unicode="G" horiz-adv-x="702" 
d="M366 423q-60 -5 -92 -40.5t-33 -92.5q26 -26 56 -38t60 -7l-22 54zM419 643q-18 6 -39 9.5t-46 3.5q-56 0 -107 -21.5t-89.5 -60t-61.5 -91.5t-23 -116q0 -57 22.5 -108t60.5 -89t88.5 -60.5t106.5 -22.5q63 0 116.5 22.5t92 62.5t60.5 93.5t22 116.5q0 10 -0.5 22
t-1.5 23h-234l-29 -114h116q-17 -41 -52 -64.5t-80 -23.5q-32 0 -59 12t-47 32t-31.5 46t-11.5 53q0 33 12.5 60t33 47t47 31t54.5 11q26 0 49 -9t46 -21l101 109l-101 64zM636 445q16 -47 25 -85t9 -65q0 -66 -24 -121t-65 -95.5t-95.5 -63t-115.5 -22.5q-69 0 -133 28.5
t-108 84.5q-20 26 -37.5 60.5t-30.5 70.5t-20 71t-7 61q0 65 24 121t65 97t95 64t114 23q40 0 81 -11l20 20l126 -80l34 -76l-81 -82h124z" />
    <glyph glyph-name="H" unicode="H" horiz-adv-x="645" 
d="M531 93v556h-141v-199h-166v199h-147l-36 -142h42v-414h141v214h166v-214h141zM585 0h-172l-41 80v133h-94v-213h-176l-37 80v334h-6l-39 78l44 175h174l40 -82v-117h94v199h174l39 -76v-591z" />
    <glyph glyph-name="I" unicode="I" horiz-adv-x="349" 
d="M230 93v556h-147l-36 -142h41v-414h142zM284 0h-176l-38 77v337h-6l-39 78l45 175h174l40 -76v-591z" />
    <glyph glyph-name="J" unicode="J" horiz-adv-x="432" 
d="M321 649h-233l-36 -142h127v-206q0 -80 -62 -80q-13 0 -23 3.5l-18 6.5l-36 -124q24 -9 49 -17t53 -8q104 0 152 80q21 35 24 75.5t3 93.5v318zM376 591v-350q0 -42 -3 -82.5t-26 -80.5q-52 -89 -165 -89q-24 0 -59 8t-70 23l-34 74l46 162q12 -6 25.5 -11.5t25.5 -5.5
q31 0 38 24t7 61v96h-92l-38 76l43 171h262z" />
    <glyph glyph-name="K" unicode="K" horiz-adv-x="622" 
d="M543 93l-169 286l146 270h-155l-132 -246v246h-147l-37 -142h42v-414h142v249l141 -249h169zM609 0h-201l-122 216v-216h-175l-38 74v341h-7l-39 77l46 175h174l39 -77v-53l71 130h193l38 -75l-154 -282l134 -224z" />
    <glyph glyph-name="L" unicode="L" horiz-adv-x="420" 
d="M307 93l36 143h-118v413h-147l-37 -142h44v-414h222zM356 0h-252l-37 77v337h-7l-40 77l46 176h172l41 -83v-330h85l36 -76z" />
    <glyph glyph-name="M" unicode="M" horiz-adv-x="733" 
d="M620 93v556h-154l-115 -142l-112 142h-161l-36 -142h42v-414h142v369l125 -165l126 174v-378h143zM673 0h-171l-43 81v211l-71 -98l-109 143v-337h-177l-36 76v337h-6l-40 80l46 174h181l104 -131l108 131h174l40 -77v-590z" />
    <glyph glyph-name="N" unicode="N" horiz-adv-x="666" 
d="M553 93v556h-142v-278l-169 278h-164l-37 -142h43v-414h142v334l197 -334h130zM606 0h-156l-170 282v-282h-177l-37 78v337h-5l-41 79l46 173h186l141 -234v234h173l40 -77v-590z" />
    <glyph glyph-name="O" unicode="O" horiz-adv-x="708" 
d="M461 382q-42 40 -91 40q-51 0 -87 -34t-38 -97q37 -45 93 -45q27 0 49.5 10.5t39 28t26 39t9.5 42.5q0 5 -0.5 8t-0.5 8zM481 371q0 -30 -11 -56.5t-30.5 -45.5t-45.5 -30t-55 -11t-54.5 10.5t-45 29t-31 45t-11.5 59.5q0 27 11 52.5t30 44.5t45 30.5t56 11.5
q29 0 54.5 -11.5t45 -30.5t31 -44.5t11.5 -53.5zM627 369q0 60 -23 112.5t-62 91t-91.5 61t-111.5 22.5q-62 0 -114.5 -23t-91 -62t-60 -91t-21.5 -110t21.5 -110t60.5 -91.5t92.5 -62.5t117.5 -23q56 0 107 22t90 60.5t62.5 91t23.5 112.5zM675 304q0 -69 -24.5 -126.5
t-66 -98.5t-97 -63.5t-117.5 -22.5q-55 0 -110 21t-95 57q-23 21 -46 55.5t-42.5 76t-31.5 85t-12 81.5q0 63 24 119t65.5 97t97 65t118.5 24q98 0 174 -53t122 -159q19 -43 30 -78.5t11 -79.5z" />
    <glyph glyph-name="P" unicode="P" horiz-adv-x="566" 
d="M278 374q37 6 46 42q-11 2 -24.5 2.5t-21.5 0.5v-45zM226 517q19 0 37.5 -1t33.5 -8q22 -10 35 -29.5t13 -44.5q0 -45 -31 -63.5t-88 -19.5v166zM226 93v129q35 1 69 4t70 21q54 27 82.5 75t28.5 114q0 43 -14 80t-38.5 64.5t-59 45t-76.5 20.5q-22 2 -37 2.5t-37 0.5
h-135l-38 -142h43v-414h142zM278 0h-176l-36 81v335h-6l-40 78l45 173h153q58 0 101.5 -8.5t77 -30t59 -57.5t48.5 -91q12 -29 20 -58.5t8 -61.5q0 -93 -61 -157q-38 -40 -84.5 -55t-108.5 -17v-131z" />
    <glyph glyph-name="Q" unicode="Q" horiz-adv-x="712" 
d="M460 339q1 4 2 10t1 11v10.5t-2 11.5q-45 39 -91 39q-52 0 -87 -35t-37 -99q23 -27 51.5 -37t54.5 -5l-20 42l93 88zM401 241q-17 -8 -32 -11.5t-32 -3.5q-29 0 -54.5 11t-44.5 30.5t-30 46t-11 57.5q0 28 11 53t29.5 44t44.5 30.5t56 11.5t55.5 -11t45 -30t30.5 -44.5
t11 -55.5q0 -23 -4 -36t-9 -24l-42 41l-68 -63zM539 104l68 65l-33 33q26 38 39 76.5t13 85.5q0 64 -23.5 117.5t-63 92.5t-91 60.5t-108.5 21.5q-62 0 -114.5 -22.5t-90.5 -61.5t-60 -92t-22 -114q0 -60 23 -112t62 -90.5t90.5 -60.5t108.5 -22q49 0 92 13.5t78 40.5z
M574 6l-36 36q-34 -23 -76.5 -35.5t-86.5 -12.5q-54 0 -104.5 16.5t-85.5 44.5q-28 22 -55 58t-48.5 79t-34.5 88t-13 84q0 65 23 121.5t64 98.5t97 66t122 24q89 0 161.5 -47.5t122.5 -141.5q26 -48 40 -93t14 -96q0 -45 -11.5 -79t-28.5 -66l26 -56z" />
    <glyph glyph-name="R" unicode="R" horiz-adv-x="608" 
d="M291 386q20 0 33.5 7t24.5 22q-16 5 -35 5t-36 -2v-32h13zM225 369v147h48q48 0 73.5 -19.5t25.5 -49.5q0 -44 -26 -61t-80 -17h-41zM509 93l-104 174q54 34 80 76.5t26 99.5q0 61 -27.5 108.5t-75.5 71.5q-32 16 -74 21t-96 5h-160l-37 -142h43v-414h141v164h37l78 -164
h169zM577 0h-208l-81 165h-10v-165h-175l-37 78v336h-6l-40 78l45 175h192q64 0 107.5 -9t74.5 -30.5t54 -56.5t45 -86q11 -24 19 -50.5t8 -59.5q0 -57 -22.5 -103t-69.5 -84l68 -110z" />
    <glyph glyph-name="S" unicode="S" horiz-adv-x="542" 
d="M67 126q37 -19 85 -29.5t86 -10.5q50 0 89.5 13.5t66.5 37.5t41.5 57t14.5 72q0 118 -136 160l-51.5 15.5t-35.5 13.5t-20.5 16.5t-6.5 24.5q0 20 19.5 34t59.5 14q15 0 43.5 -7t66.5 -21l33 142l-121 17l-6 -26q-14 3 -30.5 5.5t-36.5 2.5q-44 0 -78 -12t-57 -33.5
t-35 -51.5t-12 -65q0 -70 58 -114q9 -7 20 -13.5t23 -12.5t22.5 -10t17.5 -6l47 -12.5t35.5 -13t22.5 -17.5t8 -26q0 -23 -18 -38t-53 -15q-29 0 -62.5 11t-70.5 30zM445 412q-30 14 -62 25.5t-77 10.5l39.5 -14.5t38 -18.5t36.5 -28.5t36 -44.5q26 -40 39.5 -81.5
t13.5 -77.5q0 -38 -15.5 -73t-45.5 -61.5t-73.5 -42t-99.5 -15.5q-48 0 -95.5 11.5t-95.5 34.5l-39 75l39 173q40 -21 76.5 -35.5t70.5 -14.5q8 0 14.5 1.5t10.5 3.5q-17 3 -34.5 8.5t-32.5 11.5t-27.5 11.5t-19.5 10.5q-19 12 -39.5 36.5t-37 54.5t-27.5 63t-11 63
q0 36 13 68t39 56t64.5 38t88.5 14q11 0 25 -2t26 -4l6 25l156 -22l40 -79z" />
    <glyph glyph-name="T" unicode="T" horiz-adv-x="495" 
d="M282 93v414h93l40 166h-126l-7 -24h-199l-37 -142h93v-414h143zM333 0h-171l-41 81v332h-61l-37 77l45 177h202l5 24h162l38 -79l-51 -199h-91v-413z" />
    <glyph glyph-name="U" unicode="U" 
d="M509 649h-141v-329q0 -13 -1 -22t-3 -22q-4 -22 -24.5 -37.5t-47.5 -15.5q-40 0 -57 25.5t-17 74.5v326h-146l-37 -142h42v-160q0 -42 2.5 -83.5t25.5 -82.5q26 -47 73 -71.5t112 -24.5t110 20.5t74 65.5q14 21 21 42.5t10 43.5t3.5 44.5t0.5 45.5v302zM563 590v-328
q0 -28 -0.5 -54.5t-5 -51t-14.5 -48.5t-29 -47q-29 -36 -75 -56.5t-100 -20.5q-45 0 -80 9t-62.5 28t-50 47t-42.5 66q-13 23 -21.5 44t-14 41.5t-7.5 42t-2 45.5v108h-7l-39 77l46 175h173l40 -83v-340q7 -3 13 -3.5t11 -0.5q12 0 25 8.5t20 19.5q7 12 8 32t1 45v322h174z
" />
    <glyph glyph-name="V" unicode="V" horiz-adv-x="655" 
d="M380 93l184 556h-152l-104 -356l-98 356h-157l183 -556h144zM432 0h-167l-45 85l-193 582h194l42 -79l54 -200l81 279h192l39 -79z" />
    <glyph glyph-name="W" unicode="W" horiz-adv-x="841" 
d="M624 93l129 556h-150l-56 -353l-92 353h-110l-85 -353l-61 353h-150l133 -556h147l75 326l72 -326h148zM681 0h-180l-38 72l-32 142l-49 -214h-177l-35 72l-143 595h186l42 -85l24 -134l53 219h137l42 -80l40 -154l37 234h187l39 -80z" />
    <glyph glyph-name="X" unicode="X" horiz-adv-x="648" 
d="M556 93l-164 295l146 261h-156l-78 -161l-77 161h-158l150 -262l-162 -294h154l92 187l98 -187h155zM622 0h-199l-84 164l-80 -164h-199l-33 75l172 311l-160 281h200l66 -139l67 139h196l35 -81l-151 -270l137 -241z" />
    <glyph glyph-name="Y" unicode="Y" horiz-adv-x="581" 
d="M343 93v260l156 296h-156l-72 -162l-71 162h-157l158 -301v-255h142zM396 0h-175l-38 79v264l-170 324h200l58 -136l61 136h193l42 -82l-171 -317v-268z" />
    <glyph glyph-name="Z" unicode="Z" horiz-adv-x="494" 
d="M363 93l37 144h-152l152 412h-307l-34 -142h145l-152 -414h311zM412 0h-351l-35 75l125 338h-80l-35 76l44 178h346l36 -78l-124 -334h84l36 -79z" />
    <glyph glyph-name="bracketleft" unicode="[" horiz-adv-x="377" 
d="M103 -97v74h-62v689h196l35 -115h5l48 -152h-64v-311l13 -39l13 1l54 -147h-238zM65 -1h197l-44 140h-26v368h69l-42 141h-154v-649z" />
    <glyph glyph-name="bracketright" unicode="]" horiz-adv-x="373" 
d="M287 665v-73h45v-690h-216l-85 257h81v327l-17 -1l-63 180h255zM265 647h-197l44 -141h26v-368h-69l42 -140h154v649z" />
    <glyph glyph-name="asciicircum" unicode="^" horiz-adv-x="500" 
d="M60 450l150 217h80l150 -217h-93l-97 143l-97 -143h-93z" />
    <glyph glyph-name="underscore" unicode="_" horiz-adv-x="586" 
d="M510 -109l20 71h-484l-22 -71h486zM554 -203h-522l-32 75l32 108h522l32 -76z" />
    <glyph glyph-name="grave" unicode="`" horiz-adv-x="386" 
d="M118 703l52 -88h77l-31 88h-98zM87 721h142l29 -66l42 -122h-112l-72 122z" />
    <glyph glyph-name="a" unicode="a" horiz-adv-x="576" 
d="M320 232v46q-8 4 -19 6.5t-19 2.5q-40 0 -57 -47q11 -5 24.5 -6.5t27.5 -1.5h43zM338 214h-66q-49 0 -74.5 21.5t-25.5 61.5q0 18 6.5 33t18 26t26 17.5t30.5 6.5q48 0 66.5 -29t18.5 -83v-54zM338 464q-25 13 -50 21t-51 8q-39 0 -73.5 -15t-59.5 -42t-39.5 -64
t-14.5 -81q0 -94 57 -146t169 -52h34l28 70v-70h127l34 126h-37v271h-124v-26zM320 508h152l41 -80v-196h6l34 -75l-40 -157h-132l-20 37l-15 -37h-76q-73 0 -120 36t-83 114q-17 36 -26.5 71t-9.5 70q0 48 15.5 88t42.5 69.5t64.5 46t81.5 16.5q24 0 44.5 -6t40.5 -15v18z
" />
    <glyph glyph-name="b" unicode="b" horiz-adv-x="579" 
d="M259 231q8 -5 15.5 -6t15.5 -1q48 0 59 46q-27 6 -47 6h-33h-10v-45zM205 370h60q54 0 79.5 -21t25.5 -60q0 -35 -22.5 -59t-53.5 -24q-89 0 -89 108v56zM205 130q26 -16 51.5 -27.5t59.5 -11.5q33 0 65 13.5t57.5 39.5t41 64t15.5 87q0 40 -13.5 76t-40 62t-64.5 41.5
t-87 15.5h-38l-47 -81v257h-131l-32 -133h40v-440h123v37zM259 0h-158l-37 80v363h-5l-40 73l41 168h155l44 -83v-93h31q92 0 152 -52q21 -19 40.5 -48.5t34 -62.5t23.5 -66.5t9 -59.5q0 -48 -14 -88.5t-40 -70t-62.5 -46.5t-81.5 -17q-33 0 -53 7.5t-39 17.5v-22z" />
    <glyph glyph-name="c" unicode="c" horiz-adv-x="397" 
d="M310 487q-11 3 -25.5 6t-28.5 3q-46 0 -84 -17t-65 -45.5t-42 -65.5t-15 -77t15.5 -77t43 -65.5t65 -45.5t81.5 -17q26 0 55 9l-26 114q-13 -4 -32 -4q-34 0 -59 22.5t-25 63.5q0 38 25 62.5t64 24.5q7 0 14.5 -2t12.5 -4zM368 8q-19 -5 -40 -9.5t-42 -4.5
q-51 0 -100.5 25.5t-81.5 74.5q-34 53 -53.5 104t-19.5 92q0 45 16.5 85.5t46 71t71 49t92.5 18.5q18 0 37 -4t36 -10l38 -73l-38 -154q-8 3 -17.5 7t-20.5 4q-24 0 -42 -13.5t-25 -40.5q14 -7 28 -7q13 0 22.5 3.5t18.5 8.5l36 -68z" />
    <glyph glyph-name="d" unicode="d" horiz-adv-x="577" 
d="M321 232v46q-6 2 -15.5 5.5t-17.5 3.5q-47 0 -64 -48q14 -5 25.5 -6t20.5 -1h51zM339 214h-75q-47 0 -69.5 22.5t-22.5 60.5q0 32 22 57t60 25q51 0 68 -30.5t17 -84.5v-50zM466 93l32 126h-36v447h-134l-28 -115h39v-87q-26 14 -51.5 21.5t-49.5 7.5q-43 0 -77.5 -16.5
t-59 -44t-38 -63.5t-13.5 -75q0 -43 13.5 -79.5t40 -63.5t66.5 -42.5t93 -15.5h47l29 72v-72h127zM513 0h-132l-19 37l-15 -37h-70q-71 0 -120 33t-82 102q-20 43 -32 81.5t-12 77.5q0 43 15 82.5t42 69.5t64.5 47.5t82.5 17.5q13 0 30.5 -2.5t31.5 -7.5l-19 34l39 149h154
l42 -81v-371h5l36 -75z" />
    <glyph glyph-name="e" unicode="e" horiz-adv-x="531" 
d="M173 344q8 35 28 53t46 18q62 0 76 -71h-150zM451 271q-8 110 -64 168.5t-141 58.5q-37 0 -72.5 -14t-63 -40t-44 -63.5t-16.5 -85.5q0 -49 18 -87.5t50 -65.5t75.5 -41.5t94.5 -14.5q35 0 61.5 3t48.5 7l27 106q-29 -6 -56.5 -9.5t-41.5 -3.5q-68 0 -103.5 20t-52.5 62
h280zM448 5q-61 -14 -124 -14q-67 0 -119 21t-85 59q-15 17 -30.5 43.5t-28.5 57.5t-21.5 64t-8.5 63q0 49 17.5 89t47.5 68.5t70 44t85 15.5q33 0 63.5 -10.5t55.5 -28t43.5 -40t29.5 -46.5l20 -44t19 -46t15 -54.5t8 -68.5h-37l15 -33z" />
    <glyph glyph-name="f" unicode="f" horiz-adv-x="370" 
d="M215 93v273h44l31 124h-75q0 40 8 51.5t37 10.5l29 114h-69q-37 0 -62 -7.5t-40 -24.5t-21 -44t-6 -67v-33h-16l-31 -124h47v-273h124zM266 0h-156l-37 80v191h-11l-40 79l41 156h10v31q0 45 11 73.5t31 45t49.5 22.5t66.5 6h78l39 -80l-30 -114l30 -64l-39 -155h-43
v-271z" />
    <glyph glyph-name="g" unicode="g" horiz-adv-x="565" 
d="M319 244v35q-6 3 -14.5 6t-17.5 3q-23 0 -36 -9.5t-24 -29.5q11 -4 23 -4.5t23 -0.5h46zM337 226h-71q-48 0 -70 23t-22 53q0 35 21.5 56.5t59.5 21.5t60 -25t22 -77v-52zM337 456q-56 34 -111 34q-37 0 -69 -15t-56 -41t-37.5 -61t-13.5 -75q0 -62 27 -104t80 -59
q26 -8 51.5 -9.5t50.5 -1.5h77q0 -38 -22 -57t-72 -19q-28 0 -60 7.5t-67 19.5l-26 -99q44 -11 91.5 -19.5t102.5 -8.5q52 0 91 15.5t60 43.5q18 24 22.5 53t4.5 64v366h-124v-34zM319 508h156l37 -84v-370q0 -29 -2.5 -55t-12.5 -48q-20 -42 -68.5 -68t-115.5 -26
q-18 0 -42 2t-52.5 6t-59.5 10t-61 14l-28 79l33 132q-10 13 -22.5 36t-23.5 50.5t-18.5 57t-7.5 56.5q0 44 15 82t42 66t63.5 44t80.5 16q17 0 40.5 -5t46.5 -15v20z" />
    <glyph glyph-name="h" unicode="h" horiz-adv-x="565" 
d="M494 217h-42v135q0 37 -6 63.5t-20.5 43t-39.5 24t-63 7.5h-72l-43 -79v255h-132l-34 -133h41v-440h125v274h47q25 0 40 -5.5t22.5 -15.5t9.5 -25.5t2 -34.5v-193h133zM550 154l-44 -154h-159l-36 83v186q-11 5 -23 6t-21 1q-2 0 -4 -0.5t-4 -0.5v-275h-159l-35 79v365
h-5l-41 73l44 167h155l41 -82v-94h64q33 0 55.5 -4.5t39.5 -15.5t29.5 -30t26.5 -47q14 -29 22 -54.5t8 -63.5v-59h9z" />
    <glyph glyph-name="i" unicode="i" horiz-adv-x="320" 
d="M222 666h-124l-26 -108h122zM241 218h-35v272h-131l-30 -126h36v-271h126zM256 0h-155l-38 81v190h-4l-37 76l41 160h4l-17 33l36 144h155l43 -80l-37 -141h-7l16 -34v-195h6l35 -76z" />
    <glyph glyph-name="j" unicode="j" horiz-adv-x="332" 
d="M244 666h-122l-27 -108h121zM226 490h-128l-31 -125h36v-244q0 -19 -1 -32.5t-5.5 -22.5t-13.5 -13.5t-26 -4.5l-24 -93h69q66 0 95 27t29 102v406zM278 429v-409q0 -45 -9 -76t-27 -50t-45.5 -27t-64.5 -8h-88l-33 80l33 126q13 -1 21 0t12.5 6t6 14.5t1.5 26.5v157h-4
l-37 79l40 159h5l-17 35l36 142h156l41 -77l-36 -144h-8z" />
    <glyph glyph-name="k" unicode="k" horiz-adv-x="501" 
d="M439 93l-108 216l92 181h-146l-71 -153v329h-131l-32 -133h40v-440h123v187l87 -187h146zM501 0h-181l-62 126v-126h-156l-37 79v360h-4l-42 77l42 168h154l43 -85v-110l9 19h178l33 -69l-99 -186z" />
    <glyph glyph-name="l" unicode="l" horiz-adv-x="321" 
d="M207 93l34 126h-34v447h-132l-33 -133h40v-440h125zM257 0h-157l-36 82v355l-45 81l44 166h153l41 -82v-367h5l36 -79z" />
    <glyph glyph-name="m" unicode="m" horiz-adv-x="809" 
d="M708 93l30 122h-40v129q0 41 -6.5 69t-22 45t-42 24.5t-65.5 7.5h-69l-44 -86q-16 49 -43 67.5t-79 18.5h-79l-42 -78v78h-129l-32 -122h35v-275h126v275h38q50 0 66.5 -19t16.5 -66v-190h123v275h36q51 0 69.5 -19t18.5 -71v-185h134zM751 0h-166l-29 76v194
q-16 5 -30 5h-25v-275h-162l-30 76v194q-16 3 -29 4t-24 1v-275h-157l-37 83v191h-5l-35 74l41 160h158l9 -23l11 23h96q48 0 72 -15t42 -47l32 62h90q37 0 61.5 -7.5t41.5 -23.5t29.5 -41t26.5 -59q17 -43 17.5 -63.5t0.5 -32.5v-49h12l32 -76z" />
    <glyph glyph-name="n" unicode="n" horiz-adv-x="563" 
d="M459 93l33 124h-41v145q0 74 -28.5 101t-95.5 27h-78l-44 -81v81h-129l-31 -128h36v-269h124v274h44q48 0 63 -19.5t15 -64.5v-190h132zM505 0h-161l-35 82v190q-14 3 -28 3h-26v-275h-154l-38 82v190h-3l-38 75l41 161h157l10 -22l11 22h91q35 0 58 -6t39 -20.5
t27.5 -38t25.5 -57.5q16 -43 17.5 -64t1.5 -36v-52h8l38 -79z" />
    <glyph glyph-name="o" unicode="o" horiz-adv-x="538" 
d="M321 274q-8 4 -16.5 6.5t-18.5 2.5q-22 0 -39 -13t-27 -39q6 -3 14.5 -6.5t19.5 -3.5q53 0 67 53zM342 292q0 -40 -23.5 -64.5t-61.5 -24.5q-17 0 -33 6t-28.5 17.5t-20 27t-7.5 34.5q0 38 24 63.5t65 25.5q19 0 34.5 -7.5t26.5 -20t17.5 -27.5t6.5 -30zM459 294
q0 40 -16 76.5t-43.5 64t-64 44t-77.5 16.5q-45 0 -83 -16t-65.5 -44t-43 -66t-15.5 -81q0 -40 15.5 -76.5t43 -64.5t65.5 -44.5t83 -16.5q41 0 77.5 15.5t64 43t43.5 66t16 83.5zM507 222q0 -51 -18 -93.5t-48 -72.5t-69 -46.5t-81 -16.5q-46 0 -87 16t-71 45
q-18 17 -36 46t-32.5 62.5t-23.5 68t-9 62.5q0 44 17 84t47 70t70.5 48t88.5 18q63 0 115.5 -32t86.5 -97q25 -48 37.5 -86t12.5 -76z" />
    <glyph glyph-name="p" unicode="p" horiz-adv-x="577" 
d="M257 227q13 -6 22.5 -6h15.5q14 0 30.5 11.5t23.5 33.5q-10 5 -25 6.5t-27 1.5h-40v-47zM204 369h51q19 0 38 -1.5t37 -12.5t29 -28t11 -37q0 -39 -23.5 -63t-61.5 -24q-34 0 -57.5 23.5t-23.5 70.5v72zM204 112q28 -13 55 -19.5t47 -6.5q36 0 69 14t59 40t41.5 63
t15.5 84q0 95 -60 152q-20 18 -40 28.5t-42.5 15.5t-47.5 6t-53 1l-44 -86v86h-128l-33 -127h36v-410h125v159zM274 508q49 0 85 -9.5t64 -30t50 -52.5t43 -76q13 -27 22 -56.5t9 -67.5q0 -51 -16.5 -93t-44 -71t-63.5 -45t-75 -16q-27 0 -49 6t-42 13v-151h-159l-37 81v334
h-5l-34 74l40 160h152l12 -25l11 25h37z" />
    <glyph glyph-name="q" unicode="q" horiz-adv-x="571" 
d="M321 230v49q-5 2 -13.5 4t-16.5 2q-27 0 -40 -13t-21 -36q14 -4 26.5 -5t23.5 -1h41zM339 212h-53q-112 0 -112 85q0 32 21.5 56.5t62.5 24.5q39 0 60 -28.5t21 -86.5v-51zM339 458q-26 14 -52 23.5t-58 9.5q-38 0 -70.5 -15t-56.5 -41t-38 -61t-14 -74q0 -49 16 -87.5
t44.5 -65t67.5 -40.5t86 -14h43l32 79v-216h126l34 126h-34v408h-126v-32zM321 508h155l39 -80v-330h5l35 -79l-40 -158h-158l-36 79v60h-41q-33 0 -60 6t-50 19.5t-43 34.5t-38 52q-28 47 -43 92.5t-15 95.5q0 45 16 83t42.5 66t62 44t74.5 16q26 0 49 -6.5t46 -17.5v23z
" />
    <glyph glyph-name="r" unicode="r" horiz-adv-x="412" 
d="M204 490h-128l-31 -127h36v-270h123v160q0 49 22.5 75t64.5 26q2 0 3 -0.5t3 -0.5l37 137q-3 0 -4.5 0.5t-4.5 0.5q-31 0 -60 -19t-61 -55v73zM236 471q22 17 44 27.5t48 10.5q6 0 14 -0.5t16 -2.5l32 -73l-46 -171q-5 1 -11 1h-9q-33 0 -51 -24.5t-18 -73.5v-165h-155
l-37 80v191h-4l-37 76l41 161h158z" />
    <glyph glyph-name="s" unicode="s" horiz-adv-x="430" 
d="M56 119q42 -17 82.5 -25t71.5 -8q72 0 107 33.5t35 85.5q0 35 -23.5 62t-59.5 41q-34 13 -52.5 22t-18.5 33q0 15 12.5 25.5t32.5 10.5q17 0 34 -8t34 -19l30 91q-34 17 -67 27t-66 10q-68 0 -105 -34.5t-37 -85.5q0 -28 16 -54t47 -38l43.5 -16.5t28 -13t15 -14.5
t4.5 -21q0 -15 -12 -26t-33 -11q-24 0 -45.5 9t-44.5 21zM392 391l-39 -125q23 -44 35 -81.5t12 -62.5q0 -24 -11 -47.5t-32 -41.5t-51 -29.5t-68 -11.5q-50 0 -91.5 11.5t-83.5 30.5l-29 76l41 133q9 -5 19 -11.5t18 -9.5q-9 9 -20.5 28t-21 42t-16.5 48t-7 45
q0 25 10.5 48.5t31 41.5t51 29t69.5 11q36 0 73.5 -11.5t75.5 -31.5z" />
    <glyph glyph-name="t" unicode="t" horiz-adv-x="364" 
d="M217 93v272h33l32 125h-65v86l-124 -31v-55h-14l-32 -125h46v-272h124zM269 0h-156l-38 81v190h-12l-37 78l41 158h8v52l156 39l38 -75v-16h35l39 -82l-42 -154h-32v-271z" />
    <glyph glyph-name="u" unicode="u" horiz-adv-x="567" 
d="M489 219h-36v271h-124v-276h-37q-31 0 -49 6t-27.5 18.5t-12.5 32.5t-3 47v172h-128l-31 -126h38v-136q0 -74 31.5 -104.5t105.5 -30.5h80l33 84v-84h128zM544 161l-41 -161h-135l-18 36l-17 -36h-88q-40 0 -64.5 8.5t-40.5 23.5t-27 35l-23 43q-20 37 -24.5 66.5
t-4.5 58.5v37h-5l-37 77l41 159h152l41 -78v-195q14 -4 29 -4t29 1v276h155l37 -78v-195h6z" />
    <glyph glyph-name="v" unicode="v" horiz-adv-x="548" 
d="M337 93l117 397h-133l-67 -298l-70 298h-136l123 -397h166zM389 0h-193l-38 78l-131 430h173l40 -79l26 -112l43 191h172l41 -79z" />
    <glyph glyph-name="w" unicode="w" horiz-adv-x="785" 
d="M698 490h-134l-64 -252l-75 252h-98l-77 -260l-62 260h-138l127 -397h136l63 232l62 -232h135zM759 429l-136 -429h-161l-36 77l-22 76l-44 -153h-160l-35 74l-138 434h173l38 -79l23 -98l54 177h123l38 -79l28 -103l45 182h173z" />
    <glyph glyph-name="x" unicode="x" horiz-adv-x="577" 
d="M484 93l-122 208l107 189h-140l-60 -119l-58 119h-142l111 -190l-123 -207h141l71 142l75 -142h140zM551 0h-180l-64 122l-63 -122h-178l-39 78l133 222l-121 208h181l52 -93l46 93h182l42 -79l-117 -199z" />
    <glyph glyph-name="y" unicode="y" horiz-adv-x="557" 
d="M451 490h-124v-263h-35q-26 0 -43 4t-27 14t-14.5 27.5t-4.5 43.5v174h-129l-31 -127h37v-112q0 -69 36.5 -105.5t110.5 -36.5h69l31 77v-43q0 -22 -3 -40t-13 -30.5t-28 -19t-49 -6.5q-36 0 -66.5 8.5t-59.5 19.5l-28 -100q45 -13 94 -20.5t96 -7.5q138 0 171 85
q6 16 8 42t2 58v358zM504 422v-370q0 -32 -3 -61t-22 -58q-50 -77 -181 -77q-42 0 -97.5 8t-109.5 23l-30 78l36 134q2 -1 7.5 -3t7.5 -3q-18 36 -27.5 61t-14 44.5t-5 36t-0.5 35.5h-6l-39 78l42 160h154l41 -79v-183q12 -3 24 -3h13.5t14.5 1v264h157z" />
    <glyph glyph-name="z" unicode="z" horiz-adv-x="402" 
d="M313 218h-86l86 272h-215l-29 -122h82l-86 -275h219zM330 0h-253l-36 78l63 194h-27l-30 79l36 157h254l33 -70l-65 -203h32l33 -75z" />
    <glyph glyph-name="braceleft" unicode="{" horiz-adv-x="387" 
d="M309 41q5 -4 8.5 -4.5t8.5 0.5l34 -117h-51q-26 0 -44 3.5t-32 11.5t-25.5 20.5t-24.5 31.5q-27 12 -46 22.5t-31 23t-17 29t-5 40.5v140q0 21 -2 34.5t-8 23t-17.5 15.5t-30.5 12q35 11 46.5 29t11.5 52v115q0 141 153 141h83l-22 -67h70l-34 -130q-22 1 -33 -8t-11 -32
v-93q0 -31 -11.5 -47.5t-36.5 -23.5q24 -6 36 -28t12 -67v-45zM264 549l31 100h-52q-136 0 -136 -134v-109q0 -35 -11 -52t-34 -25q29 -6 37 -24.5t8 -56.5v-150q0 -21 10.5 -39t28.5 -30.5t43 -19.5t54 -7h52l-31 101h-10q-14 0 -22 4t-12 10.5t-4.5 16t-0.5 21.5v79
q0 45 -11.5 67t-35.5 28q47 13 47 71v109q0 40 39 40h10z" />
    <glyph glyph-name="braceright" unicode="}" horiz-adv-x="399" 
d="M319 346q0 -21 2 -34.5t8 -23t17.5 -15.5t31.5 -12q-35 -11 -47 -29t-12 -52v-116q-2 -141 -153 -141h-82l20 64h-71l37 137q6 -1 10.5 -1.5t10.5 -0.5q14 0 19 8.5t5 25.5v97q0 25 9 47t30 27q-20 5 -29.5 28.5t-9.5 64.5v60q0 22 -1.5 36t-20.5 14h-10t-10 -1l-41 138
h62q13 0 22 1t22 1q31 0 54 -10t41.5 -27t35 -39l34.5 -46q11 -15 13.5 -31t2.5 -31v-139zM93 106l-30 -101h51q136 0 136 134v110q0 35 11 52t34 25q-29 6 -37 24.5t-8 56.5v149q0 43 -38.5 69t-97.5 26h-52l33 -100l8 1q14 1 22 -3t11.5 -11.5t4.5 -17.5t1 -21v-78
q0 -45 11.5 -67t35.5 -28q-47 -13 -47 -72v-109q0 -21 -9.5 -30t-29.5 -9h-10z" />
    <glyph glyph-name="asciitilde" unicode="~" horiz-adv-x="500" 
d="M424 255q-22 -39 -48.5 -59t-61.5 -20q-21 0 -39.5 6t-35 13l-30.5 13t-26 6q-20 0 -32.5 -14.5t-23.5 -38.5l-51 58q21 38 46 58.5t59 20.5q21 0 40 -6.5t35.5 -14t31.5 -13.5t28 -6q22 0 33.5 14t22.5 38z" />
    <glyph glyph-name="florin" unicode="&#x192;" horiz-adv-x="622" 
d="M538 717h-115q-45 0 -71 -8t-40 -26t-21 -46.5t-16 -70.5l-26 -125h-63l-25 -114h64l-53 -250q-6 -27 -10 -42.5t-11.5 -23t-20.5 -9t-36 -1.5l-51 -119h118q37 0 60 3t37 12.5t21.5 28t13.5 49.5l73 352h62l24 114h-62l15 74q4 22 8 37.5t11 25.5t18 14.5t29 4.5h16z
M593 678l-60 -145h-6q-14 0 -23 -0.5t-15 -5t-9.5 -13.5t-7.5 -25l-8 -34h18l27 -49l-29 -145h-57l-71 -343q-7 -33 -15 -56.5t-22.5 -38.5t-39 -21.5t-64.5 -6.5h-119l-74 71l65 152q21 0 33 0.5t19.5 7t11.5 21t10 41.5l38 180l-52 45l30 142h62l27 132q7 37 15 64.5
t24 46t44.5 28t77.5 9.5h136z" />
    <glyph glyph-name="quotedblbase" unicode="&#x201e;" 
d="M376 40q54 11 80 44.5t26 75.5q0 14 -5.5 28t-15 25t-23 17.5t-29.5 6.5q-29 0 -51 -19t-22 -54q0 -23 16 -42t48 -27zM373 76q-24 12 -40 37.5t-16 54.5q0 35 25.5 61t66.5 26q25 0 49 -16t43 -40t31 -51.5t12 -49.5q0 -31 -11.5 -57.5t-31 -46t-46.5 -30.5t-58 -11
l-51 65zM126 41q49 8 77.5 41.5t28.5 77.5q0 30 -20.5 53.5t-52.5 23.5q-31 0 -52 -20.5t-21 -52.5q0 -47 63 -69zM123 76q-56 31 -56 93q0 18 7 33.5t19.5 27t29.5 18.5t36 7q26 0 50.5 -17t43 -41.5t30 -51.5t11.5 -47q0 -28 -9.5 -53t-28.5 -44.5t-46.5 -32t-63.5 -15.5
l-50 65z" />
    <glyph glyph-name="ellipsis" unicode="&#x2026;" horiz-adv-x="810" 
d="M213 159q0 31 -22 52t-55 21q-26 0 -46.5 -22t-20.5 -51q0 -30 21.5 -51.5t50.5 -21.5q32 0 52 20.5t20 52.5zM257 85q0 -42 -25.5 -67t-63.5 -25q-18 0 -37.5 9t-30.5 20q-8 8 -16.5 26t-16 38.5t-12.5 38.5t-5 25q0 49 26.5 74.5t64.5 25.5q28 0 51 -16.5t37 -45.5
q6 -12 11 -26t8.5 -28t6 -27t2.5 -22zM721 159q0 31 -22 52t-55 21q-26 0 -46.5 -22t-20.5 -51q0 -30 21.5 -51.5t50.5 -21.5q32 0 52 20.5t20 52.5zM765 85q0 -42 -25.5 -67t-63.5 -25q-17 0 -37 9t-31 20q-8 8 -16.5 26.5t-16 38.5t-12.5 38t-5 25q0 48 26.5 74t64.5 26
q28 0 51 -16.5t37 -45.5q6 -12 11 -26t8.5 -28t6 -27t2.5 -22zM469 159q0 31 -22 52t-55 21q-26 0 -46.5 -22t-20.5 -51q0 -30 21.5 -51.5t50.5 -21.5q32 0 52 20.5t20 52.5zM513 85q0 -42 -25.5 -67t-63.5 -25q-17 0 -37 9t-31 20q-8 8 -16.5 26.5t-16 38.5t-12.5 38t-5 25
q0 48 26.5 74t64.5 26q28 0 51 -16.5t37 -45.5q6 -12 11 -26t8.5 -28t6 -27t2.5 -22z" />
    <glyph glyph-name="circumflex" unicode="&#x2c6;" horiz-adv-x="470" 
d="M176 703l-56 -87h66l36 63l39 -63h59l-51 87h-93zM163 718h119l73 -121l28 -64h-101l-33 48l-27 -48h-109l-26 64z" />
    <glyph glyph-name="perthousand" unicode="&#x2030;" horiz-adv-x="1306" 
d="M1038 180q31 4 31 70q-14 -3 -22.5 -16.5t-8.5 -53.5zM987 259q0 39 13.5 62.5t34.5 23.5q26 0 39 -25t13 -57q0 -50 -11.5 -76t-38.5 -26q-23 0 -36.5 27t-13.5 71zM910 256q0 -38 9.5 -69.5t27 -54.5t43.5 -36t59 -13q21 0 42.5 11.5t38.5 34.5t27.5 56t10.5 77
q0 35 -9.5 65t-27.5 52.5t-43 35t-56 12.5q-26 0 -48.5 -13t-39 -35.5t-25.5 -54t-9 -68.5zM891 256q0 41 10.5 76t29.5 60t45.5 39t58.5 14q34 0 57.5 -10t46.5 -36q15 -17 29.5 -43t25.5 -55.5t18 -60.5t7 -59q0 -44 -11 -79.5t-30 -60t-45 -37.5t-56 -13q-53 0 -87.5 30
t-60.5 84q-16 34 -27 69t-11 82zM528 650l-237 -559h80l237 559h-80zM516 668h116l23 -79l-250 -589h-116l-24 74zM699 180q31 4 31 70q-13 -3 -22 -16t-9 -54zM648 259q0 39 13.5 62.5t34.5 23.5q25 0 38.5 -25t13.5 -57q0 -49 -11.5 -75.5t-38.5 -26.5q-23 0 -36.5 27
t-13.5 71zM570 256q0 -38 9.5 -69.5t27.5 -54.5t44 -36t59 -13q21 0 42.5 12t39 34.5t28 56t10.5 76.5q0 34 -9.5 64.5t-27.5 52.5t-43.5 35t-56.5 13q-27 0 -49.5 -13t-39 -36t-25.5 -54t-9 -68zM551 256q0 41 10.5 76t30 60t46 39t58.5 14q34 0 57.5 -10t46.5 -36
q15 -17 29 -43t25 -55.5t17.5 -60.5t6.5 -59q0 -89 -39.5 -139.5t-100.5 -50.5q-53 0 -87.5 29.5t-60.5 84.5q-16 34 -27.5 69t-11.5 82zM188 410q31 4 31 71q-13 -3 -22 -16.5t-9 -54.5zM137 490q0 39 13.5 62t34.5 23q25 0 38.5 -25t13.5 -57q0 -49 -11.5 -75.5
t-38.5 -26.5q-23 0 -36.5 27.5t-13.5 71.5zM59 487q0 -38 9.5 -70t27.5 -55t44 -36t59 -13q21 0 42.5 12t39 34.5t28 56t10.5 76.5q0 34 -9.5 64.5t-27.5 52.5t-43.5 35t-56.5 13q-27 0 -49.5 -13t-39 -35.5t-25.5 -53.5t-9 -68zM40 486q0 41 10.5 76t29.5 60t45.5 39
t58.5 14q34 0 58 -10t47 -36q15 -17 29 -42.5t25 -55t17.5 -60.5t6.5 -59q0 -89 -39.5 -139.5t-100.5 -50.5q-53 0 -87.5 29.5t-60.5 84.5q-16 34 -27.5 68.5t-11.5 81.5z" />
    <glyph glyph-name="guilsinglleft" unicode="&#x2039;" horiz-adv-x="296" 
d="M109 400l-27 -104l26 -100h69l-26 100l28 104h-70zM60 293l33 125h102l34 -73l-34 -122l31 -117h-108l-27 70z" />
    <glyph glyph-name="OE" unicode="&#x152;" horiz-adv-x="927" 
d="M460 381q-41 41 -90 41q-26 0 -49 -10t-40.5 -27.5t-27 -42t-9.5 -52.5q19 -22 43.5 -33.5t49.5 -11.5q27 0 49.5 10.5t39 27.5t26 38.5t9.5 44.5q0 5 -0.5 7.5t-0.5 7.5zM480 370q0 -32 -12 -58.5t-31.5 -45t-45 -29t-52.5 -10.5q-28 0 -53.5 10t-45.5 28.5t-32 45.5
t-12 60q0 27 11 52.5t29.5 44.5t44.5 30.5t56 11.5t56 -11.5t45.5 -31t30.5 -45t11 -52.5zM466 626q-27 11 -57 20.5t-71 9.5q-59 0 -111 -22.5t-91 -61.5t-61.5 -91.5t-22.5 -112.5t22.5 -112t61.5 -90.5t92 -61t115 -22.5q26 0 48 3.5t40 7.5h350l37 142h-200v89h173
l27 100h-200v83h173l41 165h-124l-6 -23h-231zM458 667h230l6 23h161l34 -81l-44 -178l29 -67l-29 -121l29 -66l-44 -177h-328l-13 24q-23 -11 -50 -21.5t-70 -10.5q-27 0 -55.5 5.5t-55.5 16t-51 25t-43 31.5q-24 22 -47.5 57.5t-42 76t-30 83.5t-11.5 81q0 63 24 119
t65.5 97.5t96.5 65.5t118 24q33 0 60.5 -7t54.5 -18z" />
    <glyph glyph-name="quoteleft" unicode="&#x2018;" horiz-adv-x="358" 
d="M201 651q-46 -5 -75 -37t-29 -75q0 -40 20.5 -62.5t58.5 -22.5q10 0 21.5 4.5t21.5 13.5t17 22t7 31q0 30 -15.5 45.5t-47.5 28.5zM248 575q22 -38 33 -71t11 -49q0 -19 -7.5 -35.5t-19.5 -28.5t-28.5 -19t-34.5 -7q-23 0 -44 10t-28 21q-26 44 -39 82t-13 62
q0 28 12.5 52.5t32 42.5t43 28t45.5 10q6 0 10.5 -0.5t10.5 -1.5l29 -71z" />
    <glyph glyph-name="quoteright" unicode="&#x2019;" horiz-adv-x="358" 
d="M136 461q51 10 78.5 44t27.5 77q0 15 -5.5 28.5t-15.5 24.5t-23.5 17.5t-29.5 6.5q-32 0 -52 -21.5t-20 -53.5q0 -20 15.5 -39t48.5 -29zM133 498q-25 13 -40.5 38t-15.5 54q0 18 7 34t19.5 27.5t29.5 18.5t36 7q26 0 50.5 -17t43 -41t30 -51t11.5 -48q0 -29 -10 -54.5
t-29 -45.5t-47 -32t-63 -14l-49 66z" />
    <glyph glyph-name="quotedblleft" unicode="&#x201c;" horiz-adv-x="608" 
d="M450 651q-46 -5 -75 -37t-29 -75q0 -40 20.5 -62.5t58.5 -22.5q10 0 21.5 4.5t22 13.5t17.5 22t7 31q0 30 -15.5 45.5t-47.5 28.5zM497 575q22 -38 33 -71t11 -49q0 -19 -7 -35.5t-19.5 -28.5t-28.5 -19t-34 -7q-23 0 -44.5 10t-28.5 21q-26 44 -39 82t-13 62
q0 28 13 52.5t32.5 42.5t43 28t45.5 10q6 0 10 -0.5t10 -1.5l29 -71zM201 651q-46 -5 -75 -37t-29 -75q0 -40 20.5 -62.5t58.5 -22.5q10 0 21.5 4.5t21.5 13.5t17 22t7 31q0 30 -15.5 45.5t-47.5 28.5zM248 575q22 -38 33 -71t11 -49q0 -19 -7.5 -35.5t-19.5 -28.5
t-28.5 -19t-34.5 -7q-23 0 -44 10t-28 21q-26 44 -39 82t-13 62q0 28 12.5 52.5t32 42.5t43 28t45.5 10q6 0 10.5 -0.5t10.5 -1.5l29 -71z" />
    <glyph glyph-name="quotedblright" unicode="&#x201d;" 
d="M376 459q54 11 80 44.5t26 75.5q0 14 -5.5 28t-15 25t-23 17.5t-29.5 6.5q-29 0 -51 -19.5t-22 -54.5q0 -23 16 -41.5t48 -26.5zM373 495q-24 12 -40 37.5t-16 54.5q0 35 25.5 61t66.5 26q25 0 49 -16t43 -40t31 -51.5t12 -49.5q0 -31 -11.5 -57.5t-31 -46t-46.5 -30.5
t-58 -11l-51 65zM126 460q49 8 77.5 41.5t28.5 77.5q0 30 -20.5 53.5t-52.5 23.5q-31 0 -52 -20.5t-21 -52.5q0 -48 63 -70zM123 495q-56 31 -56 93q0 18 7 33.5t19.5 27t29.5 18.5t36 7q26 0 50.5 -17t43 -41.5t30 -51.5t11.5 -47q0 -28 -9.5 -53t-28.5 -45t-46.5 -32.5
t-63.5 -15.5l-50 66z" />
    <glyph glyph-name="bullet" unicode="&#x2022;" horiz-adv-x="500" 
d="M117 288q0 27 10.5 51t29 42.5t42.5 29t51 10.5q28 0 52.5 -10.5t42.5 -28.5t28.5 -42t10.5 -52t-10.5 -52.5t-28.5 -42.5t-42.5 -28.5t-52.5 -10.5t-52.5 10.5t-42.5 28.5t-28 42.5t-10 52.5z" />
    <glyph glyph-name="emdash" unicode="&#x2014;" horiz-adv-x="767" 
d="M671 258l20 71h-625l-22 -71h627zM716 163h-664l-32 75l32 109h664l31 -76z" />
    <glyph glyph-name="tilde" unicode="&#x2dc;" horiz-adv-x="470" 
d="M125 623q8 5 18 9.5t29 4.5q9 0 21 -3.5t25.5 -7l26.5 -7t25 -3.5q18 0 31.5 7.5t24.5 17.5l-18 55q-10 -9 -20 -14.5t-30 -5.5q-26 0 -51 9.5t-54 9.5q-14 0 -25.5 -5.5t-21.5 -12.5zM116 593l-29 92q17 13 34.5 20.5t37.5 7.5q25 0 49.5 -9.5t56.5 -9.5q8 0 23 8.5
t28 23.5l41 -67l26 -81q-32 -36 -67 -36q-19 0 -33.5 3t-27 6.5l-23.5 6.5t-23 3q-32 0 -56 -28z" />
    <glyph glyph-name="trademark" unicode="&#x2122;" horiz-adv-x="728" 
d="M684 294v361h-101l-75 -92l-72 92h-105l-24 -92h28v-269h92v240l82 -108l82 113v-245h93zM188 294v269h61l26 108h-82l-5 -16h-129l-24 -92h60v-269h93zM281 502h-59v-269h-111l-27 53v216h-40l-24 50l29 115h131l4 15h105l25 -51l9 36h118l67 -85l71 85h113l26 -50v-384
h-111l-28 53v137l-47 -63l-70 92v-219h-115l-24 50v219h-4l-26 52z" />
    <glyph glyph-name="guilsinglright" unicode="&#x203a;" horiz-adv-x="296" 
d="M161 190l27 103l-26 101h-68l25 -101l-28 -103h70zM236 223l-33 -125h-102l-34 74l34 121l-30 119h107l28 -71z" />
    <glyph glyph-name="oe" unicode="&#x153;" horiz-adv-x="819" 
d="M461 343q7 34 28 53t48 19q31 0 50 -18.5t23 -53.5h-149zM321 271q-17 11 -36 11q-27 0 -41.5 -13.5t-24.5 -38.5q7 -4 15.5 -6.5t19.5 -2.5q47 0 67 50zM341 291q0 -38 -24.5 -63t-59.5 -25q-19 0 -35.5 6.5t-28.5 18t-19 26.5t-7 33q0 41 25 65.5t65 24.5
q18 0 33.5 -7.5t27 -19.5t17.5 -27.5t6 -31.5zM257 495q-44 0 -82 -16t-66 -44.5t-43.5 -66.5t-15.5 -82q0 -37 14.5 -73t41.5 -64t66 -45.5t87 -17.5q42 0 75.5 15.5t65.5 45.5q31 -29 77.5 -45.5t98.5 -16.5q28 0 55.5 3t54.5 8l26 105q-20 -5 -45 -9t-60 -4
q-63 0 -101 24t-46 59h278q-11 115 -66 170.5t-134 55.5q-86 0 -143 -60q-31 29 -67 43.5t-71 14.5zM553 515q48 0 95.5 -31t82.5 -94q32 -58 46.5 -108.5t15.5 -103.5h-36l14 -33l-35 -141q-31 -7 -62 -10t-62 -3q-114 0 -181 59q-33 -29 -69.5 -43.5t-69.5 -14.5
q-72 0 -127 36.5t-90 111.5q-19 41 -31.5 76t-12.5 74q0 48 18 89t48.5 70.5t71.5 46.5t87 17q40 0 73.5 -13t65.5 -38q42 33 78.5 43t79.5 10z" />
    <glyph glyph-name="Ydieresis" unicode="&#x178;" horiz-adv-x="549" 
d="M289 871l-24 -91h85l24 91h-85zM139 871l-25 -91h86l24 91h-85zM126 889h119l18 -47l14 47h118l27 -67l-33 -122h-120l-19 49l-13 -49h-118l-27 65zM309 93v260l156 296h-156l-72 -162l-71 162h-157l158 -301v-255h142zM362 0h-175l-38 79v264l-170 324h200l58 -136
l61 136h193l42 -82l-171 -317v-268z" />
    <glyph glyph-name="exclamdown" unicode="&#xa1;" horiz-adv-x="386" 
d="M104 387q0 -30 20.5 -51.5t49.5 -21.5q32 0 52.5 20.5t20.5 52.5q0 29 -21 50t-50 21q-15 0 -28 -6t-22.5 -15.5t-15.5 -22.5t-6 -27zM101 -105h143l30 124h-22l-17 216h-116zM80 -119l20 372h38q-9 13 -18.5 31.5t-17 37.5t-12.5 37t-5 30q0 20 8 36t21 27.5t29 17.5
t32 6q35 0 57 -22.5t42 -62.5q12 -24 20 -44t8 -37q0 -46 -41 -75l27 -54l10 -149l35 -68l-40 -162h-175z" />
    <glyph glyph-name="cent" unicode="&#xa2;" horiz-adv-x="411" 
d="M279 168q8 1 18 2t19 4l-26 116q-13 -5 -30 -5q-38 0 -62.5 25t-24.5 60q0 34 24 60.5t66 26.5q7 0 14 -1.5t12 -3.5l27 115q-9 3 -19.5 4.5l-17.5 2.5v52h-71v-58q-34 -8 -62 -27t-48 -45.5t-31 -58.5t-11 -66q0 -35 10.5 -66.5t30.5 -57.5t48 -45t63 -28v-50h71v44z
M373 88q-11 -4 -26.5 -7.5t-25.5 -5.5v-42h-91l-33 64q-47 23 -71.5 55t-43.5 70q-18 36 -31.5 70.5t-13.5 76.5q0 74 40.5 131.5t112.5 81.5v62h110l73 -139l-38 -152q-9 3 -19.5 7t-18.5 4q-27 0 -43 -13.5t-24 -41.5q13 -6 29 -6q22 0 40 12l36 -68z" />
    <glyph glyph-name="sterling" unicode="&#xa3;" horiz-adv-x="604" 
d="M96 104q20 11 40 17t44 6q27 0 52 -5.5t49.5 -12t49.5 -12t51 -5.5q81 0 148 48l-31 115q-22 -13 -45 -22t-51 -9q-27 0 -48 3t-39 6.5l-34 6.5t-32 3q-25 0 -47 -3q17 19 33.5 41t28.5 57h72v85h-93q-3 9 -6 22t-3 28q0 31 24 51t58 20q39 0 72.5 -15.5t68.5 -41.5
l41 165l-118 21l-8 -29q-20 5 -45 9.5t-57 4.5q-38 0 -70 -11.5t-55.5 -32.5t-37 -49.5t-13.5 -61.5q0 -23 6.5 -42t14.5 -38h-44v-85h65v-18q0 -67 -70 -107zM584 48q-42 -29 -84.5 -43.5t-76.5 -14.5q-27 0 -53 6t-51 13.5t-49.5 13.5t-48.5 6q-31 0 -54 -10.5t-45 -24.5
l-37 83l-38 147q9 5 20 10t19 14l-32 74v117h35q-5 15 -9 31.5t-4 32.5q0 36 13.5 67.5t39.5 55t64.5 37t88.5 13.5q19 0 39 -4t39 -7l7 27l156 -27l34 -83l-53 -205q-38 29 -74 45t-77 20l38 -86v-114h12q23 0 49.5 10t55.5 30l35 -84z" />
    <glyph glyph-name="yen" unicode="&#xa5;" horiz-adv-x="606" 
d="M352 93v107h52v53h-52v53h52v60h-52l153 283h-153l-75 -163l-70 163h-156l146 -283h-41v-60h51v-53h-51v-53h51v-107h145zM404 0h-175l-91 186v80h13l-13 28v85h32l-149 285l197 3l53 -95l9 -35l58 130h193l41 -84l-133 -248l20 -41v-87h-14l14 -28v-76h-55v-103z" />
    <glyph glyph-name="dieresis" unicode="&#xa8;" horiz-adv-x="503" 
d="M284 705l-24 -92h85l24 92h-85zM134 705l-25 -92h86l24 92h-85zM121 723h119l18 -47l14 47h118l27 -67l-33 -123h-120l-19 49l-13 -49h-118l-27 66z" />
    <glyph glyph-name="uni2606" unicode="&#x2606;" horiz-adv-x="763" 
d="M745 402l-224 -163l85 -262l-224 162l-223 -162l85 262l-224 163h277l85 263l86 -263h277zM595 354h-163l-50 153l-49 -153h-163l132 -97l-50 -153l130 95l131 -95l-50 153z" />
    <glyph glyph-name="uni2618" unicode="&#x2618;" horiz-adv-x="899" 
d="M858 323q0 -19 -8.5 -56.5t-8.5 -57.5q0 -11 3 -32.5t3 -32.5q0 -43 -32 -67q-29 -21 -73 -21q-48 0 -109 39q-31 20 -96 73q-48 39 -61 39t-13 -14q0 5 3 -28q1 -20 1 -45q0 -37 -12 -110q-14 -76 -26 -105q-16 -34 -43 -34q-31 0 -31 22q0 -1 38 94q36 91 36 164
q0 55 -17 55q-14 0 -59 -40q-38 -34 -94 -64q-65 -35 -104 -35q-48 0 -80 26q-34 28 -34 75q0 22 8.5 64t8.5 64q0 9 -2.5 26.5t-2.5 26.5q0 97 100 97q48 0 114 -36l104 -66q-11 37 -78 126q-56 74 -56 134q0 57 34.5 94t90.5 37q22 0 65.5 -8.5t65.5 -8.5q15 0 43.5 7
t43.5 7q52 0 80 -44q24 -39 24 -94q0 -43 -65 -128l-94 -122l107 61q67 36 115 36q111 0 111 -118z" />
    <glyph glyph-name="uni2661" unicode="&#x2661;" horiz-adv-x="762" 
d="M713 594q0 -66 -43 -143q-27 -49 -87 -124q-82 -104 -119 -161q-60 -94 -83 -181q-24 87 -84 181q-36 57 -118 161q-61 75 -87 124q-43 77 -43 143q0 67 46 111.5t114 44.5q63 0 112 -46q46 -44 60 -107q14 63 60 107q49 46 111 46q68 0 114.5 -44.5t46.5 -111.5z
M673 594q0 51 -35 83.5t-86 32.5q-76 0 -117 -81q-5 -9 -15 -41q-12 -38 -39 -38t-39 38q-4 14 -16 41q-41 81 -117 81q-51 0 -85.5 -32.5t-34.5 -83.5q0 -58 41 -130q24 -42 80 -112q126 -160 171 -254q45 94 171 254q55 70 80 112q41 72 41 130z" />
    <glyph glyph-name="heart" unicode="&#x2665;" horiz-adv-x="762" 
d="M713 594q0 -66 -43 -143q-27 -49 -87 -124q-82 -104 -119 -161q-60 -94 -83 -181q-24 87 -84 181q-36 57 -118 161q-61 75 -87 124q-43 77 -43 143q0 67 46 111.5t114 44.5q63 0 112 -46q46 -44 60 -107q14 63 60 107q49 46 111 46q68 0 114.5 -44.5t46.5 -111.5z" />
    <glyph glyph-name="infinity" unicode="&#x221e;" horiz-adv-x="1000" 
d="M943 216q0 -89 -51 -155q-55 -72 -142 -72q-65 0 -129 37q-58 35 -100 91l-29 40q-104 -168 -246 -168q-85 0 -139 73q-51 66 -51 154t52 154q55 72 141 72q65 0 129 -38q59 -35 100 -90l30 -40q106 168 245 168q86 0 140 -72q50 -66 50 -154zM917 216q0 73 -39 129
q-45 62 -115 62q-126 0 -227 -170l66 -84q40 -50 73 -78q40 -34 91 -34q67 0 111 55q40 52 40 120zM463 194l-65 84q-39 50 -73 78q-40 34 -92 34q-67 0 -110 -55q-41 -52 -41 -120q0 -72 40 -129q45 -62 114 -62q127 0 227 170z" />
    <glyph glyph-name="uni26AD" unicode="&#x26ad;" horiz-adv-x="784" 
d="M745 284q0 -90 -63 -153t-153 -63q-77 0 -137 48q-59 -48 -137 -48q-90 0 -153 63t-63 153q0 91 63 153.5t153 62.5q78 0 137 -48q60 48 137 48q90 0 153 -62.5t63 -153.5zM697 284q0 70 -49 119.5t-119 49.5q-58 0 -103 -35q46 -59 46 -134t-46 -134q45 -34 103 -34
q70 0 119 49t49 119zM424 284q0 55 -32 99q-32 -44 -32 -99t32 -99q32 44 32 99zM358 150q-45 59 -45 134t45 134q-44 35 -103 35q-70 0 -119 -49.5t-49 -119.5t49 -119t119 -49q59 0 103 34z" />
    <glyph glyph-name="guillemotright" unicode="&#xbb;" horiz-adv-x="433" 
d="M294 190l29 103l-29 101h-67l27 -101l-28 -103h68zM162 190l27 103l-26 101h-68l25 -101l-28 -103h70zM339 98h-100l-14 30l-11 -30h-112l-34 74l34 121l-30 119h107l28 -71l20 -73l8 25l-30 119h105l29 -71l34 -119z" />
    <glyph glyph-name="questiondown" unicode="&#xbf;" horiz-adv-x="482" 
d="M246 30q3 -1 5.5 -1.5t5.5 -0.5q20 0 35 3.5t32 19.5q-4 1 -6.5 1.5t-6.5 0.5q-22 0 -37 -4t-28 -19zM181 386q0 -29 21 -50.5t48 -21.5q32 0 53 20.5t21 52.5q0 30 -21 51t-52 21q-29 0 -49.5 -21.5t-20.5 -51.5zM298 237q-11 2 -25.5 2.5t-26.5 0.5q-36 0 -67.5 -14
t-54.5 -37.5t-36 -55t-13 -65.5q0 -41 15 -75t41 -58t60.5 -37.5t72.5 -13.5q39 0 73.5 12.5t68.5 37.5l-70 99q-14 -8 -30 -15.5t-36 -7.5q-41 0 -61.5 22.5t-20.5 46.5q0 34 22 53t57 19q16 0 31 -3v89zM461 -147q-40 -33 -79.5 -49t-90.5 -16q-66 0 -117 35.5t-83 104.5
q-18 39 -28 72.5t-10 59.5q0 73 41.5 124t113.5 71q-11 16 -20 35t-15.5 37t-10 34t-3.5 27q0 16 6.5 31.5t18 28.5t28.5 21t38 8q34 0 55.5 -18.5t37.5 -52.5q15 -31 23.5 -56t8.5 -42q0 -55 -51 -83l24 -55v-130l78 -107z" />
    <glyph glyph-name="Agrave" unicode="&#xc0;" horiz-adv-x="610" 
d="M208 870l51 -88h78l-32 88h-97zM177 888h142l28 -66l42 -122h-112l-72 122zM343 308l-24 94l-23 -94h47zM367 290h-134l65 268zM571 93l-162 556h-267l-36 -142h47l-118 -414h150l20 79h191l20 -79h155zM631 0h-205l-25 77h-159l-19 -77h-174l-39 77l104 356l-31 59
l45 175h295l34 -66z" />
    <glyph glyph-name="Aacute" unicode="&#xc1;" horiz-adv-x="610" 
d="M290 870l-31 -87h79l51 87h-99zM277 888h142l31 -67l-72 -121h-113l-29 66zM343 308l-24 94l-23 -94h47zM367 290h-134l65 268zM571 93l-162 556h-267l-36 -142h47l-118 -414h150l20 79h191l20 -79h155zM631 0h-205l-25 77h-159l-19 -77h-174l-39 77l104 356l-31 59
l45 175h295l34 -66z" />
    <glyph glyph-name="Acircumflex" unicode="&#xc2;" horiz-adv-x="610" 
d="M249 868l-56 -85h67l36 62l38 -62h60l-52 85h-93zM237 886h118l74 -122l28 -64h-102l-33 48l-27 -48h-108l-27 64zM343 308l-24 94l-23 -94h47zM367 290h-134l65 268zM571 93l-162 556h-267l-36 -142h47l-118 -414h150l20 79h191l20 -79h155zM631 0h-205l-25 77h-159
l-19 -77h-174l-39 77l104 356l-31 59l45 175h295l34 -66z" />
    <glyph glyph-name="Atilde" unicode="&#xc3;" horiz-adv-x="610" 
d="M185 789q8 5 18.5 9.5t28.5 4.5q9 0 21 -3t25.5 -7t27 -7t25.5 -3q19 0 31.5 7t23.5 17l-18 56q-10 -9 -19.5 -14.5t-29.5 -5.5q-26 0 -51.5 9.5t-54.5 9.5q-14 0 -25.5 -5.5t-21.5 -12.5zM177 760l-30 92q17 13 34.5 20.5t37.5 7.5q26 0 50 -9.5t56 -9.5q8 0 23 8t28 24
l42 -67l26 -81q-15 -18 -33 -27t-35 -9q-19 0 -33.5 3t-26.5 6.5l-23 6.5t-23 3q-33 0 -56 -28zM343 308l-24 94l-23 -94h47zM367 290h-134l65 268zM571 93l-162 556h-267l-36 -142h47l-118 -414h150l20 79h191l20 -79h155zM631 0h-205l-25 77h-159l-19 -77h-174l-39 77
l104 356l-31 59l45 175h295l34 -66z" />
    <glyph glyph-name="Adieresis" unicode="&#xc4;" horiz-adv-x="610" 
d="M340 871l-25 -91h85l24 91h-84zM190 871l-25 -91h86l23 91h-84zM176 889h119l19 -47l13 47h119l26 -67l-33 -122h-120l-18 49l-13 -49h-119l-26 65zM343 308l-24 94l-23 -94h47zM367 290h-134l65 268zM571 93l-162 556h-267l-36 -142h47l-118 -414h150l20 79h191l20 -79
h155zM631 0h-205l-25 77h-159l-19 -77h-174l-39 77l104 356l-31 59l45 175h295l34 -66z" />
    <glyph glyph-name="Aring" unicode="&#xc5;" horiz-adv-x="610" 
d="M291 807q-11 0 -19 6.5t-8 20.5q0 11 8.5 18.5t19.5 7.5t18 -7.5t7 -18.5q0 -14 -8 -20.5t-18 -6.5zM220 834q0 -35 22.5 -53t48.5 -18q27 0 49 18t22 53q0 29 -21 49.5t-50 20.5t-50 -20.5t-21 -49.5zM201 834q0 37 24.5 60t66.5 23q20 0 34.5 -4.5t25 -14.5t19 -25
t16.5 -36q5 -14 9.5 -28.5t4.5 -26.5q0 -53 -26.5 -76t-61.5 -23q-22 0 -42 11t-32 28q-6 9 -13 24t-12.5 31.5t-9 32t-3.5 24.5zM343 308l-24 94l-23 -94h47zM367 290h-134l65 268zM571 93l-162 556h-267l-36 -142h47l-118 -414h150l20 79h191l20 -79h155zM631 0h-205
l-25 77h-159l-19 -77h-174l-39 77l104 356l-31 59l45 175h295l34 -66z" />
    <glyph glyph-name="AE" unicode="&#xc6;" horiz-adv-x="861" 
d="M342 307l-22 92l-22 -92h44zM365 289h-135l67 275zM744 93l37 144h-255l-25 87h183l26 102h-241l-24 81h176l41 166h-124l-7 -24h-390l-37 -142h46l-118 -414h150l20 78h192l20 -78h330zM790 0h-357l-33 78h-155l-17 -78h-184l-34 82l98 345l-27 62l46 178h390l8 24h157
l34 -78l-43 -169h55l39 -87l-27 -102h60l35 -75z" />
    <glyph glyph-name="Ccedilla" unicode="&#xc7;" horiz-adv-x="587" 
d="M373 93q31 5 63 14.5t75 39.5l-64 130q-52 -46 -114 -46q-29 0 -54.5 10.5t-45 29t-30.5 44.5t-11 57q0 30 11.5 57t31.5 46.5t47.5 31t59.5 11.5q29 0 53.5 -10.5t48.5 -27.5l66 147l-112 42l-11 -20q-12 3 -25.5 5t-28.5 2q-56 0 -106.5 -21.5t-89 -60t-61.5 -91
t-23 -113.5q0 -47 16 -92.5t47 -83t77 -64.5t106 -37v-100q15 6 28 6q14 0 25 -9.5t11 -22.5q0 -18 -10 -27.5t-26 -9.5q-8 0 -15.5 1t-12.5 3l-18 -65q27 -9 54 -9q53 0 83 30.5t30 75.5q0 34 -19.5 57t-55.5 28v42zM567 71q-51 -40 -109 -62q15 -31 22.5 -51t10 -33.5
t2 -22.5t-0.5 -18q0 -19 -9 -38t-26.5 -34t-42 -24t-54.5 -9q-21 0 -37 4.5t-31 12.5l-32 64l27 96q1 -1 5.5 -2.5t6.5 -2.5l-18 26v29q-37 13 -65 29t-49.5 37t-39.5 47.5t-35 59.5q-26 50 -42 94.5t-16 94.5q0 66 24.5 122.5t66 97t95 63.5t111.5 23q11 0 23 -2l25 -4
l11 22l148 -55l23 -67l-85 -197q-29 25 -56 39t-53 14q-54 0 -88.5 -33t-37.5 -99q21 -23 44 -33t55 -10t58 16t55 42l85 -167z" />
    <glyph glyph-name="Egrave" unicode="&#xc8;" horiz-adv-x="533" 
d="M184 870l52 -88h77l-31 88h-98zM153 888h143l28 -66l42 -122h-112l-72 122zM386 93l37 143h-199v89h173l26 100h-199v82h173l40 165h-123l-7 -23h-230l-35 -142h40v-414h304zM436 0h-336l-36 79v334h-6l-38 78l44 176h229l6 23h160l36 -81l-45 -177l31 -69l-31 -119
l31 -67z" />
    <glyph glyph-name="Eacute" unicode="&#xc9;" horiz-adv-x="533" 
d="M233 870l-30 -87h78l51 87h-99zM220 888h142l31 -67l-72 -121h-113l-29 66zM386 93l37 143h-199v89h173l26 100h-199v82h173l40 165h-123l-7 -23h-230l-35 -142h40v-414h304zM436 0h-336l-36 79v334h-6l-38 78l44 176h229l6 23h160l36 -81l-45 -177l31 -69l-31 -119
l31 -67z" />
    <glyph glyph-name="Ecircumflex" unicode="&#xca;" horiz-adv-x="533" 
d="M212 868l-55 -85h66l36 62l38 -62h60l-52 85h-93zM200 886h119l73 -122l28 -64h-101l-33 48l-28 -48h-108l-26 64zM386 93l37 143h-199v89h173l26 100h-199v82h173l40 165h-123l-7 -23h-230l-35 -142h40v-414h304zM436 0h-336l-36 79v334h-6l-38 78l44 176h229l6 23h160
l36 -81l-45 -177l31 -69l-31 -119l31 -67z" />
    <glyph glyph-name="Edieresis" unicode="&#xcb;" horiz-adv-x="533" 
d="M297 871l-25 -91h86l24 91h-85zM147 871l-25 -91h86l24 91h-85zM133 889h119l19 -47l13 47h119l26 -67l-33 -122h-120l-18 49l-13 -49h-119l-26 65zM386 93l37 143h-199v89h173l26 100h-199v82h173l40 165h-123l-7 -23h-230l-35 -142h40v-414h304zM436 0h-336l-36 79v334
h-6l-38 78l44 176h229l6 23h160l36 -81l-45 -177l31 -69l-31 -119l31 -67z" />
    <glyph glyph-name="Igrave" unicode="&#xcc;" horiz-adv-x="349" 
d="M76 870l52 -88h77l-31 88h-98zM45 888h142l29 -66l42 -122h-112l-72 122zM230 93v556h-147l-36 -142h41v-414h142zM284 0h-176l-38 77v337h-6l-39 78l45 175h174l40 -76v-591z" />
    <glyph glyph-name="Iacute" unicode="&#xcd;" horiz-adv-x="349" 
d="M118 870l-30 -87h78l51 87h-99zM105 888h142l31 -67l-72 -121h-113l-29 66zM230 93v556h-147l-36 -142h41v-414h142zM284 0h-176l-38 77v337h-6l-39 78l45 175h174l40 -76v-591z" />
    <glyph glyph-name="Icircumflex" unicode="&#xce;" horiz-adv-x="349" 
d="M105 868l-56 -85h66l36 62l39 -62h59l-51 85h-93zM92 886h119l73 -122l28 -64h-101l-33 48l-27 -48h-109l-26 64zM230 93v556h-146l-37 -142h42v-414h141zM284 0h-175l-38 77v337h-6l-39 78l45 175h174l39 -76v-591z" />
    <glyph glyph-name="Idieresis" unicode="&#xcf;" horiz-adv-x="349" 
d="M209 871l-24 -91h85l24 91h-85zM59 871l-25 -91h86l24 91h-85zM46 889h119l18 -47l14 47h118l27 -67l-33 -122h-120l-19 49l-13 -49h-118l-27 65zM230 93v556h-146l-37 -142h42v-414h141zM284 0h-175l-38 77v337h-6l-39 78l45 175h174l39 -76v-591z" />
    <glyph glyph-name="Ntilde" unicode="&#xd1;" horiz-adv-x="666" 
d="M195 789q8 5 18.5 9.5t28.5 4.5q9 0 21 -3t25.5 -7t27 -7t25.5 -3q19 0 31.5 7t23.5 17l-18 56q-10 -9 -19.5 -14.5t-29.5 -5.5q-26 0 -51.5 9.5t-54.5 9.5q-14 0 -25.5 -5.5t-21.5 -12.5zM187 760l-30 92q17 13 34.5 20.5t37.5 7.5q26 0 50 -9.5t56 -9.5q8 0 23 8t28 24
l42 -67l26 -81q-15 -18 -33 -27t-35 -9q-19 0 -33.5 3t-26.5 6.5l-23 6.5t-23 3q-33 0 -56 -28zM553 93v556h-142v-278l-169 278h-164l-37 -142h43v-414h142v334l197 -334h130zM606 0h-156l-170 282v-282h-177l-37 78v337h-5l-41 79l46 173h186l141 -234v234h173l40 -77
v-590z" />
    <glyph glyph-name="Ograve" unicode="&#xd2;" horiz-adv-x="708" 
d="M265 870l52 -88h77l-31 88h-98zM234 888h142l29 -66l42 -122h-112l-72 122zM461 382q-42 40 -91 40q-51 0 -87 -34t-38 -97q37 -45 93 -45q27 0 49.5 10.5t39 28t26 39t9.5 42.5q0 5 -0.5 8t-0.5 8zM481 371q0 -30 -11 -56.5t-30.5 -45.5t-45.5 -30t-55 -11t-54.5 10.5
t-45 29t-31 45t-11.5 59.5q0 27 11 52.5t30 44.5t45 30.5t56 11.5q29 0 54.5 -11.5t45 -30.5t31 -44.5t11.5 -53.5zM627 369q0 60 -23 112.5t-62 91t-91.5 61t-111.5 22.5q-62 0 -114.5 -23t-91 -62t-60 -91t-21.5 -110t21.5 -110t60.5 -91.5t92.5 -62.5t117.5 -23
q56 0 107 22t90 60.5t62.5 91t23.5 112.5zM675 304q0 -69 -24.5 -126.5t-66 -98.5t-97 -63.5t-117.5 -22.5q-55 0 -110 21t-95 57q-23 21 -46 55.5t-42.5 76t-31.5 85t-12 81.5q0 63 24 119t65.5 97t97 65t118.5 24q98 0 174 -53t122 -159q19 -43 30 -78.5t11 -79.5z" />
    <glyph glyph-name="Oacute" unicode="&#xd3;" horiz-adv-x="708" 
d="M314 870l-31 -87h79l51 87h-99zM301 888h142l31 -67l-72 -121h-113l-29 66zM461 382q-42 40 -91 40q-51 0 -87 -34t-38 -97q37 -45 93 -45q27 0 49.5 10.5t39 28t26 39t9.5 42.5q0 5 -0.5 8t-0.5 8zM481 371q0 -30 -11 -56.5t-30.5 -45.5t-45.5 -30t-55 -11t-54.5 10.5
t-45 29t-31 45t-11.5 59.5q0 27 11 52.5t30 44.5t45 30.5t56 11.5q29 0 54.5 -11.5t45 -30.5t31 -44.5t11.5 -53.5zM627 369q0 60 -23 112.5t-62 91t-91.5 61t-111.5 22.5q-62 0 -114.5 -23t-91 -62t-60 -91t-21.5 -110t21.5 -110t60.5 -91.5t92.5 -62.5t117.5 -23
q56 0 107 22t90 60.5t62.5 91t23.5 112.5zM675 304q0 -69 -24.5 -126.5t-66 -98.5t-97 -63.5t-117.5 -22.5q-55 0 -110 21t-95 57q-23 21 -46 55.5t-42.5 76t-31.5 85t-12 81.5q0 63 24 119t65.5 97t97 65t118.5 24q98 0 174 -53t122 -159q19 -43 30 -78.5t11 -79.5z" />
    <glyph glyph-name="Ocircumflex" unicode="&#xd4;" horiz-adv-x="708" 
d="M280 868l-56 -85h66l36 62l39 -62h59l-51 85h-93zM267 886h119l73 -122l28 -64h-101l-33 48l-28 -48h-108l-26 64zM461 382q-42 40 -91 40q-51 0 -87 -34t-38 -97q37 -45 93 -45q27 0 49.5 10.5t39 28t26 39t9.5 42.5q0 5 -0.5 8t-0.5 8zM481 371q0 -30 -11 -56.5
t-30.5 -45.5t-45.5 -30t-55 -11t-54.5 10.5t-45 29t-31 45t-11.5 59.5q0 27 11 52.5t30 44.5t45 30.5t56 11.5q29 0 54.5 -11.5t45 -30.5t31 -44.5t11.5 -53.5zM627 369q0 60 -23 112.5t-62 91t-91.5 61t-111.5 22.5q-62 0 -114.5 -23t-91 -62t-60 -91t-21.5 -110t21.5 -110
t60.5 -91.5t92.5 -62.5t117.5 -23q56 0 107 22t90 60.5t62.5 91t23.5 112.5zM675 304q0 -69 -24.5 -126.5t-66 -98.5t-97 -63.5t-117.5 -22.5q-55 0 -110 21t-95 57q-23 21 -46 55.5t-42.5 76t-31.5 85t-12 81.5q0 63 24 119t65.5 97t97 65t118.5 24q98 0 174 -53t122 -159
q19 -43 30 -78.5t11 -79.5z" />
    <glyph glyph-name="Otilde" unicode="&#xd5;" horiz-adv-x="708" 
d="M223 789q8 5 17.5 9.5t28.5 4.5q9 0 21.5 -3t26 -7t26.5 -7t25 -3q19 0 32 7t24 17l-18 56q-10 -9 -20 -14.5t-30 -5.5q-26 0 -51.5 9.5t-54.5 9.5q-13 0 -24.5 -5.5t-22.5 -12.5zM214 760l-29 92q17 13 34 20.5t37 7.5q26 0 50.5 -9.5t56.5 -9.5q8 0 22.5 8t27.5 24
l42 -67l26 -81q-15 -18 -33 -27t-34 -9q-19 0 -33.5 3t-26.5 6.5t-23.5 6.5t-23.5 3q-33 0 -56 -28zM461 382q-42 40 -91 40q-51 0 -87 -34t-38 -97q37 -45 93 -45q27 0 49.5 10.5t39 28t26 39t9.5 42.5q0 5 -0.5 8t-0.5 8zM481 371q0 -30 -11 -56.5t-30.5 -45.5t-45.5 -30
t-55 -11t-54.5 10.5t-45 29t-31 45t-11.5 59.5q0 27 11 52.5t30 44.5t45 30.5t56 11.5q29 0 54.5 -11.5t45 -30.5t31 -44.5t11.5 -53.5zM627 369q0 60 -23 112.5t-62 91t-91.5 61t-111.5 22.5q-62 0 -114.5 -23t-91 -62t-60 -91t-21.5 -110t21.5 -110t60.5 -91.5t92.5 -62.5
t117.5 -23q56 0 107 22t90 60.5t62.5 91t23.5 112.5zM675 304q0 -69 -24.5 -126.5t-66 -98.5t-97 -63.5t-117.5 -22.5q-55 0 -110 21t-95 57q-23 21 -46 55.5t-42.5 76t-31.5 85t-12 81.5q0 63 24 119t65.5 97t97 65t118.5 24q98 0 174 -53t122 -159q19 -43 30 -78.5
t11 -79.5z" />
    <glyph glyph-name="Odieresis" unicode="&#xd6;" horiz-adv-x="708" 
d="M400 871l-24 -91h85l24 91h-85zM250 871l-25 -91h86l24 91h-85zM237 889h118l19 -47l14 47h118l26 -67l-32 -122h-121l-18 49l-13 -49h-119l-26 65zM461 382q-42 40 -91 40q-51 0 -87 -34t-38 -97q37 -45 93 -45q27 0 49.5 10.5t39 28t26 39t9.5 42.5q0 5 -0.5 8t-0.5 8z
M481 371q0 -30 -11 -56.5t-30.5 -45.5t-45.5 -30t-55 -11t-54.5 10.5t-45 29t-31 45t-11.5 59.5q0 27 11 52.5t30 44.5t45 30.5t56 11.5q29 0 54.5 -11.5t45 -30.5t31 -44.5t11.5 -53.5zM627 369q0 60 -23 112.5t-62 91t-91.5 61t-111.5 22.5q-62 0 -114.5 -23t-91 -62
t-60 -91t-21.5 -110t21.5 -110t60.5 -91.5t92.5 -62.5t117.5 -23q56 0 107 22t90 60.5t62.5 91t23.5 112.5zM675 304q0 -69 -24.5 -126.5t-66 -98.5t-97 -63.5t-117.5 -22.5q-55 0 -110 21t-95 57q-23 21 -46 55.5t-42.5 76t-31.5 85t-12 81.5q0 63 24 119t65.5 97t97 65
t118.5 24q98 0 174 -53t122 -159q19 -43 30 -78.5t11 -79.5z" />
    <glyph glyph-name="Oslash" unicode="&#xd8;" horiz-adv-x="709" 
d="M457 388q-19 15 -39.5 25t-43.5 10q-55 0 -90 -33.5t-40 -98.5q20 -21 45 -31.5t49 -10.5t46 9t38.5 25.5t26 40.5t9.5 54q0 6 -1 10zM477 371q0 -29 -10.5 -54.5t-29.5 -44.5t-44.5 -30t-55.5 -11q-29 0 -54 11t-44.5 30t-30.5 44t-11 53q0 30 11 55.5t30 44.5t44.5 30
t55.5 11q29 0 54.5 -11t44 -29.5t29.5 -44t11 -54.5zM227 106q26 -10 53 -15.5t59 -5.5q60 0 111.5 23t90 62t60 90t21.5 107q0 104 -68 187l29 42l-105 76l-29 -39q-22 9 -48 16t-60 7q-62 0 -115 -22.5t-91.5 -60.5t-60.5 -89.5t-22 -109.5q0 -55 17 -102.5t53 -89.5
l-32 -44l105 -76zM640 518l-21 -30q21 -48 38.5 -93.5t17.5 -101.5q0 -61 -24 -115.5t-65 -95t-95 -64t-114 -23.5q-36 0 -61.5 5.5t-43.5 10.5l-42 -57l-132 96l-33 86l28 40q-28 48 -44 96t-16 106t23 111.5t64 94.5t97.5 65.5t123.5 24.5q29 0 53.5 -6t46.5 -14l33 43
l135 -98z" />
    <glyph glyph-name="Ugrave" unicode="&#xd9;" 
d="M211 870l51 -88h78l-32 88h-97zM180 888h142l28 -66l42 -122h-112l-72 122zM509 649h-141v-329q0 -13 -1 -22t-3 -22q-4 -22 -24.5 -37.5t-47.5 -15.5q-40 0 -57 25.5t-17 74.5v326h-146l-37 -142h42v-160q0 -42 2.5 -83.5t25.5 -82.5q26 -47 73 -71.5t112 -24.5
t110 20.5t74 65.5q14 21 21 42.5t10 43.5t3.5 44.5t0.5 45.5v302zM563 590v-328q0 -28 -0.5 -54.5t-5 -51t-14.5 -48.5t-29 -47q-29 -36 -75 -56.5t-100 -20.5q-45 0 -80 9t-62.5 28t-50 47t-42.5 66q-13 23 -21.5 44t-14 41.5t-7.5 42t-2 45.5v108h-7l-39 77l46 175h173
l40 -83v-340q7 -3 13 -3.5t11 -0.5q12 0 25 8.5t20 19.5q7 12 8 32t1 45v322h174z" />
    <glyph glyph-name="Uacute" unicode="&#xda;" 
d="M259 870l-30 -87h78l51 87h-99zM246 888h143l30 -67l-72 -121h-113l-29 66zM509 649h-141v-329q0 -13 -1 -22t-3 -22q-4 -22 -24.5 -37.5t-47.5 -15.5q-40 0 -57 25.5t-17 74.5v326h-146l-37 -142h42v-160q0 -42 2.5 -83.5t25.5 -82.5q26 -47 73 -71.5t112 -24.5
t110 20.5t74 65.5q14 21 21 42.5t10 43.5t3.5 44.5t0.5 45.5v302zM563 590v-328q0 -28 -0.5 -54.5t-5 -51t-14.5 -48.5t-29 -47q-29 -36 -75 -56.5t-100 -20.5q-45 0 -80 9t-62.5 28t-50 47t-42.5 66q-13 23 -21.5 44t-14 41.5t-7.5 42t-2 45.5v108h-7l-39 77l46 175h173
l40 -83v-340q7 -3 13 -3.5t11 -0.5q12 0 25 8.5t20 19.5q7 12 8 32t1 45v322h174z" />
    <glyph glyph-name="Ucircumflex" unicode="&#xdb;" 
d="M259 868l-56 -85h66l36 62l39 -62h59l-51 85h-93zM246 886h119l73 -122l28 -64h-101l-33 48l-28 -48h-108l-26 64zM509 649h-141v-329q0 -13 -1 -22t-3 -22q-4 -22 -24.5 -37.5t-47.5 -15.5q-40 0 -57 25.5t-17 74.5v326h-146l-37 -142h42v-160q0 -42 2.5 -83.5
t25.5 -82.5q26 -47 73 -71.5t112 -24.5t110 20.5t74 65.5q14 21 21 42.5t10 43.5t3.5 44.5t0.5 45.5v302zM563 590v-328q0 -28 -0.5 -54.5t-5 -51t-14.5 -48.5t-29 -47q-29 -36 -75 -56.5t-100 -20.5q-45 0 -80 9t-62.5 28t-50 47t-42.5 66q-13 23 -21.5 44t-14 41.5
t-7.5 42t-2 45.5v108h-7l-39 77l46 175h173l40 -83v-340q7 -3 13 -3.5t11 -0.5q12 0 25 8.5t20 19.5q7 12 8 32t1 45v322h174z" />
    <glyph glyph-name="Udieresis" unicode="&#xdc;" 
d="M354 871l-25 -91h85l24 91h-84zM204 871l-25 -91h85l24 91h-84zM190 889h119l19 -47l13 47h119l26 -67l-33 -122h-120l-18 49l-14 -49h-118l-27 65zM509 649h-141v-329q0 -13 -1 -22t-3 -22q-4 -22 -24.5 -37.5t-47.5 -15.5q-40 0 -57 25.5t-17 74.5v326h-146l-37 -142
h42v-160q0 -42 2.5 -83.5t25.5 -82.5q26 -47 73 -71.5t112 -24.5t110 20.5t74 65.5q14 21 21 42.5t10 43.5t3.5 44.5t0.5 45.5v302zM563 590v-328q0 -28 -0.5 -54.5t-5 -51t-14.5 -48.5t-29 -47q-29 -36 -75 -56.5t-100 -20.5q-45 0 -80 9t-62.5 28t-50 47t-42.5 66
q-13 23 -21.5 44t-14 41.5t-7.5 42t-2 45.5v108h-7l-39 77l46 175h173l40 -83v-340q7 -3 13 -3.5t11 -0.5q12 0 25 8.5t20 19.5q7 12 8 32t1 45v322h174z" />
    <glyph glyph-name="germandbls" unicode="&#xdf;" horiz-adv-x="564" 
d="M279 233q23 4 33 11.5t17 27.5q-7 2 -15 3t-24 1h-6l-25 49v-173zM263 93h14q100 0 151 46t51 134q0 128 -117 161q34 15 51.5 47.5t17.5 67.5q0 125 -169 125q-55 0 -91.5 -10t-57.5 -36q-11 -14 -16.5 -29t-7.5 -32.5t-2.5 -36.5t-1.5 -40h-15l-30 -123h45v-274h124
v389q0 18 0.5 36t5 32t15 23t30.5 9q29 0 43.5 -18t14.5 -43q0 -52 -55 -55v-95q44 -2 66.5 -22.5t22.5 -55.5q0 -64 -61 -77zM259 0h-156l-36 82v194h-14l-36 73l42 158h8l4 63.5t20 58.5q41 63 164 63q61 0 96.5 -11.5t57 -31t34 -44.5l26.5 -53q12 -24 15 -41t3 -35
q0 -24 -5 -45.5t-18 -39.5q32 -50 51 -101.5t19 -88.5q0 -59 -25 -106t-70 -70q-23 -12 -60 -19t-84 -7q-5 0 -8.5 0.5t-8.5 0.5l-19 45v-45z" />
    <glyph glyph-name="agrave" unicode="&#xe0;" horiz-adv-x="576" 
d="M222 703l52 -88h77l-31 88h-98zM191 721h142l29 -66l42 -122h-112l-72 122zM320 232v46q-8 4 -19 6.5t-19 2.5q-40 0 -57 -47q11 -5 24.5 -6.5t27.5 -1.5h43zM338 214h-66q-49 0 -74.5 21.5t-25.5 61.5q0 18 6.5 33t18 26t26 17.5t30.5 6.5q48 0 66.5 -29t18.5 -83v-54z
M338 464q-25 13 -50 21t-51 8q-39 0 -73.5 -15t-59.5 -42t-39.5 -64t-14.5 -81q0 -94 57 -146t169 -52h34l28 70v-70h127l34 126h-37v271h-124v-26zM320 508h152l41 -80v-196h6l34 -75l-40 -157h-132l-20 37l-15 -37h-76q-73 0 -120 36t-83 114q-17 36 -26.5 71t-9.5 70
q0 48 15.5 88t42.5 69.5t64.5 46t81.5 16.5q24 0 44.5 -6t40.5 -15v18z" />
    <glyph glyph-name="aacute" unicode="&#xe1;" horiz-adv-x="576" 
d="M264 703l-30 -87h78l51 87h-99zM251 721h142l31 -67l-72 -121h-113l-29 67zM320 232v46q-8 4 -19 6.5t-19 2.5q-40 0 -57 -47q11 -5 24.5 -6.5t27.5 -1.5h43zM338 214h-66q-49 0 -74.5 21.5t-25.5 61.5q0 18 6.5 33t18 26t26 17.5t30.5 6.5q48 0 66.5 -29t18.5 -83v-54z
M338 464q-25 13 -50 21t-51 8q-39 0 -73.5 -15t-59.5 -42t-39.5 -64t-14.5 -81q0 -94 57 -146t169 -52h34l28 70v-70h127l34 126h-37v271h-124v-26zM320 508h152l41 -80v-196h6l34 -75l-40 -157h-132l-20 37l-15 -37h-76q-73 0 -120 36t-83 114q-17 36 -26.5 71t-9.5 70
q0 48 15.5 88t42.5 69.5t64.5 46t81.5 16.5q24 0 44.5 -6t40.5 -15v18z" />
    <glyph glyph-name="acircumflex" unicode="&#xe2;" horiz-adv-x="576" 
d="M243 703l-55 -87h66l36 63l38 -63h60l-52 87h-93zM231 718h119l73 -121l28 -64h-101l-33 48l-28 -48h-108l-26 64zM320 232v46q-8 4 -19 6.5t-19 2.5q-40 0 -57 -47q11 -5 24.5 -6.5t27.5 -1.5h43zM338 214h-66q-49 0 -74.5 21.5t-25.5 61.5q0 18 6.5 33t18 26t26 17.5
t30.5 6.5q48 0 66.5 -29t18.5 -83v-54zM338 464q-25 13 -50 21t-51 8q-39 0 -73.5 -15t-59.5 -42t-39.5 -64t-14.5 -81q0 -94 57 -146t169 -52h34l28 70v-70h127l34 126h-37v271h-124v-26zM320 508h152l41 -80v-196h6l34 -75l-40 -157h-132l-20 37l-15 -37h-76
q-73 0 -120 36t-83 114q-17 36 -26.5 71t-9.5 70q0 48 15.5 88t42.5 69.5t64.5 46t81.5 16.5q24 0 44.5 -6t40.5 -15v18z" />
    <glyph glyph-name="atilde" unicode="&#xe3;" horiz-adv-x="576" 
d="M173 623q8 5 18 9.5t29 4.5q9 0 21 -3.5t25.5 -7l26.5 -7t25 -3.5q18 0 31.5 7.5t24.5 17.5l-18 55q-10 -9 -20 -14.5t-30 -5.5q-26 0 -51 9.5t-54 9.5q-14 0 -25.5 -5.5t-21.5 -12.5zM164 593l-29 92q17 13 34.5 20.5t37.5 7.5q25 0 49.5 -9.5t56.5 -9.5q8 0 23 8.5
t28 23.5l41 -67l26 -81q-32 -36 -67 -36q-19 0 -33.5 3t-27 6.5l-23.5 6.5t-23 3q-32 0 -56 -28zM320 232v46q-8 4 -19 6.5t-19 2.5q-40 0 -57 -47q11 -5 24.5 -6.5t27.5 -1.5h43zM338 214h-66q-49 0 -74.5 21.5t-25.5 61.5q0 18 6.5 33t18 26t26 17.5t30.5 6.5
q48 0 66.5 -29t18.5 -83v-54zM338 464q-25 13 -50 21t-51 8q-39 0 -73.5 -15t-59.5 -42t-39.5 -64t-14.5 -81q0 -94 57 -146t169 -52h34l28 70v-70h127l34 126h-37v271h-124v-26zM320 508h152l41 -80v-196h6l34 -75l-40 -157h-132l-20 37l-15 -37h-76q-73 0 -120 36t-83 114
q-17 36 -26.5 71t-9.5 70q0 48 15.5 88t42.5 69.5t64.5 46t81.5 16.5q24 0 44.5 -6t40.5 -15v18z" />
    <glyph glyph-name="adieresis" unicode="&#xe4;" horiz-adv-x="576" 
d="M344 705l-24 -92h85l24 92h-85zM194 705l-25 -92h86l24 92h-85zM181 723h119l18 -47l14 47h118l27 -67l-33 -123h-120l-19 49l-13 -49h-118l-27 66zM320 232v46q-8 4 -19 6.5t-19 2.5q-40 0 -57 -47q11 -5 24.5 -6.5t27.5 -1.5h43zM338 214h-66q-49 0 -74.5 21.5
t-25.5 61.5q0 18 6.5 33t18 26t26 17.5t30.5 6.5q48 0 66.5 -29t18.5 -83v-54zM338 464q-25 13 -50 21t-51 8q-39 0 -73.5 -15t-59.5 -42t-39.5 -64t-14.5 -81q0 -94 57 -146t169 -52h34l28 70v-70h127l34 126h-37v271h-124v-26zM320 508h152l41 -80v-196h6l34 -75l-40 -157
h-132l-20 37l-15 -37h-76q-73 0 -120 36t-83 114q-17 36 -26.5 71t-9.5 70q0 48 15.5 88t42.5 69.5t64.5 46t81.5 16.5q24 0 44.5 -6t40.5 -15v18z" />
    <glyph glyph-name="aring" unicode="&#xe5;" horiz-adv-x="576" 
d="M282 657q-11 0 -19 6.5t-8 20.5q0 11 8.5 18.5t19.5 7.5t18 -7.5t7 -18.5q0 -14 -8 -20.5t-18 -6.5zM211 684q0 -35 22.5 -53t48.5 -18q27 0 49 18t22 53q0 29 -21 50t-50 21t-50 -21t-21 -50zM192 684q0 18 7 34t19.5 28.5t29 19.5t35.5 7q24 0 45 -14t35 -38
q6 -10 11 -22t9 -24.5t6.5 -24t2.5 -18.5q0 -53 -26.5 -76t-61.5 -23q-22 0 -41.5 11t-31.5 28q-6 9 -13 24t-13 31.5t-9.5 32t-3.5 24.5zM320 232v46q-8 4 -19 6.5t-19 2.5q-40 0 -57 -47q11 -5 24.5 -6.5t27.5 -1.5h43zM338 214h-66q-49 0 -74.5 21.5t-25.5 61.5
q0 18 6.5 33t18 26t26 17.5t30.5 6.5q48 0 66.5 -29t18.5 -83v-54zM338 464q-25 13 -50 21t-51 8q-39 0 -73.5 -15t-59.5 -42t-39.5 -64t-14.5 -81q0 -94 57 -146t169 -52h34l28 70v-70h127l34 126h-37v271h-124v-26zM320 508h152l41 -80v-196h6l34 -75l-40 -157h-132
l-20 37l-15 -37h-76q-73 0 -120 36t-83 114q-17 36 -26.5 71t-9.5 70q0 48 15.5 88t42.5 69.5t64.5 46t81.5 16.5q24 0 44.5 -6t40.5 -15v18z" />
    <glyph glyph-name="ae" unicode="&#xe6;" horiz-adv-x="815" 
d="M457 343q16 69 74 69q30 0 49.5 -17t24.5 -52h-148zM321 234q-1 4 -1 10v38q-8 2 -18 5t-20 3q-22 0 -36.5 -12.5t-19.5 -35.5q11 -5 22.5 -6.5t23.5 -1.5h49zM275 216q-50 0 -76.5 18t-26.5 63q0 42 24 65t61 23q13 0 26.5 -6t24.5 -16t19 -23.5t10 -28.5
q2 -17 1.5 -38.5t7.5 -56.5h-71zM249 496q-48 0 -85.5 -15.5t-62.5 -42.5t-38 -62.5t-13 -75.5q0 -103 56.5 -155t169.5 -52h45l37 91q40 -51 92.5 -76t115.5 -25q30 0 59.5 4t58.5 10l26 104q-22 -5 -48 -9.5t-57 -4.5q-58 0 -96.5 20.5t-49.5 62.5h277q-8 107 -62 166
t-143 59q-38 0 -71.5 -13.5t-66.5 -40.5q-35 27 -72 41t-72 14zM532 513q86 0 139 -49.5t90 -150.5q8 -23 17 -54t11 -80h-36l15 -37l-33 -135l-58.5 -11t-73.5 -6q-143 0 -218 103l-34 -93h-62q-93 0 -156 57q-19 17 -37 44t-32.5 58.5t-23.5 66t-9 67.5q0 48 15.5 89
t44 70t68.5 45.5t89 16.5q40 0 75 -13.5t70 -36.5q35 23 68.5 36t70.5 13z" />
    <glyph glyph-name="ccedilla" unicode="&#xe7;" horiz-adv-x="402" 
d="M268 86q8 0 20 2t20 7l-25 114q-12 -5 -28 -5q-39 0 -64 23.5t-25 61.5q0 39 25 63.5t65 24.5q6 0 14 -1t13 -3l25 114q-11 3 -25 5.5t-29 2.5q-43 0 -80.5 -16t-65 -44t-43 -65.5t-15.5 -79.5q0 -28 9 -57t26 -55t42 -47t58 -33v-93q4 1 11 1.5t12 0.5q18 0 29.5 -10
t11.5 -28q0 -14 -12.5 -23.5t-29.5 -9.5q-5 0 -11.5 1t-10.5 2l-14 -59q10 -4 22.5 -8t26.5 -4q53 0 82.5 29.5t29.5 74.5q0 32 -19.5 56.5t-56.5 31.5v26h12zM370 9q-4 -1 -11 -3.5t-12 -3.5q25 -45 25 -86q0 -57 -36.5 -90t-93.5 -33q-21 0 -37.5 4.5t-30.5 9.5l-25 52
l24 102l7 -4l-14 28v45q-10 8 -20 17t-21 21.5t-22.5 30t-23.5 42.5l-16 31t-15.5 33.5t-12 37.5t-4.5 44q0 50 18 91.5t49 71.5t71.5 46.5t84.5 16.5q26 0 44 -3.5t32 -8.5l36 -74l-36 -154q-8 4 -18.5 8t-21.5 4q-22 0 -40.5 -14t-23.5 -42q5 -2 12 -4.5t15 -2.5
q11 0 21.5 4.5t18.5 9.5l37 -68z" />
    <glyph glyph-name="egrave" unicode="&#xe8;" horiz-adv-x="531" 
d="M195 703l52 -88h77l-31 88h-98zM164 721h143l28 -66l42 -122h-112l-72 122zM173 344q8 35 28 53t46 18q62 0 76 -71h-150zM451 271q-8 110 -64 168.5t-141 58.5q-37 0 -72.5 -14t-63 -40t-44 -63.5t-16.5 -85.5q0 -49 18 -87.5t50 -65.5t75.5 -41.5t94.5 -14.5
q35 0 61.5 3t48.5 7l27 106q-29 -6 -56.5 -9.5t-41.5 -3.5q-68 0 -103.5 20t-52.5 62h280zM448 5q-61 -14 -124 -14q-67 0 -119 21t-85 59q-15 17 -30.5 43.5t-28.5 57.5t-21.5 64t-8.5 63q0 49 17.5 89t47.5 68.5t70 44t85 15.5q33 0 63.5 -10.5t55.5 -28t43.5 -40
t29.5 -46.5l20 -44t19 -46t15 -54.5t8 -68.5h-37l15 -33z" />
    <glyph glyph-name="eacute" unicode="&#xe9;" horiz-adv-x="531" 
d="M244 703l-30 -87h78l51 87h-99zM231 721h142l31 -67l-72 -121h-113l-29 67zM173 344q8 35 28 53t46 18q62 0 76 -71h-150zM451 271q-8 110 -64 168.5t-141 58.5q-37 0 -72.5 -14t-63 -40t-44 -63.5t-16.5 -85.5q0 -49 18 -87.5t50 -65.5t75.5 -41.5t94.5 -14.5
q35 0 61.5 3t48.5 7l27 106q-29 -6 -56.5 -9.5t-41.5 -3.5q-68 0 -103.5 20t-52.5 62h280zM448 5q-61 -14 -124 -14q-67 0 -119 21t-85 59q-15 17 -30.5 43.5t-28.5 57.5t-21.5 64t-8.5 63q0 49 17.5 89t47.5 68.5t70 44t85 15.5q33 0 63.5 -10.5t55.5 -28t43.5 -40
t29.5 -46.5l20 -44t19 -46t15 -54.5t8 -68.5h-37l15 -33z" />
    <glyph glyph-name="ecircumflex" unicode="&#xea;" horiz-adv-x="531" 
d="M210 703l-56 -87h67l36 63l38 -63h60l-52 87h-93zM198 718h118l74 -121l28 -64h-102l-33 48l-27 -48h-108l-27 64zM173 344q8 35 28 53t46 18q62 0 76 -71h-150zM451 271q-8 110 -64 168.5t-141 58.5q-37 0 -72.5 -14t-63 -40t-44 -63.5t-16.5 -85.5q0 -49 18 -87.5
t50 -65.5t75.5 -41.5t94.5 -14.5q35 0 61.5 3t48.5 7l27 106q-29 -6 -56.5 -9.5t-41.5 -3.5q-68 0 -103.5 20t-52.5 62h280zM448 5q-61 -14 -124 -14q-67 0 -119 21t-85 59q-15 17 -30.5 43.5t-28.5 57.5t-21.5 64t-8.5 63q0 49 17.5 89t47.5 68.5t70 44t85 15.5
q33 0 63.5 -10.5t55.5 -28t43.5 -40t29.5 -46.5l20 -44t19 -46t15 -54.5t8 -68.5h-37l15 -33z" />
    <glyph glyph-name="edieresis" unicode="&#xeb;" horiz-adv-x="531" 
d="M308 705l-25 -92h86l24 92h-85zM158 705l-25 -92h86l24 92h-85zM144 723h119l19 -47l13 47h119l26 -67l-33 -123h-120l-18 49l-13 -49h-119l-26 66zM173 344q8 35 28 53t46 18q62 0 76 -71h-150zM451 271q-8 110 -64 168.5t-141 58.5q-37 0 -72.5 -14t-63 -40t-44 -63.5
t-16.5 -85.5q0 -49 18 -87.5t50 -65.5t75.5 -41.5t94.5 -14.5q35 0 61.5 3t48.5 7l27 106q-29 -6 -56.5 -9.5t-41.5 -3.5q-68 0 -103.5 20t-52.5 62h280zM448 5q-61 -14 -124 -14q-67 0 -119 21t-85 59q-15 17 -30.5 43.5t-28.5 57.5t-21.5 64t-8.5 63q0 49 17.5 89
t47.5 68.5t70 44t85 15.5q33 0 63.5 -10.5t55.5 -28t43.5 -40t29.5 -46.5l20 -44t19 -46t15 -54.5t8 -68.5h-37l15 -33z" />
    <glyph glyph-name="igrave" unicode="&#xec;" horiz-adv-x="320" 
d="M80 703l51 -88h78l-32 88h-97zM49 721h142l28 -66l42 -122h-112l-72 122zM241 218h-35v272h-131l-30 -126h36v-271h126zM256 0h-155l-38 81v190h-4l-37 76l41 161h158l35 -79v-195h6l35 -76z" />
    <glyph glyph-name="iacute" unicode="&#xed;" horiz-adv-x="320" 
d="M115 703l-30 -87h78l51 87h-99zM102 721h142l31 -67l-72 -121h-113l-29 67zM241 218h-35v272h-131l-30 -126h36v-271h126zM256 0h-155l-38 81v190h-4l-37 76l41 161h158l35 -79v-195h6l35 -76z" />
    <glyph glyph-name="icircumflex" unicode="&#xee;" horiz-adv-x="320" 
d="M101 703l-56 -87h66l36 63l39 -63h59l-51 87h-93zM88 718h119l73 -121l28 -64h-101l-33 48l-27 -48h-109l-26 64zM240 218h-34v272h-131l-31 -126h37v-271h126zM256 0h-155l-38 81v190h-5l-36 76l41 161h158l35 -79v-195h5l35 -76z" />
    <glyph glyph-name="idieresis" unicode="&#xef;" horiz-adv-x="320" 
d="M199 705l-24 -92h85l24 92h-85zM49 705l-25 -92h86l24 92h-85zM36 723h119l18 -47l14 47h118l27 -67l-33 -123h-120l-19 49l-13 -49h-118l-27 66zM241 218h-35v272h-130l-31 -126h36v-271h127zM257 0h-156l-38 81v190h-4l-37 76l41 161h158l36 -79v-195h5l35 -76z" />
    <glyph glyph-name="ntilde" unicode="&#xf1;" horiz-adv-x="563" 
d="M151 623q8 5 17.5 9.5t28.5 4.5q9 0 21 -3.5t25.5 -7l27 -7t25.5 -3.5q19 0 32 7.5t24 17.5l-18 55q-10 -9 -20.5 -14.5t-29.5 -5.5q-26 0 -51.5 9.5t-54.5 9.5q-14 0 -25.5 -5.5t-21.5 -12.5zM142 593l-29 92q17 13 34 20.5t37 7.5q25 0 50 -9.5t57 -9.5q8 0 22.5 8.5
t27.5 23.5l42 -67l26 -81q-32 -36 -67 -36q-19 0 -33.5 3t-27 6.5l-23.5 6.5t-23 3q-32 0 -56 -28zM459 93l33 124h-41v145q0 74 -28.5 101t-95.5 27h-78l-44 -81v81h-129l-31 -128h36v-269h124v274h44q48 0 63 -19.5t15 -64.5v-190h132zM505 0h-161l-35 82v190q-14 3 -28 3
h-26v-275h-154l-38 82v190h-3l-38 75l41 161h157l10 -22l11 22h91q35 0 58 -6t39 -20.5t27.5 -38t25.5 -57.5q16 -43 17.5 -64t1.5 -36v-52h8l38 -79z" />
    <glyph glyph-name="ograve" unicode="&#xf2;" horiz-adv-x="538" 
d="M182 703l52 -88h77l-31 88h-98zM151 721h142l29 -66l42 -122h-112l-72 122zM321 274q-8 4 -16.5 6.5t-18.5 2.5q-22 0 -39 -13t-27 -39q6 -3 14.5 -6.5t19.5 -3.5q53 0 67 53zM342 292q0 -40 -23.5 -64.5t-61.5 -24.5q-17 0 -33 6t-28.5 17.5t-20 27t-7.5 34.5
q0 38 24 63.5t65 25.5q19 0 34.5 -7.5t26.5 -20t17.5 -27.5t6.5 -30zM459 294q0 40 -16 76.5t-43.5 64t-64 44t-77.5 16.5q-45 0 -83 -16t-65.5 -44t-43 -66t-15.5 -81q0 -40 15.5 -76.5t43 -64.5t65.5 -44.5t83 -16.5q41 0 77.5 15.5t64 43t43.5 66t16 83.5zM507 222
q0 -51 -18 -93.5t-48 -72.5t-69 -46.5t-81 -16.5q-46 0 -87 16t-71 45q-18 17 -36 46t-32.5 62.5t-23.5 68t-9 62.5q0 44 17 84t47 70t70.5 48t88.5 18q63 0 115.5 -32t86.5 -97q25 -48 37.5 -86t12.5 -76z" />
    <glyph glyph-name="oacute" unicode="&#xf3;" horiz-adv-x="538" 
d="M244 703l-30 -87h78l51 87h-99zM231 721h142l31 -67l-72 -121h-113l-29 67zM321 274q-8 4 -16.5 6.5t-18.5 2.5q-22 0 -39 -13t-27 -39q6 -3 14.5 -6.5t19.5 -3.5q53 0 67 53zM342 292q0 -40 -23.5 -64.5t-61.5 -24.5q-17 0 -33 6t-28.5 17.5t-20 27t-7.5 34.5
q0 38 24 63.5t65 25.5q19 0 34.5 -7.5t26.5 -20t17.5 -27.5t6.5 -30zM459 294q0 40 -16 76.5t-43.5 64t-64 44t-77.5 16.5q-45 0 -83 -16t-65.5 -44t-43 -66t-15.5 -81q0 -40 15.5 -76.5t43 -64.5t65.5 -44.5t83 -16.5q41 0 77.5 15.5t64 43t43.5 66t16 83.5zM507 222
q0 -51 -18 -93.5t-48 -72.5t-69 -46.5t-81 -16.5q-46 0 -87 16t-71 45q-18 17 -36 46t-32.5 62.5t-23.5 68t-9 62.5q0 44 17 84t47 70t70.5 48t88.5 18q63 0 115.5 -32t86.5 -97q25 -48 37.5 -86t12.5 -76z" />
    <glyph glyph-name="ocircumflex" unicode="&#xf4;" horiz-adv-x="538" 
d="M203 703l-55 -87h66l36 63l38 -63h60l-52 87h-93zM191 718h119l73 -121l28 -64h-101l-33 48l-28 -48h-108l-26 64zM321 274q-8 4 -16.5 6.5t-18.5 2.5q-22 0 -39 -13t-27 -39q6 -3 14.5 -6.5t19.5 -3.5q53 0 67 53zM342 292q0 -40 -23.5 -64.5t-61.5 -24.5q-17 0 -33 6
t-28.5 17.5t-20 27t-7.5 34.5q0 38 24 63.5t65 25.5q19 0 34.5 -7.5t26.5 -20t17.5 -27.5t6.5 -30zM459 294q0 40 -16 76.5t-43.5 64t-64 44t-77.5 16.5q-45 0 -83 -16t-65.5 -44t-43 -66t-15.5 -81q0 -40 15.5 -76.5t43 -64.5t65.5 -44.5t83 -16.5q41 0 77.5 15.5t64 43
t43.5 66t16 83.5zM507 222q0 -51 -18 -93.5t-48 -72.5t-69 -46.5t-81 -16.5q-46 0 -87 16t-71 45q-18 17 -36 46t-32.5 62.5t-23.5 68t-9 62.5q0 44 17 84t47 70t70.5 48t88.5 18q63 0 115.5 -32t86.5 -97q25 -48 37.5 -86t12.5 -76z" />
    <glyph glyph-name="otilde" unicode="&#xf5;" horiz-adv-x="538" 
d="M146 623q8 5 18.5 9.5t28.5 4.5q9 0 21 -3.5t25.5 -7l27 -7t25.5 -3.5q18 0 31 7.5t24 17.5l-18 55q-10 -9 -19.5 -14.5t-29.5 -5.5q-26 0 -51.5 9.5t-54.5 9.5q-14 0 -25.5 -5.5t-21.5 -12.5zM138 593l-30 92q17 13 34.5 20.5t37.5 7.5q25 0 49.5 -9.5t56.5 -9.5
q8 0 23 8.5t28 23.5l42 -67l26 -81q-16 -18 -33.5 -27t-34.5 -9q-19 0 -33.5 3t-26.5 6.5l-23 6.5t-23 3q-15 0 -30 -7t-26 -21zM321 274q-8 4 -16.5 6.5t-18.5 2.5q-22 0 -39 -13t-27 -39q6 -3 14.5 -6.5t19.5 -3.5q53 0 67 53zM342 292q0 -40 -23.5 -64.5t-61.5 -24.5
q-17 0 -33 6t-28.5 17.5t-20 27t-7.5 34.5q0 38 24 63.5t65 25.5q19 0 34.5 -7.5t26.5 -20t17.5 -27.5t6.5 -30zM459 294q0 40 -16 76.5t-43.5 64t-64 44t-77.5 16.5q-45 0 -83 -16t-65.5 -44t-43 -66t-15.5 -81q0 -40 15.5 -76.5t43 -64.5t65.5 -44.5t83 -16.5
q41 0 77.5 15.5t64 43t43.5 66t16 83.5zM507 222q0 -51 -18 -93.5t-48 -72.5t-69 -46.5t-81 -16.5q-46 0 -87 16t-71 45q-18 17 -36 46t-32.5 62.5t-23.5 68t-9 62.5q0 44 17 84t47 70t70.5 48t88.5 18q63 0 115.5 -32t86.5 -97q25 -48 37.5 -86t12.5 -76z" />
    <glyph glyph-name="odieresis" unicode="&#xf6;" horiz-adv-x="538" 
d="M315 705l-25 -92h86l24 92h-85zM165 705l-25 -92h86l24 92h-85zM151 723h119l19 -47l14 47h118l26 -67l-33 -123h-120l-18 49l-13 -49h-119l-26 66zM321 274q-8 4 -16.5 6.5t-18.5 2.5q-22 0 -39 -13t-27 -39q6 -3 14.5 -6.5t19.5 -3.5q53 0 67 53zM342 292
q0 -40 -23.5 -64.5t-61.5 -24.5q-17 0 -33 6t-28.5 17.5t-20 27t-7.5 34.5q0 38 24 63.5t65 25.5q19 0 34.5 -7.5t26.5 -20t17.5 -27.5t6.5 -30zM459 294q0 40 -16 76.5t-43.5 64t-64 44t-77.5 16.5q-45 0 -83 -16t-65.5 -44t-43 -66t-15.5 -81q0 -40 15.5 -76.5t43 -64.5
t65.5 -44.5t83 -16.5q41 0 77.5 15.5t64 43t43.5 66t16 83.5zM507 222q0 -51 -18 -93.5t-48 -72.5t-69 -46.5t-81 -16.5q-46 0 -87 16t-71 45q-18 17 -36 46t-32.5 62.5t-23.5 68t-9 62.5q0 44 17 84t47 70t70.5 48t88.5 18q63 0 115.5 -32t86.5 -97q25 -48 37.5 -86
t12.5 -76z" />
    <glyph glyph-name="oslash" unicode="&#xf8;" horiz-adv-x="538" 
d="M321 274l-15.5 5t-17.5 3q-30 0 -43 -15.5t-24 -36.5q13 -9 33 -9q50 0 67 53zM340 292q0 -37 -25 -63t-60 -26q-18 0 -34 7t-27.5 19t-18.5 28.5t-7 35.5q0 17 6.5 32t18 26.5t27 18t33.5 6.5q37 0 62 -24.5t25 -59.5zM178 101q17 -6 35.5 -10.5t41.5 -4.5
q41 0 77.5 15.5t64.5 43t44 65.5t16 83q0 34 -11.5 64.5t-32.5 60.5l20 26l-83 63l-20 -28q-16 6 -34 11t-40 5q-45 0 -83 -17t-65 -45.5t-42.5 -65t-15.5 -76.5q0 -37 12 -68.5t34 -61.5l-23 -32l83 -59zM473 351q16 -32 25.5 -64t9.5 -68q0 -49 -16.5 -90.5t-45.5 -72
t-68.5 -47.5t-85.5 -17q-20 0 -39.5 3.5t-37.5 9.5l-32 -40l-109 81l-25 82l19 26q-14 35 -25.5 68t-11.5 69q0 45 17 85t47 70.5t71 48.5t90 18q18 0 35 -3t33 -8l23 30l111 -83l28 -80z" />
    <glyph glyph-name="ugrave" unicode="&#xf9;" horiz-adv-x="567" 
d="M210 703l52 -88h77l-31 88h-98zM179 721h142l29 -66l42 -122h-112l-72 122zM489 219h-36v271h-124v-276h-37q-31 0 -49 6t-27.5 18.5t-12.5 32.5t-3 47v172h-128l-31 -126h38v-136q0 -74 31.5 -104.5t105.5 -30.5h80l33 84v-84h128zM544 161l-41 -161h-135l-18 36
l-17 -36h-88q-40 0 -64.5 8.5t-40.5 23.5t-27 35l-23 43q-20 37 -24.5 66.5t-4.5 58.5v37h-5l-37 77l41 159h152l41 -78v-195q14 -4 29 -4t29 1v276h155l37 -78v-195h6z" />
    <glyph glyph-name="uacute" unicode="&#xfa;" horiz-adv-x="567" 
d="M232 703l-30 -87h78l51 87h-99zM219 721h142l31 -67l-72 -121h-113l-29 67zM489 219h-36v271h-124v-276h-37q-31 0 -49 6t-27.5 18.5t-12.5 32.5t-3 47v172h-128l-31 -126h38v-136q0 -74 31.5 -104.5t105.5 -30.5h80l33 84v-84h128zM544 161l-41 -161h-135l-18 36
l-17 -36h-88q-40 0 -64.5 8.5t-40.5 23.5t-27 35l-23 43q-20 37 -24.5 66.5t-4.5 58.5v37h-5l-37 77l41 159h152l41 -78v-195q14 -4 29 -4t29 1v276h155l37 -78v-195h6z" />
    <glyph glyph-name="ucircumflex" unicode="&#xfb;" horiz-adv-x="567" 
d="M218 703l-56 -87h67l36 63l38 -63h60l-52 87h-93zM206 718h118l74 -121l28 -64h-102l-33 48l-27 -48h-108l-27 64zM489 219h-36v271h-124v-276h-37q-31 0 -49 6t-27.5 18.5t-12.5 32.5t-3 47v172h-128l-31 -126h38v-136q0 -74 31.5 -104.5t105.5 -30.5h80l33 84v-84h128z
M544 161l-41 -161h-135l-18 36l-17 -36h-88q-40 0 -64.5 8.5t-40.5 23.5t-27 35l-23 43q-20 37 -24.5 66.5t-4.5 58.5v37h-5l-37 77l41 159h152l41 -78v-195q14 -4 29 -4t29 1v276h155l37 -78v-195h6z" />
    <glyph glyph-name="udieresis" unicode="&#xfc;" horiz-adv-x="567" 
d="M321 705l-25 -92h85l24 92h-84zM171 705l-25 -92h85l24 92h-84zM157 723h119l19 -47l13 47h119l26 -67l-33 -123h-120l-18 49l-14 -49h-118l-27 66zM489 219h-36v271h-124v-276h-37q-31 0 -49 6t-27.5 18.5t-12.5 32.5t-3 47v172h-128l-31 -126h38v-136
q0 -74 31.5 -104.5t105.5 -30.5h80l33 84v-84h128zM544 161l-41 -161h-135l-18 36l-17 -36h-88q-40 0 -64.5 8.5t-40.5 23.5t-27 35l-23 43q-20 37 -24.5 66.5t-4.5 58.5v37h-5l-37 77l41 159h152l41 -78v-195q14 -4 29 -4t29 1v276h155l37 -78v-195h6z" />
    <glyph glyph-name="ydieresis" unicode="&#xff;" horiz-adv-x="557" 
d="M304 705l-25 -92h85l24 92h-84zM154 705l-25 -92h85l24 92h-84zM140 723h119l19 -47l13 47h119l26 -67l-33 -123h-120l-18 49l-14 -49h-118l-27 66zM451 490h-124v-263h-35q-26 0 -43 4t-27 14t-14.5 27.5t-4.5 43.5v174h-129l-31 -127h37v-112q0 -69 36.5 -105.5
t110.5 -36.5h69l31 77v-43q0 -22 -3 -40t-13 -30.5t-28 -19t-49 -6.5q-36 0 -66.5 8.5t-59.5 19.5l-28 -100q45 -13 94 -20.5t96 -7.5q138 0 171 85q6 16 8 42t2 58v358zM504 422v-370q0 -32 -3 -61t-22 -58q-50 -77 -181 -77q-42 0 -97.5 8t-109.5 23l-30 78l36 134
q2 -1 7.5 -3t7.5 -3q-18 36 -27.5 61t-14 44.5t-5 36t-0.5 35.5h-6l-39 78l42 160h154l41 -79v-183q12 -3 24 -3h13.5t14.5 1v264h157z" />
    <glyph glyph-name="ring" unicode="&#x2da;" horiz-adv-x="374" 
d="M178 657q-11 0 -19 6.5t-8 20.5q0 11 8.5 18.5t19.5 7.5t18 -7.5t7 -18.5q0 -14 -8 -20.5t-18 -6.5zM107 684q0 -35 22 -53t49 -18q26 0 48 18t22 53q0 29 -20.5 50t-49.5 21t-50 -21t-21 -50zM88 684q0 18 7 34t19 28.5t28.5 19.5t35.5 7q27 0 47.5 -16t34.5 -38.5
t21 -46.5t7 -40q0 -53 -27 -76t-62 -23q-22 0 -41.5 11t-31.5 28q-6 9 -13 24t-12.5 31.5t-9 32t-3.5 24.5z" />
    <glyph glyph-name="breve" unicode="&#x2d8;" horiz-adv-x="498" 
d="M110 704q16 -45 52 -66.5t74 -21.5q88 0 125 88h-62q-20 -41 -63 -41q-17 0 -34 10.5t-31 30.5h-61zM412 653q-22 -60 -60 -91t-99 -31q-54 0 -99 47t-67 144h96q9 -19 22 -30t31 -11q23 0 32.5 10.5t18.5 30.5h104z" />
    <glyph glyph-name="minus" unicode="&#x2212;" horiz-adv-x="513" 
d="M417 350l20 71h-371l-22 -71h373zM462 255h-410l-32 75l32 109h410l31 -76z" />
    <glyph glyph-name="apple" horiz-adv-x="267" 
 />
    <glyph glyph-name="doslessi" horiz-adv-x="320" 
d="M241 218h-35v272h-131l-30 -126h36v-271h126zM256 0h-155l-38 81v190h-4l-37 76l41 161h158l35 -79v-195h6l35 -76z" />
    </font>
</defs>
</svg>
