<?xml version="1.0" standalone="no"?>
<!DOCTYPE svg PUBLIC "-//W3C//DTD SVG 1.1//EN" "http://www.w3.org/Graphics/SVG/1.1/DTD/svg11.dtd" >
<svg>
<metadata>
Created by FontForge 20110222 at Tue Feb 24 09:07:33 2015
 By deploy user
Copyright (c) 2006 by OSR Labs. All rights reserved.
</metadata>
<defs>
<font id="Universalia" horiz-adv-x="1681" >
  <font-face 
    font-family="Universalia"
    font-weight="400"
    font-stretch="normal"
    units-per-em="2048"
    panose-1="2 0 5 3 0 0 0 2 0 3"
    ascent="1638"
    descent="-410"
    bbox="-190 -524 2674 1802"
    underline-thickness="102"
    underline-position="-103"
    unicode-range="U+2400-27FF"
  />
<missing-glyph horiz-adv-x="1024" 
 />
    <glyph glyph-name=".notdef" horiz-adv-x="1024" 
 />
    <glyph glyph-name=".null" horiz-adv-x="0" 
 />
    <glyph glyph-name="nonmarkingreturn" horiz-adv-x="682" 
 />
    <glyph glyph-name="uni2400" unicode="&#x2400;" horiz-adv-x="1357" 
d="M436 916h-89l-179 297v-297h-84v441l92 3l176 -290v287h84v-441zM888 604q0 -68 -43 -110q-48 -48 -131 -47q-83 -1 -130 47q-42 42 -42 110v295h84v-280q0 -94 89 -94t89 94v280h84v-295zM1274 0h-285v441h83v-363h202v-78z" />
    <glyph glyph-name="uni2401" unicode="&#x2401;" horiz-adv-x="1357" 
d="M430 1045q0 -75 -60 -112q-48 -29 -113 -28q-83 -1 -131 43q-48 43 -48 132h81q0 -55 22 -74q24 -23 75 -23q90 0 90 56q0 39 -52 52l-105 26q-94 22 -94 113q0 58 37 96q40 42 116 42q165 0 171 -156h-80q-3 78 -84 78q-76 0 -76 -56q0 -27 33 -36l115 -29
q103 -25 103 -124zM1279 0h-84v190h-178v-190h-84v441h84v-173h178v173h84v-441zM855 679q0 -86 -44 -151q-29 -41 -70.5 -61.5t-97.5 -19.5q-107 -1 -167 81q-46 66 -46 151q0 83 46 150q58 81 167 81t168 -81q44 -67 44 -150zM771 679q0 70 -34 111q-35 42 -91 42
q-58 0 -92 -42q-35 -43 -35 -111t35 -112q34 -42 92 -42q56 0 91 42q34 43 34 112z" />
    <glyph glyph-name="uni2402" unicode="&#x2402;" horiz-adv-x="1357" 
d="M430 1045q0 -75 -60 -112q-48 -29 -113 -28q-83 -1 -131 43q-48 43 -48 132h81q0 -55 22 -74q24 -23 75 -23q90 0 90 56q0 39 -52 52l-105 26q-94 22 -94 113q0 58 37 96q40 42 116 42q165 0 171 -156h-80q-3 78 -84 78q-76 0 -76 -56q0 -27 33 -36l115 -29
q103 -25 103 -124zM838 821h-134v-363h-84v363h-134v78h352v-78zM1277 0h-104l-100 156l-103 -156h-107l157 228l-143 213h104l92 -143l97 143h101l-146 -216z" />
    <glyph glyph-name="uni2403" unicode="&#x2403;" horiz-adv-x="1357" 
d="M408 916h-324v441h318v-78h-234v-95h217v-78h-217v-112h240v-78v0zM843 821h-134v-363h-83v363h-134v78h351v-78v0zM1275 0h-104l-100 156l-104 -156h-107l158 228l-143 213h104l92 -143l97 143h101l-146 -216l152 -225v0z" />
    <glyph glyph-name="uni2404" unicode="&#x2404;" horiz-adv-x="1357" 
d="M408 916h-324v441h318v-78h-234v-95h217v-78h-217v-112h240v-78zM1279 363h-134v-363h-84v363h-134v78h352v-78zM855 679q0 -86 -44 -151q-60 -82 -168 -81q-109 -1 -167 81q-46 64 -46 151q0 85 46 150q57 81 167 81q109 0 168 -81q44 -67 44 -150zM771 679
q0 70 -34 111q-35 42 -91 42q-58 0 -92 -42q-35 -43 -35 -111t35 -112q34 -42 92 -42q56 0 91 42q34 43 34 112z" />
    <glyph glyph-name="uni2405" unicode="&#x2405;" horiz-adv-x="1357" 
d="M408 916h-324v441h318v-78h-234v-95h217v-78h-217v-112h240v-78zM849 458l-92 -4l-170 284v-280h-84v441h84l178 -295v295h84v-441zM1274 25l-43 -59l-65 50q-48 -27 -106 -27q-112 0 -170 81q-47 65 -47 151q0 83 47 150q58 81 170 81q110 0 169 -81q45 -66 45 -150
q0 -94 -51 -157zM1190 222q0 67 -35 110q-36 42 -93 42q-60 0 -94 -42q-35 -43 -35 -111t35 -112q36 -42 93 -42q5 0 12.5 1t18.5 4l-39 30l45 61l59 -47q33 39 33 106z" />
    <glyph glyph-name="uni2406" unicode="&#x2406;" horiz-adv-x="1357" 
d="M484 917h-89l-42 116h-138l-42 -117l-89 1l161 440h80zM868 744h-84q-15 88 -99 88q-115 0 -115 -149q0 -158 117 -158q68 0 95 87h84q-36 -166 -186 -165q-85 -1 -137 55q-57 61 -57 178q0 101 53 166q54 64 148 64q154 0 181 -166zM1279 436l-187 -181l183 -255h-110
l-134 196l-42 -41v-155h-84v441h84v-177l169 172h121zM327 1111l-45 130l-42 -130h87z" />
    <glyph glyph-name="uni2407" unicode="&#x2407;" horiz-adv-x="1357" 
d="M402 1050q0 -58 -41 -96t-111 -38h-183v441h189q60 0 96 -36q33 -33 33 -84q0 -55 -39 -85q56 -32 56 -102zM1276 0h-282v441h84v-363h198v-78zM832 458h-324v441h319v-78h-235v-95h218v-78h-218v-112h240v-78zM302 1232q0 47 -71 47h-80v-101h79q72 0 72 54zM318 1052
q0 54 -80 54h-87v-112h96q71 0 71 58z" />
    <glyph glyph-name="uni2408" unicode="&#x2408;" horiz-adv-x="1357" 
d="M637 810q0 -57 -41 -96t-111 -38h-183v441h188q59 0 97 -36q33 -35 33 -84q0 -55 -39 -86q56 -32 56 -101zM1072 368q0 -76 -60 -111q-46 -28 -113 -28q-85 0 -131 43q-48 42 -48 129h81q0 -53 22 -71q24 -23 75 -23q91 0 91 54q0 38 -53 52l-105 25q-99 21 -99 111
q0 59 37 96q42 42 118 42q168 0 174 -162h-81q-4 82 -87 84q-77 -1 -77 -55q0 -26 38 -35l115 -29q103 -25 103 -122zM536 994q0 45 -70 45h-81v-95h80q71 0 71 50zM553 815q0 56 -80 56h-88v-117h97q71 0 71 61z" />
    <glyph glyph-name="uni2409" unicode="&#x2409;" horiz-adv-x="1357" 
d="M637 681h-84v190h-179v-190h-84v436h84v-168h179v168h84v-436v0zM1072 603h-134v-363h-83v363h-134v78h351v-78v0z" />
    <glyph glyph-name="uni240A" unicode="&#x240a;" horiz-adv-x="1357" 
d="M637 681h-285v436h84v-357h201v-79v0zM1028 603h-224v-100h196v-79h-196v-184h-83v441h307v-78v0z" />
    <glyph glyph-name="uni240B" unicode="&#x240b;" horiz-adv-x="1357" 
d="M1072 603h-134v-363h-83v363h-134v78h351v-78v0zM640 1117l-154 -436h-81l-154 436h93l104 -325l98 325h94v0z" />
    <glyph glyph-name="uni240C" unicode="&#x240c;" horiz-adv-x="1357" 
d="M637 1039h-224v-95h196v-78h-196v-185h-83v436h307v-78v0zM1022 603h-223v-100h195v-79h-195v-184h-84v441h307v-78v0z" />
    <glyph glyph-name="uni240D" unicode="&#x240d;" horiz-adv-x="1357" 
d="M1089 240h-100q-11 38 -12 58v56q0 53 -56 54h-111v-168h-84v441h194q147 0 147 -131q0 -63 -45 -102q35 -22 39 -86v-57q1 -19 28 -32v-33zM640 964h-85q-14 86 -98 86q-116 0 -116 -147q0 -155 118 -155q67 0 94 85h85q-36 -163 -187 -163q-85 0 -137 55
q-57 61 -57 176q0 99 53 164q54 63 148 63q155 0 182 -164zM983 543q-2 60 -59 60h-114v-117h105q69 0 68 57z" />
    <glyph glyph-name="uni240E" unicode="&#x240e;" horiz-adv-x="1357" 
d="M642 808q0 -74 -60 -110q-46 -28 -113 -28q-83 0 -131 42q-48 45 -48 130h81q0 -53 22 -71q26 -23 75 -23q91 0 91 54q0 38 -52 50l-106 27q-94 21 -94 112q0 58 37 95q40 42 116 42q164 0 172 -162h-80q-5 84 -85 84q-76 0 -76 -55q0 -26 34 -35l114 -29
q103 -25 103 -123zM1096 463q0 -86 -44 -151q-60 -82 -168 -81q-109 -1 -167 81q-46 64 -46 151q0 85 46 150q57 81 167 81q109 0 168 -81q44 -67 44 -150zM1012 463q0 70 -34 111q-35 42 -91 42q-58 0 -92 -42q-35 -43 -35 -111t35 -112q34 -42 92 -42q56 0 91 42
q34 43 34 112z" />
    <glyph glyph-name="uni240F" unicode="&#x240f;" horiz-adv-x="1357" 
d="M760 808q0 -74 -60 -110q-47 -28 -113 -28q-84 0 -132 42q-47 44 -47 130h80q0 -52 22 -71q26 -23 75 -23q91 0 91 54q0 38 -52 51l-105 26q-94 21 -94 112q0 57 36 95q40 42 116 42q164 0 172 -162h-80q-5 84 -85 84q-76 0 -76 -55q0 -26 34 -36l115 -28
q103 -26 103 -123zM927 240h-84v441h84v-441z" />
    <glyph glyph-name="uni2410" unicode="&#x2410;" horiz-adv-x="1357" 
d="M425 1143q0 -87 -38 -149q-50 -78 -148 -78h-166v441h168q84 0 134 -60q50 -62 50 -154zM816 458h-285v441h83v-363h202v-78zM1285 0h-324v441h318v-78h-234v-95h217v-78h-217v-112h240v-78zM341 1138q0 141 -106 141h-79v-285h82q103 0 103 144z" />
    <glyph glyph-name="uni2411" unicode="&#x2411;" horiz-adv-x="1357" 
d="M1279 0h-84v290h-89v67q61 5 78 16q18 14 30 63h65v-436zM923 744h-84q-15 88 -98 88q-115 0 -115 -149q0 -158 117 -158q67 0 94 87h84q-38 -166 -186 -165q-84 -1 -137 55q-56 62 -56 178q0 101 53 166q54 64 147 64q154 0 181 -166zM430 1143q0 -89 -38 -149
q-48 -78 -147 -78h-167v441h168q85 0 135 -60q49 -61 49 -154zM346 1138q0 141 -105 141h-79v-285h82q102 0 102 144z" />
    <glyph glyph-name="uni2412" unicode="&#x2412;" horiz-adv-x="1357" 
d="M430 1143q0 -89 -38 -149q-48 -78 -147 -78h-167v441h168q85 0 135 -60q49 -61 49 -154zM873 744h-84q-15 88 -98 88q-116 0 -116 -149q0 -158 117 -158q68 0 95 87h84q-38 -166 -186 -165q-84 -1 -137 55q-56 60 -56 178q0 103 53 166q54 64 147 64q153 0 181 -166z
M1279 0h-302q6 141 101 196q44 22 101 63q16 17 16 47q0 57 -63 57q-40 0 -55 -33q-7 -17 -10 -66h-78q0 171 151 172q60 -2 98 -35q41 -39 41 -98q0 -68 -55 -110q-28 -17 -55.5 -32.5t-54.5 -31.5q-37 -24 -43 -51h208v-78zM346 1138q0 141 -105 141h-79v-285h82
q102 0 102 144z" />
    <glyph glyph-name="uni2413" unicode="&#x2413;" horiz-adv-x="1357" 
d="M425 1143q0 -87 -38 -149q-50 -78 -148 -78h-166v441h168q84 0 134 -60q50 -62 50 -154zM867 744h-84q-15 88 -98 88q-115 0 -115 -149q0 -158 117 -158q67 0 94 87h84q-36 -166 -186 -165q-84 -2 -136 55q-57 61 -57 178q0 101 53 166q54 64 147 64q154 0 181 -166z
M1285 145q0 -60 -39 -100q-42 -45 -120 -45q-136 0 -149 162h83q3 -90 70 -89q71 -2 71 65q0 61 -78 61h-8q-5 -1 -15 -1v73q7 -1 13 -1h13q58 0 58 55q0 49 -57 49q-63 0 -63 -78h-75q3 150 142 151q62 -2 100 -34q37 -33 37 -86q0 -60 -37 -88q54 -15 54 -94zM341 1138
q0 141 -106 141h-79v-285h82q103 0 103 144z" />
    <glyph glyph-name="uni2414" unicode="&#x2414;" horiz-adv-x="1357" 
d="M430 1143q0 -89 -38 -149q-48 -78 -147 -78h-167v441h168q85 0 135 -60q49 -61 49 -154zM903 744h-85q-15 88 -99 88q-116 0 -116 -149q0 -158 118 -158q68 0 95 87h85q-38 -166 -187 -165q-85 -1 -138 55q-57 63 -57 178q0 100 54 166q54 64 148 64q154 0 182 -166z
M1279 106h-56v-106h-78v106h-179l6 64l190 263l61 3v-257h56v-73zM346 1138q0 141 -105 141h-79v-285h82q102 0 102 144zM1145 179v122l-86 -122h86z" />
    <glyph glyph-name="uni2415" unicode="&#x2415;" horiz-adv-x="1357" 
d="M430 916h-89l-179 297v-297h-84v441l93 3l175 -290v287h84v-441v0zM1275 436l-185 -182l181 -254h-110l-132 194l-40 -39v-155h-84v441h84v-177l167 172h119v0zM816 458h-89l-42 117h-137l-42 -117h-90l161 441h81l158 -441v0zM657 652l-44 124l-40 -123l84 -1v0z" />
    <glyph glyph-name="uni2416" unicode="&#x2416;" horiz-adv-x="1357" 
d="M430 1045q0 -75 -60 -112q-48 -29 -113 -28q-83 -1 -131 43q-48 43 -48 132h81q0 -55 22 -74q24 -23 75 -23q90 0 90 56q0 39 -52 52l-105 26q-94 22 -94 113q0 58 37 96q40 42 116 42q165 0 171 -156h-80q-3 78 -84 78q-76 0 -76 -56q0 -27 33 -36l115 -29
q103 -25 103 -124zM892 899l-166 -264v-177h-84v177l-169 264h101l109 -185l110 185h99zM1279 0l-92 -2l-176 288v-286h-84v441h87l181 -296v296h84v-441z" />
    <glyph glyph-name="uni2417" unicode="&#x2417;" horiz-adv-x="1357" 
d="M408 916h-324v441h318v-78h-234v-95h217v-78h-217v-112h240v-78zM866 821h-134v-363h-84v363h-134v78h352v-78zM1274 134q0 -57 -41 -96q-43 -38 -111 -38h-184v441h189q61 0 97 -36q33 -35 33 -84q0 -53 -38 -85q55 -34 55 -102zM1173 316q0 47 -71 47h-80v-101h79
q72 0 72 54zM1190 136q0 54 -81 54h-87v-112h97q71 0 71 58z" />
    <glyph glyph-name="uni2418" unicode="&#x2418;" horiz-adv-x="1357" 
d="M462 1201h-85q-15 89 -99 89q-116 0 -116 -149q0 -158 118 -158q67 0 95 89h84q-36 -168 -187 -167q-84 -1 -137 55q-57 61 -57 178q0 101 54 166q52 64 147 64q154 0 183 -167zM1274 0l-93 -2l-176 287v-285h-83v441h86l182 -296v296h84v-441zM826 458h-89l-42 117h-136
l-43 -117h-89l161 441h80zM667 652l-44 124l-40 -123z" />
    <glyph glyph-name="uni2419" unicode="&#x2419;" horiz-adv-x="1357" 
d="M1089 240h-84v275l-84 -275l-73 1l-88 263v-264h-84v436h103l107 -321l98 321h105v-436v0zM592 676h-324v441h319v-78h-235v-95h218v-78h-218v-112h240v-78v0z" />
    <glyph glyph-name="uni241A" unicode="&#x241a;" horiz-adv-x="1357" 
d="M436 1045q0 -75 -60 -112q-24 -14 -52 -21.5t-61 -6.5q-83 -1 -132 43q-47 44 -47 132h80q0 -54 22 -74q26 -23 75 -23q91 0 91 56q0 39 -52 52l-105 26q-94 22 -94 113q0 57 36 96q40 42 116 42q164 0 172 -156h-80q-5 78 -85 78q-76 0 -76 -56q0 -27 34 -36l115 -29
q103 -26 103 -124zM855 604q0 -68 -44 -110q-47 -48 -130 -47q-84 -2 -131 47q-42 42 -42 110v295h84v-280q0 -94 89 -94q90 0 90 94v280h84v-295zM1274 134q0 -57 -41 -96q-43 -38 -111 -38h-184v441h189q61 0 97 -36q33 -35 33 -84q0 -53 -38 -85q55 -34 55 -102z
M1173 316q0 47 -71 47h-80v-101h79q72 0 72 54zM1190 136q0 54 -81 54h-87v-112h97q71 0 71 58z" />
    <glyph glyph-name="uni241B" unicode="&#x241b;" horiz-adv-x="1357" 
d="M402 916h-324v441h319v-78h-235v-95h218v-78h-218v-112h240v-78zM860 587q0 -76 -60 -112q-50 -29 -114 -28q-84 -1 -133 43q-47 42 -47 131h81q0 -53 22 -73q26 -23 76 -23q91 0 91 55q0 38 -54 53l-105 26q-98 21 -98 112q0 57 37 97q42 42 117 42q166 0 174 -162h-81
q-5 84 -86 84q-77 0 -77 -56q0 -27 37 -36l115 -30q105 -26 105 -123zM1271 285h-84q-17 83 -99 84q-116 -2 -116 -147q0 -155 118 -155q67 0 94 87h85q-36 -165 -187 -165q-85 0 -137 54q-57 61 -57 177q0 100 54 163q52 62 147 64q155 -2 182 -162z" />
    <glyph glyph-name="uni241C" unicode="&#x241c;" horiz-adv-x="1357" 
d="M637 1039h-224v-95h196v-78h-196v-190h-83v441h307v-78zM1028 378q0 -74 -60 -110q-46 -28 -113 -28q-83 0 -131 42q-47 42 -47 129h80q0 -51 22 -71q25 -22 75 -22q90 0 90 54q0 37 -51 51l-105 25q-95 22 -95 112q0 57 36 96q42 42 117 42q164 0 172 -156h-80
q-5 78 -85 78q-77 0 -77 -56q0 -26 35 -35l115 -29q102 -26 102 -122z" />
    <glyph glyph-name="uni241D" unicode="&#x241d;" horiz-adv-x="1357" 
d="M1078 378q0 -74 -60 -110q-46 -28 -113 -28q-83 0 -131 42q-48 43 -48 129h81q0 -52 22 -71q26 -22 74 -22q91 0 91 54q0 37 -51 51l-105 25q-101 23 -101 112q0 56 38 96q42 42 118 42q167 0 175 -156h-82q-5 78 -87 78q-78 0 -78 -56q0 -26 40 -35l115 -29
q102 -26 102 -122zM648 681h-64l-9 33q-52 -50 -129 -49q-100 -1 -156 71q-50 64 -50 164q0 87 50 154q60 74 158 74q71 0 121 -40q59 -45 71 -127h-83q-21 89 -113 89q-49 0 -84 -37q-36 -42 -36 -114q0 -158 123 -156q62 -2 94 40q20 26 23 66h-123v78h207v-246z" />
    <glyph glyph-name="uni241E" unicode="&#x241e;" horiz-adv-x="1357" 
d="M1072 378q0 -75 -60 -110q-46 -28 -112 -28q-85 0 -131 42q-47 42 -47 129h80q0 -52 22 -71q25 -22 74 -22q91 0 91 54q0 37 -51 51l-105 25q-96 22 -96 112q0 56 37 96q40 42 117 42q164 0 172 -156h-80q-5 78 -86 78q-76 0 -76 -56q0 -26 35 -35l115 -29
q101 -25 101 -122zM642 676h-95q-10 40 -11 60q-2 24 -3.5 38.5t-1.5 18.5q0 56 -57 56h-111v-173h-84v441h194q147 0 147 -132q0 -62 -45 -102q36 -21 39 -85l6 -57q2 -22 22 -32v-33zM536 981q0 58 -59 58h-114v-112h105q69 0 68 54z" />
    <glyph glyph-name="uni241F" unicode="&#x241f;" horiz-adv-x="1357" 
d="M1072 378q0 -74 -60 -110q-47 -28 -114 -28q-84 0 -132 42t-48 129h81q0 -51 22 -71q26 -22 76 -22q92 0 92 54q0 38 -55 51l-105 25q-97 22 -97 112q0 58 37 96q40 42 117 42q167 0 173 -156h-81q-5 78 -86 78q-76 0 -76 -56q0 -26 36 -35l115 -29q105 -25 105 -122z
M637 828q0 -67 -44 -111q-47 -47 -130 -47q-84 0 -131 47q-42 43 -42 111v295h84v-281q0 -94 90 -94q89 0 89 94v281h84v-295z" />
    <glyph glyph-name="uni2420" unicode="&#x2420;" horiz-adv-x="1357" 
d="M648 808q0 -74 -60 -110q-47 -28 -113 -28q-85 0 -131 42q-48 43 -48 130h81q0 -53 22 -71q24 -23 74 -23q91 0 91 54q0 38 -52 51l-105 26q-94 21 -94 112q0 57 36 95q42 42 116 42q166 0 172 -162h-80q-3 84 -85 84q-75 0 -75 -55q0 -26 33 -36l115 -28
q103 -25 103 -123zM1056 548q0 -56 -30 -93q-38 -48 -105 -47h-105v-168h-84v441h189q62 0 98 -38q37 -40 37 -95zM972 547q0 56 -65 56h-91v-117h89q67 0 67 61z" />
    <glyph glyph-name="uni2421" unicode="&#x2421;" horiz-adv-x="1357" 
d="M430 1143q0 -89 -38 -149q-48 -78 -147 -78h-167v441h168q85 0 135 -60q49 -61 49 -154zM1274 0h-285v441h83v-363h202v-78zM821 458h-324v441h319v-78h-235v-95h218v-78h-218v-112h240v-78zM346 1138q0 141 -105 141h-79v-285h82q102 0 102 144z" />
    <glyph glyph-name="uni2422" unicode="&#x2422;" horiz-adv-x="1357" 
d="M1167 529q0 -231 -98 -378q-122 -185 -370 -185q-191 0 -293 167h-4v-133h-167v952l-124 -84l1 82l123 83v369h173v-251l195 133v-81l-195 -133v-206h4q114 161 309 164q212 -2 329 -135q117 -135 117 -364zM989 501q0 370 -298 370q-140 0 -214 -98q-75 -99 -75 -326
q0 -146 57 -225q76 -105 236 -105q145 0 221 104q73 98 73 280z" />
    <glyph glyph-name="uni2423" unicode="&#x2423;" horiz-adv-x="1357" 
d="M1229 0h-1106v307h112v-195h882v195h112v-307v0z" />
    <glyph glyph-name="uni2424" unicode="&#x2424;" horiz-adv-x="1357" 
d="M1063 253h-310v446h98v-366h212v-80zM642 703h-86l-176 290v-290h-81v431h84l178 -293v293h81v-431z" />
    <glyph glyph-name="uni2425" unicode="&#x2425;" horiz-adv-x="1447" 
d="M1311 1218l-1127 -1129h-50l-2 51l1128 1130l51 -2v-50v0zM1309 988l-895 -898l-95 -2l993 993l-3 -93v0zM1125 1269l-993 -994l2 96l895 897l96 1v0z" />
    <glyph glyph-name="uni2426" unicode="&#x2426;" horiz-adv-x="1357" 
d="M1105 938l-175 -1q0 119 -64 199q-73 91 -206 93q-123 0 -191 -61q-68 -62 -67 -160q0 -99 112 -225q45 -48 88 -96t87 -96q76 -103 76 -243h-173q0 107 -61 189q-33 34 -65.5 68t-65.5 69q-171 187 -171 333q0 187 120 294q115 101 305 101q214 0 330 -126
q110 -118 121 -338zM765 0h-173v173h173v-173z" />
    <glyph glyph-name="uni2427" unicode="&#x2427;" horiz-adv-x="0" 
 />
    <glyph glyph-name="uni2428" unicode="&#x2428;" horiz-adv-x="0" 
 />
    <glyph glyph-name="uni2429" unicode="&#x2429;" horiz-adv-x="0" 
 />
    <glyph glyph-name="uni242A" unicode="&#x242a;" horiz-adv-x="0" 
 />
    <glyph glyph-name="uni242B" unicode="&#x242b;" horiz-adv-x="0" 
 />
    <glyph glyph-name="uni242C" unicode="&#x242c;" horiz-adv-x="0" 
 />
    <glyph glyph-name="uni242D" unicode="&#x242d;" horiz-adv-x="0" 
 />
    <glyph glyph-name="uni242E" unicode="&#x242e;" horiz-adv-x="0" 
 />
    <glyph glyph-name="uni242F" unicode="&#x242f;" horiz-adv-x="0" 
 />
    <glyph glyph-name="uni2430" unicode="&#x2430;" horiz-adv-x="0" 
 />
    <glyph glyph-name="uni2431" unicode="&#x2431;" horiz-adv-x="0" 
 />
    <glyph glyph-name="uni2432" unicode="&#x2432;" horiz-adv-x="0" 
 />
    <glyph glyph-name="uni2433" unicode="&#x2433;" horiz-adv-x="0" 
 />
    <glyph glyph-name="uni2434" unicode="&#x2434;" horiz-adv-x="0" 
 />
    <glyph glyph-name="uni2435" unicode="&#x2435;" horiz-adv-x="0" 
 />
    <glyph glyph-name="uni2436" unicode="&#x2436;" horiz-adv-x="0" 
 />
    <glyph glyph-name="uni2437" unicode="&#x2437;" horiz-adv-x="0" 
 />
    <glyph glyph-name="uni2438" unicode="&#x2438;" horiz-adv-x="0" 
 />
    <glyph glyph-name="uni2439" unicode="&#x2439;" horiz-adv-x="0" 
 />
    <glyph glyph-name="uni243A" unicode="&#x243a;" horiz-adv-x="0" 
 />
    <glyph glyph-name="uni243B" unicode="&#x243b;" horiz-adv-x="0" 
 />
    <glyph glyph-name="uni243C" unicode="&#x243c;" horiz-adv-x="0" 
 />
    <glyph glyph-name="uni243D" unicode="&#x243d;" horiz-adv-x="0" 
 />
    <glyph glyph-name="uni243E" unicode="&#x243e;" horiz-adv-x="0" 
 />
    <glyph glyph-name="uni243F" unicode="&#x243f;" horiz-adv-x="0" 
 />
    <glyph glyph-name="uni2440" unicode="&#x2440;" horiz-adv-x="1178" 
d="M1077 848l-43 -43l-45 43v364h-352v-1167q0 -45 -27 -45h-489q-27 0 -27 43v406q0 21 12 32t33 11q45 0 45 -43v-365h363v1169q0 43 26 43h478q26 0 26 -45v-403z" />
    <glyph glyph-name="uni2441" unicode="&#x2441;" horiz-adv-x="1178" 
d="M1077 37q0 -43 -43 -43q-45 0 -45 43v571h-805v-571q0 -43 -45 -43q-21 0 -33 10.5t-12 32.5v612q0 43 27 43h868v561q0 43 45 43q43 0 43 -43v-1216z" />
    <glyph glyph-name="uni2442" unicode="&#x2442;" horiz-adv-x="1178" 
d="M1077 647q0 -46 -26 -43h-420v-567q0 -43 -45 -43q-43 0 -43 43v567h-422q-27 -3 -27 41v608q0 22 12 32.5t33 10.5q45 0 45 -43v-567h805v567q0 43 45 43q43 0 43 -43v-606z" />
    <glyph glyph-name="uni2443" unicode="&#x2443;" horiz-adv-x="1178" 
d="M1077 37q0 -43 -43 -43q-45 0 -45 43v571h-805v-571q0 -43 -45 -43q-21 0 -33 10.5t-12 32.5v612q0 43 27 43h422v561q0 43 43 43q45 0 45 -43v-561h420q26 0 26 -45v-610z" />
    <glyph glyph-name="uni2444" unicode="&#x2444;" horiz-adv-x="1178" 
d="M1077 45q0 -45 -26 -45h-930q-27 0 -27 43v406q0 21 12 32t33 11q45 0 45 -43v-365h359v1128h-359v-364q0 -43 -45 -43q-21 0 -33 10.5t-12 32.5v405q0 43 27 43h930q26 0 26 -45v-403q0 -43 -43 -43q-45 0 -45 43v364h-358v-1128h358v365q0 43 45 43q43 0 43 -43v-404z
" />
    <glyph glyph-name="uni2445" unicode="&#x2445;" horiz-adv-x="1178" 
d="M1083 1251v-411q0 -35 -24 -35h-19l-446 205l-449 -205h-18q-33 0 -33 35q0 5 6 8v405q0 26 7.5 37t19.5 6l467 -192l465 192q12 3 18 -8q6 -12 6 -37zM999 932v231l-292 -114zM487 1053l-297 114v-235z" />
    <glyph glyph-name="uni2446" unicode="&#x2446;" horiz-adv-x="1178" 
d="M1090 936q0 -70 -72 -70h-287q-72 0 -72 70v289q0 71 72 71h287q72 0 72 -71v-289zM1090 72q0 -72 -72 -72h-287q-72 0 -72 72v284q0 74 72 74h287q72 0 72 -74v-284zM369 287q0 -72 -72 -72h-141q-72 0 -72 72v719q0 71 72 71h141q72 0 72 -71v-719z" />
    <glyph glyph-name="uni2447" unicode="&#x2447;" horiz-adv-x="1178" 
d="M1090 793q0 -38 -18.5 -55t-53.5 -17h-141q-38 0 -55 17t-17 55v432q0 35 17 53t55 18h141q72 0 72 -71v-432zM659 502q0 -72 -71 -72q-74 0 -74 72v432q0 72 74 72q71 0 71 -72v-432zM369 72q0 -72 -72 -72h-141q-72 0 -72 72v432q0 71 72 71h141q72 0 72 -71v-432z" />
    <glyph glyph-name="uni2448" unicode="&#x2448;" horiz-adv-x="1178" 
d="M1090 719q0 -72 -72 -72h-287q-72 0 -72 72v432q0 72 72 72h287q72 0 72 -72v-432zM514 289q0 -72 -74 -72q-71 0 -71 72v717q0 71 71 71q74 0 74 -71v-717zM229 289q0 -72 -73 -72q-72 0 -72 72v717q0 71 72 71q73 0 73 -71v-717z" />
    <glyph glyph-name="uni2449" unicode="&#x2449;" horiz-adv-x="1178" 
d="M1090 430q0 -75 -74 -72q-72 -3 -72 72v430q0 72 72 72q74 0 74 -72v-430zM805 430q0 -75 -74 -72h-143q-74 -3 -74 72v430q0 72 74 72h143q74 0 74 -72v-430zM369 430q0 -75 -72 -72h-141q-72 -3 -72 72v430q0 72 72 72h141q72 0 72 -72v-430z" />
    <glyph glyph-name="uni244A" unicode="&#x244a;" horiz-adv-x="1178" 
d="M1102 -137q2 -6 -1 -13.5t-11 -13.5q-18 -14 -33 -14q-25 0 -39 39l-664 1491q-2 6 -3.5 14.5t-6.5 19.5q0 13 12 25q16 12 27 12q36 0 51 -32l660 -1493q0 -3 2.5 -11.5t5.5 -23.5zM834 -137q3 -6 0 -13.5t-13 -13.5q-14 -14 -30 -14q-23 0 -41 37l-664 1493q-1 3 -3 8
q-2 4 -3.5 10.5t-3.5 15.5q-3 15 10 25q15 12 31 12q17 0 30 -7.5t21 -24.5l659 -1493q2 -2 3.5 -11t3.5 -24z" />
    <glyph glyph-name="uni244B" unicode="&#x244b;" horiz-adv-x="0" 
 />
    <glyph glyph-name="uni244C" unicode="&#x244c;" horiz-adv-x="0" 
 />
    <glyph glyph-name="uni244D" unicode="&#x244d;" horiz-adv-x="0" 
 />
    <glyph glyph-name="uni244E" unicode="&#x244e;" horiz-adv-x="0" 
 />
    <glyph glyph-name="uni244F" unicode="&#x244f;" horiz-adv-x="0" 
 />
    <glyph glyph-name="uni2450" unicode="&#x2450;" horiz-adv-x="0" 
 />
    <glyph glyph-name="uni2451" unicode="&#x2451;" horiz-adv-x="0" 
 />
    <glyph glyph-name="uni2452" unicode="&#x2452;" horiz-adv-x="0" 
 />
    <glyph glyph-name="uni2453" unicode="&#x2453;" horiz-adv-x="0" 
 />
    <glyph glyph-name="uni2454" unicode="&#x2454;" horiz-adv-x="0" 
 />
    <glyph glyph-name="uni2455" unicode="&#x2455;" horiz-adv-x="0" 
 />
    <glyph glyph-name="uni2456" unicode="&#x2456;" horiz-adv-x="0" 
 />
    <glyph glyph-name="uni2457" unicode="&#x2457;" horiz-adv-x="0" 
 />
    <glyph glyph-name="uni2458" unicode="&#x2458;" horiz-adv-x="0" 
 />
    <glyph glyph-name="uni2459" unicode="&#x2459;" horiz-adv-x="0" 
 />
    <glyph glyph-name="uni245A" unicode="&#x245a;" horiz-adv-x="0" 
 />
    <glyph glyph-name="uni245B" unicode="&#x245b;" horiz-adv-x="0" 
 />
    <glyph glyph-name="uni245C" unicode="&#x245c;" horiz-adv-x="0" 
 />
    <glyph glyph-name="uni245D" unicode="&#x245d;" horiz-adv-x="0" 
 />
    <glyph glyph-name="uni245E" unicode="&#x245e;" horiz-adv-x="0" 
 />
    <glyph glyph-name="uni245F" unicode="&#x245f;" horiz-adv-x="0" 
 />
    <glyph glyph-name="uni2460" unicode="&#x2460;" 
d="M1687 408q0 -349 -248 -597q-247 -247 -596 -247q-348 0 -595 247q-248 248 -248 597q0 347 248 595q246 248 595 248q350 0 596 -248q248 -248 248 -595zM1581 408q0 303 -216 521q-218 216 -521 216t-521 -216q-217 -217 -217 -521q0 -305 217 -521q216 -217 521 -217
t521 217q216 216 216 521zM1020 0h-339v17q61 1 83 14q35 17 35 67v555q0 73 -38 73q-23 0 -89 -31v19l233 116v-732q0 -51 33 -67q24 -13 82 -14v-17z" />
    <glyph glyph-name="uni2461" unicode="&#x2461;" 
d="M1687 408q0 -349 -248 -597q-247 -247 -596 -247q-348 0 -595 247q-248 248 -248 597q0 347 248 595q246 248 595 248q350 0 596 -248q248 -248 248 -595zM1581 408q0 303 -216 521q-218 216 -521 216t-521 -216q-217 -217 -217 -521q0 -305 217 -521q216 -217 521 -217
t521 217q216 216 216 521zM1119 169l-67 -169h-481l4 13l208 221q167 178 167 331q0 81 -48 129q-46 47 -128 49q-119 -2 -176 -160l-25 6q40 243 265 243q91 0 154 -63q64 -63 64 -153q0 -147 -166 -320l-197 -207h261q69 0 91 13q21 12 58 73z" />
    <glyph glyph-name="uni2462" unicode="&#x2462;" 
d="M1687 408q0 -349 -248 -597q-247 -247 -596 -247q-348 0 -595 247q-248 248 -248 597q0 347 248 595q246 248 595 248q350 0 596 -248q248 -248 248 -595zM1581 408q0 303 -216 521q-218 216 -521 216t-521 -216q-217 -217 -217 -521q0 -305 217 -521q216 -217 521 -217
t521 217q216 216 216 521zM1067 264q0 -133 -104 -210q-95 -71 -231 -71q-143 0 -143 70q0 42 46 42q26 0 83 -34q55 -33 93 -33q76 0 122 53q44 48 44 127q0 200 -254 201l-1 15q205 64 205 204q0 59 -37 95t-98 37q-111 -2 -184 -131l-18 6q65 197 240 197q192 0 192 -163
q0 -97 -113 -174q158 -63 158 -231z" />
    <glyph glyph-name="uni2463" unicode="&#x2463;" 
d="M1687 408q0 -349 -248 -597q-247 -247 -596 -247q-348 0 -595 247q-248 248 -248 597q0 347 248 595q246 248 595 248q350 0 596 -248q248 -248 248 -595zM1581 408q0 303 -216 521q-218 216 -521 216t-521 -216q-217 -217 -217 -521q0 -305 217 -521q216 -217 521 -217
t521 217q216 216 216 521zM1112 207h-123v-207h-95v207h-347v78l386 545h56v-545h123v-78zM894 285v413l-299 -414z" />
    <glyph glyph-name="uni2464" unicode="&#x2464;" 
d="M1687 408q0 -349 -248 -597q-247 -247 -596 -247q-348 0 -595 247q-248 248 -248 597q0 347 248 595q246 248 595 248q350 0 596 -248q248 -248 248 -595zM1581 408q0 303 -216 521q-218 216 -521 216t-521 -216q-217 -217 -217 -521q0 -305 217 -521q216 -217 521 -217
t521 217q216 216 216 521zM1074 837l-58 -122h-258l-51 -104q173 -28 251 -86q103 -79 103 -246q0 -135 -97 -217q-94 -79 -236 -79q-155 0 -155 78q0 45 57 45q39 0 90 -39q49 -39 83 -39q81 0 128 63q46 59 46 149q0 131 -115 203q-90 54 -233 65l-15 15l134 292h244
q44 0 70 30z" />
    <glyph glyph-name="uni2465" unicode="&#x2465;" 
d="M1687 408q0 -349 -248 -597q-247 -247 -596 -247q-348 0 -595 247q-248 248 -248 597q0 347 248 595q246 248 595 248q350 0 596 -248q248 -248 248 -595zM1581 408q0 303 -216 521q-218 216 -521 216t-521 -216q-217 -217 -217 -521q0 -305 217 -521q216 -217 521 -217
t521 217q216 216 216 521zM1112 262q0 -116 -69 -194q-70 -85 -185 -85q-119 0 -196 92q-81 96 -81 262q0 194 122 333q120 132 310 160q30 4 47.5 6t22.5 2l3 -22q-39 -6 -118 -33q-214 -100 -246 -314q77 56 159 56q107 0 169 -71t62 -192zM1000 220q0 249 -164 249
q-69 0 -120 -39q-2 -5 -7 -9q-16 -36 -16 -117q0 -129 46 -205q50 -83 138 -82q57 -1 92 58q31 52 31 145z" />
    <glyph glyph-name="uni2466" unicode="&#x2466;" 
d="M1687 408q0 -349 -248 -597q-247 -247 -596 -247q-348 0 -595 247q-248 248 -248 597q0 347 248 595q246 248 595 248q350 0 596 -248q248 -248 248 -595zM1581 408q0 303 -216 521q-218 216 -521 216t-521 -216q-217 -217 -217 -521q0 -305 217 -521q216 -217 521 -217
t521 217q216 216 216 521zM1087 797l-263 -814l-77 -1l247 744h-255q-65 0 -96 -22q-25 -19 -62 -81l-22 11l74 181h454v-18z" />
    <glyph glyph-name="uni2467" unicode="&#x2467;" 
d="M1687 408q0 -349 -248 -597q-247 -247 -596 -247q-348 0 -595 247q-248 248 -248 597q0 347 248 595q246 248 595 248q350 0 596 -248q248 -248 248 -595zM1581 408q0 303 -216 521q-218 216 -521 216t-521 -216q-217 -217 -217 -521q0 -305 217 -521q216 -217 521 -217
t521 217q216 216 216 521zM1078 190q0 -96 -76 -154q-71 -53 -170 -53q-98 0 -162 52q-72 57 -72 152q0 105 162 222l-105 102q-46 56 -46 138q0 69 61 123q69 60 176 60q81 0 141 -42q69 -48 69 -126q0 -124 -168 -206q48 -38 79.5 -66.5t47.5 -46.5q63 -74 63 -155z
M972 660q0 61 -39 100q-39 38 -101 39q-57 -2 -95 -34q-39 -33 -39 -89q0 -100 156 -196q118 63 118 180zM983 157q0 68 -68 133q-21 20 -125 93q-3 -1 -13 -10q-84 -68 -84 -173q0 -184 157 -183q61 -1 97 38t36 102z" />
    <glyph glyph-name="uni2468" unicode="&#x2468;" 
d="M1687 408q0 -349 -248 -597q-247 -247 -596 -247q-348 0 -595 247q-248 248 -248 597q0 347 248 595q246 248 595 248q350 0 596 -248q248 -248 248 -595zM1581 408q0 303 -216 521q-218 216 -521 216t-521 -216q-217 -217 -217 -521q0 -305 217 -521q216 -217 521 -217
t521 217q216 216 216 521zM1100 479q0 -144 -89 -276q-90 -134 -220 -189q-101 -42 -184 -42l-3 25q175 27 272 157q77 105 101 205q-96 -69 -183 -69q-102 0 -163 70q-61 68 -61 190q0 99 57 180q73 102 207 102q131 0 204 -112q62 -96 62 -241zM977 510q0 288 -163 289
q-133 -2 -133 -212q0 -241 158 -241q33 0 75 19q42 18 59 43q2 16 3 41.5t1 60.5z" />
    <glyph glyph-name="uni2469" unicode="&#x2469;" 
d="M1687 408q0 -349 -248 -597q-247 -247 -596 -247q-348 0 -595 247q-248 248 -248 597q0 347 248 595q246 248 595 248q350 0 596 -248q248 -248 248 -595zM1581 408q0 303 -216 521q-218 216 -521 216t-521 -216q-217 -217 -217 -521q0 -305 217 -521q216 -217 521 -217
t521 217q216 216 216 521zM1324 404q0 -158 -61 -273q-75 -148 -222 -148q-126 0 -201 123q-69 117 -69 305q0 162 58 277q75 144 217 144q133 0 208 -123q70 -116 70 -305zM736 0h-339v17q59 1 83 14q34 16 34 67v555q0 73 -38 73q-21 0 -89 -31v19l233 118v-734
q0 -51 34 -67q22 -13 82 -14v-17zM1206 401q0 397 -151 398q-161 -1 -161 -413q0 -370 157 -369q155 -1 155 384z" />
    <glyph glyph-name="uni246A" unicode="&#x246a;" 
d="M1687 408q0 -349 -248 -597q-247 -247 -596 -247q-348 0 -595 247q-248 248 -248 597q0 347 248 595q246 248 595 248q350 0 596 -248q248 -248 248 -595zM1581 408q0 303 -216 521q-218 216 -521 216t-521 -216q-217 -217 -217 -521q0 -305 217 -521q216 -217 521 -217
t521 217q216 216 216 521zM1228 0h-339v17q60 1 83 14q33 16 33 67v555q0 73 -38 73q-21 0 -87 -31v19l232 116v-732q0 -51 33 -67q23 -13 83 -14v-17zM796 0h-339v17q32 1 52.5 4.5t31.5 9.5q34 16 34 67v555q0 73 -39 73q-21 0 -89 -31v19l234 116v-732q0 -50 34 -67
q22 -13 81 -14v-17z" />
    <glyph glyph-name="uni246B" unicode="&#x246b;" 
d="M1687 408q0 -349 -248 -597q-247 -247 -596 -247q-348 0 -595 247q-248 248 -248 597q0 347 248 595q246 248 595 248q350 0 596 -248q248 -248 248 -595zM1581 408q0 303 -216 521q-218 216 -521 216t-521 -216q-217 -217 -217 -521q0 -305 217 -521q216 -217 521 -217
t521 217q216 216 216 521zM1356 169l-67 -169h-479l3 14l207 221q170 174 170 330q0 80 -47 129q-47 47 -129 49q-120 -2 -177 -160l-26 6q42 243 265 243q91 0 156 -63q64 -63 64 -153q0 -147 -169 -320l-197 -207h262q67 0 90 12q22 13 58 74zM736 0h-339v17q59 1 83 14
q34 16 34 67v555q0 73 -38 73q-21 0 -89 -31v19l233 118v-734q0 -51 34 -67q22 -13 82 -14v-17z" />
    <glyph glyph-name="uni246C" unicode="&#x246c;" 
d="M1687 408q0 -349 -248 -597q-247 -247 -596 -247q-348 0 -595 247q-248 248 -248 597q0 347 248 595q246 248 595 248q350 0 596 -248q248 -248 248 -595zM1581 408q0 303 -216 521q-218 216 -521 216t-521 -216q-217 -217 -217 -521q0 -305 217 -521q216 -217 521 -217
t521 217q216 216 216 521zM1274 264q0 -133 -104 -210q-95 -71 -232 -71q-143 0 -143 70q0 42 45 42q27 0 84 -34q55 -33 93 -33q76 0 123 53q44 50 44 127q0 199 -255 201l-2 15q201 64 201 204q0 59 -36 95q-35 35 -96 37q-111 -2 -182 -131l-18 6q63 197 241 197
q192 0 192 -163q0 -98 -115 -174q160 -63 160 -231zM736 0h-339v17q59 1 83 14q34 16 34 67v555q0 73 -38 73q-21 0 -89 -31v19l233 118v-734q0 -51 34 -67q22 -13 82 -14v-17z" />
    <glyph glyph-name="uni246D" unicode="&#x246d;" 
d="M1687 408q0 -349 -248 -597q-247 -247 -596 -247q-348 0 -595 247q-248 248 -248 597q0 347 248 595q246 248 595 248q350 0 596 -248q248 -248 248 -595zM1581 408q0 303 -216 521q-218 216 -521 216t-521 -216q-217 -217 -217 -521q0 -305 217 -521q216 -217 521 -217
t521 217q216 216 216 521zM1324 207h-129v-207h-95v207h-340l-3 79l381 546l57 -2v-545h129v-78zM736 0h-339v17q59 1 83 14q34 16 34 67v555q0 73 -38 73q-21 0 -89 -31v19l233 116v-732q0 -51 34 -67q22 -13 82 -14v-17zM1100 285v417l-296 -418z" />
    <glyph glyph-name="uni246E" unicode="&#x246e;" 
d="M1687 408q0 -349 -248 -597q-247 -247 -596 -247q-348 0 -595 247q-248 248 -248 597q0 347 248 595q246 248 595 248q350 0 596 -248q248 -248 248 -595zM1581 408q0 303 -216 521q-218 216 -521 216t-521 -216q-217 -217 -217 -521q0 -305 217 -521q216 -217 521 -217
t521 217q216 216 216 521zM1279 837l-58 -122h-258l-51 -104q172 -28 249 -86q101 -80 101 -246q0 -135 -96 -217q-92 -79 -234 -79q-153 0 -153 78q0 45 57 45q38 0 88 -39q49 -39 82 -39q79 0 126 63q47 61 47 149q0 131 -115 203q-88 54 -230 65l-13 15l133 292h243
q47 0 71 30zM736 0h-339v17q59 1 83 14q34 16 34 67v555q0 73 -38 73q-21 0 -89 -31v19l233 116v-732q0 -51 34 -67q22 -13 82 -14v-17z" />
    <glyph glyph-name="uni246F" unicode="&#x246f;" 
d="M1687 408q0 -349 -248 -597q-247 -247 -596 -247q-348 0 -595 247q-248 248 -248 597q0 347 248 595q246 248 595 248q350 0 596 -248q248 -248 248 -595zM1581 408q0 303 -216 521q-218 216 -521 216t-521 -216q-217 -217 -217 -521q0 -305 217 -521q216 -217 521 -217
t521 217q216 216 216 521zM1318 262q0 -118 -69 -194q-72 -85 -187 -85q-121 0 -199 92q-81 96 -81 262q0 196 124 333q119 131 312 160q30 4 48 6t23 2l2 -22q-39 -6 -118 -33q-214 -100 -246 -314q79 56 160 56q108 0 170 -71q61 -70 61 -192zM736 0h-339v17q59 1 83 14
q34 16 34 67v555q0 73 -38 73q-21 0 -89 -31v19l233 116v-732q0 -51 34 -67q22 -13 82 -14v-17zM1206 220q0 249 -166 249q-71 0 -122 -39q-1 -3 -7 -9q-17 -39 -17 -117q0 -128 47 -205q52 -83 141 -82q58 -1 93 58q31 53 31 145z" />
    <glyph glyph-name="uni2470" unicode="&#x2470;" 
d="M1687 408q0 -349 -248 -597q-247 -247 -596 -247q-348 0 -595 247q-248 248 -248 597q0 347 248 595q246 248 595 248q350 0 596 -248q248 -248 248 -595zM1581 408q0 303 -216 521q-218 216 -521 216t-521 -216q-217 -217 -217 -521q0 -305 217 -521q216 -217 521 -217
t521 217q216 216 216 521zM1292 797l-263 -814l-77 -1l247 744h-254q-33 0 -56.5 -5.5t-39.5 -16.5q-12 -9 -28 -29t-35 -52l-21 11l73 181h454v-18zM736 0h-339v17q59 1 83 14q34 16 34 67v555q0 73 -38 73q-21 0 -89 -31v19l233 116v-732q0 -51 34 -67q22 -13 82 -14v-17z
" />
    <glyph glyph-name="uni2471" unicode="&#x2471;" 
d="M1687 408q0 -349 -248 -597q-247 -247 -596 -247q-348 0 -595 247q-248 248 -248 597q0 347 248 595q246 248 595 248q350 0 596 -248q248 -248 248 -595zM1581 408q0 303 -216 521q-218 216 -521 216t-521 -216q-217 -217 -217 -521q0 -305 217 -521q216 -217 521 -217
t521 217q216 216 216 521zM1284 190q0 -96 -75 -154q-71 -53 -170 -53q-98 0 -162 52q-73 57 -73 152q0 106 162 222l-108 102q-48 57 -48 138q0 68 61 123q69 60 176 60q81 0 141 -42q69 -48 69 -126q0 -124 -162 -206q96 -78 127 -113q62 -74 62 -155zM736 0h-339v17
q59 1 83 14q34 16 34 67v555q0 73 -38 73q-21 0 -89 -31v19l233 118v-734q0 -51 34 -67q22 -13 82 -14v-17zM1173 660q0 60 -38 100q-39 38 -101 39q-56 -2 -96 -34q-39 -34 -39 -89q0 -99 157 -196q117 63 117 180zM1190 157q0 69 -67 133q-23 21 -125 93q-3 -1 -14 -10
q-85 -68 -85 -173q0 -82 39 -130q42 -54 120 -53q60 -1 96 38t36 102z" />
    <glyph glyph-name="uni2472" unicode="&#x2472;" 
d="M1687 408q0 -349 -248 -597q-247 -247 -596 -247q-348 0 -595 247q-248 248 -248 597q0 347 248 595q246 248 595 248q350 0 596 -248q248 -248 248 -595zM1581 408q0 303 -216 521q-218 216 -521 216t-521 -216q-217 -217 -217 -521q0 -305 217 -521q216 -217 521 -217
t521 217q216 216 216 521zM1307 479q0 -142 -89 -276q-90 -134 -220 -189q-101 -42 -185 -42l-3 25q175 27 272 157q78 104 102 205q-96 -69 -183 -69q-102 0 -163 70q-62 70 -62 190q0 97 57 180q73 102 208 102q131 0 204 -112q62 -98 62 -241zM736 0h-339v17q59 1 83 14
q34 16 34 67v555q0 73 -38 73q-21 0 -89 -31v19l233 118v-734q0 -51 34 -67q22 -13 82 -14v-17zM1190 510q0 287 -167 289q-135 -2 -135 -212q0 -241 160 -241q34 0 76 19q43 18 60 43q6 39 6 102z" />
    <glyph glyph-name="uni2473" unicode="&#x2473;" 
d="M1687 408q0 -349 -248 -597q-247 -247 -596 -247q-348 0 -595 247q-248 248 -248 597q0 347 248 595q246 248 595 248q350 0 596 -248q248 -248 248 -595zM1581 408q0 303 -216 521q-218 216 -521 216t-521 -216q-217 -217 -217 -521q0 -305 217 -521q216 -217 521 -217
t521 217q216 216 216 521zM1424 404q0 -158 -60 -273q-76 -148 -223 -148q-127 0 -200 123q-70 119 -70 305q0 161 59 277q73 144 216 144q132 0 209 -123q69 -117 69 -305zM809 169l-69 -169h-480v17l209 219q173 174 173 329q0 82 -47 129q-49 47 -130 49
q-120 -1 -178 -160l-25 6q42 243 266 243q91 0 156 -62q64 -63 64 -152q0 -146 -171 -317l-201 -212h265q70 0 91 12q21 11 59 74zM1307 401q0 397 -154 398q-164 -1 -164 -413q0 -370 161 -369q157 -1 157 384z" />
    <glyph glyph-name="uni2474" unicode="&#x2474;" 
d="M1625 286q0 -158 -82 -292q-79 -130 -219 -212l-11 19q206 146 206 480q0 182 -36 295q-48 149 -170 237l14 19q82 -39 168 -152q130 -173 130 -394zM1021 0h-338v17q60 2 82 14q34 16 34 67v552q0 72 -37 73q-23 -2 -89 -28v19l232 118v-734q0 -51 34 -67q22 -12 82 -14
v-17zM376 -199l-15 -19q-81 37 -169 152q-131 173 -131 394q0 157 84 292q80 131 218 212l13 -19q-208 -147 -208 -480q0 -184 36 -295q48 -149 172 -237z" />
    <glyph glyph-name="uni2475" unicode="&#x2475;" 
d="M1625 286q0 -158 -82 -292q-79 -130 -219 -212l-11 19q206 146 206 480q0 182 -36 295q-48 149 -170 237l14 19q82 -39 168 -152q130 -173 130 -394zM1120 169l-67 -169h-480l4 13l207 221q166 178 166 331q0 81 -48 129q-46 47 -127 49q-120 -2 -175 -160l-26 6
q42 243 264 243q91 0 154 -63q64 -63 64 -153q0 -146 -165 -320l-197 -207h261q71 0 91 13q23 13 58 73zM376 -199l-15 -19q-81 37 -169 152q-131 173 -131 394q0 157 84 292q80 131 218 212l13 -19q-208 -147 -208 -480q0 -184 36 -295q48 -149 172 -237z" />
    <glyph glyph-name="uni2476" unicode="&#x2476;" 
d="M1625 286q0 -158 -82 -292q-79 -130 -219 -212l-11 19q206 146 206 480q0 182 -36 295q-48 149 -170 237l14 19q82 -39 168 -152q130 -173 130 -394zM1067 264q0 -134 -103 -210q-95 -71 -231 -71q-142 0 -142 70q0 42 45 42q26 0 83 -34q54 -33 93 -33q75 0 122 53
q43 49 43 127q0 200 -253 201l-1 15q204 64 204 204q0 59 -37 95q-35 35 -97 37q-112 -2 -183 -131l-18 6q63 197 239 197q191 0 191 -163q0 -98 -112 -174q157 -63 157 -231zM376 -199l-15 -19q-81 37 -169 152q-131 173 -131 394q0 157 84 292q80 131 218 212l13 -19
q-208 -147 -208 -480q0 -184 36 -295q48 -149 172 -237z" />
    <glyph glyph-name="uni2477" unicode="&#x2477;" 
d="M1625 286q0 -158 -82 -292q-79 -130 -219 -212l-11 19q206 146 206 480q0 182 -36 295q-48 149 -170 237l14 19q82 -39 168 -152q130 -173 130 -394zM1117 207h-128v-207h-95v207h-341v78l381 547h55v-547h128v-78zM376 -199l-15 -19q-81 37 -169 152q-131 173 -131 394
q0 157 84 292q80 131 218 212l13 -19q-208 -147 -208 -480q0 -184 36 -295q48 -149 172 -237zM894 285v411l-294 -412z" />
    <glyph glyph-name="uni2478" unicode="&#x2478;" 
d="M1625 285q0 -158 -82 -292q-79 -130 -219 -211l-11 19q206 146 206 480q0 181 -36 294q-48 147 -170 237l14 18q82 -37 168 -152q130 -172 130 -393zM1075 835l-58 -120h-258l-51 -104q173 -28 251 -86q102 -80 102 -246q0 -135 -97 -217q-92 -79 -235 -79
q-155 0 -155 78q0 45 57 45q39 0 90 -39q49 -39 83 -39q80 0 127 63q46 59 46 149q0 131 -115 203q-45 28 -103 44t-129 21l-14 15l134 292h243q45 0 70 28zM376 -199l-15 -19q-81 37 -169 152q-131 173 -131 394q0 156 84 291q79 129 218 211l13 -18q-208 -148 -208 -480
q0 -183 36 -295q48 -148 172 -236z" />
    <glyph glyph-name="uni2479" unicode="&#x2479;" 
d="M1625 285q0 -158 -82 -292q-79 -130 -219 -211l-11 19q206 146 206 480q0 181 -36 294q-48 147 -170 237l14 18q82 -37 168 -152q130 -172 130 -393zM1112 262q0 -116 -69 -194q-70 -85 -185 -85q-119 0 -196 92q-81 96 -81 262q0 195 123 332q121 133 310 160
q30 4 47.5 6t22.5 3l3 -23q-19 -3 -48 -11t-70 -21q-213 -102 -246 -314q79 56 159 56q108 0 168 -71q62 -71 62 -192zM376 -199l-15 -19q-81 37 -169 152q-131 173 -131 394q0 156 84 291q79 129 218 211l13 -18q-208 -148 -208 -480q0 -183 36 -295q48 -148 172 -236z
M1000 220q0 249 -164 249q-69 0 -120 -39q-2 -5 -7 -9q-16 -36 -16 -117q0 -129 46 -205q50 -83 138 -82q57 -1 92 58q31 52 31 145z" />
    <glyph glyph-name="uni247A" unicode="&#x247a;" 
d="M1625 286q0 -158 -82 -292q-79 -130 -219 -212l-11 19q206 146 206 480q0 182 -36 295q-48 149 -170 237l14 19q82 -39 168 -152q130 -173 130 -394zM1088 797l-263 -814l-77 -1l247 744h-255q-63 0 -96 -22q-22 -17 -62 -81l-21 11l73 181h454v-18zM376 -199l-15 -19
q-81 37 -169 152q-131 173 -131 394q0 157 84 292q80 131 218 212l13 -19q-208 -147 -208 -480q0 -184 36 -295q48 -149 172 -237z" />
    <glyph glyph-name="uni247B" unicode="&#x247b;" 
d="M1625 286q0 -158 -82 -292q-79 -130 -219 -212l-11 19q206 146 206 480q0 182 -36 295q-48 149 -170 237l14 19q82 -39 168 -152q130 -173 130 -394zM1078 190q0 -96 -75 -154q-70 -53 -168 -53q-96 0 -161 52q-71 57 -71 152q0 104 157 222l-105 102q-46 56 -46 138
q0 69 61 123q69 60 176 60q81 0 141 -42q69 -48 69 -126q0 -124 -168 -206q48 -38 79.5 -66.5t47.5 -46.5q63 -74 63 -155zM376 -199l-15 -19q-81 37 -169 152q-131 173 -131 394q0 157 84 292q80 131 218 212l13 -19q-208 -147 -208 -480q0 -184 36 -295q48 -149 172 -237z
M972 660q0 61 -39 100q-39 38 -101 39q-57 -2 -95 -34q-39 -33 -39 -89q0 -100 156 -196q118 63 118 180zM983 157q0 69 -67 133q-11 11 -41 34t-81 59q-2 -1 -13 -10q-83 -68 -83 -173q0 -185 155 -183q59 -1 95 38q35 38 35 102z" />
    <glyph glyph-name="uni247C" unicode="&#x247c;" 
d="M1625 286q0 -158 -82 -292q-79 -130 -219 -212l-11 19q206 146 206 480q0 182 -36 295q-48 149 -170 237l14 19q82 -39 168 -152q130 -173 130 -394zM1100 479q0 -144 -89 -276q-89 -134 -219 -189q-101 -42 -183 -42l-3 25q174 27 271 157q77 102 101 205
q-95 -69 -181 -69q-100 0 -161 70t-61 190q0 99 57 180q72 102 205 102q129 0 202 -112q61 -97 61 -241zM376 -199l-15 -19q-81 37 -169 152q-131 173 -131 394q0 157 84 292q80 131 218 212l13 -19q-208 -147 -208 -480q0 -184 36 -295q48 -149 172 -237zM977 510
q0 288 -160 289q-130 -1 -130 -212q0 -241 154 -241q33 0 74 19q40 17 58 43q2 16 3 41.5t1 60.5z" />
    <glyph glyph-name="uni247D" unicode="&#x247d;" 
d="M1625 286q0 -158 -82 -292q-79 -130 -219 -212l-11 19q206 146 206 480q0 182 -36 295q-48 149 -170 237l14 19q82 -39 168 -152q130 -173 130 -394zM1329 404q0 -158 -61 -273q-76 -148 -224 -148q-128 0 -203 123q-70 116 -70 305q0 161 59 277q75 144 219 144
q133 0 210 -123q70 -116 70 -305zM737 0h-338v17q59 1 81 14q34 16 34 67v552q0 71 -38 73q-10 -1 -32 -7.5t-55 -20.5v19l231 118v-734q0 -50 34 -67q24 -13 83 -14v-17zM376 -199l-15 -19q-81 37 -169 152q-131 173 -131 394q0 157 84 292q80 131 218 212l13 -19
q-208 -147 -208 -480q0 -184 36 -295q48 -149 172 -237zM1212 401q0 397 -154 398q-164 -2 -164 -413q0 -370 160 -369q158 -2 158 384z" />
    <glyph glyph-name="uni247E" unicode="&#x247e;" 
d="M1625 286q0 -158 -82 -292q-79 -130 -219 -212l-11 19q206 146 206 480q0 182 -36 295q-48 149 -170 237l14 19q82 -39 168 -152q130 -173 130 -394zM1230 0h-340v17q60 2 82 14q33 16 33 67v552q0 72 -37 73q-21 -2 -87 -28v19l231 118v-734q0 -51 34 -67q22 -13 84 -14
v-17zM797 0h-338v17q60 2 82 14q34 16 34 67v552q0 71 -39 73q-21 -2 -87 -28v19l232 118v-734q0 -50 34 -67q24 -13 82 -14v-17zM376 -199l-15 -19q-81 37 -169 152q-131 173 -131 394q0 157 84 292q80 131 218 212l13 -19q-208 -147 -208 -480q0 -184 36 -295
q48 -149 172 -237z" />
    <glyph glyph-name="uni247F" unicode="&#x247f;" 
d="M1625 286q0 -158 -82 -292q-79 -130 -219 -212l-11 19q206 146 206 480q0 182 -36 295q-48 149 -170 237l14 19q82 -39 168 -152q130 -173 130 -394zM1358 169l-67 -169h-480l3 14l208 221q168 175 168 330q0 80 -47 129q-48 48 -129 49q-119 -2 -176 -160l-26 6
q42 243 265 243q92 0 155 -63q64 -63 64 -153q0 -146 -168 -320l-197 -207h262q69 0 90 12q21 11 59 74zM737 0h-338v17q59 1 81 14q34 16 34 67v552q0 71 -38 73q-10 -1 -32 -7.5t-55 -20.5v19l231 118v-734q0 -50 34 -67q24 -13 83 -14v-17zM376 -199l-15 -19
q-81 37 -169 152q-131 173 -131 394q0 157 84 292q80 131 218 212l13 -19q-208 -147 -208 -480q0 -184 36 -295q48 -149 172 -237z" />
    <glyph glyph-name="uni2480" unicode="&#x2480;" 
d="M1625 286q0 -158 -82 -292q-79 -130 -219 -212l-11 19q206 146 206 480q0 182 -36 295q-48 149 -170 237l14 19q82 -39 168 -152q130 -173 130 -394zM1274 264q0 -133 -104 -210q-95 -71 -231 -71q-143 0 -143 70q0 42 45 42q27 0 83 -34q55 -33 94 -33q75 0 122 53
q44 50 44 127q0 200 -254 201l-2 15q200 64 200 204q0 59 -36 95q-35 35 -95 37q-111 -2 -181 -131l-19 6q63 197 240 197q192 0 192 -163q0 -98 -114 -174q159 -63 159 -231zM737 0h-338v17q59 1 81 14q34 16 34 67v552q0 71 -38 73q-10 -1 -32 -7.5t-55 -20.5v19l231 118
v-734q0 -50 34 -67q24 -13 83 -14v-17zM376 -199l-15 -19q-81 37 -169 152q-131 173 -131 394q0 157 84 292q80 131 218 212l13 -19q-208 -147 -208 -480q0 -184 36 -295q48 -149 172 -237z" />
    <glyph glyph-name="uni2481" unicode="&#x2481;" 
d="M1625 286q0 -158 -82 -292q-79 -130 -219 -212l-11 19q206 146 206 480q0 182 -36 295q-48 149 -170 237l14 19q82 -39 168 -152q130 -173 130 -394zM1324 207h-129v-207h-95v207h-340v78l380 547h55v-547h129v-78zM737 0h-338v17q59 1 81 14q34 16 34 67v552
q0 71 -38 73q-10 -1 -32 -7.5t-55 -20.5v19l231 118v-734q0 -50 34 -67q24 -13 83 -14v-17zM376 -199l-15 -19q-81 37 -169 152q-131 173 -131 394q0 157 84 292q80 131 218 212l13 -19q-208 -147 -208 -480q0 -184 36 -295q48 -149 172 -237zM1100 285v411l-293 -412z" />
    <glyph glyph-name="uni2482" unicode="&#x2482;" 
d="M1625 285q0 -158 -82 -292q-79 -130 -219 -211l-11 19q206 146 206 480q0 181 -36 294q-48 147 -170 237l14 18q82 -37 168 -152q130 -172 130 -393zM1280 835l-57 -120h-259l-51 -104q175 -28 252 -86q103 -79 103 -246q0 -134 -98 -217q-92 -79 -235 -79
q-155 0 -155 78q0 45 58 45q37 0 90 -39q48 -39 82 -39q80 0 127 63q47 59 47 149q0 132 -116 203q-88 54 -233 65l-13 15l133 292h243q46 0 71 28zM737 0h-338v17q59 1 81 14q34 16 34 67v552q0 71 -38 73q-10 -1 -32 -7.5t-55 -20.5v19l231 116v-732q0 -50 34 -67
q24 -13 83 -14v-17zM376 -199l-15 -19q-81 37 -169 152q-131 173 -131 394q0 156 84 291q79 129 218 211l13 -18q-208 -148 -208 -480q0 -183 36 -295q48 -148 172 -236z" />
    <glyph glyph-name="uni2483" unicode="&#x2483;" 
d="M1625 285q0 -158 -82 -292q-79 -130 -219 -211l-11 19q206 146 206 480q0 181 -36 294q-48 147 -170 237l14 18q82 -37 168 -152q130 -172 130 -393zM1307 262q0 -116 -69 -194q-72 -85 -187 -85q-121 0 -199 92q-81 96 -81 262q0 195 123 332q123 133 313 160q30 4 48 6
t23 3l2 -23q-19 -3 -48 -11t-69 -21q-214 -102 -247 -314q79 56 160 56q108 0 170 -71q61 -70 61 -192zM737 0h-338v17q59 1 81 14q34 16 34 67v552q0 71 -38 73q-10 -1 -32 -7.5t-55 -20.5v19l231 116v-732q0 -50 34 -67q24 -13 83 -14v-17zM376 -199l-15 -19
q-81 37 -169 152q-131 173 -131 394q0 156 84 291q79 129 218 211l13 -18q-208 -148 -208 -480q0 -183 36 -295q48 -148 172 -236zM1195 220q0 249 -166 249q-71 0 -122 -39q-1 -3 -7 -9q-17 -35 -17 -117q0 -128 47 -205q52 -83 140 -82q59 -1 94 58q31 53 31 145z" />
    <glyph glyph-name="uni2484" unicode="&#x2484;" 
d="M1625 286q0 -158 -82 -292q-79 -130 -219 -212l-11 19q206 146 206 480q0 182 -36 295q-48 149 -170 237l14 19q82 -39 168 -152q130 -173 130 -394zM1285 797l-263 -814l-76 -1l246 744h-254q-64 0 -95 -22q-25 -17 -64 -81l-21 11l73 181h454v-18zM737 0h-338v17
q59 1 81 14q34 16 34 67v555q0 73 -38 73q-22 0 -87 -31v19l231 118v-734q0 -50 34 -67q24 -13 83 -14v-17zM376 -199l-15 -19q-81 37 -169 152q-131 173 -131 394q0 157 84 292q80 131 218 212l13 -19q-208 -147 -208 -480q0 -184 36 -295q48 -149 172 -237z" />
    <glyph glyph-name="uni2485" unicode="&#x2485;" 
d="M1625 286q0 -158 -82 -292q-79 -130 -219 -212l-11 19q206 146 206 480q0 182 -36 295q-48 149 -170 237l14 19q82 -39 168 -152q130 -173 130 -394zM1285 190q0 -96 -76 -154q-70 -53 -170 -53q-98 0 -162 52q-73 57 -73 152q0 106 162 222q-26 26 -52 51t-52 51
q-46 56 -46 138q0 69 61 123q67 60 175 60q82 0 142 -42q68 -47 68 -126q0 -123 -167 -206q95 -77 128 -113q62 -74 62 -155zM737 0h-338v17q59 1 81 14q34 16 34 67v552q0 71 -38 73q-10 -1 -32 -7.5t-55 -20.5v19l231 118v-734q0 -50 34 -67q24 -13 83 -14v-17zM376 -199
l-15 -19q-81 37 -169 152q-131 173 -131 394q0 157 84 292q80 131 218 212l13 -19q-210 -147 -210 -480q0 -185 37 -295q48 -148 173 -237zM1174 660q0 62 -37 100q-38 37 -99 39q-57 -2 -94 -34q-39 -33 -39 -89q0 -99 154 -196q115 63 115 180zM1191 157q0 69 -67 133
q-24 22 -126 93q-2 -1 -5.5 -3.5t-8.5 -6.5q-85 -68 -85 -173q0 -80 39 -130q44 -54 121 -53q59 -1 97 38q35 38 35 102z" />
    <glyph glyph-name="uni2486" unicode="&#x2486;" 
d="M1625 286q0 -158 -82 -292q-79 -130 -219 -212l-11 19q206 146 206 480q0 182 -36 295q-48 149 -170 237l14 19q82 -39 168 -152q130 -173 130 -394zM1307 479q0 -142 -89 -276t-219 -189q-101 -42 -185 -42l-3 25q175 27 272 157q77 102 101 205q-96 -69 -183 -69
q-102 0 -163 70q-62 70 -62 190q0 97 57 180q73 102 208 102q131 0 204 -112q62 -98 62 -241zM737 0h-338v17q59 1 81 14q34 16 34 67v552q0 71 -38 73q-10 -1 -32 -7.5t-55 -20.5v19l231 118v-734q0 -50 34 -67q24 -13 83 -14v-17zM376 -199l-15 -19q-81 37 -169 152
q-131 173 -131 394q0 157 84 292q80 131 218 212l13 -19q-208 -147 -208 -480q0 -184 36 -295q48 -149 172 -237zM1190 510q0 287 -167 289q-135 -2 -135 -212q0 -241 160 -241q34 0 76 19q43 18 60 43q6 39 6 102z" />
    <glyph glyph-name="uni2487" unicode="&#x2487;" 
d="M1625 286q0 -158 -82 -292q-79 -130 -219 -212l-11 19q206 146 206 480q0 182 -36 295q-48 149 -170 237l14 19q82 -39 168 -152q130 -173 130 -394zM1396 404q0 -158 -60 -273q-76 -148 -223 -148q-127 0 -200 123q-70 119 -70 305q0 161 59 277q73 144 216 144
q132 0 209 -123q69 -117 69 -305zM820 169l-68 -169h-460v17l209 219q169 175 169 329q0 82 -47 129t-129 49q-118 -1 -176 -160l-24 6q42 243 264 243q90 0 155 -62q63 -63 63 -152q0 -146 -168 -317l-201 -212h245q69 0 92 12q21 12 59 74zM376 -199l-15 -19
q-81 37 -169 152q-131 173 -131 394q0 157 84 292q80 131 218 212l13 -19q-208 -147 -208 -480q0 -184 36 -295q48 -149 172 -237zM1279 401q0 397 -154 398q-164 -2 -164 -413q0 -370 161 -369q157 -1 157 384z" />
    <glyph glyph-name="uni2488" unicode="&#x2488;" 
d="M1018 0h-338v17q62 1 84 14q35 17 35 67v552q0 71 -38 73q-11 -1 -33.5 -7.5t-57.5 -20.5v19l235 118v-734q0 -51 33 -67q22 -13 80 -14v-17zM1240 52q0 -69 -70 -69q-30 0 -49 21q-21 19 -21 48q0 28 21 49q19 20 49 22q30 -2 49 -21q21 -21 21 -50z" />
    <glyph glyph-name="uni2489" unicode="&#x2489;" 
d="M1307 52q0 -69 -70 -69q-30 0 -49 21q-21 19 -21 48q0 28 21 49q19 20 49 22q30 -2 49 -21q21 -21 21 -50zM1117 169l-67 -169h-480l3 13l208 221q169 178 169 331q0 81 -48 129q-47 47 -129 49q-119 -2 -176 -160l-27 6q43 243 267 243q90 0 155 -63q64 -64 64 -153
q0 -146 -168 -320l-197 -207h261q69 0 91 13q23 13 58 73z" />
    <glyph glyph-name="uni248A" unicode="&#x248a;" 
d="M1251 52q0 -69 -70 -69q-30 0 -49 21q-20 20 -20 48q0 27 20 49q19 20 49 22q31 -2 50 -21q20 -20 20 -50zM1061 264q0 -134 -103 -210q-94 -71 -230 -71q-141 0 -141 70q0 42 44 42q27 0 83 -34q55 -33 92 -33q76 0 122 53q44 50 44 127q0 199 -252 201l-2 15
q209 64 209 204q0 59 -37 95q-38 36 -99 37q-113 -2 -186 -131l-18 6q63 197 241 197q194 0 194 -163q0 -97 -116 -174q155 -63 155 -231z" />
    <glyph glyph-name="uni248B" unicode="&#x248b;" 
d="M1112 207h-123v-207h-95v207h-347v78l384 547h58v-547h123v-78zM1257 52q0 -69 -70 -69q-29 0 -50 21q-20 20 -20 48q0 27 20 49q21 21 50 22q30 -2 49 -21q21 -21 21 -50zM894 285v416l-299 -417z" />
    <glyph glyph-name="uni248C" unicode="&#x248c;" 
d="M1257 52q0 -69 -70 -69q-29 0 -50 21q-20 20 -20 48q0 27 20 49q21 21 50 22q30 -2 49 -21q21 -21 21 -50zM1071 835l-58 -120h-258l-51 -104q172 -28 250 -86q102 -80 102 -246q0 -135 -97 -217q-94 -79 -234 -79q-155 0 -155 78q0 45 57 45q38 0 89 -39q49 -39 83 -39
q79 0 126 63q47 59 47 149q0 131 -115 203q-88 54 -231 65l-14 15l134 292h243q44 0 70 28z" />
    <glyph glyph-name="uni248D" unicode="&#x248d;" 
d="M1307 52q0 -69 -70 -69q-30 0 -49 21q-21 19 -21 48q0 28 21 49q19 20 49 22q30 -2 49 -21q21 -21 21 -50zM1106 262q0 -115 -68 -194q-70 -85 -185 -85q-119 0 -197 92q-81 96 -81 262q0 194 123 332q61 66 138 106t174 54q30 4 47.5 6t22.5 3l3 -23q-20 -3 -49 -11
t-69 -21q-214 -102 -247 -314q79 56 159 56q108 0 168 -71q61 -70 61 -192zM994 220q0 249 -163 249q-71 0 -120 -39q-4 -6 -7 -9q-17 -39 -17 -117q0 -128 47 -205q50 -83 137 -82q58 -1 92 58q31 52 31 145z" />
    <glyph glyph-name="uni248E" unicode="&#x248e;" 
d="M1092 797l-264 -814l-76 -1l246 744h-254q-65 0 -96 -22q-24 -18 -63 -81l-21 11l73 181h455v-18zM1095 52q0 -69 -70 -69q-29 0 -50 21q-20 20 -20 48q0 27 20 49q21 21 50 22q30 -2 49 -21q21 -21 21 -50z" />
    <glyph glyph-name="uni248F" unicode="&#x248f;" 
d="M1296 52q0 -69 -70 -69q-29 0 -50 21q-20 20 -20 48q0 27 20 49q21 21 50 22q30 -2 49 -21q21 -21 21 -50zM1078 190q0 -96 -76 -154q-71 -53 -170 -53q-98 0 -162 52q-72 57 -72 152q0 105 162 222q-28 26 -55 51t-54 51q-48 57 -48 138q0 68 61 123q69 60 176 60
q82 0 142 -42q68 -48 68 -126q0 -124 -162 -206q48 -38 79.5 -66.5t47.5 -46.5q63 -74 63 -155zM966 660q0 60 -38 100q-39 37 -101 39q-58 -2 -96 -34q-38 -33 -38 -89q0 -100 155 -196q118 63 118 180zM983 157q0 68 -68 133q-21 20 -125 93q-3 -1 -13 -10
q-84 -68 -84 -173q0 -184 157 -183q61 -1 97 38t36 102z" />
    <glyph glyph-name="uni2490" unicode="&#x2490;" 
d="M1100 479q0 -144 -89 -276q-90 -133 -221 -189q-101 -42 -184 -42l-3 25q174 27 271 157q77 105 101 205q-96 -69 -182 -69q-102 0 -162 70q-61 68 -61 190q0 99 57 180q73 102 207 102q131 0 204 -112q62 -96 62 -241zM1190 52q0 -69 -70 -69q-29 0 -50 21
q-20 20 -20 48q0 27 20 49q21 21 50 22q30 -2 49 -21q21 -21 21 -50zM977 510q0 288 -163 289q-133 -2 -133 -212q0 -241 158 -241q33 0 75 19q42 18 59 43q2 16 3 41.5t1 60.5z" />
    <glyph glyph-name="uni2491" unicode="&#x2491;" 
d="M1480 52q0 -69 -70 -69q-30 0 -49 21q-20 20 -20 48q0 27 20 49q19 20 49 22q31 -2 50 -21q20 -20 20 -50zM1324 404q0 -159 -62 -273q-76 -148 -224 -148q-128 0 -203 123q-70 119 -70 305q0 161 59 277q76 144 219 144q133 0 210 -123q71 -118 71 -305zM734 0h-339v17
q62 2 84 14q35 17 35 67v552q0 71 -39 73q-21 -2 -90 -28v19l235 118v-734q0 -51 33 -67q22 -13 81 -14v-17zM1206 401q0 397 -154 398q-164 -2 -164 -413q0 -371 160 -369q158 -1 158 384z" />
    <glyph glyph-name="uni2492" unicode="&#x2492;" 
d="M1227 0h-339v17q61 1 83 14q34 16 34 67v552q0 72 -38 73q-22 -2 -88 -28v19l233 118v-734q0 -51 33 -67q24 -13 82 -14v-17zM1458 52q0 -69 -70 -69q-29 0 -50 21q-20 20 -20 48q0 27 20 49q21 21 50 22q30 -2 49 -21q21 -21 21 -50zM795 0h-338v17q61 1 84 14
q34 16 34 67v552q0 71 -39 73q-22 -2 -89 -28v19l234 118v-734q0 -50 33 -67q23 -13 81 -14v-17z" />
    <glyph glyph-name="uni2493" unicode="&#x2493;" 
d="M1547 52q0 -69 -70 -69q-30 0 -49 21q-20 20 -20 48q0 27 20 49q19 20 49 22q31 -2 50 -21q20 -20 20 -50zM1354 169l-67 -169h-479l3 14l207 221q166 175 166 330q0 82 -47 129q-46 48 -127 49q-120 -2 -175 -160l-26 6q42 243 263 243q90 0 155 -63q63 -63 63 -153
q0 -146 -165 -320l-197 -207h262q67 0 90 12q22 13 58 74zM734 0h-339v17q62 2 84 14q35 17 35 67v552q0 71 -39 73q-21 -2 -90 -28v19l235 118v-734q0 -51 33 -67q22 -13 81 -14v-17z" />
    <glyph glyph-name="uni2494" unicode="&#x2494;" 
d="M1458 52q0 -69 -70 -69q-29 0 -50 21q-20 20 -20 48q0 27 20 49q21 21 50 22q30 -2 49 -21q21 -21 21 -50zM1268 264q0 -134 -103 -210q-94 -71 -229 -71q-143 0 -143 70q0 42 45 42q26 0 83 -34q54 -33 92 -33q76 0 122 53q44 50 44 127q0 199 -252 201l-2 15
q203 64 203 204q0 59 -36 95q-37 35 -97 37q-112 -2 -183 -131l-19 6q63 197 242 197q194 0 194 -163q0 -98 -117 -174q156 -63 156 -231zM734 0h-339v17q62 2 84 14q35 17 35 67v552q0 71 -39 73q-21 -2 -90 -28v19l235 118v-734q0 -51 33 -67q22 -13 81 -14v-17z" />
    <glyph glyph-name="uni2495" unicode="&#x2495;" 
d="M1318 207h-123v-207h-95v207h-346v78l383 547h58v-547h123v-78zM1441 52q0 -69 -70 -69q-30 0 -49 21q-21 19 -21 48q0 28 21 49q19 20 49 22q31 -2 49 -21q21 -21 21 -50zM734 0h-339v17q62 2 84 14q35 17 35 67v552q0 71 -39 73q-21 -2 -90 -28v19l235 118v-734
q0 -51 33 -67q22 -13 81 -14v-17zM1100 285v417l-299 -418z" />
    <glyph glyph-name="uni2496" unicode="&#x2496;" 
d="M1277 835l-58 -120h-258l-51 -104q172 -28 250 -86q102 -80 102 -246q0 -135 -96 -217q-91 -79 -231 -79q-153 0 -153 78q0 45 57 45q37 0 88 -39q24 -20 44.5 -29.5t36.5 -9.5q78 0 125 63q46 59 46 149q0 131 -115 203q-90 54 -232 65l-13 15l133 292h243q45 0 71 28z
M1441 52q0 -69 -70 -69q-30 0 -49 21q-21 19 -21 48q0 28 21 49q19 20 49 22q31 -2 49 -21q21 -21 21 -50zM734 0h-339v17q62 2 84 14q35 17 35 67v552q0 71 -39 73q-21 -2 -90 -28v19l235 116v-732q0 -51 33 -67q22 -13 81 -14v-17z" />
    <glyph glyph-name="uni2497" unicode="&#x2497;" 
d="M1486 52q0 -69 -70 -69q-29 0 -50 21q-20 20 -20 48q0 27 20 49q21 21 50 22q30 -2 49 -21q21 -21 21 -50zM1313 262q0 -115 -68 -194q-72 -85 -186 -85q-119 0 -196 92q-81 96 -81 262q0 195 123 332q121 133 311 160q30 4 48 6t23 3l2 -23q-19 -3 -48 -11t-70 -21
q-214 -102 -246 -314q77 56 158 56q107 0 169 -71q61 -72 61 -192zM734 0h-339v17q62 2 84 14q35 17 35 67v552q0 71 -39 73q-21 -2 -90 -28v19l235 116v-732q0 -51 33 -67q22 -13 81 -14v-17zM1201 220q0 249 -164 249q-69 0 -120 -39q-2 -5 -7 -9q-16 -36 -16 -117
q0 -129 46 -205q50 -83 138 -82q57 -1 92 58q31 53 31 145z" />
    <glyph glyph-name="uni2498" unicode="&#x2498;" 
d="M1290 797l-263 -814l-77 -1l247 744h-254q-63 0 -96 -22q-24 -18 -63 -81l-21 11l73 181h454v-18zM1307 52q0 -69 -70 -69q-30 0 -49 21q-21 19 -21 48q0 28 21 49q19 20 49 22q30 -2 49 -21q21 -21 21 -50zM734 0h-339v17q62 2 84 14q35 17 35 67v555q0 73 -39 73
q-21 0 -90 -31v19l235 118v-734q0 -51 33 -67q22 -13 81 -14v-17z" />
    <glyph glyph-name="uni2499" unicode="&#x2499;" 
d="M1497 52q0 -69 -70 -69q-30 0 -49 21q-21 19 -21 48q0 28 21 49q19 20 49 22q30 -2 49 -21q21 -21 21 -50zM1285 190q0 -96 -76 -154q-70 -53 -170 -53q-98 0 -162 52q-73 57 -73 152q0 106 162 222l-108 102q-48 57 -48 138q0 68 61 123q69 60 176 60q81 0 141 -42
q69 -48 69 -126q0 -124 -162 -206q95 -77 128 -113q62 -74 62 -155zM734 0h-339v17q62 2 84 14q35 17 35 67v552q0 71 -39 73q-21 -2 -90 -28v19l235 118v-734q0 -51 33 -67q22 -13 81 -14v-17zM1173 660q0 60 -38 100q-39 38 -101 39q-56 -2 -96 -34q-39 -34 -39 -89
q0 -99 157 -196q117 63 117 180zM1190 157q0 68 -67 133q-23 21 -125 93q-3 -1 -14 -10q-85 -68 -85 -173q0 -82 39 -130q42 -54 120 -53q60 -1 96 38t36 102z" />
    <glyph glyph-name="uni249A" unicode="&#x249a;" 
d="M1307 479q0 -143 -90 -276q-88 -133 -220 -189q-102 -42 -186 -42l-3 25q176 27 274 157q78 104 102 205q-96 -69 -183 -69q-102 0 -163 70q-62 70 -62 190q0 97 57 180q73 102 208 102q131 0 204 -112q62 -98 62 -241zM1380 52q0 -69 -70 -69q-29 0 -50 21
q-20 20 -20 48q0 27 20 49q21 21 50 22q30 -2 49 -21q21 -21 21 -50zM734 0h-339v17q62 2 84 14q35 17 35 67v552q0 71 -39 73q-21 -2 -90 -28v19l235 118v-734q0 -51 33 -67q22 -13 81 -14v-17zM1190 510q0 287 -167 289q-135 -2 -135 -212q0 -241 160 -241q34 0 76 19
q43 18 60 43q6 39 6 102z" />
    <glyph glyph-name="uni249B" unicode="&#x249b;" 
d="M1419 404q0 -156 -61 -273q-75 -148 -222 -148q-128 0 -201 123q-69 117 -69 305q0 162 58 277q75 144 217 144q133 0 208 -123q70 -116 70 -305zM1570 52q0 -69 -70 -69q-31 0 -50 21q-20 20 -20 48q0 27 20 49q19 20 50 22q30 -2 49 -21q21 -21 21 -50zM805 169
l-68 -169h-480v17l209 219q171 175 171 329q0 81 -48 129q-46 47 -129 49q-119 -2 -176 -160l-25 6q42 243 264 243q91 0 156 -62q64 -63 64 -152q0 -145 -169 -317l-202 -212h266q68 0 91 12q21 11 59 74zM1301 401q0 397 -154 398q-164 -2 -164 -413q0 -371 161 -369
q157 -1 157 384z" />
    <glyph glyph-name="uni249C" unicode="&#x249c;" 
d="M1625 286q0 -158 -82 -292q-79 -130 -219 -212l-11 19q206 146 206 480q0 182 -36 295q-48 149 -170 237l14 19q82 -39 168 -152q130 -173 130 -394zM1095 51q-57 -68 -100 -68q-88 0 -89 101q-102 -101 -180 -101q-53 0 -91 38q-37 37 -37 92q0 96 110 162q7 4 53 24.5
t133 57.5q0 86 -8 116q-17 63 -79 63q-81 0 -81 -59q0 -7 3 -22q3 -17 3 -26q0 -22 -17 -37q-16 -17 -39 -17q-61 0 -56 47q13 142 206 142q98 0 136 -48q38 -49 38 -164v-263q0 -39 29 -39q25 0 66 35v-34zM376 -199l-15 -19q-81 37 -169 152q-131 173 -131 394
q0 157 84 292q80 131 218 212l13 -19q-208 -147 -208 -480q0 -184 36 -295q48 -149 172 -237zM894 112v213q-61 -27 -91.5 -40t-31.5 -14q-67 -42 -67 -113q0 -104 84 -102q21 -2 59 18q38 16 47 38z" />
    <glyph glyph-name="uni249D" unicode="&#x249d;" 
d="M1625 285q0 -158 -82 -292q-79 -130 -219 -211l-11 19q206 146 206 480q0 181 -36 294q-48 147 -170 237l14 18q82 -37 168 -152q130 -172 130 -393zM1117 296q0 -126 -79 -217q-83 -96 -205 -96q-121 0 -192 56q-15 12 -15 40v608q0 56 -14 67q-8 6 -65 6v23
q20 5 46.5 11.5t61.5 17.5l77 26v-374q52 100 174 100q99 0 158 -87q53 -75 53 -181zM376 -199l-15 -19q-81 37 -169 152q-131 173 -131 394q0 156 84 291q79 129 218 211l13 -18q-208 -148 -208 -480q0 -183 36 -295q48 -148 172 -236zM1011 242q0 95 -32 159
q-41 85 -125 85q-122 0 -122 -108v-279q0 -30 10 -40q6 -6 37 -21q31 -16 74 -16q158 0 158 220z" />
    <glyph glyph-name="uni249E" unicode="&#x249e;" 
d="M1625 286q0 -158 -82 -292q-79 -130 -219 -212l-11 19q206 146 206 480q0 182 -36 295q-48 149 -170 237l14 19q82 -39 168 -152q130 -173 130 -394zM1081 183q-92 -200 -247 -200q-99 0 -165 81t-66 197q0 127 68 212q77 91 207 91q63 0 118 -29q65 -37 65 -94
q0 -23 -17 -37q-17 -15 -39 -15q-21 0 -38 17q-17 16 -17 38q0 85 -95 87q-75 -1 -118 -70q-39 -62 -39 -147q0 -94 48 -163q55 -80 144 -78q93 -1 173 121zM376 -199l-15 -19q-81 37 -169 152q-131 173 -131 394q0 157 84 292q80 131 218 212l13 -19q-208 -147 -208 -480
q0 -184 36 -295q48 -149 172 -237z" />
    <glyph glyph-name="uni249F" unicode="&#x249f;" 
d="M1625 285q0 -158 -82 -292q-79 -130 -219 -211l-11 19q206 146 206 480q0 181 -36 294q-48 147 -170 237l14 18q82 -37 168 -152q130 -172 130 -393zM1129 53q-49 -14 -95 -31.5t-90 -38.5v91q-54 -91 -157 -91q-108 0 -171 85q-57 75 -57 188q0 118 70 209q75 99 189 99
q85 0 126 -50v174q0 57 -12 68q-6 3 -66 5v23q19 4 45.5 11t60.5 17l78 26v-729q0 -29 25 -35q5 -1 18.5 -1.5t35.5 0.5v-20zM376 -199l-15 -19q-81 37 -169 152q-131 173 -131 394q0 156 84 291q79 129 218 211l13 -18q-208 -148 -208 -480q0 -183 36 -295
q48 -148 172 -236zM944 141v226q0 158 -128 158q-72 0 -114 -72q-37 -65 -37 -159q0 -119 47 -184q47 -66 124 -65q48 -1 80 32q28 28 28 64z" />
    <glyph glyph-name="uni24A0" unicode="&#x24a0;" 
d="M1625 286q0 -158 -82 -292q-79 -130 -219 -212l-11 19q206 146 206 480q0 182 -36 295q-48 149 -170 237l14 19q82 -39 168 -152q130 -173 130 -394zM1088 195q-30 -91 -97 -149q-72 -63 -160 -63q-103 0 -170 84q-63 79 -63 194q0 132 69 218q70 85 182 85q98 0 155 -63
q58 -62 61 -160h-384q2 -106 49 -182q55 -92 151 -92q114 0 188 135zM376 -199l-15 -19q-81 37 -169 152q-131 173 -131 394q0 157 84 292q80 131 218 212l13 -19q-208 -147 -208 -480q0 -184 36 -295q48 -149 172 -237zM940 380q-7 139 -118 139q-116 0 -135 -139h253z" />
    <glyph glyph-name="uni24A1" unicode="&#x24a1;" 
d="M1625 285q0 -158 -82 -292q-79 -130 -219 -211l-11 19q206 146 206 480q0 181 -36 294q-48 147 -170 237l14 18q82 -37 168 -152q130 -172 130 -393zM1066 767q0 -55 -48 -55q-38 0 -62 46t-57 46q-72 0 -72 -122v-129h145v-39h-145v-416q0 -49 32 -67q23 -13 81 -14v-17
h-320v17q50 1 73 16q28 19 28 65v416h-101v39h101q0 34 2.5 63t7.5 53q15 73 69 121q57 47 131 48q104 -2 135 -71zM376 -199l-15 -19q-81 37 -169 152q-131 173 -131 394q0 156 84 291q79 129 218 211l13 -18q-208 -148 -208 -480q0 -183 36 -295q48 -148 172 -236z" />
    <glyph glyph-name="uni24A2" unicode="&#x24a2;" 
d="M1625 286q0 -158 -82 -292q-79 -130 -219 -212l-11 19q206 146 206 480q0 182 -36 295q-48 149 -170 237l14 19q82 -39 168 -152q130 -173 130 -394zM1112 737h-98q25 -49 25 -107q0 -87 -58 -138q-57 -51 -141 -51q5 0 -12 3t-55 8q-21 -5 -48 -36q-29 -33 -23 -53
q13 -23 110 -28q88 -4 139.5 -8t68.5 -9q86 -24 86 -117t-118 -151q-97 -50 -204 -50q-98 0 -161 45q-53 38 -53 81q0 30 37 66q22 19 43.5 37t42.5 37q-62 26 -62 64q0 58 106 134q-117 51 -117 164q0 88 64 145q60 52 151 54q23 -1 48.5 -6.5t54.5 -16.5q57 -22 112 -22
q14 0 29.5 1t32.5 5v-51zM376 -199l-15 -19q-81 37 -169 152q-131 173 -131 394q0 157 84 292q80 131 218 212l13 -19q-208 -147 -208 -480q0 -184 36 -295q48 -149 172 -237zM944 597q0 64 -31 123q-36 73 -94 73q-98 0 -98 -118q0 -74 26 -129q35 -73 103 -71
q94 -1 94 122zM1072 181q0 62 -166 65q-128 2 -187 16q-60 -68 -60 -108q0 -87 175 -87q109 0 174 30q64 31 64 84z" />
    <glyph glyph-name="uni24A3" unicode="&#x24a3;" 
d="M1625 285q0 -158 -82 -292q-79 -130 -219 -211l-11 19q206 146 206 480q0 181 -36 294q-48 147 -170 237l14 18q82 -37 168 -152q130 -172 130 -393zM1138 0h-259v17q76 6 76 81v256q0 69 -13 98q-20 45 -78 45q-65 0 -132 -73v-326q0 -75 75 -81v-17h-260v17q79 6 79 81
v590q0 52 -12 64q-12 10 -67 9v23q20 4 46 11t61 17l78 26v-374q76 100 175 100q88 0 123 -53q31 -47 31 -155v-258q0 -75 77 -81v-17zM376 -199l-15 -19q-81 37 -169 152q-131 173 -131 394q0 156 84 291q79 129 218 211l13 -18q-208 -148 -208 -480q0 -183 36 -295
q48 -148 172 -236z" />
    <glyph glyph-name="uni24A4" unicode="&#x24a4;" 
d="M1625 285q0 -158 -82 -292q-79 -130 -219 -211l-11 19q206 146 206 480q0 181 -36 294q-48 147 -170 237l14 18q82 -37 168 -152q130 -172 130 -393zM899 776q0 -61 -64 -61t-64 61q0 25 19 43q19 17 45 19q28 -2 45 -19q19 -18 19 -43zM989 0h-292v17q96 6 96 81v297
q0 95 -44 95q-18 0 -52 -9v16l202 66v-465q0 -75 90 -81v-17zM376 -199l-15 -19q-81 37 -169 152q-131 173 -131 394q0 156 84 291q79 129 218 211l13 -18q-208 -148 -208 -480q0 -183 36 -295q48 -148 172 -236z" />
    <glyph glyph-name="uni24A5" unicode="&#x24a5;" 
d="M1005 899q0 -62 -61 -61q-61 -1 -61 61q0 61 61 62q61 -1 61 -62zM1625 285q0 -158 -82 -292q-79 -130 -219 -211l-11 19q206 146 206 480q0 181 -36 294q-48 147 -170 237l14 18q82 -37 168 -152q130 -172 130 -393zM1000 136q0 -281 -210 -281q-110 0 -110 72
q0 50 50 50q23 0 35 -19q51 -64 84 -64q45 0 45 111v537q0 64 -45 64q-7 0 -18 -1t-27 -3v17l196 67v-550zM376 -199l-15 -19q-81 37 -169 152q-131 173 -131 394q0 156 84 291q79 129 218 211l13 -18q-208 -148 -208 -480q0 -183 36 -295q48 -148 172 -236z" />
    <glyph glyph-name="uni24A6" unicode="&#x24a6;" 
d="M1625 285q0 -158 -82 -292q-79 -130 -219 -211l-11 19q206 146 206 480q0 181 -36 294q-48 147 -170 237l14 18q82 -37 168 -152q130 -172 130 -393zM1151 0h-268v17q44 -1 44 24q0 12 -8 21l-187 243v-207q0 -46 23 -63q21 -17 71 -18v-17h-288v17q88 5 88 81v615
q0 37 -11 43q-9 7 -68 5v23q20 4 46 11t61 17l78 26v-515l156 138q43 37 43 51q0 22 -61 23v18h250v-18q-41 -1 -79.5 -14.5t-76.5 -42.5q-36 -33 -72.5 -65.5t-72.5 -65.5l180 -225q76 -100 152 -105v-17zM376 -199l-15 -19q-81 37 -169 152q-131 173 -131 394
q0 156 84 291q79 129 218 211l13 -18q-208 -148 -208 -480q0 -183 36 -295q48 -148 172 -236z" />
    <glyph glyph-name="uni24A7" unicode="&#x24a7;" 
d="M1625 285q0 -158 -82 -292q-79 -130 -219 -211l-11 19q206 146 206 480q0 181 -36 294q-48 147 -170 237l14 18q82 -37 168 -152q130 -172 130 -393zM990 0h-294v17q97 4 97 81v590q0 62 -14 72q-10 5 -83 7v17q108 19 203 54v-740q0 -76 91 -81v-17zM376 -199l-15 -19
q-81 37 -169 152q-131 173 -131 394q0 156 84 291q79 129 218 211l13 -18q-208 -148 -208 -480q0 -183 36 -295q48 -148 172 -236z" />
    <glyph glyph-name="uni24A8" unicode="&#x24a8;" 
d="M1625 286q0 -158 -82 -292q-79 -130 -219 -212l-11 19q206 146 206 480q0 182 -36 295q-48 149 -170 237l14 19q82 -39 168 -152q130 -173 130 -394zM1306 0h-261v18q78 6 78 81v248q0 79 -12 105q-18 45 -83 45q-84 0 -129 -75v-323q0 -75 74 -81v-18h-259v18
q79 6 79 81v254q0 144 -86 144q-94 0 -143 -72v-326q0 -75 77 -81v-18h-261v18q78 6 78 81v298q0 61 -25 74q-8 4 -21 6.5t-32 2.5v21l184 63v-82q0 -9 4 -11q-8 0 39 33q79 60 148 60q100 0 126 -105q91 105 192 105q98 0 133 -76q23 -51 23 -158v-231q0 -75 77 -81v-18z
M376 -199l-15 -19q-81 37 -169 152q-131 173 -131 394q0 157 84 292q80 131 218 212l13 -19q-208 -147 -208 -480q0 -184 36 -295q48 -149 172 -237z" />
    <glyph glyph-name="uni24A9" unicode="&#x24a9;" 
d="M1625 286q0 -158 -82 -292q-79 -130 -219 -212l-11 19q206 146 206 480q0 182 -36 295q-48 149 -170 237l14 19q82 -39 168 -152q130 -173 130 -394zM1138 0h-259v18q76 6 76 81v263q0 67 -14 94q-20 41 -77 41q-64 0 -132 -71v-327q0 -75 75 -81v-18h-260v18q79 6 79 81
v302q0 74 -21 85q-11 5 -58 3v18l185 57v-99q88 99 187 99q142 0 142 -199v-266q0 -75 77 -81v-18zM376 -199l-15 -19q-81 37 -169 152q-131 173 -131 394q0 157 84 292q80 131 218 212l13 -19q-208 -147 -208 -480q0 -184 36 -295q48 -149 172 -237z" />
    <glyph glyph-name="uni24AA" unicode="&#x24aa;" 
d="M1625 286q0 -158 -82 -292q-79 -130 -219 -212l-11 19q206 146 206 480q0 182 -36 295q-48 149 -170 237l14 19q82 -39 168 -152q130 -173 130 -394zM1117 291q0 -128 -73 -214q-78 -94 -202 -94q-116 0 -193 86q-74 82 -74 198q0 127 69 210q73 87 198 87q121 0 199 -76
q76 -76 76 -197zM376 -199l-15 -19q-81 37 -169 152q-131 173 -131 394q0 157 84 292q80 131 218 212l13 -19q-208 -147 -208 -480q0 -184 36 -295q48 -149 172 -237zM1005 235q0 108 -36 189q-48 106 -143 107q-66 -1 -104 -57q-34 -55 -35 -138q-1 -137 44 -223
q46 -91 132 -91q69 0 108 66q34 58 34 147z" />
    <glyph glyph-name="uni24AB" unicode="&#x24ab;" 
d="M1625 286q0 -158 -82 -292q-79 -130 -219 -212l-11 19q206 146 206 480q0 182 -36 295q-48 149 -170 237l14 19q82 -39 168 -152q130 -173 130 -394zM1134 434q0 -129 -73 -217q-76 -96 -192 -94q-67 -1 -115 53v-211q0 -47 27 -65q20 -13 71 -16v-17h-296v17q92 6 92 81
v570q0 54 -7 67q-12 21 -51 21q-8 0 -16 -0.5t-18 -1.5v18l198 59v-76q0 -14 3 -14q-9 0 29 35q58 55 148 55q97 0 151 -78q49 -71 49 -186zM376 -199l-15 -19q-81 37 -169 152q-131 173 -131 394q0 157 84 292q80 131 218 212l13 -19q-208 -147 -208 -480q0 -184 36 -295
q48 -149 172 -237zM1028 386q0 245 -154 245q-55 0 -96 -40q-24 -24 -24 -57v-274q0 -41 46 -72q39 -26 79 -26q65 0 107 64q42 63 42 160z" />
    <glyph glyph-name="uni24AC" unicode="&#x24ac;" 
d="M1625 286q0 -158 -82 -292q-79 -130 -219 -212l-11 19q206 146 206 480q0 182 -36 295q-48 149 -170 237l14 19q82 -39 168 -152q130 -173 130 -394zM1135 -134h-296v17q53 3 72 16q27 18 27 65v243q-98 -86 -178 -84q-110 -2 -163 90q-44 71 -44 184q0 122 76 210
q79 91 200 91q78 0 137 -41l58 38q4 3 10 3q11 0 11 -24v-710q0 -75 90 -81v-17zM376 -199l-15 -19q-81 37 -169 152q-131 173 -131 394q0 157 84 292q80 131 218 212l13 -19q-208 -147 -208 -480q0 -184 36 -295q48 -149 172 -237zM938 306v226q0 28 -1 46.5t-5 28.5
q-11 30 -51 51q-26 12 -58 12q-83 0 -128 -79q-36 -65 -36 -155q0 -107 40 -171q40 -70 111 -70q63 0 108 39q20 16 20 72z" />
    <glyph glyph-name="uni24AD" unicode="&#x24ad;" 
d="M1625 286q0 -158 -82 -292q-79 -130 -219 -212l-11 19q206 146 206 480q0 182 -36 295q-48 149 -170 237l14 19q82 -39 168 -152q130 -173 130 -394zM1047 500q0 -54 -52 -53q-21 -1 -45 19q-23 20 -36 20q-19 0 -48 -35q-28 -37 -28 -61v-291q0 -46 23 -63q9 -8 26 -12
t41 -6v-18h-288v18q92 5 92 81v266q0 121 -49 121q-8 0 -18.5 -2t-24.5 -5v19l198 66v-111q64 111 138 111q71 0 71 -64zM376 -199l-15 -19q-81 37 -169 152q-131 173 -131 394q0 157 84 292q80 131 218 212l13 -19q-208 -147 -208 -480q0 -184 36 -295q48 -149 172 -237z
" />
    <glyph glyph-name="uni24AE" unicode="&#x24ae;" 
d="M1625 286q0 -158 -82 -292q-79 -130 -219 -212l-11 19q206 146 206 480q0 182 -36 295q-48 149 -170 237l14 19q82 -39 168 -152q130 -173 130 -394zM1028 150q0 -78 -53 -123q-55 -44 -132 -44q-27 0 -75 17q-24 8 -40.5 12t-27.5 5q-21 -2 -24 -17h-17v190h21
q30 -174 163 -173q42 -1 71 23q30 25 30 65q0 52 -74 98q-68 40 -138 81q-73 56 -73 129q0 68 51 112q49 39 120 39q24 0 66 -17t50 -16q18 -1 21 21h16v-167h-19q-39 151 -135 151q-35 0 -64 -23q-28 -23 -28 -58q0 -59 146 -142q145 -81 145 -163zM376 -199l-15 -19
q-81 37 -169 152q-131 173 -131 394q0 157 84 292q80 131 218 212l13 -19q-208 -147 -208 -480q0 -184 36 -295q48 -149 172 -237z" />
    <glyph glyph-name="uni24AF" unicode="&#x24af;" 
d="M1625 286q0 -158 -82 -292q-79 -130 -219 -212l-11 19q206 146 206 480q0 182 -36 295q-48 149 -170 237l14 19q82 -39 168 -152q130 -173 130 -394zM1022 83q-75 -100 -158 -100q-67 0 -88 58q-11 33 -11 115v358h-36q-34 -1 -34 9q0 -1 2 9q43 26 174 182v-161h122v-39
h-122v-339q0 -132 53 -130q16 -1 37 9q22 9 45 44zM376 -199l-15 -19q-81 37 -169 152q-131 173 -131 394q0 157 84 292q80 131 218 212l13 -19q-208 -147 -208 -480q0 -184 36 -295q48 -149 172 -237z" />
    <glyph glyph-name="uni24B0" unicode="&#x24b0;" 
d="M1625 286q0 -158 -82 -292q-79 -130 -219 -212l-11 19q206 146 206 480q0 182 -36 295q-48 149 -170 237l14 19q82 -39 168 -152q130 -173 130 -394zM1132 40q-62 -20 -171 -57v111l-27 -29q-73 -82 -158 -82q-145 0 -145 174v283q0 63 -19 78q-14 12 -57 12v17h182v-382
q0 -111 91 -109q44 -1 95 40q21 17 26 37q0 2 0.5 13.5t0.5 34.5v256q0 61 -16 76q-14 15 -72 17v17h194v-405q0 -51 11 -67q15 -20 65 -18v-17zM376 -199l-15 -19q-81 37 -169 152q-131 173 -131 394q0 157 84 292q80 131 218 212l13 -19q-208 -147 -208 -480
q0 -184 36 -295q48 -149 172 -237z" />
    <glyph glyph-name="uni24B1" unicode="&#x24b1;" 
d="M1625 286q0 -158 -82 -292q-79 -130 -219 -212l-11 19q206 146 206 480q0 182 -36 295q-48 149 -170 237l14 19q82 -39 168 -152q130 -173 130 -394zM1125 534q-30 -1 -51 -35q-3 -8 -33 -78l-164 -406q-12 -32 -22 -32q-6 0 -23 32l-191 451q-30 68 -79 68v17h241v-17
q-55 0 -55 -33q0 -18 14 -62l120 -295l94 253q29 74 29 103q0 34 -51 34v17h171v-17zM376 -199l-15 -19q-81 37 -169 152q-131 173 -131 394q0 157 84 292q80 131 218 212l13 -19q-208 -147 -208 -480q0 -184 36 -295q48 -149 172 -237z" />
    <glyph glyph-name="uni24B2" unicode="&#x24b2;" 
d="M1625 286q0 -158 -82 -292q-79 -130 -219 -212l-11 19q206 146 206 480q0 182 -36 295q-48 149 -170 237l14 19q82 -39 168 -152q130 -173 130 -394zM1257 534q-29 -11 -56 -79l-186 -458q-3 -14 -9 -14t-9 15l-133 331l-160 -333q-4 -13 -11 -13q-5 0 -10 14l-171 424
q-34 82 -36 86q-15 27 -46 27v17h221v-17q-59 2 -59 -42q0 -10 71 -191l61 -154l110 236l-20 63q-28 88 -88 88v17h249v-17q-72 0 -72 -37q0 -23 21 -75l104 -273l101 249q27 72 27 100q0 36 -51 36v17h152v-17zM376 -199l-15 -19q-81 37 -169 152q-131 173 -131 394
q0 157 84 292q80 131 218 212l13 -19q-208 -147 -208 -480q0 -184 36 -295q48 -149 172 -237z" />
    <glyph glyph-name="uni24B3" unicode="&#x24b3;" 
d="M1625 286q0 -158 -82 -292q-79 -130 -219 -212l-11 19q206 146 206 480q0 182 -36 295q-48 149 -170 237l14 19q82 -39 168 -152q130 -173 130 -394zM1128 0h-248v18q65 3 65 28q0 3 -6 14l-129 183l-90 -139q-33 -51 -33 -68q0 -20 51 -18v-18h-178v18q45 -1 98 76
l132 190l-106 162q-10 15 -19 30t-19 30q-26 26 -76 29v18h254v-18q-53 -2 -53 -33q0 -13 27 -56l48 -74l43 60q38 50 38 73q0 27 -49 30v18h194v-18q-58 -1 -105 -71l-96 -133l148 -227q56 -88 109 -86v-18zM376 -199l-15 -19q-81 37 -169 152q-131 173 -131 394
q0 157 84 292q80 131 218 212l13 -19q-208 -147 -208 -480q0 -184 36 -295q48 -149 172 -237z" />
    <glyph glyph-name="uni24B4" unicode="&#x24b4;" 
d="M1625 286q0 -158 -82 -292q-79 -130 -219 -212l-11 19q206 146 206 480q0 182 -36 295q-48 149 -170 237l14 19q82 -39 168 -152q130 -173 130 -394zM1122 665q-36 0 -65 -71l-180 -471q-45 -118 -74 -164q-60 -93 -140 -93q-90 0 -90 71q0 52 64 52q12 0 42 -11
q28 -12 42 -12q44 0 99 139q7 17 10.5 28.5t3.5 19.5q0 3 -2 9l-208 449q-23 46 -69 54v18h253v-18q-72 0 -72 -35q0 -20 12 -47l144 -311l119 342q4 11 4 17q0 29 -60 34v18h167v-18zM376 -199l-15 -19q-81 37 -169 152q-131 173 -131 394q0 157 84 292q80 131 218 212
l13 -19q-208 -147 -208 -480q0 -184 36 -295q48 -149 172 -237z" />
    <glyph glyph-name="uni24B5" unicode="&#x24b5;" 
d="M1625 286q0 -158 -82 -292q-79 -130 -219 -212l-11 19q206 146 206 480q0 182 -36 295q-48 149 -170 237l14 19q82 -39 168 -152q130 -173 130 -394zM1084 167l-16 -167h-467v18l333 496h-156q-74 -2 -97 -29q-16 -19 -22 -77h-22l4 145h428v-17l-333 -497h155
q70 0 108 13q31 10 45 51q5 17 9 34t9 34zM376 -199l-15 -19q-81 37 -169 152q-131 173 -131 394q0 157 84 292q80 131 218 212l13 -19q-208 -147 -208 -480q0 -184 36 -295q48 -149 172 -237z" />
    <glyph glyph-name="uni24B6" unicode="&#x24b6;" 
d="M1687 408q0 -349 -248 -597q-247 -247 -596 -247q-348 0 -595 247q-248 248 -248 597q0 347 248 595q246 248 595 248q350 0 596 -248q248 -248 248 -595zM1581 408q0 303 -216 521q-218 216 -521 216t-521 -216q-217 -217 -217 -521q0 -305 217 -521q216 -217 521 -217
t521 217q216 216 216 521zM1268 0h-313v22q90 3 90 42q0 20 -36 97l-47 107h-321q-10 -25 -19.5 -49t-19.5 -48q-27 -68 -27 -96q0 -53 90 -53v-22h-246v22q51 3 88 66q11 16 27.5 53t40.5 97l250 594h25l300 -688q29 -64 41 -82q31 -43 77 -40v-22zM946 318l-141 337
l-141 -337h282z" />
    <glyph glyph-name="uni24B7" unicode="&#x24b7;" 
d="M1687 408q0 -349 -248 -597q-247 -247 -596 -247q-348 0 -595 247q-248 248 -248 597q0 347 248 595q246 248 595 248q350 0 596 -248q248 -248 248 -595zM1581 408q0 303 -216 521q-218 216 -521 216t-521 -216q-217 -217 -217 -521q0 -305 217 -521q216 -217 521 -217
t521 217q216 216 216 521zM1195 224q0 -109 -86 -167q-87 -57 -234 -57h-387v22q121 0 121 75v619q0 75 -121 75v24h330q338 0 338 -208q0 -140 -164 -178q203 -42 203 -205zM1028 603q0 162 -229 162q-67 0 -67 -38v-275h100q196 0 196 151zM1056 227q0 175 -262 175h-62
v-293q0 -44 29 -56q21 -9 72 -8q223 -1 223 182z" />
    <glyph glyph-name="uni24B8" unicode="&#x24b8;" 
d="M1687 408q0 -349 -248 -597q-247 -247 -596 -247q-348 0 -595 247q-248 248 -248 597q0 347 248 595q246 248 595 248q350 0 596 -248q248 -248 248 -595zM1581 408q0 303 -216 521q-218 216 -521 216t-521 -216q-217 -217 -217 -521q0 -305 217 -521q216 -217 521 -217
t521 217q216 216 216 521zM1214 136q-125 -153 -321 -153q-185 0 -302 111q-122 116 -122 313q0 183 119 305q117 120 303 120q65 0 137 -24q72 -23 84 -23q30 0 50 47h26l11 -273h-29q-59 223 -266 223q-146 0 -221 -110q-69 -101 -69 -276q0 -143 70 -243
q81 -114 221 -114q163 0 288 122z" />
    <glyph glyph-name="uni24B9" unicode="&#x24b9;" 
d="M1687 408q0 -349 -248 -597q-247 -247 -596 -247q-348 0 -595 247q-248 248 -248 597q0 347 248 595q246 248 595 248q350 0 596 -248q248 -248 248 -595zM1581 408q0 303 -216 521q-218 216 -521 216t-521 -216q-217 -217 -217 -521q0 -305 217 -521q216 -217 521 -217
t521 217q216 216 216 521zM1251 405q0 -192 -124 -297q-128 -108 -370 -108h-327v22q106 0 106 75v619q0 75 -106 75v24h317q241 0 369 -101q135 -105 135 -309zM1117 404q0 177 -107 274q-99 91 -276 93q-46 -2 -57 -10q-12 -11 -12 -53v-598q0 -59 57 -60q189 -8 291 86
q104 94 104 268z" />
    <glyph glyph-name="uni24BA" unicode="&#x24ba;" 
d="M1687 408q0 -349 -248 -597q-247 -247 -596 -247q-348 0 -595 247q-248 248 -248 597q0 347 248 595q246 248 595 248q350 0 596 -248q248 -248 248 -595zM1581 408q0 303 -216 521q-218 216 -521 216t-521 -216q-217 -217 -217 -521q0 -305 217 -521q216 -217 521 -217
t521 217q216 216 216 521zM1202 207l-56 -207h-666v23q112 0 112 75v618q0 75 -112 75v24h654v-178h-27q-26 128 -140 128h-198q-54 0 -54 -48v-265h173q151 0 151 118h28v-289h-28q0 120 -151 120h-173v-303q0 -48 32 -48h163q96 0 141 21q72 32 116 136h35z" />
    <glyph glyph-name="uni24BB" unicode="&#x24bb;" 
d="M1687 408q0 -349 -248 -597q-247 -247 -596 -247q-348 0 -595 247q-248 248 -248 597q0 347 248 595q246 248 595 248q350 0 596 -248q248 -248 248 -595zM1581 408q0 303 -216 521q-218 216 -521 216t-521 -216q-217 -217 -217 -521q0 -305 217 -521q216 -217 521 -217
t521 217q216 216 216 521zM1173 637h-30q-12 93 -62 116q-26 12 -115 12h-164q-54 0 -54 -48v-265h162q151 0 151 118h28v-291h-28q0 123 -151 123h-162v-305q0 -75 112 -75v-22h-341v22q107 0 107 75v619q0 75 -107 75v24h654v-178z" />
    <glyph glyph-name="uni24BC" unicode="&#x24bc;" 
d="M1687 408q0 -349 -248 -597q-247 -247 -596 -247q-348 0 -595 247q-248 248 -248 597q0 347 248 595q246 248 595 248q350 0 596 -248q248 -248 248 -595zM1581 408q0 303 -216 521q-218 216 -521 216t-521 -216q-217 -217 -217 -521q0 -305 217 -521q216 -217 521 -217
t521 217q216 216 216 521zM1257 419q-54 -2 -71 -29q-13 -22 -13 -82v-237q-151 -88 -310 -88q-175 0 -298 102q-140 116 -140 320q0 184 119 306q121 121 303 121q56 0 131 -20q73 -19 93 -19q39 0 53 39h26l11 -262h-28q-78 212 -275 212q-146 0 -224 -113
q-70 -105 -70 -275q0 -151 79 -251q87 -110 236 -110q84 0 140 28q37 17 37 61v186q0 60 -17 82q-23 29 -95 29v22h313v-22z" />
    <glyph glyph-name="uni24BD" unicode="&#x24bd;" 
d="M1687 408q0 -349 -248 -597q-247 -247 -596 -247q-348 0 -595 247q-248 248 -248 597q0 347 248 595q246 248 595 248q350 0 596 -248q248 -248 248 -595zM1581 408q0 303 -216 521q-218 216 -521 216t-521 -216q-217 -217 -217 -521q0 -305 217 -521q216 -217 521 -217
t521 217q216 216 216 521zM1262 0h-340v22q106 0 106 75v294h-374v-294q0 -75 106 -75v-22h-341v22q112 0 112 76v620q0 75 -112 75v22h341v-22q-106 0 -106 -76v-276h374v276q0 76 -106 76v22h340v-22q-106 0 -106 -75v-620q0 -76 106 -76v-22z" />
    <glyph glyph-name="uni24BE" unicode="&#x24be;" 
d="M1687 408q0 -349 -248 -597q-247 -247 -596 -247q-348 0 -595 247q-248 248 -248 597q0 347 248 595q246 248 595 248q350 0 596 -248q248 -248 248 -595zM1581 408q0 303 -216 521q-218 216 -521 216t-521 -216q-217 -217 -217 -521q0 -305 217 -521q216 -217 521 -217
t521 217q216 216 216 521zM1028 0h-369v22q123 0 123 76v620q0 75 -123 75v22h369v-22q-123 0 -123 -75v-620q0 -76 123 -76v-22z" />
    <glyph glyph-name="uni24BF" unicode="&#x24bf;" 
d="M1687 408q0 -349 -248 -597q-247 -247 -596 -247q-348 0 -595 247q-248 248 -248 597q0 347 248 595q246 248 595 248q350 0 596 -248q248 -248 248 -595zM1581 408q0 303 -216 521q-218 216 -521 216t-521 -216q-217 -217 -217 -521q0 -305 217 -521q216 -217 521 -217
t521 217q216 216 216 521zM1072 793q-122 0 -122 -75v-473q0 -127 -61 -197q-54 -65 -144 -65q-111 0 -122 71l-3 20q0 22 16 41q17 19 41 19q20 0 38 -13q17 -12 17 -24v-7v-8q0 -54 41 -54q54 0 54 110v580q0 75 -123 75v22h368v-22z" />
    <glyph glyph-name="uni24C0" unicode="&#x24c0;" 
d="M1687 408q0 -349 -248 -597q-247 -247 -596 -247q-348 0 -595 247q-248 248 -248 597q0 347 248 595q246 248 595 248q350 0 596 -248q248 -248 248 -595zM1581 408q0 303 -216 521q-218 216 -521 216t-521 -216q-217 -217 -217 -521q0 -305 217 -521q216 -217 521 -217
t521 217q216 216 216 521zM1268 0h-374v22q84 0 84 31q0 46 -173 219l-119 117l-32 -25v-267q0 -75 111 -75v-22h-346v22q112 0 112 76v620q0 75 -112 75v22h346v-22q-111 0 -111 -76v-290q45 40 88 79.5t87 78.5q139 129 139 166q0 29 -30 38q-3 0 -17 1t-38 3v22h323v-22
q-91 -1 -198 -107l-223 -222l278 -297q42 -46 65.5 -70.5t28.5 -28.5q53 -46 111 -46v-22z" />
    <glyph glyph-name="uni24C1" unicode="&#x24c1;" 
d="M1687 408q0 -349 -248 -597q-247 -247 -596 -247q-348 0 -595 247q-248 248 -248 597q0 347 248 595q246 248 595 248q350 0 596 -248q248 -248 248 -595zM1581 408q0 303 -216 521q-218 216 -521 216t-521 -216q-217 -217 -217 -521q0 -305 217 -521q216 -217 521 -217
t521 217q216 216 216 521zM1203 212l-59 -212h-658v22q106 0 106 76v620q0 75 -106 75v22h335v-22q-106 0 -106 -75v-620q0 -48 123 -48q150 0 201 19q86 30 133 143h31z" />
    <glyph glyph-name="uni24C2" unicode="&#x24c2;" 
d="M1687 408q0 -349 -248 -597q-247 -247 -596 -247q-348 0 -595 247q-248 248 -248 597q0 347 248 595q246 248 595 248q350 0 596 -248q248 -248 248 -595zM1581 408q0 303 -216 521q-218 216 -521 216t-521 -216q-217 -217 -217 -521q0 -305 217 -521q216 -217 521 -217
t521 217q216 216 216 521zM1363 0h-335v22q106 0 106 75v603l-316 -700h-18l-308 672v-575q0 -75 117 -75v-22h-291v22q118 0 118 76v620q0 75 -115 75v22h239l285 -618l274 618h244v-22q-106 0 -106 -75v-620q0 -76 106 -76v-22z" />
    <glyph glyph-name="uni24C3" unicode="&#x24c3;" 
d="M1687 408q0 -349 -248 -597q-247 -247 -596 -247q-348 0 -595 247q-248 248 -248 597q0 347 248 595q246 248 595 248q350 0 596 -248q248 -248 248 -595zM1581 408q0 303 -216 521q-218 216 -521 216t-521 -216q-217 -217 -217 -521q0 -305 217 -521q216 -217 521 -217
t521 217q216 216 216 521zM1274 793q-123 0 -123 -75v-735l-21 -2l-543 684v-567q0 -76 122 -76v-22h-296v22q118 0 118 76v628l-8 10q-28 36 -46 46q-19 9 -64 11v22h211l471 -592v495q0 75 -118 75v22h297v-22z" />
    <glyph glyph-name="uni24C4" unicode="&#x24c4;" 
d="M1687 408q0 -349 -248 -597q-247 -247 -596 -247q-348 0 -595 247q-248 248 -248 597q0 347 248 595q246 248 595 248q350 0 596 -248q248 -248 248 -595zM1581 408q0 303 -216 521q-218 216 -521 216t-521 -216q-217 -217 -217 -521q0 -305 217 -521q216 -217 521 -217
t521 217q216 216 216 521zM1246 408q0 -182 -109 -302q-113 -123 -293 -123q-168 0 -282 115q-121 121 -121 310q0 185 113 304q112 120 290 120q173 0 286 -113q116 -119 116 -311zM1106 408q0 166 -64 267q-70 111 -199 113q-127 -2 -194 -101q-68 -101 -68 -279
q0 -182 68 -282q68 -98 194 -98q112 0 188 106q75 106 75 274z" />
    <glyph glyph-name="uni24C5" unicode="&#x24c5;" 
d="M1687 408q0 -349 -248 -597q-247 -247 -596 -247q-348 0 -595 247q-248 248 -248 597q0 347 248 595q246 248 595 248q350 0 596 -248q248 -248 248 -595zM1581 408q0 303 -216 521q-218 216 -521 216t-521 -216q-217 -217 -217 -521q0 -305 217 -521q216 -217 521 -217
t521 217q216 216 216 521zM1167 601q0 -127 -97 -190q-83 -54 -215 -54q-27 0 -53.5 1t-53.5 3v-264q0 -75 107 -75v-22h-336v22q107 0 107 75v619q0 75 -105 75v24h309q148 0 239 -53q98 -58 98 -161zM1033 593q0 177 -231 178q-38 -2 -45 -10q-9 -9 -9 -47v-306
q80 -1 61 0q224 -1 224 185z" />
    <glyph glyph-name="uni24C6" unicode="&#x24c6;" 
d="M1687 408q0 -349 -248 -597q-247 -247 -596 -247q-348 0 -595 247q-248 248 -248 597q0 347 248 595q246 248 595 248q350 0 596 -248q248 -248 248 -595zM1581 407q0 304 -216 522q-218 216 -521 216t-521 -216q-217 -217 -217 -521q0 -305 217 -521q216 -217 520 -217
q210 0 393 114q-313 3 -449 137q-11 14 -28 32t-39 41q-12 8 -42 19q-116 29 -185 150q-63 109 -63 246q0 184 108 301q111 122 296 122q180 0 293 -123q107 -119 107 -301q0 -173 -100 -294q-94 -116 -220 -121q144 -186 339 -189v-10q151 100 237 260q91 163 91 353z
M1095 408q0 179 -71 280q-71 100 -191 100q-263 -3 -263 -380q0 -182 71 -281q70 -99 192 -99q125 0 195 106q67 102 67 274z" />
    <glyph glyph-name="uni24C7" unicode="&#x24c7;" 
d="M1687 408q0 -349 -248 -597q-247 -247 -596 -247q-348 0 -595 247q-248 248 -248 597q0 347 248 595q246 248 595 248q350 0 596 -248q248 -248 248 -595zM1581 408q0 303 -216 521q-218 216 -521 216t-521 -216q-217 -217 -217 -521q0 -305 217 -521q216 -217 521 -217
t521 217q216 216 216 521zM1237 0h-198l-294 380l-69 -3v-280q0 -75 106 -75v-22h-335v22q106 0 106 75v619q0 75 -106 75v24h326q327 0 327 -216q0 -176 -223 -207l244 -301q53 -65 116 -69v-22zM966 600q0 169 -198 171q-63 -2 -70 -4q-22 -10 -22 -55v-288q144 4 212 40
q78 42 78 136z" />
    <glyph glyph-name="uni24C8" unicode="&#x24c8;" 
d="M1687 408q0 -349 -248 -597q-247 -247 -596 -247q-348 0 -595 247q-248 248 -248 597q0 347 248 595q246 248 595 248q350 0 596 -248q248 -248 248 -595zM1581 408q0 303 -216 521q-218 216 -521 216t-521 -216q-217 -217 -217 -521q0 -305 217 -521q216 -217 521 -217
t521 217q216 216 216 521zM1117 209q0 -91 -67 -155q-73 -71 -192 -71q-50 0 -114 19q-66 20 -79 20q-30 0 -36 -39h-26l-37 264h27q73 -219 256 -219q63 0 104 40q41 38 41 98q0 80 -86 147q-16 10 -38 24q-19 12 -47.5 29.5t-66.5 40.5q-153 93 -153 219q0 91 63 148
q62 58 155 58q50 0 110 -21q61 -21 70 -20q28 -2 40 41h27l27 -263h-32q-21 91 -79 149q-62 64 -145 64q-130 0 -130 -118q0 -75 130 -154q84 -51 134 -84t67 -49q77 -68 77 -168z" />
    <glyph glyph-name="uni24C9" unicode="&#x24c9;" 
d="M1687 408q0 -349 -248 -597q-247 -247 -596 -247q-348 0 -595 247q-248 248 -248 597q0 347 248 595q246 248 595 248q350 0 596 -248q248 -248 248 -595zM1581 408q0 303 -216 521q-218 216 -521 216t-521 -216q-217 -217 -217 -521q0 -305 217 -521q216 -217 521 -217
t521 217q216 216 216 521zM1195 609h-30q-18 107 -64 138q-27 18 -108 18h-88v-667q0 -76 112 -76v-22h-347v22q106 0 106 76v667h-88q-80 0 -108 -18q-46 -31 -64 -138h-30l8 206h693z" />
    <glyph glyph-name="uni24CA" unicode="&#x24ca;" 
d="M1687 408q0 -349 -248 -597q-247 -247 -596 -247q-348 0 -595 247q-248 248 -248 597q0 347 248 595q246 248 595 248q350 0 596 -248q248 -248 248 -595zM1581 408q0 303 -216 521q-218 216 -521 216t-521 -216q-217 -217 -217 -521q0 -305 217 -521q216 -217 521 -217
t521 217q216 216 216 521zM1268 793q-117 0 -117 -75v-389q0 -125 -24 -183q-31 -84 -128 -131q-69 -32 -158 -32q-166 0 -241 79t-75 250v406q0 75 -106 75v22h341v-22q-112 0 -112 -75v-414q0 -144 49 -205q48 -60 165 -60q152 0 203 101q30 58 30 190v388q0 75 -118 75
v22h291v-22z" />
    <glyph glyph-name="uni24CB" unicode="&#x24cb;" 
d="M1687 408q0 -349 -248 -597q-247 -247 -596 -247q-348 0 -595 247q-248 248 -248 597q0 347 248 595q246 248 595 248q350 0 596 -248q248 -248 248 -595zM1581 408q0 303 -216 521q-218 216 -521 216t-521 -216q-217 -217 -217 -521q0 -305 217 -521q216 -217 521 -217
t521 217q216 216 216 521zM1262 793q-68 -2 -104 -91q-55 -131 -126 -310t-159 -409h-16l-298 665q-63 145 -134 145v22h323v-22q-89 0 -89 -46q0 -18 56 -147l178 -398l173 435q34 74 34 102q0 54 -89 54v22h251v-22z" />
    <glyph glyph-name="uni24CC" unicode="&#x24cc;" 
d="M1687 408q0 -349 -248 -597q-247 -247 -596 -247q-348 0 -595 247q-248 248 -248 597q0 347 248 595q246 248 595 248q350 0 596 -248q248 -248 248 -595zM1581 408q0 303 -216 521q-218 216 -521 216t-521 -216q-217 -217 -217 -521q0 -305 217 -521q216 -217 521 -217
t521 217q216 216 216 521zM1413 793q-72 -6 -102 -91l-252 -719l-14 1l-197 520l-191 -522l-16 1l-190 535q-29 82 -52.5 139t-43.5 89q-23 39 -81 47v22h301v-22q-44 -3 -53 -6q-25 -9 -25 -44q0 -9 18 -60l171 -451l131 347q-10 27 -25 66t-38 91q-26 57 -100 57v22h329
v-22q-97 0 -97 -38q0 -18 12 -52l182 -473l148 403q23 61 23 103q0 35 -26 47q-6 2 -20.5 5t-37.5 5v22h246v-22z" />
    <glyph glyph-name="uni24CD" unicode="&#x24cd;" 
d="M1687 408q0 -349 -248 -597q-247 -247 -596 -247q-348 0 -595 247q-248 248 -248 597q0 347 248 595q246 248 595 248q350 0 596 -248q248 -248 248 -595zM1581 408q0 303 -216 521q-218 216 -521 216t-521 -216q-217 -217 -217 -521q0 -305 217 -521q216 -217 521 -217
t521 217q216 216 216 521zM1268 0h-363v22q94 0 94 37q0 28 -59 114l-114 178l-139 -172q-78 -86 -78 -108q0 -49 89 -49v-22h-285v22q50 0 97 46q14 13 38 39t56 68l185 227l-126 184q-82 120 -122 159q-48 45 -111 48v22h369v-22q-90 0 -90 -38q0 -43 113 -198l43 -60
l129 159q62 76 62 97q0 40 -90 40v22h291v-22q-87 0 -191 -128l-171 -212l229 -326q72 -104 144 -105v-22z" />
    <glyph glyph-name="uni24CE" unicode="&#x24ce;" 
d="M1687 408q0 -349 -248 -597q-247 -247 -596 -247q-348 0 -595 247q-248 248 -248 597q0 347 248 595q246 248 595 248q350 0 596 -248q248 -248 248 -595zM1581 408q0 303 -216 521q-218 216 -521 216t-521 -216q-217 -217 -217 -521q0 -305 217 -521q216 -217 521 -217
t521 217q216 216 216 521zM1262 793q-88 -12 -180 -155l-172 -265v-276q0 -75 123 -75v-22h-368v22q123 0 123 75v264l-156 224q-47 69 -72 106.5t-30 43.5q-49 56 -105 58v22h346v-22q-91 0 -91 -35q0 -12 8 -29.5t22 -40.5l175 -261l166 266q27 37 27 57q0 31 -30 40
q-8 2 -54 3v22h268v-22z" />
    <glyph glyph-name="uni24CF" unicode="&#x24cf;" 
d="M1687 408q0 -349 -248 -597q-247 -247 -596 -247q-348 0 -595 247q-248 248 -248 597q0 347 248 595q246 248 595 248q350 0 596 -248q248 -248 248 -595zM1581 408q0 303 -216 521q-218 216 -521 216t-521 -216q-217 -217 -217 -521q0 -305 217 -521q216 -217 521 -217
t521 217q216 216 216 521zM1205 218l-29 -218h-697v15l541 756h-257q-106 -2 -150 -28q-56 -38 -72 -140h-32l24 212h650l-3 -13l-535 -757h304q103 -1 153 35q48 35 75 138h28z" />
    <glyph glyph-name="uni24D0" unicode="&#x24d0;" 
d="M1687 408q0 -349 -248 -597q-247 -247 -596 -247q-348 0 -595 247q-248 248 -248 597q0 347 248 595q246 248 595 248q350 0 596 -248q248 -248 248 -595zM1581 408q0 303 -216 521q-218 216 -521 216t-521 -216q-217 -217 -217 -521q0 -305 217 -521q216 -217 521 -217
t521 217q216 216 216 521zM1089 183q-56 -66 -100 -66q-86 0 -89 95q-104 -95 -179 -95q-54 0 -92 38q-37 37 -37 91q0 95 112 160q8 4 55 24t135 57q0 86 -8 115q-18 62 -82 63q-83 -1 -83 -59q0 -3 0.5 -8.5t1.5 -12.5q3 -17 3 -25q0 -22 -17 -38q-16 -16 -38 -16
q-62 0 -57 47q15 139 209 140q101 -2 139 -48q38 -49 38 -163v-260q0 -38 27 -38q24 0 62 32v-33zM894 245v211l-127 -53q-69 -42 -69 -112q0 -101 87 -101q11 0 26 4t35 14q39 17 48 37z" />
    <glyph glyph-name="uni24D1" unicode="&#x24d1;" 
d="M1687 408q0 -349 -248 -597q-247 -247 -596 -247q-348 0 -595 247q-248 248 -248 597q0 347 248 595q246 248 595 248q350 0 596 -248q248 -248 248 -595zM1581 408q0 303 -216 521q-218 216 -521 216t-521 -216q-217 -217 -217 -521q0 -305 217 -521q216 -217 521 -217
t521 217q216 216 216 521zM1089 296q0 -126 -79 -217q-83 -96 -205 -96q-121 0 -192 56q-15 12 -15 40v609q0 56 -14 67q-8 6 -65 6v23q20 5 46.5 11.5t61.5 16.5l77 26v-374q52 100 174 100q99 0 158 -87q53 -75 53 -181zM983 242q0 95 -32 159q-41 85 -125 85
q-122 0 -122 -108v-279q0 -30 10 -40q6 -6 37 -21q31 -16 74 -16q158 0 158 220z" />
    <glyph glyph-name="uni24D2" unicode="&#x24d2;" 
d="M1687 408q0 -349 -248 -597q-247 -247 -596 -247q-348 0 -595 247q-248 248 -248 597q0 347 248 595q246 248 595 248q350 0 596 -248q248 -248 248 -595zM1581 408q0 303 -216 521q-218 216 -521 216t-521 -216q-217 -217 -217 -521q0 -305 217 -521q216 -217 521 -217
t521 217q216 216 216 521zM1080 314q-93 -197 -247 -197q-100 0 -164 80q-66 79 -66 195q0 127 68 210q76 90 207 91q63 -1 118 -29q65 -35 65 -93q0 -22 -17 -36q-17 -15 -39 -15q-19 0 -38 17q-17 16 -17 37q0 85 -95 85q-75 0 -118 -69q-39 -60 -39 -144q0 -93 48 -162
q54 -78 144 -77q92 -1 172 118z" />
    <glyph glyph-name="uni24D3" unicode="&#x24d3;" 
d="M1687 408q0 -349 -248 -597q-247 -247 -596 -247q-348 0 -595 247q-248 248 -248 597q0 347 248 595q246 248 595 248q350 0 596 -248q248 -248 248 -595zM1581 408q0 303 -216 521q-218 216 -521 216t-521 -216q-217 -217 -217 -521q0 -305 217 -521q216 -217 521 -217
t521 217q216 216 216 521zM1128 53q-51 -14 -98 -32t-92 -38v90q-53 -90 -154 -90q-106 0 -169 85q-56 74 -56 188q0 117 69 209q73 99 186 99q83 0 124 -50v177q0 61 -11 69q-8 5 -67 5v22q39 8 107 27l78 24v-729q0 -30 26 -36q10 -2 57 0v-20zM938 141v226
q0 158 -125 158q-70 0 -112 -72q-36 -66 -36 -159q0 -119 46 -184q47 -66 121 -65q49 -2 79 32q27 28 27 64z" />
    <glyph glyph-name="uni24D4" unicode="&#x24d4;" 
d="M1687 408q0 -349 -248 -597q-247 -247 -596 -247q-348 0 -595 247q-248 248 -248 597q0 347 248 595q246 248 595 248q350 0 596 -248q248 -248 248 -595zM1581 408q0 303 -216 521q-218 216 -521 216t-521 -216q-217 -217 -217 -521q0 -305 217 -521q216 -217 521 -217
t521 217q216 216 216 521zM1087 326q-30 -90 -97 -146q-72 -63 -160 -63q-104 0 -169 83q-63 79 -63 192q0 131 68 216q70 84 182 85q98 -2 155 -63q58 -62 61 -161h-383q2 -103 48 -178q55 -90 151 -90q114 0 188 132zM939 508q-8 140 -118 140q-115 0 -135 -140h253z" />
    <glyph glyph-name="uni24D5" unicode="&#x24d5;" 
d="M1687 408q0 -349 -248 -597q-247 -247 -596 -247q-348 0 -595 247q-248 248 -248 597q0 347 248 595q246 248 595 248q350 0 596 -248q248 -248 248 -595zM1581 408q0 303 -216 521q-218 216 -521 216t-521 -216q-217 -217 -217 -521q0 -305 217 -521q216 -217 521 -217
t521 217q216 216 216 521zM1065 768q0 -53 -48 -53q-37 0 -62 44q-24 45 -57 45q-71 0 -71 -122v-129h145v-39h-145v-416q0 -49 32 -67q24 -13 80 -14v-17h-319v17q50 1 73 16q28 19 28 65v416h-101v39h101q0 70 10 116q13 73 69 121q56 47 130 48q102 -2 135 -70z" />
    <glyph glyph-name="uni24D6" unicode="&#x24d6;" 
d="M1687 408q0 -349 -248 -597q-247 -247 -596 -247q-348 0 -595 247q-248 248 -248 597q0 347 248 595q246 248 595 248q350 0 596 -248q248 -248 248 -595zM1581 408q0 303 -216 521q-218 216 -521 216t-521 -216q-217 -217 -217 -521q0 -305 217 -521q216 -217 521 -217
t521 217q216 216 216 521zM1112 737h-99q20 -47 20 -107q0 -87 -57 -138q-56 -51 -139 -51q4 0 -12.5 3t-54.5 8q-20 -4 -47 -34q-29 -32 -22 -50q14 -24 109 -27q171 -7 206 -17q84 -26 84 -119q0 -96 -116 -154q-49 -26 -99.5 -38.5t-102.5 -12.5q-97 0 -160 45
q-52 38 -52 81q0 30 37 66q21 19 42.5 37t42.5 37q-66 25 -66 64q0 58 110 134q-116 51 -116 164q0 88 64 145q60 52 151 54q23 -1 48.5 -6.5t54.5 -16.5q57 -22 112 -22q14 0 29.5 1t32.5 5v-51zM938 597q0 32 -7 62.5t-23 61.5q-35 72 -92 72q-95 0 -95 -118
q0 -76 25 -129q35 -73 101 -71q91 -1 91 122zM1067 182q0 62 -165 65q-122 1 -184 15q-59 -68 -59 -108q0 -87 172 -87q109 0 172 31q64 30 64 84z" />
    <glyph glyph-name="uni24D7" unicode="&#x24d7;" 
d="M1687 408q0 -349 -248 -597q-247 -247 -596 -247q-348 0 -595 247q-248 248 -248 597q0 347 248 595q246 248 595 248q350 0 596 -248q248 -248 248 -595zM1581 408q0 303 -216 521q-218 216 -521 216t-521 -216q-217 -217 -217 -521q0 -305 217 -521q216 -217 521 -217
t521 217q216 216 216 521zM1137 0h-259v17q77 6 77 81v256q0 69 -13 98q-20 45 -78 45q-65 0 -132 -73v-326q0 -75 74 -81v-17h-259v17q79 6 79 81v590q0 53 -12 64q-11 10 -67 10v22l46 11.5t61 17.5l78 25v-374q76 100 175 100q88 0 123 -53q31 -47 31 -156v-257
q0 -75 76 -81v-17z" />
    <glyph glyph-name="uni24D8" unicode="&#x24d8;" 
d="M1687 408q0 -349 -248 -597q-247 -247 -596 -247q-348 0 -595 247q-248 248 -248 597q0 347 248 595q246 248 595 248q350 0 596 -248q248 -248 248 -595zM1581 408q0 303 -216 521q-218 216 -521 216t-521 -216q-217 -217 -217 -521q0 -305 217 -521q216 -217 521 -217
t521 217q216 216 216 521zM894 776q0 -61 -65 -61q-64 0 -64 61q0 25 20 43q19 17 44 19q27 -2 46 -19q19 -19 19 -43zM988 0h-293v17q93 4 93 81v297q0 95 -43 95q-16 0 -50 -9v16l199 66v-465q0 -77 94 -81v-17z" />
    <glyph glyph-name="uni24D9" unicode="&#x24d9;" 
d="M1687 408q0 -349 -248 -597q-247 -247 -596 -247q-348 0 -595 247q-248 248 -248 597q0 347 248 595q246 248 595 248q350 0 596 -248q248 -248 248 -595zM1581 408q0 303 -216 521q-218 216 -521 216t-521 -216q-217 -217 -217 -521q0 -305 217 -521q216 -217 521 -217
t521 217q216 216 216 521zM1005 899q0 -62 -61 -61q-61 -1 -61 61q0 61 61 62q61 -1 61 -62zM1000 136q0 -281 -211 -281q-110 0 -110 72q0 51 50 51q22 0 36 -19q49 -65 84 -65q45 0 45 112v538q0 63 -45 65q-7 -1 -18.5 -2.5t-27.5 -4.5v17l197 67v-550z" />
    <glyph glyph-name="uni24DA" unicode="&#x24da;" 
d="M1687 408q0 -349 -248 -597q-247 -247 -596 -247q-348 0 -595 247q-248 248 -248 597q0 347 248 595q246 248 595 248q350 0 596 -248q248 -248 248 -595zM1581 408q0 303 -216 521q-218 216 -521 216t-521 -216q-217 -217 -217 -521q0 -305 217 -521q216 -217 521 -217
t521 217q216 216 216 521zM1150 0h-268v17q44 -2 44 24q0 10 -8 21l-181 243v-207q0 -46 22 -63q20 -17 66 -18v-17h-289v17q95 4 95 81v616q0 36 -10 43q-9 7 -68 5v22q19 5 45.5 11.5t60.5 17.5l78 25v-515l151 138q42 37 42 51q0 21 -61 23v18h250v-18q-82 -2 -154 -56
q-36 -32 -72 -64.5t-71 -64.5l176 -228q77 -101 152 -105v-17z" />
    <glyph glyph-name="uni24DB" unicode="&#x24db;" 
d="M1687 408q0 -349 -248 -597q-247 -247 -596 -247q-348 0 -595 247q-248 248 -248 597q0 347 248 595q246 248 595 248q350 0 596 -248q248 -248 248 -595zM1581 408q0 303 -216 521q-218 216 -521 216t-521 -216q-217 -217 -217 -521q0 -305 217 -521q216 -217 521 -217
t521 217q216 216 216 521zM989 0h-295v17q94 4 94 81v590q0 62 -14 73q-10 6 -80 7v16q54 11 103.5 24t96.5 30v-740q0 -77 95 -81v-17z" />
    <glyph glyph-name="uni24DC" unicode="&#x24dc;" 
d="M1687 408q0 -349 -248 -597q-247 -247 -596 -247q-348 0 -595 247q-248 248 -248 597q0 347 248 595q246 248 595 248q350 0 596 -248q248 -248 248 -595zM1581 408q0 303 -216 521q-218 216 -521 216t-521 -216q-217 -217 -217 -521q0 -305 217 -521q216 -217 521 -217
t521 217q216 216 216 521zM1304 128h-260v23q79 6 79 80v246q0 78 -13 104q-18 43 -84 45q-87 -2 -132 -75v-320q0 -74 78 -80v-23h-259v23q75 6 75 80v252q0 141 -84 143q-92 -2 -140 -72v-323q0 -74 76 -80v-23h-260v23q78 6 78 80v295q0 61 -25 74q-8 5 -21 6.5t-32 2.5
v21l184 63v-80q0 -11 4 -11q-8 0 39 33q79 56 148 58q101 -2 126 -103q91 101 192 103q99 -1 133 -76q23 -51 23 -157v-229q0 -74 75 -80v-23z" />
    <glyph glyph-name="uni24DD" unicode="&#x24dd;" 
d="M1687 408q0 -349 -248 -597q-247 -247 -596 -247q-348 0 -595 247q-248 248 -248 597q0 347 248 595q246 248 595 248q350 0 596 -248q248 -248 248 -595zM1581 408q0 303 -216 521q-218 216 -521 216t-521 -216q-217 -217 -217 -521q0 -305 217 -521q216 -217 521 -217
t521 217q216 216 216 521zM1137 128h-259v23q77 6 77 80v261q0 66 -14 93q-19 39 -77 41q-65 -2 -132 -71v-324q0 -74 74 -80v-23h-261v23q81 6 81 80v299q0 74 -21 85q-12 6 -60 3v18l187 57v-97q88 95 187 97q142 -1 142 -197v-265q0 -74 76 -80v-23z" />
    <glyph glyph-name="uni24DE" unicode="&#x24de;" 
d="M1687 408q0 -349 -248 -597q-247 -247 -596 -247q-348 0 -595 247q-248 248 -248 597q0 347 248 595q246 248 595 248q350 0 596 -248q248 -248 248 -595zM1581 408q0 303 -216 521q-218 216 -521 216t-521 -216q-217 -217 -217 -521q0 -305 217 -521q216 -217 521 -217
t521 217q216 216 216 521zM1112 422q0 -124 -74 -212q-78 -93 -202 -93q-116 0 -192 85q-74 82 -74 196q0 127 69 208q72 85 197 87q123 -2 199 -76q77 -75 77 -195zM1000 367q0 109 -37 187q-47 105 -143 105q-67 0 -103 -56q-35 -53 -36 -136q0 -139 44 -221
q48 -90 133 -90q69 0 107 65q35 59 35 146z" />
    <glyph glyph-name="uni24DF" unicode="&#x24df;" 
d="M1687 408q0 -349 -248 -597q-247 -247 -596 -247q-348 0 -595 247q-248 248 -248 597q0 347 248 595q246 248 595 248q350 0 596 -248q248 -248 248 -595zM1581 408q0 303 -216 521q-218 216 -521 216t-521 -216q-217 -217 -217 -521q0 -305 217 -521q216 -217 521 -217
t521 217q216 216 216 521zM1128 562q0 -128 -73 -217q-75 -94 -192 -94q-66 0 -115 56v-210q0 -46 28 -65q21 -14 75 -15v-17h-297v17q88 4 88 80v569q0 53 -7 67q-11 21 -48 21h-33v16l194 57v-75q0 -13 3 -13q-8 0 29 34q57 52 148 54q97 -2 151 -79q49 -70 49 -186z
M1022 514q0 245 -154 246q-54 -2 -96 -41q-11 -12 -17.5 -25.5t-6.5 -30.5v-274q0 -43 47 -73q40 -26 78 -26q66 0 108 64q41 63 41 160z" />
    <glyph glyph-name="uni24E0" unicode="&#x24e0;" 
d="M1687 408q0 -349 -248 -597q-247 -247 -596 -247q-348 0 -595 247q-248 248 -248 597q0 347 248 595q246 248 595 248q350 0 596 -248q248 -248 248 -595zM1581 408q0 303 -216 521q-218 216 -521 216t-521 -216q-217 -217 -217 -521q0 -305 217 -521q216 -217 521 -217
t521 217q216 216 216 521zM1134 0h-296v17q53 2 72 15q28 18 28 65v241q-98 -87 -178 -87q-111 0 -163 90q-44 73 -44 184q0 123 76 211q78 89 200 91q80 -2 137 -38l58 34q2 2 5 2.5t5 1.5q11 -2 11 -24v-706q0 -75 89 -80v-17zM938 435v225q0 29 -1 47.5t-5 27.5
q-11 32 -51 51q-24 11 -58 13q-83 -2 -128 -79q-36 -65 -36 -155q0 -107 40 -172q40 -69 111 -69q64 0 108 38q20 16 20 73z" />
    <glyph glyph-name="uni24E1" unicode="&#x24e1;" 
d="M1687 408q0 -349 -248 -597q-247 -247 -596 -247q-348 0 -595 247q-248 248 -248 597q0 347 248 595q246 248 595 248q350 0 596 -248q248 -248 248 -595zM1581 408q0 303 -216 521q-218 216 -521 216t-521 -216q-217 -217 -217 -521q0 -305 217 -521q216 -217 521 -217
t521 217q216 216 216 521zM1046 628q0 -53 -52 -53q-23 0 -45 19q-22 20 -36 20q-18 0 -47 -35q-28 -34 -28 -60v-288q0 -46 22 -62q20 -17 67 -18v-23h-288v23q93 4 93 80v264q0 119 -50 119q-16 0 -43 -3v18l199 64v-109q64 107 137 109q71 -1 71 -65z" />
    <glyph glyph-name="uni24E2" unicode="&#x24e2;" 
d="M1687 408q0 -349 -248 -597q-247 -247 -596 -247q-348 0 -595 247q-248 248 -248 597q0 347 248 595q246 248 595 248q350 0 596 -248q248 -248 248 -595zM1581 408q0 303 -216 521q-218 216 -521 216t-521 -216q-217 -217 -217 -521q0 -305 217 -521q216 -217 521 -217
t521 217q216 216 216 521zM1028 282q0 -77 -53 -121q-55 -44 -132 -44q-14 0 -33 3t-42 11q-24 7 -40.5 10.5t-27.5 3.5q-21 0 -24 -16h-17v189h21q30 -170 163 -170q42 0 71 24q30 22 30 64q0 53 -74 97q-34 20 -68.5 40t-69.5 41q-73 56 -73 128q0 67 51 111q49 38 120 40
q25 -2 66 -15q43 -14 50 -13q18 -1 21 18h16v-167h-19q-39 148 -135 149q-37 -2 -64 -23q-28 -23 -28 -58q0 -59 146 -140q145 -81 145 -162z" />
    </font>
</defs>
</svg>
