<?xml version="1.0" standalone="no"?>
<!DOCTYPE svg PUBLIC "-//W3C//DTD SVG 1.1//EN" "http://www.w3.org/Graphics/SVG/1.1/DTD/svg11.dtd" >
<svg xmlns="http://www.w3.org/2000/svg">
<metadata></metadata>
<defs>
<font id="zapregular" horiz-adv-x="2048" >
<font-face units-per-em="2048" ascent="1638" descent="-410" />
<missing-glyph horiz-adv-x="1024" />
<glyph horiz-adv-x="0" />
<glyph horiz-adv-x="0" />
<glyph unicode="&#xa;" horiz-adv-x="0" />
<glyph unicode="&#xd;" horiz-adv-x="0" />
<glyph unicode=" "  horiz-adv-x="1024" />
<glyph unicode="&#x09;" horiz-adv-x="1024" />
<glyph unicode="&#xa0;" horiz-adv-x="1024" />
<glyph unicode="!" horiz-adv-x="1126" d="M512 67q0 71 36 137.5t118 66.5q56 0 84 -35.5t28 -87.5q0 -71 -51 -125t-118 -54q-97 0 -97 98zM722 512q154 440 299.5 793.5t284.5 619.5q82 159 245 159q41 0 100 -10.5t90 -20.5q20 -10 15 -25.5t-20 -15.5q-67 0 -118 -41q-113 -92 -225.5 -250.5t-220 -356 t-210 -417.5t-199.5 -445q-10 -21 -25.5 -15.5t-15.5 25.5z" />
<glyph unicode="&#x22;" horiz-adv-x="1674" d="M855 1183q128 184 230 345.5t189 312.5t174.5 289t184.5 276q41 46 82 46q30 0 61 -17.5t31 -53.5q0 -21 -15 -36q-103 -154 -208 -292t-215 -281.5t-227.5 -297t-240.5 -332.5q-11 -21 -41.5 -13t-4.5 54zM1243.5 1113.5q-25.5 12.5 0.5 38.5q102 169 189 317.5 t174 294.5t184.5 294.5t215.5 312.5q15 25 38 33t49 8q25 0 56 -15.5t31 -41.5q0 -20 -16 -36q-199 -302 -424.5 -578.5t-450.5 -614.5q-21 -25 -46.5 -12.5z" />
<glyph unicode="#" horiz-adv-x="1684" d="M394 82q0 26 15 46l164 266t185 292q-103 -15 -141.5 -23t-58.5 -8q-21 0 -21 16q31 15 67 53.5t46 63.5q20 62 56 67q31 5 82 10t87 11q82 133 166.5 266t166.5 266q-118 -10 -220 -26q-21 0 -21 16q0 10 36 69t57 84q25 31 71 31q41 0 87 2.5t98 2.5q71 113 132.5 218 t117.5 192q31 46 54 58.5t38.5 7.5t18 -20t-12.5 -31q-72 -102 -146 -207t-146 -218q77 5 156 7.5t161 8.5q57 87 113 174t102 161t79.5 128t48.5 74q31 56 69.5 46t-7.5 -71q-5 -6 -38.5 -54.5t-84.5 -117.5t-112.5 -158.5t-123.5 -181.5q72 5 136 7.5t110 7.5q21 0 21 -15 q-26 -26 -69.5 -62t-69.5 -61q-35 -36 -66 -36h-77t-82 -5q-87 -133 -166.5 -266.5t-161.5 -266.5q123 0 200 -10t77 -67q0 -25 -33.5 -68.5t-58.5 -84.5q-26 25 -87.5 33t-209.5 8q-92 -164 -176.5 -320t-146.5 -279q-20 -41 -41 -41q-15 0 -28 20.5t-13 35.5q0 26 21 51 q82 128 161 258.5t167 274.5q-72 0 -151.5 -5t-166.5 -16q-107 -184 -189 -335t-149 -284q-25 -62 -61 -62q-21 0 -26 23t-5 44zM937 886q77 10 156 12.5t161 7.5q87 133 164 266.5t164 266.5q-82 -5 -169 -10.5t-143 -10.5q-82 -123 -166.5 -258.5t-166.5 -273.5z" />
<glyph unicode="$" horiz-adv-x="1904" d="M168 333q0 31 15 31q16 0 21 -21q10 -77 48.5 -138.5t100 -110t135.5 -79t151 -41.5q123 231 294.5 530.5t366.5 632.5q-72 25 -164 53.5t-169 53.5q-144 41 -144 164q0 61 61.5 204.5t171.5 287t258.5 253.5t317.5 110t261 -118q72 123 118 200t77 123t49 69t33 33 q46 36 46 -20q-77 -118 -148.5 -236t-138.5 -225q26 -41 36 -92t10 -108q0 -41 -12.5 -59t-38.5 -58q-15 -26 -25.5 -46.5t-25.5 -20.5q-26 0 -26 31q0 87 -30 164q-103 -164 -192.5 -315t-176.5 -295q102 -30 189 -66t148.5 -84.5t97.5 -118t36 -176.5 q0 -169 -107.5 -348.5t-289.5 -328t-414.5 -245.5t-478.5 -97q-103 -205 -182 -407t-151 -407q-10 -41 -30.5 -20.5t-20.5 56.5q0 51 25.5 133t69 187t102.5 225t120 243q-148 21 -258 87.5t-126 199.5q0 36 -2.5 107.5t-7.5 102.5zM700 -36q26 -5 77 -7.5t92 -2.5 q169 0 317.5 53.5t259 153.5t174.5 246t64 325q0 169 -95 253.5t-243 135.5q-82 -143 -174.5 -302t-177 -312.5t-161 -294t-133.5 -248.5zM1018 1628q0 -133 112.5 -202t266.5 -120q92 158 186.5 322t197.5 333q-51 82 -123 128t-169 46q-92 0 -176.5 -48.5t-151 -120.5 t-105 -161.5t-38.5 -176.5z" />
<glyph unicode="%" horiz-adv-x="3169" d="M450 -364q0 16 10 26t21 26q609 563 1000.5 967.5t619.5 678.5t317.5 432.5t89.5 235.5q0 92 -59 120t-161 28q-77 0 -169 -10t-181.5 -25.5t-171.5 -31t-138 -20.5q-52 0 -77 26q-46 -21 -115.5 -90t-130.5 -163.5t-107.5 -215t-46.5 -248.5q0 -143 103 -143 q77 0 161.5 53.5t153.5 148.5t112.5 223t43.5 271q0 82 -31 103q0 25 21 25q10 -10 43 -17.5t54 -13.5q10 -5 35.5 -35.5t25.5 -102.5q0 -82 -56 -205t-153.5 -235.5t-217.5 -192t-254 -79.5q-71 0 -137.5 36t-66.5 154q0 77 30.5 184.5t97 215t171.5 199.5t254 143 q-6 26 -6 72v87q0 15 16 15q15 0 20 -15q21 -26 33.5 -33.5t58.5 -7.5q31 0 105.5 10.5t166.5 20.5t186.5 20.5t161.5 10.5q143 0 225 -41t82 -164q0 -77 -56 -202.5t-240.5 -366t-527.5 -627t-917 -985.5q236 169 464 327.5t437.5 296.5t394 248.5t327.5 176.5 q11 0 16 -12.5t-5 -18.5q-82 -35 -151.5 -119.5t-118 -187t-74 -205t-25.5 -179.5t30.5 -123t87.5 -46q56 0 127.5 46t138.5 133.5t110.5 215.5t43.5 286q0 72 -18 125.5t-90 79.5q-20 10 -20 26q0 15 20 25q26 11 56.5 26t40.5 25q0 6 16 6q20 0 36 -16q20 -15 43 -25.5 t74.5 -20.5t133 -15t220.5 -5q15 0 0 -26q-77 -10 -172 -15t-166 -16q-52 -5 -36 -35q10 -11 12.5 -39t2.5 -54q0 -128 -59 -266t-151 -253.5t-212.5 -192t-242.5 -76.5q-190 0 -190 200q0 179 102.5 335t215.5 264q-185 -98 -410 -244t-463 -314.5t-471 -350.5t-428 -356 q-10 0 -10 10q0 46 -13 66.5t-23 30.5z" />
<glyph unicode="&#x26;" horiz-adv-x="4520" d="M348 456q0 379 197 701.5t519.5 563t737.5 376t850 135.5q15 31 46 72t64 82t71.5 69t74.5 28q46 0 66.5 -25.5t20.5 -51.5q0 -46 -18 -102t-43 -102q322 -57 516.5 -233.5t194.5 -504.5q0 -169 -58.5 -340.5t-156 -330t-225.5 -291.5t-266 -226q71 -51 163.5 -89.5 t189.5 -38.5q123 0 248.5 36t225 113t161 200t61.5 297q0 97 -28 173.5t-74 130.5t-102.5 84.5t-107.5 36.5q-10 0 -12.5 7.5t12.5 12.5q41 0 92 13t82 13q123 0 197 -105t74 -269q0 -169 -81.5 -320t-217.5 -263.5t-310 -179.5t-358 -67q-215 0 -384 108 q-328 -169 -717 -169q-133 0 -256 28t-220 92t-153.5 166.5t-56.5 251.5q0 179 102.5 342.5t230.5 281.5q158 144 360.5 272t366.5 245q30 123 84 261.5t126 255.5q-430 0 -817 -143t-673.5 -391.5t-455.5 -581t-169 -706.5q0 -261 100 -450.5t276.5 -315t414.5 -184.5 t520 -59q343 0 652.5 97.5t570.5 312.5q26 20 39 17.5t-8 -33.5q-46 -71 -158.5 -145.5t-281.5 -138.5t-381.5 -105t-458.5 -41q-276 0 -537.5 64t-466 200t-330 351t-125.5 512zM1520 404q0 -112 46.5 -184t123 -112.5t171.5 -56t192 -15.5q174 0 353 41t328 123 q-97 66 -166.5 171t-115.5 230.5t-66.5 266.5t-20.5 284q0 102 5.5 192t25.5 192q-118 -108 -253.5 -225.5t-232.5 -219.5q-62 -62 -128.5 -144t-125.5 -169t-97.5 -184t-38.5 -190zM2416 1357q0 -338 138.5 -619.5t353.5 -440.5q323 225 481.5 524.5t158.5 591.5 q0 282 -169 492t-456 266q-56 -118 -186.5 -282t-299.5 -322q-21 -87 -21 -210zM2473 1715q123 87 248.5 217.5t176.5 243.5q-51 10 -115 15t-121 5q-66 -112 -115 -237.5t-74 -243.5zM2683 2232q123 0 225 -25q10 30 20.5 63.5t10.5 64.5q0 36 -10.5 61.5t-40.5 25.5 q-36 0 -67 -20.5t-59 -51.5t-48.5 -64t-30.5 -54z" />
<glyph unicode="'" horiz-adv-x="1116" d="M926 1347q77 143 146.5 273.5t140.5 258.5q72 128 141 251t156 251q36 46 82 46q21 0 54 -18t33 -44q0 -15 -41 -79t-94.5 -143.5t-112.5 -161t-95 -128.5q-31 -46 -77 -112.5t-97 -140.5t-97 -148.5t-82 -135.5q-21 -31 -49 -18t-8 49z" />
<glyph unicode="(" horiz-adv-x="1873" d="M512 246q0 128 56 307q98 302 277 609t409.5 583.5t504.5 502t560 363.5q26 0 31 -12.5t-15 -23.5q-246 -102 -484 -335t-440.5 -512t-356 -558t-235.5 -474q-71 -164 -112 -315t-41 -279q0 -220 158 -348q21 -10 8 -28t-28 -2q-138 87 -215 217.5t-77 304.5z" />
<glyph unicode=")" horiz-adv-x="2078" d="M616.5 -258.5q-7.5 12.5 23.5 22.5q153 47 309.5 164.5t299.5 273.5t273.5 340.5t241 361t192 333t128.5 258.5q41 82 79 179.5t69 197t51.5 199.5t20.5 187q0 189 -113 297q-15 15 -5 28t26 3q117 -103 166 -236t49 -312q0 -149 -54 -318t-126 -317 q-112 -236 -278.5 -499.5t-371.5 -501.5t-445.5 -420t-496.5 -253q-31 0 -38.5 12.5z" />
<glyph unicode="*" horiz-adv-x="1300" d="M870 1592q0 11 18 31.5t28 25.5q21 0 64.5 2.5t94.5 5t97 2.5h82q36 0 20 25q-25 36 -89 113t-105 128q-15 21 5.5 46.5t45.5 25.5q36 0 56 -41q26 -46 69.5 -130.5t53.5 -110.5q11 -25 16 -20t15 20q21 36 67 133.5t76 168.5q21 41 36.5 51.5t40.5 10.5q26 0 41.5 -28.5 t-10.5 -53.5q-26 -31 -56.5 -72t-61.5 -82t-54 -79.5t-38 -58.5q-26 -46 31 -31q25 5 66 13t82 15.5t77 12.5t56 10q87 16 87 -35q0 -21 -15 -44t-56 -18q-67 5 -154 5h-154q-40 0 -10 -30q46 -57 115.5 -136t79.5 -120q20 -57 -26 -69.5t-61 28.5q-10 20 -61.5 117.5 t-92.5 163.5q-15 31 -36 -15q-30 -56 -71 -146t-62 -141q-25 -61 -51 -61t-49 7.5t-23 28.5q0 20 31 66q10 10 35.5 51t56.5 84.5t59 82t33 43.5q31 41 -15 31q-5 0 -48.5 -10.5t-97.5 -23t-107.5 -23t-84.5 -20.5q-26 0 -36 18t-10 33z" />
<glyph unicode="+" d="M706 620q20 -6 158.5 -8.5t307.5 -7.5q56 103 112.5 202.5t107.5 181.5l123 -25q-56 -72 -122.5 -167t-123.5 -192q128 0 233 -7.5t161 -28.5l6 -92q-98 26 -208 33.5t-238 7.5q-66 -118 -122.5 -240.5t-97.5 -225.5l-97 72q41 72 105 184.5t120 214.5q-87 0 -210 -2.5 t-179 -7.5z" />
<glyph unicode="," horiz-adv-x="1075" d="M-81 -635q0 26 15 41q226 256 435.5 525t414.5 545q21 36 57 36q15 0 33 -28t18 -131q0 -51 -41 -92q-138 -138 -245.5 -248t-207.5 -212.5t-200 -210t-212 -235.5q-11 -10 -39 -18t-28 28z" />
<glyph unicode="-" horiz-adv-x="1617" d="M716 681q0 15 15.5 30.5t45.5 15.5q57 0 139 -2.5t169 -2.5q148 0 276 5t200 5q56 0 56 -36q0 -41 -66 -41h-154t-199.5 -2.5t-220.5 -2.5h-210q-51 0 -51 31z" />
<glyph unicode="." horiz-adv-x="1177" d="M471 56q0 103 69 179.5t156 76.5q26 0 62 -18t36 -69q0 -25 -20.5 -68.5t-54 -84.5t-74.5 -69.5t-82 -28.5q-36 0 -64 20.5t-28 61.5z" />
<glyph unicode="/" horiz-adv-x="1884" d="M491 -804q0 16 71.5 177t187 417t264 576t304.5 653t304.5 650.5t266.5 565.5t189.5 401.5t76.5 171.5t51 31t46 -33q-143 -313 -258 -566t-266.5 -578.5t-304.5 -663.5q-364 -793 -830 -1797q-15 -36 -58.5 -41t-43.5 36z" />
<glyph unicode="0" horiz-adv-x="2247" d="M486 379q0 138 48.5 297t133 325t202.5 335t256 323q67 72 184.5 169t245.5 148q77 31 171.5 72t189.5 82t177 77t128 61q36 -5 82 -28t87 -77t69 -138.5t28 -212.5q0 -168 -59 -373t-161.5 -415t-243 -404.5t-307 -345.5t-353.5 -243t-381 -92q-72 0 -159 15t-161.5 61 t-125.5 133.5t-51 230.5zM752 435q0 -194 92.5 -304.5t245.5 -110.5q210 0 417.5 136t376.5 366.5t274 532.5t105 635q0 158 -49 283.5t-187 125.5q-36 0 -112.5 -18t-171.5 -64t-202.5 -122.5t-209.5 -194.5q-174 -195 -287 -381.5t-179.5 -353t-89.5 -302.5t-23 -228z" />
<glyph unicode="1" horiz-adv-x="1382" d="M552 205q0 112 56 225q72 149 192.5 353.5t261 424.5t291.5 440.5t279 399.5q5 5 5 10v5q0 5 -5 11q-15 0 -20 -11q-97 -56 -220 -133t-259 -161.5t-276.5 -171.5t-273.5 -169q-11 16 -16 36.5t-5 51.5q118 61 271.5 145.5t315 181.5t317.5 194.5t274 179.5 q51 10 110 20.5t110 25.5l10 -15q-353 -482 -647.5 -968t-519.5 -922q-46 -87 -61.5 -158.5t-15.5 -132.5q0 -98 56 -169q26 -16 10.5 -39t-30.5 -2q-87 112 -148.5 186.5t-61.5 161.5z" />
<glyph unicode="2" horiz-adv-x="2135" d="M15 72q0 66 56.5 130t151 115.5t220 82t268.5 30.5h174t139 -5q163 133 355 302t353.5 345.5t269 353.5t107.5 325q0 164 -79.5 253.5t-237.5 89.5q-123 0 -220.5 -33t-177 -89.5t-146 -125.5t-127.5 -146q-15 -21 -30.5 -8t-5.5 33q77 93 174 192.5t207.5 179 t238.5 130.5t271 51q56 0 117.5 -12.5t118 -48.5t92 -102.5t35.5 -179.5q0 -148 -128 -347.5t-320 -409.5t-409.5 -410t-396.5 -343q256 -21 496.5 -46.5t368.5 -66.5q62 -15 62 -82q-10 -51 -25.5 -120t-31.5 -110l-10 -5q-51 46 -151 87t-238 77t-304.5 64t-355.5 43 q-67 -51 -149 -104.5t-171.5 -97.5t-176.5 -72t-164 -28q-87 0 -153.5 18t-66.5 90zM97 143q0 -35 41 -61t128 -26q210 0 348 77t210 138q-31 5 -97.5 8t-122.5 3q-246 0 -376.5 -26t-130.5 -113z" />
<glyph unicode="3" horiz-adv-x="1792" d="M81 189q0 103 41 195l20 5v-72q16 -153 131 -250.5t392 -97.5q169 0 325 41t276.5 120.5t192 192t71.5 256.5q0 87 -48.5 174t-135.5 194q-62 72 -92.5 118t-30.5 92t18 74.5t74 69t161 102t279 169.5q159 97 159 215q0 46 -23 94.5t-79.5 92t-148.5 77t-225 43.5 q-26 0 -21 26q41 36 105 71.5t100 51.5q200 -11 335.5 -93t135.5 -230q0 -87 -74 -179t-259 -210q-92 -56 -148 -94.5t-89.5 -69.5t-46.5 -59t-13 -64q0 -51 41 -110t113 -141q51 -61 89.5 -115t38.5 -151q0 -133 -102.5 -286.5t-271.5 -287t-389 -223t-450 -89.5 q-87 0 -169 15.5t-143.5 54t-100 107.5t-38.5 171z" />
<glyph unicode="4" horiz-adv-x="2160" d="M343 640q15 72 15 118q0 36 52 46q25 5 53 15t100 51q394 231 660.5 415t445.5 379q56 61 82 135.5t26 146.5q0 87 -36 169q0 15 25.5 35.5t59 41t64 33t40.5 12.5q26 -10 44 -48.5t18 -94.5q0 -107 -69.5 -222.5t-191.5 -233.5q-77 -76 -202.5 -173.5t-271.5 -202.5 t-304.5 -212.5t-302.5 -204.5q-20 -10 -17.5 -20.5t27.5 -10.5q231 10 441 12.5t343 2.5q215 364 376 597t315 366q133 118 323 230q41 11 30 -30q-153 -92 -248 -184.5t-197 -251.5q-87 -128 -192 -304.5t-238 -422.5q82 0 189.5 -2.5t210 -7.5t186.5 -12.5t115 -12.5 q36 -6 36 -57q0 -46 -30.5 -122.5t-66.5 -117.5q-10 -11 -20.5 -5.5t-10.5 15.5q31 41 31 82q0 36 -46 51q-52 15 -131 30.5t-168.5 28.5t-182 18t-169.5 5q-51 -97 -102 -202t-92 -205t-66.5 -182t-25.5 -128v-31q0 -20 10 -35q0 -21 -31 -21q-20 41 -48.5 84.5t-58.5 84.5 q-36 41 -36 92q0 41 25 92q72 133 141 264t105 187q-61 0 -176.5 -5t-253.5 -15.5t-291.5 -31t-297.5 -50.5q-15 0 -15 20z" />
<glyph unicode="5" horiz-adv-x="1520" d="M-117 -97q0 56 26 71q10 -92 81.5 -122.5t189.5 -30.5q154 0 338 82t345.5 222.5t271.5 330t110 404.5q0 72 -28 146t-115 146q-67 56 -118 89.5t-89.5 61.5t-59 61.5t-20.5 79.5q41 179 169 371t292 397q25 31 46 31q10 0 84 -20.5t238 -20.5q359 0 528 128t169 291 q0 52 -26 103q15 10 41 -5q15 -46 15 -103q0 -117 -58.5 -230t-169 -202.5t-261.5 -143t-335 -53.5q-72 0 -164 7.5t-174 27.5q-133 -128 -187 -243t-54 -156q0 -72 61.5 -133.5t220.5 -153.5q87 -51 164 -130.5t77 -212.5q0 -128 -69.5 -274t-184.5 -289t-258.5 -273.5 t-294.5 -233t-297 -161.5t-258 -59q-118 0 -182 41t-64 159z" />
<glyph unicode="6" horiz-adv-x="1761" d="M440 297q0 154 84.5 386.5t335.5 570.5q261 338 506.5 568.5t461 371.5t384 202.5t276.5 61.5q113 0 194.5 -46.5t81.5 -184.5q0 -41 -15 -87l-20 -5q5 15 5 31v25q0 57 -61.5 108t-245.5 51q-251 0 -512.5 -158.5t-486.5 -394t-396.5 -507t-243.5 -496.5 q36 41 102.5 105t151 120t184.5 97t197 41q123 0 202.5 -56.5t79.5 -199.5q0 -138 -79.5 -304.5t-210 -310t-297 -240.5t-335.5 -97q-200 0 -271.5 92t-71.5 256zM670 261q0 -118 56.5 -184.5t153.5 -66.5q87 0 205 74.5t225.5 194.5t181.5 271t74 305q0 230 -210 230 q-81 0 -199 -51t-225.5 -156t-184.5 -258.5t-77 -358.5z" />
<glyph unicode="7" horiz-adv-x="1756" d="M578 87q0 72 18 141t92 179t228 276.5t425 427.5q230 225 468 468.5t433 458.5q-61 -21 -158.5 -33.5t-174.5 -12.5q-61 0 -145.5 7.5t-174 20.5t-179.5 20.5t-161 7.5q-220 0 -333 -164q-56 -77 -115 -197t-100 -284l-41 36q51 174 130.5 335t202.5 305q71 87 173.5 138 t215.5 51q46 0 163.5 -23t253.5 -53.5t261.5 -53.5t186.5 -23q62 0 123 74t97 161q62 0 108 -25.5t46 -35.5q0 -16 -15 -31q-57 -56 -123.5 -102.5t-138.5 -81.5q-317 -338 -573 -602t-456 -468q-61 -62 -150.5 -164.5t-169 -220t-138.5 -233t-59 -207.5q0 -148 113 -189 l-10 -26q-62 -10 -128.5 -35.5t-97.5 -46.5q-25 0 -61 61.5t-36 143.5z" />
<glyph unicode="8" horiz-adv-x="1720" d="M332 323q0 153 89.5 291.5t225.5 256t299.5 220t317.5 189.5q-82 154 -82 266q0 103 66.5 228.5t174 238t248.5 186.5t284 74q225 0 225 -189q0 -46 -10 -107.5t-74 -143.5t-202.5 -197t-394.5 -269q41 -67 82 -115.5t72 -97t51.5 -107.5t20.5 -146q0 -118 -57 -230 q-71 -144 -184 -272t-241 -225t-261 -153.5t-246 -56.5q-158 0 -281 92t-123 267zM521 435q0 -159 107.5 -253.5t251.5 -94.5q66 0 145.5 28t156.5 79.5t151 118t125 143.5q82 117 82 251q0 76 -18 137.5t-51 120.5t-79 125.5t-103 153.5q-148 -82 -286.5 -171.5 t-246 -189.5t-171.5 -210t-64 -238zM1341 1700q0 -72 30.5 -136t102.5 -161q292 184 409.5 337.5t117.5 292.5q0 71 -41 112t-112 41q-77 0 -166.5 -46t-166.5 -115t-125.5 -156t-48.5 -169z" />
<glyph unicode="9" horiz-adv-x="1761" d="M-122 123l15 20q62 -82 161.5 -112.5t192.5 -30.5q261 0 494 135.5t430 345.5t345.5 458.5t240.5 468.5q-118 -128 -287 -235.5t-368 -107.5q-128 0 -225.5 66.5t-97.5 209.5q0 134 95 292.5t246 299.5t335 235.5t363 94.5q103 0 164.5 -28t97 -74t48.5 -100t13 -105 q0 -133 -66.5 -333t-202 -430t-340.5 -468.5t-476 -448.5q-215 -163 -443 -260.5t-412 -97.5q-103 0 -192.5 48.5t-130.5 156.5zM897 1316q0 -92 61.5 -141t163.5 -49q149 0 292 82t256 207.5t184.5 281.5t71.5 300q0 82 -41 140.5t-128 58.5q-148 0 -302 -94.5 t-276.5 -232.5t-202 -289.5t-79.5 -263.5z" />
<glyph unicode=":" horiz-adv-x="1223" d="M450 56q0 103 69 179.5t156 76.5q26 0 62 -18t36 -69q0 -25 -20.5 -68.5t-54 -84.5t-74.5 -69.5t-82 -28.5q-36 0 -64 20.5t-28 61.5zM901 901q0 103 69 179.5t156 76.5q25 0 61 -18t36 -69q0 -26 -20.5 -69.5t-53.5 -84t-74 -69t-82 -28.5q-36 0 -64 20.5t-28 61.5z" />
<glyph unicode=";" horiz-adv-x="1182" d="M-117 -635q0 26 15 41q226 256 435.5 525t414.5 545q21 36 57 36q15 0 33 -28t18 -131q0 -51 -41 -92q-138 -138 -245.5 -248t-207.5 -212.5t-200 -210t-212 -235.5q-11 -10 -39 -18t-28 28zM892 906q0 103 69 179.5t156 76.5q26 0 61.5 -18t35.5 -69q0 -25 -20.5 -68.5 t-53.5 -84.5t-74 -69.5t-82 -28.5q-36 0 -64 20.5t-28 61.5z" />
<glyph unicode="&#x3c;" d="M680 614l15 57q41 5 187 51t330.5 107.5t371.5 125.5t304 110l16 -118q-77 -20 -210 -61t-284 -87t-299.5 -89.5t-251.5 -74.5q82 -26 187 -67t210 -87t197 -87t143 -71l-56 -103q-66 46 -179 102.5t-235.5 113t-243 105t-202.5 73.5z" />
<glyph unicode="=" d="M732 451l61 102q52 0 174.5 -5t263.5 -7.5t266.5 -5.5t186.5 3l-36 -98q-46 5 -168.5 8t-263.5 5.5t-274 2.5t-210 -5zM891 737l41 103q51 0 171.5 -5.5t258.5 -8t261 -5t174 2.5l-41 -97q-41 5 -153.5 7.5t-245.5 5t-267 2.5q-128 0 -199 -5z" />
<glyph unicode="&#x3e;" d="M645 333q82 25 217.5 66t289 87t302 90t251.5 74q-77 16 -187 51.5t-222.5 74t-207.5 74.5t-136 51l77 77q72 -31 177 -74.5t225 -87t240.5 -82t212.5 -63.5l-15 -57q-36 -5 -184.5 -51t-333 -107.5t-376.5 -128t-315 -112.5z" />
<glyph unicode="?" horiz-adv-x="1392" d="M532 108q0 56 36 109.5t164 110.5q36 0 36 -36q0 -67 33 -100t33 -64q0 -15 -20.5 -38t-51 -43.5t-64 -33.5t-58.5 -13q-21 0 -64.5 36t-43.5 72zM901 701q0 41 23 74.5t48 53.5q41 41 107.5 90t169.5 120q143 98 268.5 185t217.5 176.5t143.5 186.5t51.5 220 q0 139 -72 218t-266 136q-174 56 -202.5 89.5t2.5 73.5q41 57 95 116t74 43q-15 -31 -23 -54t10 -48.5t72 -51t161 -56.5q154 -46 243.5 -125.5t89.5 -227.5q0 -46 -13 -112.5t-61.5 -151t-143 -184.5t-258.5 -223q-138 -102 -248 -173.5t-187 -128t-120.5 -105 t-43.5 -105.5q0 -71 28 -122.5t85 -102.5q46 -36 -6 -36q-25 5 -56 7.5t-97 -7.5q-62 41 -77 100t-15 125z" />
<glyph unicode="@" horiz-adv-x="2979" d="M445 497q0 199 84.5 417t235.5 425t353.5 391.5t435 325t486 222.5t504.5 82q169 0 320 -38t261 -115t177 -200t67 -292q0 -184 -90 -391.5t-243.5 -384t-358 -292t-435.5 -115.5q-148 0 -212 59t-64 167q0 92 46 222.5t112 268.5q-281 -338 -460.5 -507t-302.5 -169 q-87 0 -87 113q0 77 49 192t128 240.5t181.5 246t215.5 202.5q118 87 238 130.5t259 43.5q102 0 189 -26q41 -15 -5 -46t-97 -123q-118 -225 -205 -422t-87 -325q0 -108 61.5 -154t168.5 -46q149 0 297.5 89.5t268.5 240.5t197 353.5t77 422.5q0 287 -194.5 448t-517.5 161 q-333 0 -663 -148.5t-594 -394t-427.5 -563t-163.5 -650.5q0 -348 210 -553t563 -205q235 0 442.5 74.5t369 182t264 225t122.5 199.5q10 21 20.5 18.5t10.5 -28.5q-21 -113 -149 -246t-312 -245.5t-407 -189.5t-438 -77q-174 0 -338 49t-289.5 148.5t-199.5 245.5t-74 341z M1459 732q0 -46 36 -46q41 0 115 61.5t161 156t184.5 212.5t179.5 230.5t140.5 205t79.5 138.5q-16 5 -41 5h-36q-128 0 -261 -113q-103 -87 -202.5 -210t-179 -245.5t-128 -230.5t-48.5 -164z" />
<glyph unicode="A" horiz-adv-x="2718" d="M-61 -154q5 93 69 167t172 176q983 917 1587 1447t773 648q41 25 123 45.5t112 51.5q18 18 26 18q5 -1 7 -11q0 -5 1 -9q0 -18 -8 -34q-51 -77 -82 -177t-41 -166q-5 -21 -28 -136t-53.5 -281.5t-64 -358.5t-64 -368.5t-48.5 -317.5t-23 -197q0 -87 17.5 -135.5 t43.5 -71.5t51.5 -28.5t40.5 -5.5q26 0 61.5 8t76.5 18t44 -5t-38 -26q-21 -5 -74.5 -20.5t-123 -36t-138.5 -38t-120 -28.5q-77 0 -103 103q6 31 21 130.5t33 212t33.5 212.5t15.5 131q0 56 -54 115t-156 85q-36 10 -138.5 15t-245.5 5q-149 0 -292 2.5t-215 12.5 q-389 -353 -652.5 -645t-397.5 -486q-40 -67 -58 -120.5t-29 -140.5q-7 -21 -18 -21q-5 0 -12 5zM1260 1096q5 -31 66.5 -46.5t146 -20.5t176.5 -5h154q164 0 266 -2.5t143 -12.5q44 -14 56 -14q2 1 3 1q8 2 18 38q21 103 51.5 277l61 348t54 304.5t28.5 151.5q5 20 5 31 q1 10 -5 12q-1 0 -2 1q-12 0 -50 -29q-15 -10 -86.5 -69t-181.5 -151t-241 -202.5t-256 -220.5t-232.5 -212.5t-174.5 -178.5z" />
<glyph unicode="B" horiz-adv-x="2493" d="M337 10q67 72 90 105t38 59q82 138 169 289t166.5 297t153.5 282t136 243q46 92 110 207.5t128 238t122.5 243t105.5 217.5q5 11 5 26t-31 15q-72 0 -159 -10t-169 -23t-153.5 -23t-112.5 -10q-82 0 -82 51q0 56 31 87q10 0 15 -15q10 -16 43.5 -21t161.5 -5 q164 0 310 7.5t361 7.5q230 0 406.5 -12.5t292 -58.5t174.5 -128t59 -220q0 -72 -36 -169.5t-120.5 -192t-223 -179t-337.5 -130.5q-10 0 -10 -16q0 -10 10 -10q71 -15 158.5 -33t164 -61.5t130.5 -112.5t54 -187q0 -143 -77 -289t-218 -264t-343 -192t-458 -74 q-149 0 -317.5 28t-312.5 100q-36 20 -66.5 33t-51.5 13q-41 0 -128 -41t-158 -97zM803 271q0 -30 25.5 -76.5t84.5 -90t151 -74t230 -30.5q175 5 346.5 69t309.5 174t222.5 261t84.5 325q0 149 -112.5 228.5t-317.5 89.5q-72 0 -159 -18t-153 -18q-16 5 -23.5 13t-7.5 38 q0 26 15.5 44t40.5 18q57 0 108 -15.5t107 -15.5q46 0 105 7.5t100 23.5q92 41 181.5 105t161.5 151t115.5 194.5t43.5 230.5q0 97 -41 161t-107.5 100t-148.5 48.5t-164 12.5q-56 0 -105 -12.5t-84 -58.5q-57 -72 -116 -172t-110 -187q-169 -302 -363.5 -675.5 t-388.5 -757.5q-26 -52 -31 -93z" />
<glyph unicode="C" horiz-adv-x="2641" d="M563 548q0 194 74 399t192 394.5t264 353.5t294 276q185 144 410 228.5t471 84.5q184 0 376 -38.5t356 -136.5q41 -20 41 -61q-36 -61 -92 -192t-92 -233l-46 -15q10 25 17.5 79t7.5 95q0 77 -25.5 158.5t-94.5 148.5t-184.5 107.5t-299.5 40.5q-148 0 -276 -58.5 t-241 -140.5q-128 -92 -289.5 -271.5t-304.5 -402t-238 -471t-95 -483.5q0 -128 46 -210t120.5 -128t171.5 -64t200 -18q430 0 783.5 227.5t670.5 663.5q15 20 26 20q20 0 20 -72q0 -41 -13 -69t-28 -53q-235 -354 -622 -556t-847 -202q-149 0 -284.5 28t-240.5 97 t-166.5 184.5t-61.5 289.5z" />
<glyph unicode="D" horiz-adv-x="2933" d="M332 10q67 72 123 156.5t87 140.5q31 51 110 187t184 317.5t220.5 389t223 397t189.5 345.5t117 233q0 15 -15 20.5t-26 5.5q-163 0 -322 -31t-323 -36q-92 0 -92 82q0 10 5 41t21 31q10 0 79 -31t141 -31q92 0 240.5 8t256.5 18q128 5 250.5 10t250.5 5q200 0 397 -25.5 t353.5 -102.5t256 -217.5t99.5 -371.5q0 -215 -79 -432.5t-212.5 -409.5t-310 -345.5t-371.5 -240.5q-194 -87 -401.5 -125.5t-422.5 -38.5q-174 0 -332.5 23t-312.5 105q-51 26 -87 26q-41 0 -118 -36t-148 -92zM783 246q0 -31 30 -62q87 -92 238 -138t310 -46 q312 0 588.5 123t486.5 335.5t333 501.5t123 622q0 113 -38.5 225.5t-138 204.5t-268.5 148.5t-436 56.5q-56 0 -94.5 -5t-68.5 -56q-128 -200 -271.5 -440.5t-284.5 -491.5t-269 -489t-220 -428q-20 -41 -20 -61z" />
<glyph unicode="E" horiz-adv-x="2432" d="M471 169q0 92 56 195q21 35 92.5 158t148.5 258.5t138.5 246t61.5 115.5q0 15 -15.5 20t-71.5 5q-26 0 -26 16q0 36 61 46q118 15 175 123q20 36 89 158.5t143.5 263.5t133 256t58.5 136q0 20 -30 20q-154 0 -307.5 -10t-271.5 -41l-10 5q10 87 41 118 q159 -10 335.5 -15.5t335.5 -5.5q56 0 194 5.5t309.5 10.5t346 10t297.5 5q30 0 30 -25q-10 -26 -40.5 -80t-56.5 -110l-21 5q0 31 -12.5 56.5t-27.5 30.5q-159 26 -343.5 36t-368.5 10q-82 0 -123 -51q-138 -184 -279 -417t-264 -453q-6 -13 -6 -22q0 -24 37 -24 q72 -5 143 -5h149q235 0 412 12.5t356 53.5l15 -15q-10 -21 -25.5 -51.5t-25.5 -56.5q-5 -20 -41 -20q-133 5 -289 7.5t-315 2.5h-231q-107 0 -204 -5q-41 0 -57 -31q-87 -153 -176.5 -322t-155.5 -328q-52 -118 -52 -210q0 -241 364 -241q128 0 315 20.5t381.5 64t371 105 t278.5 138.5q21 10 21 -20q-31 -26 -59 -64.5t-49 -69.5q-35 -66 -143 -92q-128 -30 -276.5 -53.5t-302 -43.5t-302 -30.5t-281.5 -10.5q-195 0 -318 13t-192 41t-94.5 66.5t-25.5 89.5z" />
<glyph unicode="F" horiz-adv-x="1792" d="M322 61q0 26 26 77q102 195 250.5 415t255.5 410q164 281 333 591t292 586q7 16 7 27q0 25 -32 29q-36 6 -100 8.5t-105 2.5q-26 0 -28.5 2.5t-2.5 12.5q0 31 26 32q87 -5 230 -6h266q113 0 248.5 7.5t274 25.5t266.5 46t220 69q10 5 20 5q26 0 26 -15q-46 -51 -72 -118 q-20 -51 -61 -51q-92 -5 -199.5 -7.5t-220.5 -5t-218 -5.5t-181 -8q-41 -5 -59 -20t-39 -46q-46 -67 -117.5 -192.5t-151 -263.5t-148.5 -266t-110 -205q0 -31 87 -56.5t251 -25.5q179 0 355.5 18t325.5 59l10 -10q0 -11 -15.5 -49t-40.5 -54q-57 0 -141 -2.5t-176.5 -5 t-184.5 -2.5h-164q-82 0 -176.5 2.5t-150.5 12.5q-41 0 -67 -41q-174 -296 -284 -508.5t-151 -320.5q-16 -46 -16 -82q0 -46 41 -79.5t190 -33.5q31 0 31 -20q0 -15 -26 -20q-31 -6 -62 -6h-56q-159 0 -253.5 5.5t-145.5 15.5t-64 25.5t-13 40.5z" />
<glyph unicode="G" horiz-adv-x="2913" d="M563 -1265l15 11q62 -31 138.5 -46.5t148.5 -15.5q174 0 343 95t325 243.5t297 340.5t261.5 381t215 366t161.5 300q0 41 -31 10q-46 -41 -151 -123t-251 -161.5t-327.5 -141t-381.5 -61.5q-374 0 -566 156.5t-192 427.5q0 108 61.5 317.5t205 450.5t376.5 468.5 t576 371.5q204 82 406.5 112.5t371.5 30.5q87 0 189.5 -10t199.5 -33t179 -64t128 -98q-20 -87 -63.5 -212.5t-84.5 -217.5l-36 -10l-5 15q10 31 15 62t5 66q0 93 -53.5 174.5t-146 143t-215 95t-261.5 33.5q-261 0 -486 -110t-410 -295q-112 -107 -240 -278.5t-238 -368.5 t-182 -397t-72 -369q0 -205 138.5 -312.5t399.5 -107.5q225 0 450.5 95t412 235.5t325 312t194.5 325.5q19 46 19 71q0 3 -1 5q-2 26 -59 26q-87 -5 -204.5 -15t-255.5 -20l-16 5l16 56q102 0 227.5 5t251 13t240.5 26t207 38q21 -15 0 -46q-82 -21 -112.5 -49t-66.5 -100 q-97 -189 -222.5 -432t-261 -489t-274 -463.5t-261.5 -355.5q-51 -62 -145.5 -159t-228 -187t-307.5 -156.5t-389 -66.5q-72 0 -143.5 10.5t-153.5 41.5z" />
<glyph unicode="H" horiz-adv-x="2928" d="M302 -46q31 46 79.5 117.5t130.5 194.5t207.5 312.5t304.5 471.5q-62 92 -77 138q5 25 51 25h87q36 0 52 41q25 46 89 164t133 251t120.5 251t51.5 159q0 61 -31 76.5t-97 15.5q-57 0 -131 -2.5t-130 -12.5q-31 0 -31 30q0 31 41 31q61 0 151 2.5t189.5 10t199.5 15.5 t182 13q30 0 30 -23q0 -16 -15 -44q-51 -71 -110 -163.5t-110 -179.5q-77 -133 -169 -302t-164 -307q-15 -26 -17.5 -41t27.5 -15q118 -5 218 -8t182 -3q46 0 156 5.5t235.5 10.5t243 15t184.5 16q26 5 46.5 20t30.5 36q153 297 286.5 542.5t271.5 471.5q26 35 66 56 q52 31 154 77t215 89.5t210 74t143 30.5q11 0 36.5 -5t25.5 -20q0 -11 -20.5 -16t-30.5 -5q-16 0 -62 -7.5t-102.5 -25.5t-115 -46t-104.5 -69q-123 -103 -231 -246q-71 -102 -148 -220t-148.5 -241t-138.5 -245.5t-118 -230.5q-184 -384 -266 -619.5t-82 -343.5 q0 -199 205 -199q72 0 177 35.5t166 76.5q15 0 20.5 -12.5t-15.5 -33.5q-102 -46 -261 -99.5t-389 -63.5q-87 5 -128 56t-41 133q0 87 31 184q51 149 115 300t120 269q21 41 21 87q0 71 -77 97t-149 26q-123 0 -261 -5.5t-273.5 -15.5t-258.5 -23t-210 -28 q-31 -5 -51.5 -25.5t-40.5 -51.5q-118 -205 -259 -438t-233 -463q-10 -31 -20.5 -41t-51.5 -10q-46 0 -81.5 -2.5t-66.5 -13t-66.5 -26t-87.5 -45.5z" />
<glyph unicode="I" horiz-adv-x="1254" d="M184 15q41 5 79.5 31t63.5 56q62 77 167 225.5t225 333t248 389t241 396.5t197.5 356t114.5 266q11 31 11 57q0 56 -139 56q-61 0 -138 -5t-143 -20l-16 5q11 41 31 61q215 10 422.5 23t355.5 39q26 -16 26 -41q0 -11 -31 -21q-41 -10 -66.5 -46t-51.5 -82 q-107 -200 -242.5 -445.5t-289.5 -509t-315 -525t-310 -486.5q-41 -56 -92 -87t-97 -41q-56 -10 -123 -12q-22 -1 -43 -1q-41 0 -75 3q-10 5 -10 25z" />
<glyph unicode="J" horiz-adv-x="1664" d="M-645 -415q0 36 2.5 100t7.5 136l36 10q21 -133 131 -228t356 -95q215 0 396.5 74.5t381.5 274.5q179 179 361 442.5t376 591.5q87 148 184.5 319.5t189.5 346t174 335.5t138 284q5 10 5 31q0 20 -30 20q-108 0 -231 -12.5t-245.5 -38.5t-235.5 -61.5t-200 -81.5 t-156 -143.5t-69 -215.5q0 -41 10 -71q10 -16 -10 -16q-26 16 -54 62t-28 143q0 82 82 187t297 177q77 25 179.5 45.5t261 38.5t386.5 28t550 10q21 -5 21 -25q0 -21 -21 -21q-31 5 -56 5h-36q-41 0 -66.5 -7.5t-51.5 -38.5q-107 -138 -230 -366t-241 -448 q-118 -215 -235.5 -417t-240.5 -397q-82 -133 -197 -284t-218 -248q-112 -108 -240 -213t-279 -187t-325.5 -133t-389.5 -51q-230 0 -394 67q-25 10 -38 22q-9 10 -9 31q0 8 1 18z" />
<glyph unicode="K" horiz-adv-x="2570" d="M276 -87q77 92 187 248t238 361q118 190 240.5 400t243 425t228 424.5t199.5 399.5q0 5 2.5 7.5t2.5 7.5q0 16 -25 16q-138 0 -281.5 -15.5t-261.5 -15.5q-56 0 -56 31q0 5 10 28t23 46t28.5 41t25.5 18q0 -41 51 -57q41 -10 123 -17.5t143 -12.5q26 0 59 -2.5t74 -2.5 q159 0 297.5 5t342.5 20q16 -25 -5 -46q-25 0 -89 -2.5t-110 -7.5q-36 0 -62 -41q-133 -210 -284 -461t-340 -568q-21 -36 -8 -43.5t38 12.5q266 159 522 320t472 305q51 30 184 120t274 184.5t256 171.5t135 82h21q26 -16 59 -26t69 -20q5 -16 -5 -26q-36 -10 -107.5 -46 t-202.5 -107.5t-325.5 -187t-475.5 -289.5q-154 -97 -323 -207t-333 -228q-20 -15 -20 -31q210 -281 491.5 -626.5t716.5 -750.5q159 -148 287 -245.5t248.5 -154t235.5 -82t253 -25.5q210 0 407 54t320 141q41 25 41 -10q0 -11 -20 -26q-144 -92 -371.5 -151t-473.5 -59 q-154 0 -328 36t-368.5 128t-404.5 253.5t-435 411.5q-210 236 -430 502t-410 522q-15 26 -22.5 23.5t-33.5 -38.5q-149 -246 -271.5 -468.5t-245.5 -442.5q-21 -31 -33.5 -69.5t-17.5 -58.5q-26 5 -54 7.5t-49 2.5q-71 0 -138 -36t-97 -66q-31 0 -31 15z" />
<glyph unicode="L" horiz-adv-x="2252" d="M61 15q0 31 41 31q92 0 163.5 10.5t123.5 40.5q82 51 156 141t182 269q107 179 227.5 394t240.5 438t238 435.5t215 375.5q10 26 33.5 39t48.5 23q108 41 269 66.5t289 25.5q24 -9 24 -31q0 -28 -19 -41q-30 11 -68.5 16t-95.5 5q-97 0 -148 -61.5t-108 -133.5 q-66 -92 -137.5 -202t-128.5 -212q-51 -88 -120 -208t-146 -256t-156.5 -274t-150.5 -261q-123 -205 -248.5 -320t-263.5 -192q-31 -15 -36 -30.5t41 -15.5q143 15 343 30.5t392 28.5t345.5 23t214.5 10h67q46 0 92 -2.5t87 -5t61 -7.5q82 -21 82 -72q0 -25 -23 -99.5 t-43 -115.5q-10 0 -10 21q0 25 -8 50.5t-38 36.5q-77 30 -174.5 45.5t-200 23t-199.5 10.5t-184 3q-297 0 -499.5 -10.5t-340.5 -26t-225 -33t-154 -38.5q-20 5 -35.5 23t-15.5 33z" />
<glyph unicode="M" horiz-adv-x="3840" d="M61 -61q15 56 122.5 217t271.5 379t363.5 474t394.5 499t366.5 453t278.5 338q108 36 169.5 54t96.5 33q31 -10 11 -31q-62 -41 -77 -118q-21 -117 -41.5 -281t-38 -348.5t-33 -379t-26 -368.5t-15.5 -320t-5 -233q0 -51 7.5 -69t20.5 -15.5t28.5 20.5t30.5 39 q56 71 184 227.5t292 353.5t348.5 412t353.5 407t304.5 343t202.5 212q82 41 199.5 77t189.5 82q16 0 26 -12q5 -6 5 -14q0 -7 -6 -15q-87 -36 -125.5 -61.5t-63.5 -97.5q-62 -194 -126 -452.5t-117.5 -530t-89.5 -530t-36 -453.5q0 -71 33.5 -99.5t79.5 -28.5t102.5 10.5 t102.5 30.5q10 0 12.5 -12.5t-7.5 -22.5q-51 -16 -120.5 -36.5t-138.5 -41t-128 -38.5t-100 -28q-61 0 -99.5 23t-48.5 85q5 71 35.5 235t77 369t100 430t99.5 417t79.5 325t38.5 159q10 38 10 57q0 17 -9 18h-1q-20 -2 -61 -39q-98 -87 -228.5 -223t-276.5 -299.5 t-299.5 -348t-302 -368.5t-281.5 -361t-235 -325q-11 -21 -26 -49t-26 -64q-97 -5 -145.5 -28t-99.5 -69q-31 -10 -36 10q15 108 33 287t36 394t33 443t30.5 430t26 355.5t15.5 220.5q0 48 -20.5 48t-61.5 -48q-149 -169 -351 -425t-407 -532.5t-386.5 -542.5t-289.5 -461 q-92 -169 -110 -256q-14 -68 -14 -117q0 -14 1 -26q5 -50 -6 -50q-1 0 -3 1q-16 8 -32 38q-15 31 -25 92.5t-36 169.5z" />
<glyph unicode="N" horiz-adv-x="2810" d="M409 148q0 52 33.5 118.5t68.5 122.5q62 108 182 310t336 561q117 194 224.5 393.5t153.5 317.5q21 51 21 87q0 57 -33.5 82.5t-89.5 25.5q-61 0 -138 -2.5t-133 -7.5q-21 0 -33.5 23t-12.5 48q0 21 15 21q51 -16 125.5 -23.5t145.5 -7.5q98 0 195 15.5t159 35.5 q35 0 41 -46q10 -41 28 -120.5t33 -135.5q41 -154 107.5 -346t141 -396.5t148.5 -404t130 -363.5q11 -41 21 -66.5t36 -25.5q15 0 33 28t33 59q118 240 243.5 491t253.5 496.5t258.5 476t258.5 430.5q31 51 74.5 107.5t97 102.5t112.5 76.5t126 30.5q35 0 89 -33t69 -74 q0 -10 -15 -10q-62 0 -123 -15.5t-130.5 -56.5t-143.5 -118t-161 -194q-246 -338 -481.5 -778.5t-435.5 -885.5q-56 -133 -115 -271.5t-115 -251.5q-15 -35 -31 -35q-20 0 -46 35q-61 215 -145.5 471t-174 507t-171.5 471.5t-139 353.5q-30 66 -56 66t-66 -61 q-128 -200 -238.5 -374t-202.5 -340.5t-174 -325t-153 -322.5q-21 -46 -39 -107.5t-33.5 -130.5t-25.5 -138.5t-10 -120.5h-15q-11 5 -28.5 36t-38 64t-33.5 69t-13 56z" />
<glyph unicode="O" horiz-adv-x="3015" d="M614 620q0 163 59 345t151 356t210 327.5t230 256.5q220 199 496.5 291.5t568.5 92.5q159 0 325.5 -31t301.5 -105q136 -73 223 -199q82 -119 82 -300v-21q-5 -317 -148.5 -619t-376.5 -537.5t-540 -379t-640 -143.5q-200 0 -371.5 30.5t-297 107.5t-199.5 205t-74 323z M860 568q0 -164 48.5 -274t135.5 -174t207.5 -92t263.5 -28q302 0 571 158.5t473.5 402t325 538t120.5 570.5q0 159 -51 269t-138 179t-210 102.5t-272 33.5q-271 0 -486 -105t-394 -310q-98 -107 -203 -261t-192 -328t-143 -350.5t-56 -330.5z" />
<glyph unicode="P" horiz-adv-x="2155" d="M409 97q0 31 26 92q71 159 189 359t225 379q128 215 276.5 478.5t261.5 473.5q10 15 30.5 58.5t41 90t36 87.5t15.5 56q0 20 -26 20q-164 -5 -320 -25.5t-320 -20.5q-97 0 -97 57q0 10 18 53.5t33 43.5q10 0 15 -21q6 -25 62 -35q46 -11 112.5 -14t128.5 -2 q153 0 312 10.5t299.5 25.5t250.5 25.5t172 10.5q112 0 227.5 -20.5t210 -74.5t153.5 -143.5t59 -222.5q0 -128 -79.5 -279t-228 -281.5t-361 -215t-483.5 -84.5q-128 0 -225 36q-16 10 -16 20q0 21 21 21q25 -11 94.5 -21t130.5 -10q195 0 361.5 77t286.5 199.5t189 276.5 t69 307q0 215 -130.5 292t-314.5 77q-128 0 -230 -26q-67 -20 -103 -87q-97 -164 -232.5 -391.5t-274 -471t-266.5 -474t-215 -399.5q-56 -112 -56 -184q0 -97 82 -135.5t245 -38.5q57 0 57 -15q0 -16 -26 -21q-92 -15 -207 -25.5t-228 -10.5q-21 0 -64.5 5.5t-84.5 18 t-71.5 35.5t-30.5 64z" />
<glyph unicode="Q" horiz-adv-x="2800" d="M358 -148q87 102 176.5 189t187.5 159q-164 179 -164 445q0 164 64 340.5t163.5 345.5t217.5 320t231 259q184 179 417 273.5t479 94.5q25 0 32.5 -10t7.5 -20q0 -16 -10 -16q-25 5 -46 5h-36q-123 0 -245.5 -58.5t-230 -148.5t-194.5 -189.5t-149 -176.5 q-72 -97 -151 -225t-145.5 -269t-110 -297t-43.5 -315q0 -133 51 -261q174 118 332.5 156.5t261.5 38.5q56 0 120 -8t135.5 -38.5t148.5 -94.5t154 -177q184 92 337.5 253.5t263.5 353.5t171.5 396.5t61.5 384.5q0 163 -38 304t-115 233q-41 46 -95 79.5t-100 43.5 q-25 10 -25 15q0 11 25 11q41 0 97.5 -2.5t102.5 -2.5q31 0 69 -8t69 -33q77 -62 148.5 -182t71.5 -341q0 -153 -56 -360.5t-179 -422.5t-315 -414.5t-469 -338.5q31 -46 72 -120t92 -158.5t112.5 -171.5t128.5 -164q148 -169 307 -169q31 0 87 10t125.5 54t151 136 t163.5 256q11 15 26 5t15 -31q-56 -92 -130 -194.5t-166.5 -184.5t-197.5 -135.5t-222 -53.5q-128 0 -262 77q-92 51 -166 153.5t-133 215t-107.5 220t-84.5 168.5q-118 -41 -233 -61.5t-233 -20.5q-169 0 -340.5 41t-294.5 159q-97 -66 -194.5 -163.5t-168.5 -194.5 q-26 0 -26 36zM875 266q87 -143 246 -194.5t312 -51.5q195 0 394 72q-35 56 -73.5 115t-92.5 108t-128 79.5t-182 30.5q-128 0 -245.5 -43.5t-230.5 -115.5z" />
<glyph unicode="R" horiz-adv-x="2621" d="M358 -77q471 686 793.5 1223.5t558.5 983.5q15 41 7.5 51t-33.5 10q-153 -10 -306.5 -61t-287.5 -123q-87 -51 -163.5 -138t-133.5 -190q-10 -5 -20 -2.5t-10 13.5q15 41 30.5 99.5t25.5 104.5q0 52 61 87q134 72 300 133.5t330 97.5q302 61 630 61q404 0 627 -89.5 t223 -319.5q0 -113 -74.5 -233.5t-207.5 -222.5t-325 -176.5t-422 -99.5q-46 -6 -31 -41q97 -180 268.5 -448.5t386.5 -570.5q113 -154 254 -297.5t304.5 -253.5t350.5 -176.5t387 -66.5q307 0 609 159q31 20 31 -10q0 -21 -21 -26q-164 -87 -343 -141t-384 -54 q-292 0 -512 59t-404.5 182t-350.5 317.5t-346 471.5q-51 81 -122.5 201.5t-148.5 248.5t-146 248.5t-115 197.5q0 20 15 20q231 0 423 41t332.5 125.5t220 215t79.5 304.5q0 62 -23 131t-82 122.5t-156 89.5t-246 36q-51 0 -99.5 -13t-84.5 -54q-56 -66 -158.5 -222 t-225.5 -361t-256 -435.5t-253.5 -448t-212.5 -394t-138 -279.5q-5 -10 -21 -10q-25 5 -51 7.5t-51 2.5h-62q-35 0 -76 -10q-62 -36 -118 -97q-10 0 -23 5q-7 3 -7 7t4 8z" />
<glyph unicode="S" horiz-adv-x="1684" d="M122 108q20 87 48.5 197t48.5 181q0 11 16 11q15 0 15 -26q-15 -46 -15 -92q0 -143 117.5 -253.5t363.5 -110.5q92 0 187 18t171 54q159 72 269 202.5t110 309.5q0 87 -41 176.5t-158 238.5q-103 133 -156.5 235.5t-53.5 235.5t58.5 266t145.5 236q31 35 85 84t128 90 t174 71.5t223 30.5q82 0 158.5 -23t138.5 -90q25 -35 25 -71q-20 -51 -48.5 -133t-43.5 -139q-20 -10 -36 16q16 30 16 77q0 92 -90 174t-284 82q-205 0 -333 -120.5t-128 -320.5q0 -153 71.5 -286.5t158.5 -245.5q67 -87 110.5 -146t69 -107.5t36 -92t10.5 -105.5 q0 -107 -49 -209.5t-128 -189.5t-174 -156t-187 -110q-230 -103 -512 -103q-118 0 -233 20.5t-212 66.5q-26 16 -46.5 28.5t-25.5 28.5z" />
<glyph unicode="T" horiz-adv-x="2037" d="M435 1444q46 138 107.5 268.5t141 240.5t176.5 187t215 97q117 24 259 24q14 -1 28 -1q158 -2 317 -2q149 0 297.5 -2.5t296.5 -2.5h220q410 5 656 138q76 41 153 123t77 179q0 26 -5 36q-5 5 -5 15q0 21 15 21q5 0 15 -10q62 -67 93 -134q15 -20 15 -61q0 -31 -20 -72 q-88 -143 -259.5 -204.5t-416.5 -71.5q-58 -3 -121 -3q-31 0 -63.5 0.5t-62.5 0.5q-60 0 -112 -3q-71 0 -107 -51q-287 -436 -530 -850.5t-443 -778.5q-46 -87 -74 -161t-34 -136q0 -41 10.5 -79t46.5 -66.5t105 -46.5t181 -18h62t61 6q16 -21 -15 -41q-87 -11 -194.5 -13.5 t-199.5 -2.5q-77 0 -146 2.5t-123 20.5t-87 54t-33 102q0 41 20.5 92.5t55.5 107.5q139 225 279.5 460.5t276.5 468.5t264 456t235 428q9 16 9 26q0 20 -34 20h-169q-277 0 -489.5 -25.5t-373.5 -107.5t-289 -238.5t-236 -417.5q-10 -20 -23 -12.5t-23 38.5z" />
<glyph unicode="U" horiz-adv-x="3159" d="M593 369q0 153 102 343q77 143 184.5 314.5t220.5 350.5t220.5 353.5t188.5 322.5q21 41 21 62q0 46 -77 46q-36 0 -100 -2.5t-135 -2.5q-36 0 -67 2.5t-56 2.5q-41 0 -43.5 30.5t38.5 30.5q51 0 166 -7.5t243 -7.5q123 0 205 7.5t135.5 15t94.5 13t77 5.5q26 0 26 -21 q0 -15 -31 -25q-41 -11 -87 -23.5t-87 -58.5q-102 -128 -209.5 -284.5t-212.5 -322.5t-207.5 -337.5t-189.5 -330.5q-128 -225 -128 -420q0 -164 102.5 -261t306.5 -97q215 0 425 81.5t402 220t353.5 315t284.5 360.5q71 108 150.5 251.5t156.5 286.5t143.5 271t112.5 205 q36 57 74.5 95t104.5 64q16 5 62 18t94.5 25.5t92 23t58.5 10.5q26 0 31 -26q1 -4 1 -7q0 -18 -21 -18q-26 -6 -54 -21t-54 -41q-107 -133 -214.5 -286.5t-207.5 -312.5t-192 -317.5t-164 -307.5q-36 -66 -79.5 -158t-82 -189.5t-64 -195t-25.5 -178.5q0 -108 51 -172 t169 -64q72 0 143.5 20.5t135.5 46t107.5 48.5t48.5 23q26 0 31 -20.5t-20 -30.5q-149 -67 -305 -115.5t-320 -48.5q-338 0 -338 261q0 82 33.5 169t71.5 161.5t69 128t31 64.5q0 10 -5 12.5t-11 -7.5q-199 -226 -404 -374.5t-394.5 -235.5t-353 -122.5t-281.5 -35.5 q-97 0 -194.5 23t-177 74t-128 133t-48.5 195z" />
<glyph unicode="V" horiz-adv-x="2257" d="M348 1982q-5 8 -5 15q0 18 25 36q148 102 353 168.5t384 66.5q190 0 259 -105t69 -269q0 -174 -33.5 -399t-77 -453t-76.5 -425t-33 -320q0 -26 10 -26q15 0 25 11q272 271 553.5 573t535 591.5t450.5 540t300 414.5q81 123 81 205q0 15 -5 30.5t-5 25.5q0 21 10 21 q16 0 26 -15q26 -26 61.5 -77t35.5 -82q0 -36 -15 -77t-66.5 -112.5t-143.5 -181.5t-251 -284.5t-389 -422.5t-553 -591q-77 -77 -179 -182t-202 -217.5t-184.5 -217.5t-120.5 -177q-36 -66 -102 -66q-98 -6 -146.5 -34t-79.5 -28q-20 0 -20 21q0 15 20.5 56t40.5 97 q67 200 123.5 443t94.5 468.5t61 402t23 243.5q0 92 -10 181.5t-48.5 158.5t-112.5 112.5t-202 43.5q-103 0 -228.5 -38.5t-196.5 -109.5q-25 -25 -41 -25q-9 0 -15 10z" />
<glyph unicode="W" horiz-adv-x="3860" d="M506 -46q41 61 84.5 161t100.5 233q25 62 76.5 202.5t113 317t125.5 368.5t117.5 361t89.5 289.5t36 156.5q0 72 -77 72q-72 0 -146 -20.5t-120 -20.5q-26 0 -28.5 20.5t28.5 25.5q246 46 379 74t197 43.5t82 23t28 7.5q26 0 26 -20q0 -21 -16 -31q-15 -15 -35.5 -53.5 t-43.5 -92.5t-48.5 -115.5t-46.5 -117.5q-133 -353 -258.5 -752.5t-232.5 -778.5q-16 -56 -3 -58.5t28 12.5q220 205 478.5 456t527.5 509.5t525 501.5t471 438q15 5 28 -10.5t3 -25.5q-26 -10 -46.5 -41t-25.5 -67q-10 -87 -20.5 -220t-18 -286.5t-10 -315t-2.5 -314.5 q0 -236 5 -394.5t5 -255.5q0 -36 10 -36q16 0 31 20q92 113 202 243.5t225.5 268.5t230.5 271.5t213 245.5q117 133 255.5 281.5t279 292t274 276.5t240.5 231q97 87 202 163.5t238 76.5q11 0 39 -7.5t56 -18t54 -20.5t31 -15q10 -11 10 -19q0 -11 -21 -17q-15 5 -35 5h-31 q-51 0 -151 -30.5t-279 -153.5t-453 -376.5t-674 -698.5q-102 -113 -237.5 -277t-271.5 -330.5t-248.5 -317.5t-168.5 -248q-11 -20 -31.5 -38t-45.5 -23q-67 -11 -131 -34t-105 -64q-26 0 -26 16q0 13 16 36q15 15 28 117.5t23.5 253.5t18 338t10 376t5 363.5t2.5 302.5 q0 71 -36 71q-15 0 -51 -25q-41 -36 -146 -133.5t-251 -235.5t-325 -307t-361 -348.5t-353.5 -358.5t-314.5 -338l-30.5 -30.5t-30.5 -15.5q-77 0 -136 -18t-110 -43q-23 0 -23 19q0 11 7 27z" />
<glyph unicode="X" horiz-adv-x="2744" d="M51 -200q0 62 48.5 133.5t125.5 148.5t179.5 156t209.5 156q282 200 566 399.5t581 394.5q-26 169 -56.5 343t-71.5 338q-41 174 -135.5 233t-222.5 59q-103 0 -228.5 -33.5t-227.5 -105.5q-41 -20 -43.5 0.5t23.5 35.5q163 87 350 146t382 59q179 0 255.5 -97.5 t102.5 -327.5q10 -107 25.5 -250.5t30.5 -261.5q681 461 1337 963q30 25 30 46q0 25 -5 41q-5 15 21 15q25 0 61 -59t36 -95q0 -41 -36 -61q-143 -82 -317 -189.5t-363.5 -225t-384 -243t-373.5 -243.5q30 -205 63.5 -407t74.5 -382q87 -399 327 -399q87 0 197.5 51 t227.5 144q21 20 33.5 -3t-12.5 -33q-62 -46 -143.5 -100t-174 -97.5t-187 -74t-176.5 -30.5q-169 0 -228 135.5t-90 381.5q-20 148 -43 319.5t-49 351.5q-317 -210 -621.5 -425t-591.5 -461q-36 -31 -105 -100t-135.5 -151t-115.5 -166.5t-49 -140.5q0 -31 -15 -36 q-26 25 -56.5 68.5t-30.5 79.5z" />
<glyph unicode="Y" horiz-adv-x="2053" d="M316 1846q-12 1 -12 11q0 11 13 32q153 195 347.5 282t430.5 87q148 0 255.5 -59t174 -156t97.5 -228t31 -269q0 -61 -7.5 -135.5t-18 -138.5t-18 -112.5t-7.5 -58.5q-5 -26 7.5 -38.5t33.5 7.5q368 282 734 576t725 545q107 77 245.5 149t271.5 72q61 0 115 -49t74 -85 q0 -20 -15 -15q-26 10 -46 10h-67q-153 0 -399 -120t-525 -304.5t-555.5 -407t-486.5 -427.5q-61 -62 -112 -118t-92 -123q-128 -225 -230.5 -417t-138.5 -315q-5 -21 -15.5 -33.5t-51.5 -7.5q-76 10 -117 10t-69.5 -7.5t-54 -25.5t-71.5 -49q-3 -1 -5 -1q-10 0 -13 17 q-2 20 13 36q51 40 122.5 130t148.5 205t146 240.5t121 232.5q56 123 102 302.5t46 322.5q0 133 -28 258.5t-94.5 223t-177 153.5t-268.5 56q-185 0 -305 -56t-212 -184q-16 -21 -42 -18z" />
<glyph unicode="Z" horiz-adv-x="2237" d="M110 33q-1 4 -2 7q0 16 35 16q133 0 235 87q82 67 238.5 200t356 304.5t422.5 366t430 386.5t386.5 369t286.5 310q41 51 41 71q0 41 -102 41q-261 0 -545.5 -12.5t-494.5 -38.5q-143 -15 -255.5 -51t-174.5 -92q-21 -21 -32 -21q-14 0 -14 31q41 87 72 133t97 56 q174 16 407 23.5t469 12.5q138 0 309.5 5t325 8t271.5 5.5t148 2.5q52 0 49 -25.5t-38 -31.5q-26 -5 -56.5 -28t-56.5 -48q-118 -98 -279 -243.5t-353 -317t-399.5 -361t-407 -381.5t-386.5 -371.5t-336 -332.5q-25 -36 -25 -52q0 -30 46 -46q112 -30 319.5 -79t461 -95 t525 -76.5t511.5 -30.5q400 0 607.5 163.5t273.5 471.5q10 30 26 30q15 0 15 -41q-31 -148 -100 -296.5t-171 -266.5q-103 -118 -231 -169t-281 -51q-251 0 -555.5 64t-637.5 141t-689 146t-709 79q-25 5 -33 28z" />
<glyph unicode="[" horiz-adv-x="1730" d="M51 -276q0 15 36 61t61 87q441 763 786.5 1398t621.5 1193q21 36 16 71.5t35 35.5q72 0 146.5 -5t145.5 -5q87 0 205 5t190 5q30 0 30 -20q0 -10 -10 -15.5t-20 -5.5h-180q-102 0 -158.5 -2.5t-84.5 -7.5t-41 -15.5t-23 -30.5q-200 -348 -376.5 -665.5t-345.5 -632.5 t-335.5 -637.5t-350.5 -685.5q-15 -31 -15 -52q0 -51 71 -51h205q82 0 136 2.5t84 2.5h57q41 0 43.5 -28t-43.5 -28q-92 0 -197 2.5t-208 2.5q-112 0 -222.5 -2.5t-222.5 -2.5q-36 0 -36 26z" />
<glyph unicode="\" horiz-adv-x="1884" d="M921 2826.5q0 20.5 43.5 12.5t58.5 -49q98 -307 174.5 -555t174 -565.5t200 -650.5t202 -653t176.5 -576t123 -417t46 -177q0 -46 -41 -33t-56 38q-302 1004 -548 1797q-102 338 -202 663.5t-177 578.5t-125.5 409.5t-48.5 177z" />
<glyph unicode="]" horiz-adv-x="1802" d="M378 -276q0 30 31 30h297q148 0 184 8t56 49q200 348 376.5 665.5t343 629.5t333 634.5t350.5 681.5q16 30 16 51q0 51 -72 51q-164 0 -258.5 -7.5t-161.5 -7.5q-36 0 -36 25q0 26 41 26q261 0 435 5t313 5q10 0 25.5 -5t15.5 -20q0 -16 -26 -39t-72 -110 q-409 -732 -744.5 -1379.5t-611.5 -1211.5q-16 -35 -13.5 -71t-38.5 -36q-66 0 -148 5t-169 5q-118 0 -235.5 -5t-199.5 -5q-31 0 -31 26z" />
<glyph unicode="^" d="M1044 1142q287 240 537.5 473t389.5 392l61 -10q-10 -77 -23 -202.5t-20.5 -258.5t-10 -253.5t2.5 -186.5l-102 -26q0 87 5 187t10 205t15.5 204.5t15.5 181.5q-123 -133 -325.5 -330t-432.5 -407z" />
<glyph unicode="_" horiz-adv-x="2560" d="M0 0h2560v-256h-2560v256z" />
<glyph unicode="`" horiz-adv-x="1177" d="M481 1956q0 20 20.5 48.5t30.5 28.5q16 0 21 -21q20 -51 51 -128t64 -156t61 -158.5t44 -141.5q0 -10 -8 -12.5t-18 7.5q-66 118 -132.5 246t-118.5 231q-15 30 -15 56z" />
<glyph unicode="a" horiz-adv-x="1459" d="M128 77q0 118 92 297t248.5 345.5t356 286.5t414.5 120q26 52 46.5 72.5t40.5 30.5l143 41l11 -5q-26 -26 -49 -64.5t-49 -79.5q26 0 77 -5t77 -10q26 -10 26 -26q0 -15 -16 -15q-30 10 -91.5 15t-92.5 5q-236 -414 -346 -657.5t-110 -360.5q0 -47 23 -77.5t95 -30.5 q82 0 194.5 59t240.5 164t264 243t258 292q11 15 21 7.5t10 -23.5q-118 -143 -258.5 -289t-284 -263.5t-284.5 -189.5t-258 -72q-103 0 -144 51.5t-41 128.5q0 71 43.5 191.5t130.5 258.5q-66 -87 -153 -184t-179 -176.5t-184.5 -133.5t-163.5 -54q-108 0 -108 108zM328 108 q0 -41 30 -41q31 0 95 40.5t146 110t166.5 161.5t156.5 200q82 122 158.5 260.5t138.5 245.5l-6 6q-174 0 -332.5 -123t-281.5 -289.5t-197 -330.5t-74 -240z" />
<glyph unicode="b" horiz-adv-x="1305" d="M302 174q0 82 36 200t89.5 238t110 230t92.5 177q138 256 296.5 522t335.5 527.5t374 504.5t417 448q61 56 156 133t202.5 146t217.5 115t202 46t141 -48.5t49 -120.5q0 -77 -5.5 -102.5t-20.5 -9.5q-25 25 -69 58.5t-151 33.5q-92 0 -169 -10.5t-156.5 -41t-166.5 -84.5 t-194 -146q-154 -128 -333 -376.5t-361 -542.5t-345.5 -599t-286.5 -545q-41 -82 -89.5 -192t-87 -220.5t-64 -205t-25.5 -140.5q0 -138 92 -138q56 0 127.5 53.5t138.5 153.5t113 246t46 330q0 62 -8 100t-18 64q0 31 31 61q20 21 51 49t56 44q16 0 21 -11 q0 -102 38.5 -171t97 -112.5t128 -64t130.5 -20.5q87 0 189.5 28t209.5 95q26 15 33.5 -3t-17.5 -28q-164 -87 -299.5 -128t-253.5 -41q-97 0 -176.5 43.5t-120.5 99.5q0 -194 -64 -353t-156 -269t-200 -171.5t-195 -61.5q-81 0 -135 51.5t-54 158.5z" />
<glyph unicode="c" horiz-adv-x="1095" d="M256 205q0 92 41 194q97 241 274 428t381 274q62 25 103 25q189 0 189 -148q0 -77 -36 -118q-30 -31 -102 -87l-15 5q15 41 15 87q0 51 -38.5 97.5t-120.5 46.5q-97 0 -186.5 -64t-159 -169t-110 -241t-40.5 -279q0 -108 58.5 -161.5t145.5 -53.5q144 0 387 166.5 t520 504.5q25 24 38 12q4 -4 4 -9q0 -11 -17 -29q-77 -97 -174 -197t-199.5 -189.5t-210 -161t-204.5 -112.5q-77 -31 -141 -44t-120 -13q-282 0 -282 236z" />
<glyph unicode="d" horiz-adv-x="1387" d="M107 108q0 46 25.5 120t71.5 146q190 307 423 501.5t576 256.5q245 430 470.5 773t491.5 670q220 277 438 487t448 317q174 82 302 82q62 0 100 -15.5t38 -40.5q0 -31 -30.5 -61.5t-40.5 -87.5q-11 -36 -36 -36q-16 0 -31 8t-38 18t-56.5 18t-94.5 8q-87 0 -174 -23 t-159 -69q-144 -93 -310 -262t-305 -368q-343 -492 -601.5 -919.5t-432.5 -765.5t-261 -576t-87 -350q0 -87 38.5 -143.5t125.5 -56.5q138 0 263.5 87t238 217.5t205 289.5t158.5 297q10 20 33 15t-2 -41q-92 -184 -197 -350.5t-220.5 -292t-240.5 -197t-248 -71.5 q-139 0 -205.5 74t-66.5 192q0 123 49 264t151 345q-143 -174 -250.5 -291.5t-189.5 -184t-141 -95t-105 -28.5q-72 0 -97.5 38.5t-25.5 100.5zM317 143q0 -25 20.5 -35.5t30.5 -10.5q36 0 130.5 77t210 207.5t238.5 304.5t215 369q-195 -5 -300 -74.5t-187 -171.5 q-194 -241 -276 -412.5t-82 -253.5z" />
<glyph unicode="e" horiz-adv-x="1049" d="M240 179q0 144 74 310t192 307t259 235.5t269 94.5q71 0 99.5 -25.5t28.5 -66.5q0 -61 -38.5 -133t-115.5 -136t-194.5 -107.5t-281.5 -43.5q-26 -46 -56.5 -145.5t-30.5 -202.5q0 -210 189 -210q118 0 243.5 56.5t243 141t217.5 184.5t167 187q10 10 22.5 5t12.5 -21 q-87 -107 -207 -222.5t-261 -210t-292 -153.5t-299 -59q-241 0 -241 215zM552 666q11 -6 36.5 -8.5t40.5 -2.5q149 0 261.5 105t112.5 249q0 66 -67 66q-51 0 -104.5 -38.5t-105 -99.5t-97.5 -133t-77 -138z" />
<glyph unicode="f" horiz-adv-x="1111" d="M-3353 -2673q0 41 10 36t21 -31q5 -35 41 -94t105 -115.5t171.5 -95t245.5 -38.5q230 6 499 85t566 279t622 535t673 847q185 272 366.5 581.5t353 614.5t322.5 586.5t274 491.5q-220 -16 -348 -31t-205 -48.5t-120.5 -97.5t-99.5 -177l-15 5q71 169 143 253.5t133 105.5 q41 10 110 20.5t148.5 15.5t156.5 10t133 5q256 471 494 873t494 786q138 210 297 407t322.5 348t325 240.5t309.5 89.5q103 0 179.5 -46t76.5 -107q0 -21 -7.5 -72t-15 -112.5t-15.5 -123t-8 -92.5q-10 -10 -25 -10q-10 0 -21 10q11 41 13.5 72t2.5 62q0 102 -84.5 158.5 t-238.5 56.5q-107 0 -222.5 -36t-235.5 -128t-251 -246t-269 -389q-77 -133 -189.5 -343t-240.5 -448t-256 -486.5t-235 -463.5q46 0 153.5 2.5t219.5 2.5h205h128q26 -15 16 -51h-103t-194.5 -2.5t-233 -5t-217.5 -2.5q-169 -328 -356 -658t-373.5 -637.5t-368.5 -571 t-336 -463.5q-384 -491 -729.5 -831.5t-657.5 -553t-586 -307.5t-520 -95q-72 0 -156.5 15.5t-163.5 61.5t-140.5 130.5t-92.5 222.5z" />
<glyph unicode="g" horiz-adv-x="1228" d="M-2826 -1930q0 61 10 130t26 110q5 21 20 21q16 0 16 -26q-11 -36 -21 -84.5t-10 -104.5q0 -179 77 -309.5t212.5 -215t320 -128t393.5 -43.5q221 0 443.5 71.5t442.5 238t432.5 432.5t417.5 655q133 246 281.5 522.5t287 530t248.5 455.5t161 295 q-102 -139 -199.5 -261.5t-182 -215t-161 -146t-138.5 -53.5q-46 0 -76.5 30.5t-30.5 97.5q0 76 64 217t169 294.5t238 292t271 204.5q123 62 246 62q36 0 56 -5q41 71 84.5 143t89.5 154q36 66 67 66q20 0 38 -46t18 -87q0 -46 -26 -92q-256 -476 -460.5 -842t-389 -676 t-363.5 -599.5t-379 -616.5q-164 -261 -356 -489t-425 -394.5t-506.5 -261t-601.5 -94.5q-241 0 -397 64t-245.5 171.5t-125.5 245.5t-36 287zM343 118q0 -57 31 -57t123 87.5t207 230.5t238 322.5t215 363.5q-15 5 -41 5h-35q-72 0 -136 -13t-110 -53 q-128 -108 -220.5 -241t-153.5 -261t-89.5 -233t-28.5 -151z" />
<glyph unicode="h" horiz-adv-x="1361" d="M107 36q0 25 15 56q215 389 420 734.5t415 678.5q246 384 509.5 783.5t540 727t560.5 535t571 207.5q72 0 148.5 -18t146 -59t113 -115t43.5 -192q0 -82 -8 -123t-15.5 -56t-15 -7.5t-7.5 17.5q0 36 -18 97.5t-72 120.5t-151 102.5t-251 43.5q-133 0 -274 -38.5 t-304.5 -148.5t-350.5 -304.5t-407 -504.5t-479 -753t-566 -1047q36 31 113 92.5t169 123t179 107.5t148 46q47 0 47 -36q0 -31 -47 -92q-40 -62 -107 -169.5t-131 -230t-110 -240.5t-46 -190q0 -82 41 -123t113 -41q118 0 333 154t491 522q10 11 21 11q10 0 10 -21 q-97 -138 -228 -276.5t-266.5 -251t-271 -181.5t-248.5 -69q-87 0 -138 48.5t-51 135.5q0 82 56 210t125.5 258.5t125.5 240.5t56 156q0 26 -15 26q-46 0 -166.5 -87t-299.5 -328q-72 -128 -148.5 -266t-133.5 -246q-41 -82 -76 -82q-26 0 -67 13t-41 49z" />
<glyph unicode="i" horiz-adv-x="926" d="M235 174q0 67 51 182t120.5 238t138.5 235.5t110 168.5q25 41 89 69.5t85 28.5q26 0 26 -16q0 -10 -8 -30.5t-18 -30.5q-67 -103 -136 -225.5t-125.5 -238t-89.5 -212.5t-33 -154q0 -61 33 -89t90 -28q102 0 225 69t243.5 166t222.5 205t159 184q26 26 28 13v-6 q0 -12 -8 -32q-123 -159 -281.5 -302.5t-291.5 -230.5q-103 -66 -210.5 -102t-194.5 -36q-30 0 -71 5t-74.5 25.5t-56.5 54t-23 89.5zM972 1690q0 66 49 127.5t120 61.5q67 0 67 -67q0 -61 -54 -122.5t-120 -61.5q-62 0 -62 62z" />
<glyph unicode="j" horiz-adv-x="998" d="M-1059 -1777q0 52 20 77q88 123 175 197.5t171.5 146t169 161t171.5 238.5q220 394 440 834t481 1009q21 51 21 71q0 47 -41 47q-11 0 -67 -15.5t-113 -20.5q-20 0 -20 15q0 21 26 31q112 20 186.5 40.5t123 38.5t76.5 31t54 13q51 0 51 -57q0 -30 -20 -71 q-87 -159 -161.5 -307.5t-146 -292t-148.5 -286.5t-169 -302q-87 -149 -243 -399.5t-325 -522.5q148 128 363 294.5t445.5 358.5t445.5 404.5t358 427.5q67 97 95 181.5t28 151.5q0 77 -30 112q-16 31 -5 31q10 0 30 -10q36 -26 51.5 -84.5t15.5 -120.5q0 -77 -28.5 -156 t-72 -148.5t-97 -131t-104.5 -107.5q-190 -179 -369 -330t-355.5 -297t-356 -294.5t-368.5 -317.5q-108 -92 -174.5 -174t-130.5 -169t-148.5 -184t-222.5 -225q-10 -11 -31 -11q-25 0 -38 49t-13 74zM902 1669q0 67 48.5 128.5t120.5 61.5q66 0 66 -67q0 -61 -53.5 -122.5 t-120.5 -61.5q-61 0 -61 61z" />
<glyph unicode="k" horiz-adv-x="1536" d="M133 87v21q0 10 5 20q51 72 107.5 177t141 256t207.5 361t302 496q82 133 187 289.5t220 317.5t235.5 317.5t232.5 284.5q82 92 177 186.5t197.5 174t212.5 141t222 86.5q52 11 100.5 21t94.5 10q41 0 89.5 -13t89.5 -36t69 -58.5t28 -86.5q0 -57 -28 -113t-38 -128 q0 -26 -18 -28.5t-18 23.5q0 15 5 28t5 28q0 62 -30.5 108t-79 74t-105 41t-107.5 13q-118 0 -294.5 -61.5t-381.5 -271.5q-190 -195 -371.5 -448.5t-345.5 -519.5q-102 -169 -230 -386.5t-246 -425t-210 -368.5t-118 -218q-20 -41 -15 -41q10 0 41 31q87 87 179 169 t200 179q-5 21 -5 67q0 41 64 79.5t99 48.5q11 0 11 -21q0 -15 5 -25q25 20 117.5 99.5t200 164t197 153.5t109.5 69q16 0 28.5 -12.5t28.5 -53.5q0 -31 -51 -46q-62 -21 -149 -72t-176.5 -117.5t-174 -133.5t-135.5 -113q5 -66 20 -148t35.5 -164t49 -161.5t58.5 -140.5 q26 -56 74.5 -82t100.5 -26q76 0 171 61.5t192 156.5t187 205t156 207q15 26 33 10.5t3 -30.5q-77 -103 -164 -205.5t-176.5 -194.5t-176.5 -163.5t-159 -112.5q-123 -62 -210 -62q-66 0 -117.5 31t-90 110.5t-71.5 217.5t-74 353q-164 -159 -328 -328t-276 -368 q-10 -26 -41 -26q-36 0 -56.5 43.5t-20.5 79.5z" />
<glyph unicode="l" horiz-adv-x="1039" d="M250 200q0 92 79.5 263.5t187 361t215 358.5t158.5 256q87 148 181.5 309.5t187 315t177 294.5t155.5 248q87 133 179.5 251t235.5 235q195 164 358.5 251t220.5 87q41 0 66.5 -23t25.5 -69q0 -71 -56.5 -209.5t-161.5 -320t-256 -389t-343 -412.5t-422.5 -392 t-491.5 -330q-46 -82 -128 -220t-161 -291.5t-138 -302t-59 -251.5q0 -164 148 -164q128 0 266.5 72t264 174t235.5 217.5t187 207.5q36 36 41 18t-16 -38q-92 -113 -217.5 -241t-266 -235.5t-294.5 -179t-307 -71.5q-133 0 -192 64t-59 156zM987 1352q307 174 576 422 t463.5 509.5t307 507t112.5 414.5q0 82 -66 82q-26 0 -56.5 -15.5t-79 -64t-118 -135.5t-176.5 -225q-41 -57 -115.5 -164.5t-189.5 -284t-276.5 -435t-381.5 -611.5z" />
<glyph unicode="m" horiz-adv-x="1802" d="M107 82q0 41 20 66q139 221 272 451t266 456q26 46 56 46q26 0 46.5 -28.5t20.5 -53.5q-36 -103 -123 -251t-154 -271q205 235 343.5 355.5t225.5 120.5q56 0 56 -77q0 -51 -46 -156t-82 -172q-10 -20 -2.5 -17.5t17.5 12.5q62 72 141.5 151.5t169 151t179 133 t166.5 97.5q77 0 77 -72q0 -15 -5.5 -30.5t-15.5 -36.5q-25 -56 -94.5 -184t-141 -274t-125.5 -281.5t-54 -207.5q0 -102 98 -102q92 0 194.5 61.5t204.5 148.5t189.5 181.5t148.5 166.5q21 32 41 26q8 -2 8 -12q0 -13 -18 -40q-72 -82 -172 -184t-212.5 -194.5t-233 -154 t-232.5 -61.5q-103 0 -144 41t-41 128q0 57 59 185t131 266t130.5 263.5t58.5 176.5q0 31 -25 31q-67 -36 -151.5 -105t-166.5 -151t-151 -159t-105 -128t-71.5 -122.5t-69 -138t-66.5 -113t-59 -46.5t-46 26t-20 51q0 16 15 54t56 95q67 92 120.5 194.5t92 189.5t59 148.5 t20.5 71.5q0 41 -20 41q-31 0 -105.5 -64t-161.5 -156.5t-171.5 -194.5t-140.5 -184q-72 -108 -123 -190t-77 -82q-41 0 -48.5 36t-7.5 72z" />
<glyph unicode="n" horiz-adv-x="1336" d="M138 113q0 46 64 125t141 177q82 164 169 345.5t148 324.5q16 26 46 26q31 0 56.5 -25.5t25.5 -56.5q0 -20 -74 -140.5t-146 -279.5q97 87 212.5 184.5t220.5 179.5t184 135.5t110 53.5q21 0 38.5 -23t17.5 -43q0 -21 -25 -62q-56 -82 -138 -210t-156.5 -263.5 t-125.5 -258.5t-51 -194q0 -62 25.5 -85t81.5 -23q87 0 205 66.5t243.5 166.5t238 223t184.5 235q11 16 31 8q9 -4 9 -12q0 -10 -15 -27q-92 -128 -212 -258.5t-256 -232.5t-276.5 -169t-274.5 -67q-61 0 -112 18t-51 90t51 182t120 233t143.5 251t120.5 235q10 26 2.5 44 t-33.5 2q-56 -36 -133 -97.5t-156.5 -130.5t-153.5 -140.5t-120 -127.5q-82 -128 -141 -236t-146 -241q-20 -30 -31 -30q-25 0 -43 56t-18 72z" />
<glyph unicode="o" horiz-adv-x="1280" d="M209 128q0 92 33.5 189.5t84.5 189.5t110 174t110 133q107 118 245.5 200t297.5 97q10 41 30.5 95t71.5 64q26 5 51.5 10t45.5 15q9 6 18 6q6 0 13 -3q15 -8 5 -28q-36 -57 -54 -144t-18 -189q0 -143 54 -235.5t187 -92.5t240.5 87t179.5 190q10 25 33 15q12 -5 12 -14 q0 -7 -9 -17q-87 -117 -212.5 -212t-284.5 -95q-87 0 -171.5 43.5t-135.5 130.5q-36 -82 -92.5 -187t-133 -209.5t-171.5 -192t-202 -143.5q-92 -41 -154 -41q-184 0 -184 164zM419 138q0 -36 13 -66.5t59 -30.5q87 0 189 97.5t194.5 228t156.5 263.5t74 205 q-10 46 -15 107.5t-5 117.5q0 25 -21 25q-56 0 -117.5 -38t-123 -102t-123 -146t-112.5 -169q-66 -114 -120 -244q-49 -119 -49 -228v-20z" />
<glyph unicode="p" horiz-adv-x="1126" d="M-1812 -2609q-1 3 -1 6q0 19 27 28q133 51 225 99.5t166.5 115t141 159t153.5 230.5q87 143 212.5 355.5t279 468.5t322.5 545.5t343 581.5q-31 10 -31 56q0 31 33.5 36t53.5 10l236 384q164 266 327.5 553t337.5 512q21 20 57 31q10 5 40.5 10t61.5 10t56.5 7.5 t30.5 2.5q15 0 15 -10q0 -15 -20 -36q-108 -97 -189.5 -186.5t-153.5 -174t-136 -171.5t-130 -190q51 57 112.5 118.5t123 112.5t123 84t112.5 33t84.5 -30.5t33.5 -102.5q0 -51 -44 -158.5t-148.5 -240.5t-279 -276.5t-435.5 -266.5q139 16 310.5 49t355.5 112.5t368.5 215 t348.5 350.5q5 11 17.5 8t12.5 -28q-271 -343 -580.5 -509.5t-647.5 -243.5q-118 -25 -205 -40.5t-174 -30.5q-149 -251 -282 -499.5t-266 -494.5q-195 -363 -353.5 -685.5t-342.5 -640.5q-36 -61 -97.5 -94.5t-143.5 -59t-189.5 -51t-235.5 -71.5q-13 -7 -21 -7 q-12 0 -15 14zM190 82q169 46 320 153.5t266 235.5t182 256t67 210q0 20 -8 51t-54 31q-25 0 -74 -28t-110.5 -77t-128 -120.5t-127.5 -158.5q-87 -123 -169 -264t-164 -289z" />
<glyph unicode="q" horiz-adv-x="1315" d="M-931 -2514q0 56 30.5 146t102.5 207q200 343 384 645.5t366 591.5t363.5 576t376.5 594q-72 -87 -182 -174t-228 -87q-128 0 -128 138q0 102 79.5 245.5t202.5 284.5t274 256t289 151q57 15 105.5 20t104.5 5q108 180 182 305.5t122.5 202t82 110t53.5 33.5q47 0 47 -46 q0 -6 -11 -26q-87 -164 -176.5 -304.5t-186.5 -284.5q138 -15 189 -107q16 -31 0.5 -44t-46.5 28q-36 41 -84.5 59t-89.5 23q-220 -312 -425 -624.5t-394 -619.5q-123 -200 -266.5 -435.5t-284 -489t-279 -514.5t-250.5 -517q-67 -148 -67 -235q0 -77 56 -77 q41 0 107.5 48.5t148.5 140.5q323 364 622.5 789t570.5 814q133 189 253.5 363.5t243.5 348.5t256 355.5t287 386.5q25 26 36 8q4 -7 4 -16q0 -12 -10 -28q-153 -200 -281 -381.5t-251 -353t-243.5 -348t-253.5 -366.5q-128 -184 -266 -383.5t-284 -404.5t-294.5 -397 t-297.5 -361q-163 -184 -311.5 -276.5t-240.5 -92.5q-108 0 -108 118zM318 102q0 -46 36 -46q46 0 128 56.5t174 163.5q103 123 236 315t297 453q-118 0 -210 -40q-92 -36 -205 -161.5t-215 -269t-171.5 -276.5t-69.5 -195z" />
<glyph unicode="r" horiz-adv-x="998" d="M107 56q0 31 36 92q82 144 166.5 290t158.5 274t130.5 222.5t76.5 140.5q26 46 36 46t51 -25.5t41 -71.5q0 -15 -18 -51t-41 -74.5t-43.5 -74.5t-30.5 -51q-15 -25 -5 -25t26 15q51 51 125 112.5t156 115t161.5 89.5t140.5 36q46 0 79.5 -23t33.5 -49q-31 -35 -64 -86.5 t-44 -76.5q-5 -16 -20 -16q-5 0 -15.5 15.5t-28 33.5t-48.5 33.5t-87 15.5q-67 0 -149 -46.5t-143 -102.5q-97 -82 -171.5 -179t-141 -202t-128 -215t-132.5 -223q-6 -15 -31 -15q-10 0 -43.5 30.5t-33.5 45.5z" />
<glyph unicode="s" horiz-adv-x="916" d="M-30 164q26 15 59 38t49 44q10 0 15 -21q25 -92 97 -158.5t169 -66.5q41 0 97.5 7.5t105 36t84.5 79.5t36 138q0 67 -26 123t-56 102q-31 52 -61.5 103t-30.5 112q0 62 43.5 133.5t110 130.5t145.5 100t156 41q82 0 82 -51q-15 -26 -30.5 -59t-25.5 -59q-15 -26 -26 -5 q-30 66 -128 66q-71 0 -143 -41t-72 -122q0 -41 25.5 -82t72.5 -108q40 -61 76 -122.5t36 -128.5q0 -133 -61.5 -217.5t-146 -135.5t-171.5 -69t-138 -18q-312 0 -343 210z" />
<glyph unicode="t" horiz-adv-x="1013" d="M266 189q0 103 92 302.5t272 491.5q-62 -5 -151.5 -12.5t-104.5 -7.5q-26 0 -26 20q20 36 66 72l262 5q46 77 102 171.5t112.5 189.5t115.5 184.5t105 166.5q56 25 156 66t177 67q10 0 15 -13t-15 -23q-41 -10 -92.5 -38.5t-76.5 -69.5q-118 -164 -228 -343t-213 -358 h635q16 -10 16 -21q0 -10 -11 -15q-41 0 -122.5 -2.5t-179 -7.5t-200 -10.5t-179.5 -10.5q-143 -256 -220 -435t-77 -312q0 -185 169 -185q82 0 187 43.5t223 115.5q15 16 30.5 -2t-10.5 -29q-174 -112 -322.5 -163.5t-301.5 -51.5q-82 0 -143.5 49t-61.5 166z" />
<glyph unicode="u" horiz-adv-x="1315" d="M204 133q0 41 18 102.5t66.5 166.5t133 261t217.5 387q26 51 46 51q36 0 74.5 -43.5t38.5 -59.5q0 -15 -31 -61q-82 -123 -153.5 -246t-125.5 -230.5t-87 -192t-33 -130.5q0 -77 56 -77q51 0 141 79.5t212 269.5q47 82 95.5 171.5t94.5 171.5t87 151t61 105q26 35 41 35 q21 0 46.5 -43.5t25.5 -104.5q0 -41 -20 -77q-62 -92 -131 -181.5t-128 -187t-100 -205t-41 -235.5q0 -112 108 -112q71 0 171 53.5t218 151t243 235.5t238 302q31 10 31 -26q-87 -122 -205 -258t-246 -248.5t-261 -187t-251 -74.5q-87 0 -135.5 46.5t-48.5 143.5 q0 46 13 105t43 130q-30 -35 -68.5 -84t-87.5 -92.5t-107.5 -71.5t-130.5 -28q-56 0 -92 33t-36 105z" />
<glyph unicode="v" horiz-adv-x="1105" d="M128 51q0 21 20 16q118 10 195 89.5t118 314.5q10 56 20.5 125.5t20.5 133.5t23 115t23 71q15 45 15 64q-1 7 -3 11q-8 13 -48 13l-148 -26q-22 9 -22 18q0 10 27 18q102 15 240.5 35.5t219.5 46.5q16 -11 6 -21q-21 -15 -46.5 -35.5t-40.5 -56.5q-26 -56 -44 -138 t-33.5 -159t-28 -141t-22.5 -89q-31 -87 -103 -169t-143 -139q-21 -35 5 -20q148 51 284 135.5t243.5 200t176.5 258.5t84 312q3 34 3 65q0 146 -64 196q-10 5 -5 11q3 3 12 2q9 0 24 -2q92 -12 143 -88q39 -59 40 -143q0 -25 -4 -51q-5 -97 -77 -212.5t-174 -230.5 t-227.5 -225t-246 -194.5t-223 -138.5t-158.5 -54z" />
<glyph unicode="w" horiz-adv-x="1930" d="M209 154q0 92 54 212t128 240.5t145.5 220.5t107.5 146q16 20 39 43t53 34q41 10 92.5 22.5t81.5 17.5q21 0 21 -15q0 -10 -28 -20.5t-74 -56.5q-77 -82 -151.5 -202t-136 -240.5t-97 -228t-35.5 -168.5q0 -31 20.5 -56.5t55.5 -25.5q26 0 105.5 25.5t212.5 112.5 q46 200 143.5 392t225.5 345q25 31 86.5 87.5t143.5 56.5q41 0 48.5 -28.5t7.5 -43.5q0 -26 -18 -97.5t-74 -171.5t-153.5 -220t-261.5 -253q0 -72 10.5 -143.5t41 -128t82 -92.5t133.5 -36q123 0 215 84.5t151 212.5t89.5 281.5t30.5 292.5q0 123 -13 199.5t-94 86.5 q-21 21 5 31q30 0 76.5 23t66.5 23q10 0 20.5 -12.5t43.5 -25.5t99.5 -26t189.5 -13q149 0 302.5 23t214.5 44q21 6 29 -10q1 -3 1 -6q0 -12 -30 -20q-66 -20 -166 -38t-205 -33.5t-199.5 -25.5t-151.5 -16q-25 -5 -32.5 -25.5t-7.5 -45.5q0 -138 -38.5 -284t-97.5 -276.5 t-130.5 -235.5t-143.5 -167q-87 -77 -171.5 -118t-202.5 -41q-133 0 -210 82t-77 215q0 57 11 108q-98 -56 -215.5 -112.5t-230.5 -56.5q-61 0 -99.5 38.5t-38.5 115.5zM951 328q205 164 292 325t87 269q0 10 -7.5 40.5t-38.5 30.5q-25 0 -71.5 -41t-95 -122.5t-94.5 -207 t-72 -294.5z" />
<glyph unicode="x" horiz-adv-x="1280" d="M-281 -589q0 307 233 586t683 541q16 51 31.5 112.5t28 120t20.5 105t8 66.5q0 72 -57 72q-41 0 -79.5 -10.5t-79.5 -25.5q-10 5 -7.5 15.5t7.5 20.5q41 15 97.5 35.5t113 36t105 28t68.5 12.5q57 0 57 -46q0 -15 -8 -38t-25.5 -71.5t-46 -133t-74.5 -223.5 q225 134 379 244t154 227q0 21 -5 31l10 10q25 -5 71.5 -28t46.5 -64q0 -46 -64 -102t-164 -117.5t-215.5 -123t-222.5 -123.5q-26 -102 -36 -207t-10 -151q0 -102 41 -148.5t153 -46.5q31 0 82.5 13t123 56.5t166 120.5t217.5 205q9 10 25 8q12 -2 12 -12q0 -3 -1 -7 q-261 -276 -460.5 -378.5t-348.5 -102.5q-102 0 -145.5 54t-43.5 166q0 51 23 158.5t43 195.5q-215 -128 -361 -251t-238 -246t-133 -256t-41 -282q0 -281 179.5 -473t496.5 -192q169 0 335.5 76.5t294.5 209.5q15 21 35.5 8t-5.5 -38q-189 -164 -383.5 -248.5t-430.5 -84.5 q-133 0 -250.5 38.5t-207 123t-143.5 217.5t-54 317z" />
<glyph unicode="y" horiz-adv-x="1162" d="M-1986 -1843q0 41 7.5 84.5t18.5 68.5q5 16 15 21t10 -15q0 -139 102.5 -251.5t363.5 -112.5q210 0 417.5 105t404.5 279t381.5 404.5t356 481.5t325 504.5t281.5 478.5q10 20 0 15t-15 -10q-57 -46 -154 -100t-200 -54q-71 0 -112 31t-41 92q0 103 125.5 305t304.5 479 q20 25 33 38t28 23q26 5 69.5 12.5t53.5 7.5q21 0 21 -15q-185 -322 -310.5 -524.5t-125.5 -315.5q0 -61 57 -61q25 0 66 15.5t87 41t87 53.5t62 54q46 46 135.5 217.5t217.5 401.5q61 113 115 190t90 77q20 -11 38 -52t18 -82q0 -20 -46 -94t-117.5 -174t-156 -212.5 t-161.5 -210.5q-184 -281 -371 -580.5t-376.5 -578.5t-389 -527.5t-412 -433t-440.5 -292t-479 -107.5q-148 0 -266 72t-118 251z" />
<glyph unicode="z" horiz-adv-x="1141" d="M-72 -20q-4 8 -4 16q0 20 30 35q235 112 445 242.5t366.5 246t248.5 195t92 89.5q0 20 -21 20q-20 -5 -61 -17.5t-84.5 -23t-87 -18t-69.5 -7.5q-66 0 -140.5 48.5t-74.5 171.5q11 41 67 97.5t138 107.5q21 0 21 -21q-46 -46 -46 -143q0 -87 58.5 -135.5t150.5 -48.5 q118 0 241 76.5t241 189.5q25 25 51 2t0 -53q-87 -62 -184.5 -138.5t-153.5 -128.5q-123 -107 -322.5 -255.5t-445.5 -312.5q-20 -10 -25.5 -23t25.5 -33q256 -169 507 -322.5t478.5 -271.5t422.5 -187t333 -69q230 0 414.5 125.5t312.5 360.5q20 16 31 -10 q-21 -102 -95 -197t-187 -169t-261.5 -120.5t-317.5 -46.5q-220 0 -440 61.5t-442.5 172t-453 261.5t-481.5 325q-21 10 -31 12.5t-36 -12.5q-41 -26 -74 -46.5t-79 -51.5q-18 -11 -32 -11q-16 0 -25 17z" />
<glyph unicode="{" horiz-adv-x="1356" d="M266 -189q0 122 100 293.5t217.5 348.5t217.5 335.5t100 255.5q0 72 -64 108t-126 36q-41 0 -87 -15.5t-97 -15.5q-20 0 -40.5 7.5t-20.5 33.5t28 44t54 18q35 0 66 -10.5t72 -10.5q123 0 220 72q133 97 217.5 215t161.5 251t159 276t210 292q87 102 184 140.5t215 54.5 q56 10 102 12.5t118 2.5q36 0 36 -26q0 -25 -31 -25q-15 0 -30.5 7.5t-51.5 7.5q-92 0 -169 -48.5t-189 -176.5q-154 -174 -269 -340.5t-220 -307.5t-220 -248.5t-274 -163.5q-21 -5 -21 -21q0 -5 11 -15q61 -31 89 -82t28 -112q0 -103 -79 -264t-174 -340.5t-174.5 -353.5 t-79.5 -302q0 -92 41 -156t144 -64q30 0 33 -20.5t-38 -20.5q-144 0 -256.5 89.5t-112.5 238.5z" />
<glyph unicode="|" horiz-adv-x="1136" d="M757 -1280v5120h154v-5120h-154z" />
<glyph unicode="}" horiz-adv-x="1356" d="M128 -507q0 15 31 21q153 25 276 117.5t241 240.5q133 164 220 325t181.5 317.5t220 302.5t330.5 274q21 15 21 25t-20.5 20.5t-46.5 31t-46 56.5t-20 97q0 107 71.5 240.5t161 269t161 268.5t71.5 246q0 133 -133 154q-41 10 -35.5 30.5t30.5 20.5q57 0 103 -36 t79 -89.5t51 -115t18 -113.5q0 -112 -74 -253t-166.5 -276.5t-166.5 -251t-74 -186.5q0 -51 51 -51q46 0 105 17.5t115 17.5q36 0 36 -41q0 -30 -18 -53t-49 -23q-71 0 -114.5 -8t-100.5 -44q-112 -71 -196.5 -201.5t-164 -289.5t-166.5 -328t-215 -317q-61 -72 -148.5 -146 t-187 -138t-204.5 -105t-202 -41q-26 0 -26 15z" />
<glyph unicode="~" d="M670 635q46 87 128 164t225 77q82 0 164 -31t161.5 -64t151 -64t122.5 -31q87 0 141 64t105 141l102 -103q-66 -87 -143 -163.5t-210 -76.5q-87 0 -158.5 30.5t-140.5 66.5t-143.5 66.5t-166.5 30.5t-148.5 -66.5t-87.5 -143.5z" />
<glyph unicode="&#xa1;" horiz-adv-x="1126" d="M40 -819.5q5 15.5 21 15.5q66 0 117 41q118 92 228 251t217.5 356t210 419.5t199.5 443.5q11 20 26 15t15 -26q-153 -440 -299 -793.5t-284 -619.5q-77 -159 -246 -159q-41 0 -100 10.5t-90 20.5q-20 10 -15 25.5zM1018 1060q0 72 51 125.5t118 53.5q97 0 97 -97 q0 -72 -35.5 -138.5t-117.5 -66.5q-57 0 -85 36t-28 87z" />
<glyph unicode="&#xa2;" horiz-adv-x="1879" d="M440 -691q0 36 107.5 274t368.5 734q-15 -5 -36 -5h-30q-52 0 -105.5 8t-99.5 33.5t-74.5 74t-28.5 125.5q0 184 115.5 427.5t299.5 463.5t419.5 371t481.5 151q57 92 115.5 181.5t110 166.5t92.5 133.5t61 76.5q36 21 36 -25q-21 -82 -97 -185q-67 -82 -128.5 -169 t-132.5 -184q71 -21 143 -72t82 -143q0 -36 -21 -41q-35 -15 -63.5 -48.5t-43.5 -59.5q-16 -20 -26 -20q-15 0 -15 36q-5 77 -51 133t-98 66q-199 -317 -414 -683t-395 -704q72 0 164 20.5t215 84.5t271.5 184.5t332.5 324.5q16 16 28.5 13.5t2.5 -28.5q-92 -138 -233 -261 t-289.5 -215t-291.5 -148.5t-246 -71.5q-230 -451 -337.5 -719.5t-107.5 -381.5q0 -15 5 -35.5t10 -31.5q0 -10 -10 -15t-20 10q-21 26 -44 72t-23 82zM788 645q0 -102 38.5 -153.5t140.5 -61.5q190 353 392 709t407 689q-66 15 -154 15q-168 0 -316.5 -140.5t-261.5 -332.5 t-179.5 -394.5t-66.5 -330.5z" />
<glyph unicode="&#xa3;" horiz-adv-x="2457" d="M-51 97q0 46 31 77q87 87 197 166.5t243 181.5q51 41 107.5 89.5t120.5 125.5t140.5 192t169.5 279q-149 -5 -225.5 -12.5t-117.5 -17.5q-21 0 -41.5 23t-20.5 28q0 15 36 15h164q107 0 225 5q72 123 138.5 235.5t127.5 199.5q195 277 415 438.5t517 161.5 q67 0 138.5 -18t71.5 -80q0 -36 -10 -51q-15 -26 -25.5 -64t-20.5 -74q-5 -26 -15.5 -28.5t-20.5 28.5q-10 41 -94.5 102.5t-238.5 61.5q-205 0 -350.5 -125.5t-289.5 -371.5q-56 -92 -115 -197t-125 -218q61 0 158.5 2.5t199.5 8t197 10.5t151 10q10 0 38.5 -18t28.5 -43 q0 -16 -52 -16q-76 0 -247.5 5t-494.5 5q-92 -148 -225 -314.5t-302 -325.5q-5 -5 -5 -15q0 -5 15 -5q61 10 110 15t100 5q194 0 363 -74t359 -223q118 -92 222.5 -135.5t191.5 -43.5q113 0 241 82t210 231q0 10 18 15t18 -26q-15 -41 -79 -120t-151.5 -156t-189.5 -136 t-195 -59q-51 0 -99.5 8t-110 38.5t-141 89.5t-191.5 156q-51 41 -110 95t-131 102.5t-161.5 81.5t-196.5 33q-87 0 -182 -48.5t-197 -186.5q-97 -128 -153.5 -197t-87.5 -69q-51 0 -51 66z" />
<glyph unicode="&#xa4;" horiz-adv-x="1991" d="M706 481l184 190q-184 225 -184 522t184 522l-184 190l128 128l184 -190q231 190 528 190q292 0 522 -190l184 190l128 -128l-184 -190q184 -215 184 -522t-184 -522l184 -190l-128 -128l-184 190q-230 -190 -522 -190q-297 0 -528 190l-184 -190zM860 1193 q0 -287 199 -497q200 -210 487 -210q281 0 481 210t200 497t-200 497t-481 210q-287 0 -487 -210q-199 -210 -199 -497z" />
<glyph unicode="&#xa5;" horiz-adv-x="2247" d="M281 41q0 31 56 31q144 0 197.5 2.5t74.5 7.5q30 10 56 38t61 75q87 117 174.5 271t158.5 287q16 30 13 43t-43 13q-77 0 -223 -13t-279 -33q-31 0 -31 15q15 21 51 39t72 23q46 0 112.5 5t135.5 7.5t128 5t95 2.5t51 36q26 41 59 107.5t33 87.5q0 15 -25 15 q-57 0 -131 -5t-140.5 -7.5t-115 -8t-59.5 -5.5q-41 0 -41 11q0 10 33.5 33t58.5 23h236t179 10q41 5 67 56q41 82 66.5 197.5t25.5 192.5q0 112 -20.5 214.5t-74.5 179.5t-146 123t-230 46q-133 0 -294.5 -72t-294.5 -256q-36 -36 -36 21q36 51 102.5 122.5t171.5 138 t243.5 115.5t322.5 49q225 0 340.5 -148.5t115.5 -363.5q0 -118 -43.5 -284.5t-110.5 -315.5q435 369 824 691.5t789 614.5q31 21 46 21q20 0 56 -33.5t36 -48.5q0 -21 -41 -41q-389 -231 -778 -520t-824 -648q-67 -41 -11 -41q57 0 126 2.5t133 8t115 8t72 2.5q30 0 30 -21 q-5 -10 -23 -25.5t-43 -15.5q-128 0 -248.5 -2.5t-227.5 -7.5q-41 0 -67 -46q-15 -31 -35.5 -74.5t-41.5 -84.5q-15 -35 11 -35q128 0 245.5 10t214.5 10q26 0 26 -26q0 -35 -41 -35h-225q-103 0 -231 -11q-41 0 -66 -46q-31 -51 -72 -128t-87 -161.5t-87 -163.5t-72 -136 q-10 -10 -17.5 -33t-7.5 -43q0 -31 25.5 -44t97.5 -13q51 0 107 5.5t87 5.5q36 0 36 -36q0 -31 -36 -31q-31 5 -82 7.5l-102 5t-97 2.5h-77q-159 0 -307.5 -5t-240.5 -10q-41 0 -41 41z" />
<glyph unicode="&#xa6;" horiz-adv-x="1136" d="M1064 -891v1787h154v-1787h-154zM1064 1664v1792h154v-1792h-154z" />
<glyph unicode="&#xa7;" horiz-adv-x="1541" d="M-87 113q0 87 18 184t38 138q5 10 18 23t13 -33q-10 -41 -18 -84.5t-8 -84.5q0 -215 166.5 -335.5t427.5 -120.5q113 0 218 31t184.5 90t125.5 143t46 192q0 36 -10 87q-21 97 -80 179t-125.5 159t-133 156t-107.5 167q-36 71 -36 153q0 41 15.5 102.5t54 128t105 133 t173.5 117.5q0 82 46.5 187t128 197.5t199.5 153.5t261 61q77 0 154 -30.5t77 -102.5q0 -30 -15.5 -68.5t-66.5 -120.5q-10 -21 -26 -21q-15 0 -15 16q5 15 5 25v26q0 56 -74.5 107.5t-176.5 51.5q-107 0 -181.5 -41t-120.5 -97.5t-69 -123t-23 -117.5q0 -103 41 -195 t133 -225q51 -72 125.5 -194.5t74.5 -276.5q0 -62 -31 -177t-184 -269q0 -122 -59 -250t-171.5 -230.5t-279 -169t-381.5 -66.5q-82 0 -164 25.5t-148.5 76.5t-105 133t-38.5 190zM799 1331q0 -36 2.5 -69t20.5 -74t53.5 -97.5t97.5 -143.5q77 -87 166.5 -212.5 t114.5 -278.5q139 123 139 297q0 56 -5.5 97t-26 84.5t-56 94.5t-92.5 128q-66 92 -107 153.5t-64 110t-30.5 87t-13.5 79.5q-46 -20 -122.5 -86.5t-76.5 -169.5z" />
<glyph unicode="&#xa8;" horiz-adv-x="1177" d="M296 1690q0 66 48.5 127.5t120.5 61.5q67 0 67 -67q0 -61 -54 -122.5t-121 -61.5q-61 0 -61 62zM665 1659q0 66 48.5 127.5t120.5 61.5q66 0 66 -66q0 -62 -53.5 -123.5t-120.5 -61.5q-61 0 -61 62z" />
<glyph unicode="&#xa9;" horiz-adv-x="3281" d="M640 804q0 230 89.5 494t279 486.5t486.5 368.5t712 146q537 0 793 -240.5t256 -706.5q0 -267 -99.5 -535.5t-299.5 -478.5t-494.5 -343t-678.5 -133q-225 0 -417 59t-330 176.5t-217.5 294t-79.5 412.5zM804 819q0 -235 71.5 -404t202 -282t310 -166.5t389.5 -53.5 q343 0 596.5 128t417 330t245.5 450.5t82 494.5q0 225 -46 399t-153.5 294.5t-279 182t-422.5 61.5q-358 0 -624.5 -118t-440.5 -315t-261 -455.5t-87 -545.5zM1208 829q0 210 66.5 412.5t192 363.5t305 258.5t409.5 97.5q256 0 376.5 -82t145.5 -282q-25 -41 -94 -64 t-105 -17q0 61 -15.5 125t-51.5 112.5t-97.5 82t-153.5 33.5q-184 0 -325 -87t-235.5 -230.5t-143 -320t-48.5 -355.5q0 -98 20.5 -195t71.5 -174t138 -125.5t220 -48.5q179 0 312.5 59t250.5 181l21 -97q-118 -133 -307.5 -199.5t-373.5 -66.5q-323 0 -451 174t-128 445z " />
<glyph unicode="&#xaa;" horiz-adv-x="1377" d="M399 1034q0 98 100 249t246 294t309.5 245.5t286.5 102.5q82 174 159 271q15 26 38 23.5t23 -38.5q0 -46 18 -64t18 -33q0 -5 -10 -26q-92 -133 -166.5 -281.5t-128 -286.5t-82 -256t-28.5 -195q0 -158 123 -158q46 0 105 23t118 58.5t112.5 79t84.5 79.5q10 16 33 5.5 t-18 -46.5q-51 -46 -125 -102t-156 -107.5t-169 -84.5t-164 -33q-138 0 -138 169q0 245 205 655q-77 -113 -172 -225.5t-189.5 -204.5t-184 -148.5t-161.5 -56.5q-87 0 -87 92zM635 1142q0 -51 40 -51q21 0 92.5 61t166.5 168.5t197.5 251t183.5 302.5q-122 0 -242.5 -89.5 t-218 -207.5t-158.5 -241t-61 -194z" />
<glyph unicode="&#xab;" horiz-adv-x="1715" d="M634 507q0 20 41 51q77 56 182 138t215 169t217.5 174t189.5 154q15 15 25 15q6 0 16 -10t10 -31q0 -15 -31 -35q-15 -6 -94.5 -67t-187 -145.5t-220 -172t-189.5 -148.5q-26 -20 -26 -51q0 -26 46.5 -174.5t153.5 -424.5q10 -31 10 -38.5t-15 -7.5q-26 -5 -74.5 -13 t-73.5 -18q-16 0 -26 41q-5 31 -25.5 102.5t-46 158.5t-51.5 176.5t-46 156.5zM1074 517q0 31 31 51q77 62 179.5 144t199.5 166.5t179 156t128 107.5q10 10 21 10q25 0 25 -31q0 -20 -15 -30q-159 -123 -284.5 -228t-273.5 -223q-31 -20 -31 -51q0 -16 15.5 -69.5t46 -133 t71.5 -182t87 -209.5q5 -10 5 -21q0 -20 -25 -25q-16 -5 -57 -20.5t-66 -30.5q-16 0 -21 25q-30 92 -68.5 194.5t-72 187t-54 143.5t-20.5 69z" />
<glyph unicode="&#xac;" d="M737 717l41 102q51 0 171.5 -5t258.5 -7.5t261 -5t174 2.5l21 -16q-57 -97 -108 -220t-77 -194l-122 5q25 61 71 153.5t87 174.5q-41 5 -140.5 7.5t-217.5 5t-236 2.5q-112 0 -184 -5z" />
<glyph unicode="&#xad;" horiz-adv-x="1617" d="M716 681q0 15 15.5 30.5t45.5 15.5q57 0 139 -2.5t169 -2.5q148 0 276 5t200 5q56 0 56 -36q0 -41 -66 -41h-154t-199.5 -2.5t-220.5 -2.5h-210q-51 0 -51 31z" />
<glyph unicode="&#xae;" d="M768 1449q0 138 56.5 304.5t174 310t304.5 240.5t453 97q666 0 666 -604q0 -169 -64 -340.5t-189.5 -304.5t-312.5 -217.5t-433 -84.5q-291 0 -473 148.5t-182 450.5zM860 1459q0 -302 174 -440t446 -138q220 0 381 81.5t266 209.5t156.5 289.5t51.5 315.5 q0 286 -125.5 440t-448.5 154q-230 0 -399 -74.5t-279 -200t-166.5 -292t-56.5 -345.5zM1055 1178q71 133 143 284t138.5 289t117.5 253.5t72 171.5h179q189 0 263.5 -33.5t74.5 -161.5q0 -97 -51.5 -156t-123 -94.5t-151 -48.5t-135.5 -13q82 -118 184.5 -261t179.5 -230 h-174q-72 117 -159 245t-190 256q-71 -143 -132.5 -281t-92.5 -220h-143zM1439 1705q215 0 343 64t128 218q0 76 -43.5 112t-156.5 36h-51q-62 -113 -115.5 -218t-104.5 -212z" />
<glyph unicode="&#xaf;" horiz-adv-x="1177" d="M399 1628l26 77l440 10l-15 -77z" />
<glyph unicode="&#xb0;" horiz-adv-x="1167" d="M1034 2084q0 41 18 92t56.5 94.5t94.5 74.5t138 31q210 0 210 -185q0 -107 -79.5 -199t-232.5 -92q-87 0 -146 46t-59 138zM1095 2094q0 -82 46.5 -123t117.5 -41q118 0 174.5 82t56.5 169q0 77 -33.5 120.5t-120.5 43.5q-128 0 -184.5 -77t-56.5 -174z" />
<glyph unicode="&#xb1;" d="M501 -5l61 102q52 -5 172 -7.5t263.5 -7.5t276.5 -5q138 0 215 5l-51 -97q-67 5 -195 7.5t-268.5 5t-273.5 2.5q-128 0 -200 -5zM829 599l46 97q46 -10 153.5 -20t225.5 -10q56 102 107 191.5t82 130.5l128 -15q-41 -46 -105 -135.5t-120 -177.5q128 0 235.5 3t163.5 13 l-61 -92q-67 -5 -159 -5h-220q-67 -118 -120.5 -233.5t-63.5 -186.5l-98 71q10 36 71.5 143.5t118.5 210.5q-87 0 -207.5 5t-176.5 10z" />
<glyph unicode="&#xb2;" horiz-adv-x="1280" d="M627 1257q-13 13 13 33q71 46 145.5 92t161.5 103q92 61 184 120t161.5 123t113 133t43.5 141q0 41 -33.5 102.5t-130.5 61.5q-62 0 -120.5 -31t-84.5 -56q-10 -11 -30.5 2t9.5 34q47 30 146.5 76t196.5 46q82 0 159 -40.5t77 -138.5q0 -66 -61.5 -140.5t-153.5 -148.5 t-202 -146t-208 -133q-20 -10 0 -21q52 -25 136.5 -56t174 -56.5t171.5 -43.5t128 -18q128 0 210 108q10 20 30.5 7.5t-5.5 -38.5q-112 -107 -235 -135.5t-200 -28.5q-82 0 -199.5 23t-353.5 121q-20 10 -36 10q-10 0 -20.5 -5t-20.5 -10q-36 -21 -69 -44t-59 -49 q-25 -10 -38 3z" />
<glyph unicode="&#xb3;" horiz-adv-x="1280" d="M778 1347q0 20 5 50.5t15 46.5h16q0 -62 43.5 -123t227.5 -61q51 0 107.5 12.5t105 40.5t79.5 77t31 120q0 26 -25.5 77t-61.5 103q-41 56 -41 97q0 46 51 79.5t169 94.5q102 51 102 133q0 67 -41 95t-92 28q-56 0 -133 -20.5t-154 -107.5q-15 5 -17.5 23t2.5 28 q15 16 53.5 39t79.5 43.5t77 38t56 28.5q41 10 77 12.5t62 2.5q46 0 120 -28t74 -115q0 -46 -36 -92.5t-92 -76.5q-87 -46 -143.5 -79.5t-56.5 -64.5q0 -25 20.5 -56t46.5 -67q26 -41 43.5 -79t17.5 -95q0 -56 -53.5 -122.5t-138 -123t-194.5 -95t-218 -38.5q-56 0 -120 44 t-64 131z" />
<glyph unicode="&#xb4;" horiz-adv-x="1177" d="M140.5 1390q-7.5 8 2.5 18q190 154 397 323t402 322q20 10 26 10q10 0 25.5 -17.5t15.5 -33.5q0 -10 -16 -25q-179 -139 -391.5 -292.5t-427.5 -296.5q-26 -16 -33.5 -8z" />
<glyph unicode="&#xb5;" d="M0 -1044q0 97 59 255.5t153.5 350.5t212.5 399.5t230 402.5q133 230 241 411.5t164 279.5q10 25 31 25q71 0 148 52q31 0 0 -47q-46 -61 -102.5 -145.5t-112.5 -176.5t-107.5 -189.5t-87.5 -189.5q-25 -67 -35.5 -115.5t-10.5 -89.5q0 -46 20.5 -76.5t77.5 -30.5 q76 0 173.5 76.5t207.5 210t222.5 312.5t220.5 389q5 25 41 25q20 0 58.5 13t79.5 34q10 0 18 -3t-2 -28q-57 -67 -139 -195t-158.5 -271t-130.5 -281.5t-54 -225.5q0 -72 72 -72q36 0 87 31t105 79.5t107.5 110t99.5 122.5q26 36 26 -20q-36 -51 -92.5 -120.5t-128 -130.5 t-151 -104.5t-161.5 -43.5q-76 0 -96.5 43.5t-20.5 84.5q0 40 17.5 107t53.5 138q11 21 0.5 23.5t-36.5 -23.5q-51 -56 -109.5 -122.5t-128 -120.5t-141 -89.5t-143.5 -35.5q-87 0 -115 46t-28 117q0 26 12.5 85t48.5 141q-112 -195 -217 -392t-187 -379t-128 -345.5 t-46 -291.5q0 -57 7.5 -123.5t28.5 -102.5q10 -15 2 -22.5t-23 2.5q-46 72 -128 108q-5 15 -5 51v77z" />
<glyph unicode="&#xb6;" horiz-adv-x="2560" d="M685 -1193q77 0 148.5 28t158.5 112.5t200 246t271 427.5l246 410l-425 -31q-97 0 -186.5 28t-161.5 82t-115.5 133.5t-43.5 186.5q0 241 123 417.5t322.5 294.5t455.5 176.5t528 58.5h292q56 103 104.5 208t58.5 171q57 26 113 103q15 -6 15 -26q0 -36 23.5 -89.5 t63.5 -156.5q16 -46 16 -87q0 -148 -374 -169l-1336 -2283q-51 -103 -51 -174q0 -26 20.5 -49t55.5 -23q21 0 21 -15q0 -16 -21 -16l-66 -5q-36 0 -72 33.5t-41 94.5q-46 -41 -140.5 -79.5t-171.5 -38.5q-36 0 -31 31zM1381 737q31 -36 67 -87t77 -158q66 46 148 97t149 56 q-113 -174 -156.5 -289t-43.5 -192q0 -62 97 -103l753 1270q-143 -15 -297 -166t-338 -494q-56 10 -97 66.5t-97 173.5q-21 -20 -41.5 -38t-48.5 -36t-69 -41t-103 -59zM2539 1377q230 0 230 108q0 41 -25.5 97t-51.5 102q-36 -76 -77 -160.5t-76 -146.5z" />
<glyph unicode="&#xb7;" horiz-adv-x="1126" d="M706 881q0 102 69 179t156 77q26 0 62 -18t36 -69q0 -26 -20.5 -69.5t-54 -84.5t-74.5 -69t-82 -28q-36 0 -64 20.5t-28 61.5z" />
<glyph unicode="&#xb8;" horiz-adv-x="1177" d="M281 -707q0 11 26 21q25 5 84 28t115.5 54t100 69t43.5 74q0 31 -26 51.5t-56.5 38.5t-56 38.5t-25.5 50.5q0 36 41 77t94.5 77t110 64t81.5 38q16 0 28.5 -5t-12.5 -20q-21 -5 -51.5 -20.5t-61.5 -33.5t-54 -43.5t-23 -46.5q0 -25 26 -40.5t56.5 -31t56 -38.5t25.5 -59 q0 -56 -66 -107q-77 -67 -184.5 -141t-194.5 -115q-21 -10 -36 -10q-10 0 -25.5 10t-15.5 20z" />
<glyph unicode="&#xb9;" horiz-adv-x="1280" d="M767 1259.5q-5 20.5 36 25.5q36 0 110 2.5t110 7.5t54 13t38 39q62 92 133.5 214.5t135.5 238t107.5 207.5t48.5 118q0 46 -46 46q-56 0 -143 -5t-144 -5q-25 0 -48 23t23 23q169 0 317.5 10t240.5 10q36 0 36 -31q0 -10 -16 -25q-35 -62 -112 -192.5t-154 -268.5 t-133 -248t-56 -126q0 -25 51 -25q56 0 148.5 5t133.5 5q25 -10 20 -35.5t-72 -25.5q-41 0 -125.5 2.5t-201.5 2.5q-154 0 -256.5 -15.5t-189.5 -20.5q-41 10 -46 30.5z" />
<glyph unicode="&#xba;" horiz-adv-x="1213" d="M522 1044q0 139 100 300t235.5 299.5t274 233t209.5 94.5q103 0 103 -143q0 -154 -72 -323t-184.5 -312t-243 -235.5t-253.5 -92.5q-169 0 -169 179zM717 1060q0 -128 76 -128q52 0 131 56t153.5 161t128 259t53.5 343q0 108 -46 108q-25 0 -104.5 -54t-166.5 -159 t-156 -253.5t-69 -332.5z" />
<glyph unicode="&#xbb;" horiz-adv-x="1848" d="M440 -128q0 15 31 41q148 113 324.5 261.5t325.5 286.5q41 31 41 61q0 21 -21 46q-46 72 -104.5 159t-110 169t-87 141t-35.5 74q0 21 25 31q26 5 64.5 15t53.5 10q25 0 46 -35q67 -118 146 -259t166 -259q11 -20 11 -30q0 -31 -21 -46q-174 -134 -376.5 -310.5 t-355.5 -340.5q-10 -10 -33 -25.5t-49 -15.5q-10 0 -25.5 8t-15.5 18zM957 -31q0 16 26 41q153 133 301.5 258.5t297.5 243.5q10 10 10 20q0 6 -10 26q-16 31 -64.5 115.5t-99.5 176.5t-89.5 169t-38.5 82q0 20 31 36q15 10 53.5 22.5t53.5 12.5q31 0 46 -40 q46 -123 118 -251t143 -231q21 -30 21 -56q0 -21 -16 -31q-76 -56 -171 -130.5t-192 -153.5t-189.5 -161t-163.5 -154q-21 -20 -41 -20q-26 0 -26 25z" />
<glyph unicode="&#xbc;" horiz-adv-x="3072" d="M512 -297q307 323 637.5 671t658 698.5t637.5 686t581 632.5q26 31 77 31q25 0 48 -5t23 -21q-286 -281 -601 -606.5t-637.5 -668.5t-640 -696t-609.5 -691q-41 -41 -66.5 -49t-61.5 -8q-46 0 -46 26zM768 1259.5q-5 20.5 36 25.5q36 0 110 2.5t110 7.5t54 13t38 39 q62 92 133.5 214.5t135.5 238t107.5 207.5t48.5 118q0 46 -46 46q-56 0 -143 -5t-144 -5q-25 0 -48 23t23 23q169 0 317.5 10t240.5 10q36 0 36 -31q0 -10 -16 -25q-36 -62 -112.5 -192.5t-153.5 -268.5t-133 -248t-56 -126q0 -25 51 -25q56 0 148 5t133 5q26 -10 21 -35.5 t-72 -25.5q-41 0 -125.5 2.5t-201.5 2.5q-154 0 -256.5 -15.5t-189.5 -20.5q-41 10 -46 30.5zM1731 282q0 15 2.5 48.5t7.5 53.5q0 20 31 20q25 6 50.5 11t56.5 20q128 57 248.5 126t222.5 140q108 77 108 200q0 15 -5.5 38.5t-15.5 38.5q0 26 54 54t100 33q10 0 20 -10.5 t10 -50.5q0 -41 -38 -125.5t-177 -182.5q-87 -56 -209.5 -130t-240.5 -141q-10 -10 -10 -21q0 -5 15 -5q87 5 215 5h230q31 47 67 100.5t69 99.5t59 79.5t41 48.5q56 56 153.5 112.5t153.5 82.5q41 0 10 -21q-71 -41 -127.5 -89.5t-117.5 -135.5q-31 -41 -74.5 -115 t-94.5 -162q87 0 166 -2.5t110 -12.5q31 -5 31 -41q0 -15 -18 -56t-54 -82q-15 0 -15 15q5 11 15 39t-10 38q-51 10 -123 18t-143 8q-103 -169 -131 -241t-28 -107q0 -41 15 -62q-20 -20 -41 -5q-15 36 -35.5 64t-30.5 43q-21 31 -21 62q0 20 31 74t102 167q-30 0 -107 -3 t-169 -10.5t-187 -17.5t-156 -26q-15 0 -15 16z" />
<glyph unicode="&#xbd;" horiz-adv-x="3072" d="M512 -297q307 323 637.5 671t658 698.5t637.5 686t581 632.5q26 31 77 31q25 0 48 -5t23 -21q-286 -281 -601 -606.5t-637.5 -668.5t-640 -696t-609.5 -691q-41 -41 -66.5 -49t-61.5 -8q-46 0 -46 26zM768 1259.5q-5 20.5 36 25.5q36 0 110 2.5t110 7.5t54 13t38 39 q62 92 133.5 214.5t135.5 238t107.5 207.5t48.5 118q0 46 -46 46q-56 0 -143 -5t-144 -5q-25 0 -48 23t23 23q169 0 317.5 10t240.5 10q36 0 36 -31q0 -10 -16 -25q-36 -62 -112.5 -192.5t-153.5 -268.5t-133 -248t-56 -126q0 -25 51 -25q56 0 148 5t133 5q26 -10 21 -35.5 t-72 -25.5q-41 0 -125.5 2.5t-201.5 2.5q-154 0 -256.5 -15.5t-189.5 -20.5q-41 10 -46 30.5zM1625.5 28q-12.5 13 12.5 33q72 47 146.5 93t161.5 102q92 61 184 120t161 123t112.5 133t43.5 141q0 41 -33 102.5t-130 61.5q-62 0 -121 -30.5t-84 -56.5q-11 -10 -31 2.5 t10 33.5q46 30 146 76.5t197 46.5q82 0 159 -41t77 -139q0 -66 -61.5 -140.5t-153.5 -148.5t-202.5 -145.5t-207.5 -133.5q-20 -10 0 -20q51 -26 135.5 -56.5t174.5 -56.5t171.5 -43.5t127.5 -17.5q128 0 210 107q11 21 31.5 8t-5.5 -39q-113 -107 -235.5 -135t-199.5 -28 q-82 0 -200 23t-353 120q-21 10 -36 10q-10 0 -20.5 -5t-20.5 -10q-36 -21 -69 -44t-59 -48q-26 -11 -38.5 2z" />
<glyph unicode="&#xbe;" horiz-adv-x="3072" d="M512 -297q307 323 637.5 671t658 698.5t637.5 686t581 632.5q26 31 77 31q25 0 48 -5t23 -21q-286 -281 -601 -606.5t-637.5 -668.5t-640 -696t-609.5 -691q-41 -41 -66.5 -49t-61.5 -8q-46 0 -46 26zM778 1347q0 20 5 50.5t16 46.5h15q0 -62 43.5 -123t227.5 -61 q52 0 108 12.5t105 40.5t79.5 77t30.5 120q0 26 -25.5 77t-61.5 103q-41 56 -41 97q0 46 51 79.5t169 94.5q103 51 103 133q0 67 -41 95t-93 28q-56 0 -132.5 -20.5t-153.5 -107.5q-16 5 -18.5 23t2.5 28q16 16 54.5 39t79 43.5t76.5 38t57 28.5q41 10 76.5 12.5t61.5 2.5 q46 0 120 -28t74 -115q0 -46 -35.5 -92.5t-92.5 -76.5q-87 -46 -143 -79.5t-56 -64.5q0 -25 20.5 -56t45.5 -67q26 -41 44 -79t18 -95q0 -56 -54 -122.5t-138.5 -123t-194.5 -95t-217 -38.5q-57 0 -121 44t-64 131zM1731 282q0 15 2.5 48.5t7.5 53.5q0 20 31 20 q25 6 50.5 11t56.5 20q128 57 248.5 126t222.5 140q108 77 108 200q0 15 -5.5 38.5t-15.5 38.5q0 26 54 54t100 33q10 0 20 -10.5t10 -50.5q0 -41 -38 -125.5t-177 -182.5q-87 -56 -209.5 -130t-240.5 -141q-10 -10 -10 -21q0 -5 15 -5q87 5 215 5h230q31 47 67 100.5 t69 99.5t59 79.5t41 48.5q56 56 153.5 112.5t153.5 82.5q41 0 10 -21q-71 -41 -127.5 -89.5t-117.5 -135.5q-31 -41 -74.5 -115t-94.5 -162q87 0 166 -2.5t110 -12.5q31 -5 31 -41q0 -15 -18 -56t-54 -82q-15 0 -15 15q5 11 15 39t-10 38q-51 10 -123 18t-143 8 q-103 -169 -131 -241t-28 -107q0 -41 15 -62q-20 -20 -41 -5q-15 36 -35.5 64t-30.5 43q-21 31 -21 62q0 20 31 74t102 167q-30 0 -107 -3t-169 -10.5t-187 -17.5t-156 -26q-15 0 -15 16z" />
<glyph unicode="&#xbf;" horiz-adv-x="1331" d="M-97 -707q0 47 13 113.5t61.5 151t143 184t258.5 222.5q138 103 248.5 174.5t187 128t120 105t43.5 104.5q0 72 -28 123t-84 102q-47 36 5 36q25 -5 56 -7.5t97 7.5q62 -41 77 -99.5t15 -125.5q0 -41 -23 -74.5t-48 -53.5q-41 -41 -107.5 -89.5t-169.5 -120.5 q-143 -97 -268.5 -184t-217.5 -176.5t-143.5 -187t-51.5 -220.5q0 -138 72 -217.5t266 -135.5q87 -26 136 -46.5t69.5 -41t15 -38.5t-20.5 -38q-41 -56 -95 -115t-74 -44q15 31 23 54t-10 48.5t-72 51t-161 56.5q-154 46 -243.5 125.5t-89.5 227.5zM1183 1085q0 16 23 39 t54 43.5t64 33t54 12.5q20 0 63.5 -35.5t43.5 -71.5q0 -56 -36 -110t-164 -110q-35 0 -35 36q0 66 -33.5 99.5t-33.5 63.5z" />
<glyph unicode="&#xc0;" horiz-adv-x="2718" d="M-61 -154q5 93 69 167t172 176q983 917 1587 1447t773 648q41 25 123 45.5t112 51.5q31 31 33.5 7.5t-7.5 -43.5q-51 -77 -82 -177t-41 -166q-5 -21 -28 -136t-53.5 -281.5t-64 -358.5t-64 -368.5t-48.5 -317.5t-23 -197q0 -87 17.5 -135.5t43.5 -71.5t51.5 -28.5 t40.5 -5.5q26 0 61.5 8t76.5 18t44 -5t-38 -26q-21 -5 -74.5 -20.5t-123 -36t-138.5 -38t-120 -28.5q-77 0 -103 103q6 31 21 130.5t33 212t33.5 212.5t15.5 131q0 56 -54 115t-156 85q-36 10 -138.5 15t-245.5 5q-149 0 -292 2.5t-215 12.5q-389 -353 -652.5 -645 t-397.5 -486q-40 -67 -58 -120.5t-29 -140.5q-10 -31 -30 -16zM1260 1096q5 -31 66.5 -46.5t146 -20.5t176.5 -5h154q164 0 266 -2.5t143 -12.5q51 -16 59 -13.5t18 38.5q21 103 51.5 277l61 348t54 304.5t28.5 151.5q10 41 -0.5 43.5t-51.5 -28.5q-15 -10 -86.5 -69 t-181.5 -151t-241 -202.5t-256 -220.5t-232.5 -212.5t-174.5 -178.5zM2432 3031q0 21 20.5 49t31.5 28q15 0 20 -21q21 -51 51.5 -127.5t64 -156t61.5 -159t43 -140.5q0 -11 -7.5 -13.5t-17.5 8.5q-67 117 -133.5 245t-117.5 231q-16 30 -16 56z" />
<glyph unicode="&#xc1;" horiz-adv-x="2718" d="M-61 -154q5 93 69 167t172 176q983 917 1587 1447t773 648q41 25 123 45.5t112 51.5q31 31 33.5 7.5t-7.5 -43.5q-51 -77 -82 -177t-41 -166q-5 -21 -28 -136t-53.5 -281.5t-64 -358.5t-64 -368.5t-48.5 -317.5t-23 -197q0 -87 17.5 -135.5t43.5 -71.5t51.5 -28.5 t40.5 -5.5q26 0 61.5 8t76.5 18t44 -5t-38 -26q-21 -5 -74.5 -20.5t-123 -36t-138.5 -38t-120 -28.5q-77 0 -103 103q6 31 21 130.5t33 212t33.5 212.5t15.5 131q0 56 -54 115t-156 85q-36 10 -138.5 15t-245.5 5q-149 0 -292 2.5t-215 12.5q-389 -353 -652.5 -645 t-397.5 -486q-40 -67 -58 -120.5t-29 -140.5q-10 -31 -30 -16zM1260 1096q5 -31 66.5 -46.5t146 -20.5t176.5 -5h154q164 0 266 -2.5t143 -12.5q51 -16 59 -13.5t18 38.5q21 103 51.5 277l61 348t54 304.5t28.5 151.5q10 41 -0.5 43.5t-51.5 -28.5q-15 -10 -86.5 -69 t-181.5 -151t-241 -202.5t-256 -220.5t-232.5 -212.5t-174.5 -178.5zM2465.5 2465.5q-7.5 7.5 2.5 17.5q190 154 397 323t402 322q20 11 26 11q10 0 25.5 -18t15.5 -34q0 -10 -16 -25q-179 -138 -391.5 -292t-427.5 -297q-26 -15 -33.5 -7.5z" />
<glyph unicode="&#xc2;" horiz-adv-x="2718" d="M-61 -154q5 93 69 167t172 176q983 917 1587 1447t773 648q41 25 123 45.5t112 51.5q31 31 33.5 7.5t-7.5 -43.5q-51 -77 -82 -177t-41 -166q-5 -21 -28 -136t-53.5 -281.5t-64 -358.5t-64 -368.5t-48.5 -317.5t-23 -197q0 -87 17.5 -135.5t43.5 -71.5t51.5 -28.5 t40.5 -5.5q26 0 61.5 8t76.5 18t44 -5t-38 -26q-21 -5 -74.5 -20.5t-123 -36t-138.5 -38t-120 -28.5q-77 0 -103 103q6 31 21 130.5t33 212t33.5 212.5t15.5 131q0 56 -54 115t-156 85q-36 10 -138.5 15t-245.5 5q-149 0 -292 2.5t-215 12.5q-389 -353 -652.5 -645 t-397.5 -486q-40 -67 -58 -120.5t-29 -140.5q-10 -31 -30 -16zM1260 1096q5 -31 66.5 -46.5t146 -20.5t176.5 -5h154q164 0 266 -2.5t143 -12.5q51 -16 59 -13.5t18 38.5q21 103 51.5 277l61 348t54 304.5t28.5 151.5q10 41 -0.5 43.5t-51.5 -28.5q-15 -10 -86.5 -69 t-181.5 -151t-241 -202.5t-256 -220.5t-232.5 -212.5t-174.5 -178.5zM2371 2529q0 31 46 67q87 77 189.5 174t189.5 184q41 41 82 79.5t82 64.5q20 10 25 10q21 0 21 -26q5 -143 15 -276t10 -220q0 -62 -20 -77q-15 -10 -41 -36t-41 -26t-15 36q0 103 -5.5 231t-10.5 230 q0 31 -20 31q-10 0 -26 -16q-97 -87 -202 -194.5t-192 -204.5q-46 -56 -67 -56q-20 0 -20 25z" />
<glyph unicode="&#xc3;" horiz-adv-x="2718" d="M-61 -154q5 93 69 167t172 176q983 917 1587 1447t773 648q41 25 123 45.5t112 51.5q31 31 33.5 7.5t-7.5 -43.5q-51 -77 -82 -177t-41 -166q-5 -21 -28 -136t-53.5 -281.5t-64 -358.5t-64 -368.5t-48.5 -317.5t-23 -197q0 -87 17.5 -135.5t43.5 -71.5t51.5 -28.5 t40.5 -5.5q26 0 61.5 8t76.5 18t44 -5t-38 -26q-21 -5 -74.5 -20.5t-123 -36t-138.5 -38t-120 -28.5q-77 0 -103 103q6 31 21 130.5t33 212t33.5 212.5t15.5 131q0 56 -54 115t-156 85q-36 10 -138.5 15t-245.5 5q-149 0 -292 2.5t-215 12.5q-389 -353 -652.5 -645 t-397.5 -486q-40 -67 -58 -120.5t-29 -140.5q-10 -31 -30 -16zM1260 1096q5 -31 66.5 -46.5t146 -20.5t176.5 -5h154q164 0 266 -2.5t143 -12.5q51 -16 59 -13.5t18 38.5q21 103 51.5 277l61 348t54 304.5t28.5 151.5q10 41 -0.5 43.5t-51.5 -28.5q-15 -10 -86.5 -69 t-181.5 -151t-241 -202.5t-256 -220.5t-232.5 -212.5t-174.5 -178.5zM2243 2555q-20 10 15 56q41 57 118 128.5t149 127.5q66 51 133 51q56 0 110 -46t107.5 -99.5t112.5 -99.5t125 -46q87 0 141 71.5t54 153.5q0 25 23 38t23 -38q-15 -118 -102 -218t-205 -100 q-72 0 -133.5 43.5t-115 97.5t-105 97.5t-107.5 43.5q-41 0 -84.5 -25.5t-84.5 -64t-74 -77t-54 -69.5q-26 -35 -46 -25z" />
<glyph unicode="&#xc4;" horiz-adv-x="2718" d="M-61 -154q5 93 69 167t172 176q983 917 1587 1447t773 648q41 25 123 45.5t112 51.5q31 31 33.5 7.5t-7.5 -43.5q-51 -77 -82 -177t-41 -166q-5 -21 -28 -136t-53.5 -281.5t-64 -358.5t-64 -368.5t-48.5 -317.5t-23 -197q0 -87 17.5 -135.5t43.5 -71.5t51.5 -28.5 t40.5 -5.5q26 0 61.5 8t76.5 18t44 -5t-38 -26q-21 -5 -74.5 -20.5t-123 -36t-138.5 -38t-120 -28.5q-77 0 -103 103q6 31 21 130.5t33 212t33.5 212.5t15.5 131q0 56 -54 115t-156 85q-36 10 -138.5 15t-245.5 5q-149 0 -292 2.5t-215 12.5q-389 -353 -652.5 -645 t-397.5 -486q-40 -67 -58 -120.5t-29 -140.5q-10 -31 -30 -16zM1260 1096q5 -31 66.5 -46.5t146 -20.5t176.5 -5h154q164 0 266 -2.5t143 -12.5q51 -16 59 -13.5t18 38.5q21 103 51.5 277l61 348t54 304.5t28.5 151.5q10 41 -0.5 43.5t-51.5 -28.5q-15 -10 -86.5 -69 t-181.5 -151t-241 -202.5t-256 -220.5t-232.5 -212.5t-174.5 -178.5zM2540 2714q0 66 48.5 127.5t120.5 61.5q66 0 66 -67q0 -61 -53.5 -122.5t-120.5 -61.5q-61 0 -61 62zM2909 2683q0 66 48.5 127.5t120.5 61.5q66 0 66 -66q0 -62 -53.5 -123.5t-120.5 -61.5q-61 0 -61 62 z" />
<glyph unicode="&#xc5;" horiz-adv-x="2718" d="M-61 -154q5 93 69 167t172 176q983 917 1587 1447t773 648q41 25 123 45.5t112 51.5q31 31 33.5 7.5t-7.5 -43.5q-51 -77 -82 -177t-41 -166q-5 -21 -28 -136t-53.5 -281.5t-64 -358.5t-64 -368.5t-48.5 -317.5t-23 -197q0 -87 17.5 -135.5t43.5 -71.5t51.5 -28.5 t40.5 -5.5q26 0 61.5 8t76.5 18t44 -5t-38 -26q-21 -5 -74.5 -20.5t-123 -36t-138.5 -38t-120 -28.5q-77 0 -103 103q6 31 21 130.5t33 212t33.5 212.5t15.5 131q0 56 -54 115t-156 85q-36 10 -138.5 15t-245.5 5q-149 0 -292 2.5t-215 12.5q-389 -353 -652.5 -645 t-397.5 -486q-40 -67 -58 -120.5t-29 -140.5q-10 -31 -30 -16zM1260 1096q5 -31 66.5 -46.5t146 -20.5t176.5 -5h154q164 0 266 -2.5t143 -12.5q51 -16 59 -13.5t18 38.5q21 103 51.5 277l61 348t54 304.5t28.5 151.5q10 41 -0.5 43.5t-51.5 -28.5q-15 -10 -86.5 -69 t-181.5 -151t-241 -202.5t-256 -220.5t-232.5 -212.5t-174.5 -178.5zM2535 2749q0 52 20.5 110.5t64 112.5t112.5 90t166 36q251 0 251 -221q0 -128 -94.5 -238t-273.5 -110q-108 0 -177 56.5t-69 163.5zM2607 2760q0 -92 56 -146t138 -54q72 0 123 28t84.5 74t51.5 100 t18 105q0 87 -41 143.5t-144 56.5q-148 0 -217 -95t-69 -212z" />
<glyph unicode="&#xc6;" horiz-adv-x="3978" d="M-61 -123q0 36 10 89.5t10 89.5q0 31 5.5 49t30.5 49q26 25 95 84t215 169t386.5 276.5t599.5 407.5q-16 25 -16 66q0 26 36 36t154 10q210 138 440 284t435 274t353.5 220.5t194.5 122.5q15 11 15 26t-30 15h-164q-87 0 -179 -5t-182 -12.5t-156 -18.5q-51 -10 -67 -30 q-15 -16 -25 -16q-11 0 -5 16q10 25 15 53.5t10 48.5q10 31 56 31h62q153 0 368.5 -5t537.5 -5q87 0 192 2.5t210 7.5t202.5 10t173.5 5q67 5 139 5h148q51 0 87 -5t36 -20q0 -16 -15 -41q-16 -21 -28.5 -46.5t-23.5 -51.5q-10 -20 -22.5 -22.5t-23.5 28.5q-10 25 -46 35 q-158 26 -345 36.5t-366 10.5q-82 0 -123 -52q-62 -82 -133.5 -194.5t-148.5 -238t-148.5 -253.5t-133.5 -235q118 0 277 5t315 10t299.5 15.5t230.5 15.5q-31 -41 -41 -82q-5 -31 -46 -31h-5q-134 5 -259 7.5t-259 2.5q-138 0 -273.5 -2.5t-273.5 -2.5 q-93 -164 -182.5 -332.5t-166.5 -348.5q-51 -107 -51 -204q0 -241 359 -241q87 0 256 12.5t371 51t409.5 105t366.5 174.5q10 5 30.5 2.5t-15.5 -38.5q-67 -61 -108 -123q-35 -66 -148 -92q-261 -56 -537.5 -94.5t-537.5 -48.5q-236 0 -384.5 7.5t-230.5 30.5t-112.5 61.5 t-30.5 104.5q0 41 18 92.5t43 102.5q103 195 215.5 387t225.5 386h-287t-307.5 -5t-297 -10t-255.5 -16q-113 -71 -282 -189t-350.5 -258.5t-358.5 -291.5t-305 -300q-20 -26 -56 -82t-46 -97q-10 -26 -26 -26q-20 0 -20 36zM1552 1198q179 -10 450.5 -12.5t563.5 -2.5 q138 245 266 465.5t256 481.5q-456 -251 -852.5 -494t-683.5 -438z" />
<glyph unicode="&#xc7;" horiz-adv-x="2641" d="M563 548q0 194 74 399t192 394.5t264 353.5t294 276q185 144 410 228.5t471 84.5q184 0 376 -38.5t356 -136.5q41 -20 41 -61q-36 -61 -92 -192t-92 -233l-46 -15q10 25 17.5 79t7.5 95q0 77 -25.5 158.5t-94.5 148.5t-184.5 107.5t-299.5 40.5q-148 0 -276 -58.5 t-241 -140.5q-128 -92 -289.5 -271.5t-304.5 -402t-238 -471t-95 -483.5q0 -128 46 -210t120.5 -128t171.5 -64t200 -18q430 0 783.5 227.5t670.5 663.5q15 20 26 20q20 0 20 -72q0 -41 -13 -69t-28 -53q-235 -354 -622 -556t-847 -202q-149 0 -284.5 28t-240.5 97 t-166.5 184.5t-61.5 289.5zM911 -732q0 10 26 20q25 5 84 28.5t115.5 54t100 69t43.5 74.5q0 30 -25.5 50.5t-56.5 38.5t-56.5 38.5t-25.5 51.5q0 36 41 77t94.5 76.5t110 64t82.5 38.5q15 0 28 -5t-13 -21q-20 -5 -51 -20.5t-61.5 -33t-53.5 -43.5t-23 -46q0 -26 25.5 -41 t56 -30.5t56 -38.5t25.5 -59q0 -56 -66 -108q-77 -66 -184.5 -140.5t-194.5 -115.5q-21 -10 -36 -10q-10 0 -25.5 10.5t-15.5 20.5z" />
<glyph unicode="&#xc8;" horiz-adv-x="2432" d="M471 169q0 92 56 195q21 35 92.5 158t148.5 258.5t138.5 246t61.5 115.5q0 15 -15.5 20t-71.5 5q-26 0 -26 16q0 36 61 46q118 15 175 123q20 36 89 158.5t143.5 263.5t133 256t58.5 136q0 20 -30 20q-154 0 -307.5 -10t-271.5 -41l-10 5q10 87 41 118 q159 -10 335.5 -15.5t335.5 -5.5q56 0 194 5.5t309.5 10.5t346 10t297.5 5q30 0 30 -25q-10 -26 -40.5 -80t-56.5 -110l-21 5q0 31 -12.5 56.5t-27.5 30.5q-159 26 -343.5 36t-368.5 10q-82 0 -123 -51q-138 -184 -279 -417t-264 -453q-20 -46 31 -46q72 -5 143 -5h149 q235 0 412 12.5t356 53.5l15 -15q-10 -21 -25.5 -51.5t-25.5 -56.5q-5 -20 -41 -20q-133 5 -289 7.5t-315 2.5h-231q-107 0 -204 -5q-41 0 -57 -31q-87 -153 -176.5 -322t-155.5 -328q-52 -118 -52 -210q0 -241 364 -241q128 0 315 20.5t381.5 64t371 105t278.5 138.5 q21 10 21 -20q-31 -26 -59 -64.5t-49 -69.5q-35 -66 -143 -92q-128 -30 -276.5 -53.5t-302 -43.5t-302 -30.5t-281.5 -10.5q-195 0 -318 13t-192 41t-94.5 66.5t-25.5 89.5zM1966 2980q0 20 20.5 48.5t30.5 28.5q16 0 21 -21q20 -51 51 -128t64 -156t61.5 -158.5 t43.5 -141.5q0 -10 -7.5 -12.5t-18.5 7.5q-66 118 -132.5 246t-118.5 231q-15 30 -15 56z" />
<glyph unicode="&#xc9;" horiz-adv-x="2432" d="M471 169q0 92 56 195q21 35 92.5 158t148.5 258.5t138.5 246t61.5 115.5q0 15 -15.5 20t-71.5 5q-26 0 -26 16q0 36 61 46q118 15 175 123q20 36 89 158.5t143.5 263.5t133 256t58.5 136q0 20 -30 20q-154 0 -307.5 -10t-271.5 -41l-10 5q10 87 41 118 q159 -10 335.5 -15.5t335.5 -5.5q56 0 194 5.5t309.5 10.5t346 10t297.5 5q30 0 30 -25q-10 -26 -40.5 -80t-56.5 -110l-21 5q0 31 -12.5 56.5t-27.5 30.5q-159 26 -343.5 36t-368.5 10q-82 0 -123 -51q-138 -184 -279 -417t-264 -453q-20 -46 31 -46q72 -5 143 -5h149 q235 0 412 12.5t356 53.5l15 -15q-10 -21 -25.5 -51.5t-25.5 -56.5q-5 -20 -41 -20q-133 5 -289 7.5t-315 2.5h-231q-107 0 -204 -5q-41 0 -57 -31q-87 -153 -176.5 -322t-155.5 -328q-52 -118 -52 -210q0 -241 364 -241q128 0 315 20.5t381.5 64t371 105t278.5 138.5 q21 10 21 -20q-31 -26 -59 -64.5t-49 -69.5q-35 -66 -143 -92q-128 -30 -276.5 -53.5t-302 -43.5t-302 -30.5t-281.5 -10.5q-195 0 -318 13t-192 41t-94.5 66.5t-25.5 89.5zM1968.5 2465.5q-7.5 7.5 2.5 17.5q190 154 397 323t402 322q20 11 25 11q11 0 26 -18t15 -34 q0 -10 -15 -25q-179 -138 -391.5 -292t-427.5 -297q-26 -15 -33.5 -7.5z" />
<glyph unicode="&#xca;" horiz-adv-x="2432" d="M471 169q0 92 56 195q21 35 92.5 158t148.5 258.5t138.5 246t61.5 115.5q0 15 -15.5 20t-71.5 5q-26 0 -26 16q0 36 61 46q118 15 175 123q20 36 89 158.5t143.5 263.5t133 256t58.5 136q0 20 -30 20q-154 0 -307.5 -10t-271.5 -41l-10 5q10 87 41 118 q159 -10 335.5 -15.5t335.5 -5.5q56 0 194 5.5t309.5 10.5t346 10t297.5 5q30 0 30 -25q-10 -26 -40.5 -80t-56.5 -110l-21 5q0 31 -12.5 56.5t-27.5 30.5q-159 26 -343.5 36t-368.5 10q-82 0 -123 -51q-138 -184 -279 -417t-264 -453q-20 -46 31 -46q72 -5 143 -5h149 q235 0 412 12.5t356 53.5l15 -15q-10 -21 -25.5 -51.5t-25.5 -56.5q-5 -20 -41 -20q-133 5 -289 7.5t-315 2.5h-231q-107 0 -204 -5q-41 0 -57 -31q-87 -153 -176.5 -322t-155.5 -328q-52 -118 -52 -210q0 -241 364 -241q128 0 315 20.5t381.5 64t371 105t278.5 138.5 q21 10 21 -20q-31 -26 -59 -64.5t-49 -69.5q-35 -66 -143 -92q-128 -30 -276.5 -53.5t-302 -43.5t-302 -30.5t-281.5 -10.5q-195 0 -318 13t-192 41t-94.5 66.5t-25.5 89.5zM1879 2529q0 31 46 67q87 77 189.5 174t189.5 184q41 41 82 79.5t82 64.5q20 10 25 10q21 0 21 -26 q5 -143 15 -276t10 -220q0 -62 -20 -77q-15 -10 -41 -36t-41 -26t-15 36q0 103 -5.5 231t-10.5 230q0 31 -20 31q-10 0 -26 -16q-97 -87 -202 -194.5t-192 -204.5q-46 -56 -67 -56q-20 0 -20 25z" />
<glyph unicode="&#xcb;" horiz-adv-x="2432" d="M471 169q0 92 56 195q21 35 92.5 158t148.5 258.5t138.5 246t61.5 115.5q0 15 -15.5 20t-71.5 5q-26 0 -26 16q0 36 61 46q118 15 175 123q20 36 89 158.5t143.5 263.5t133 256t58.5 136q0 20 -30 20q-154 0 -307.5 -10t-271.5 -41l-10 5q10 87 41 118 q159 -10 335.5 -15.5t335.5 -5.5q56 0 194 5.5t309.5 10.5t346 10t297.5 5q30 0 30 -25q-10 -26 -40.5 -80t-56.5 -110l-21 5q0 31 -12.5 56.5t-27.5 30.5q-159 26 -343.5 36t-368.5 10q-82 0 -123 -51q-138 -184 -279 -417t-264 -453q-20 -46 31 -46q72 -5 143 -5h149 q235 0 412 12.5t356 53.5l15 -15q-10 -21 -25.5 -51.5t-25.5 -56.5q-5 -20 -41 -20q-133 5 -289 7.5t-315 2.5h-231q-107 0 -204 -5q-41 0 -57 -31q-87 -153 -176.5 -322t-155.5 -328q-52 -118 -52 -210q0 -241 364 -241q128 0 315 20.5t381.5 64t371 105t278.5 138.5 q21 10 21 -20q-31 -26 -59 -64.5t-49 -69.5q-35 -66 -143 -92q-128 -30 -276.5 -53.5t-302 -43.5t-302 -30.5t-281.5 -10.5q-195 0 -318 13t-192 41t-94.5 66.5t-25.5 89.5zM1879 2714q0 66 48.5 127.5t120.5 61.5q67 0 67 -67q0 -61 -54 -122.5t-121 -61.5q-61 0 -61 62z M2248 2683q0 66 48.5 127.5t120.5 61.5q66 0 66 -66q0 -62 -53.5 -123.5t-120.5 -61.5q-61 0 -61 62z" />
<glyph unicode="&#xcc;" horiz-adv-x="1254" d="M184 15q41 5 79.5 31t63.5 56q62 77 167 225.5t225 333t248 389t241 396.5t197.5 356t114.5 266q11 31 11 57q0 56 -139 56q-61 0 -138 -5t-143 -20l-16 5q11 41 31 61q215 10 422.5 23t355.5 39q26 -16 26 -41q0 -11 -31 -21q-41 -10 -66.5 -46t-51.5 -82 q-107 -200 -242.5 -445.5t-289.5 -509t-315 -525t-310 -486.5q-41 -56 -92 -87t-97 -41q-56 -10 -123 -12.5t-118 2.5q-10 5 -10 25zM1490 3031q0 21 20.5 49t30.5 28q15 0 20 -21q21 -51 51.5 -127.5t64 -156t61.5 -159t43 -140.5q0 -11 -7.5 -13.5t-17.5 8.5 q-67 117 -133.5 245t-117.5 231q-15 30 -15 56z" />
<glyph unicode="&#xcd;" horiz-adv-x="1254" d="M184 15q41 5 79.5 31t63.5 56q62 77 167 225.5t225 333t248 389t241 396.5t197.5 356t114.5 266q11 31 11 57q0 56 -139 56q-61 0 -138 -5t-143 -20l-16 5q11 41 31 61q215 10 422.5 23t355.5 39q26 -16 26 -41q0 -11 -31 -21q-41 -10 -66.5 -46t-51.5 -82 q-107 -200 -242.5 -445.5t-289.5 -509t-315 -525t-310 -486.5q-41 -56 -92 -87t-97 -41q-56 -10 -123 -12.5t-118 2.5q-10 5 -10 25zM1553.5 2465.5q-7.5 7.5 2.5 17.5q190 154 397 323t402 322q20 11 25 11q11 0 26 -18t15 -34q0 -10 -15 -25q-179 -138 -391.5 -292 t-427.5 -297q-26 -15 -33.5 -7.5z" />
<glyph unicode="&#xce;" horiz-adv-x="1254" d="M184 15q41 5 79.5 31t63.5 56q62 77 167 225.5t225 333t248 389t241 396.5t197.5 356t114.5 266q11 31 11 57q0 56 -139 56q-61 0 -138 -5t-143 -20l-16 5q11 41 31 61q215 10 422.5 23t355.5 39q26 -16 26 -41q0 -11 -31 -21q-41 -10 -66.5 -46t-51.5 -82 q-107 -200 -242.5 -445.5t-289.5 -509t-315 -525t-310 -486.5q-41 -56 -92 -87t-97 -41q-56 -10 -123 -12.5t-118 2.5q-10 5 -10 25zM1469 2529q0 31 46 67q87 77 189.5 174t189.5 184q41 41 82 79.5t82 64.5q20 10 26 10q20 0 20 -26q5 -143 15.5 -276t10.5 -220 q0 -62 -21 -77q-15 -10 -40.5 -36t-41.5 -26q-15 0 -15 36q0 103 -5 231t-11 230q0 31 -20 31q-10 0 -26 -16q-97 -87 -202 -194.5t-192 -204.5q-46 -56 -66 -56q-21 0 -21 25z" />
<glyph unicode="&#xcf;" horiz-adv-x="1254" d="M184 15q41 5 79.5 31t63.5 56q62 77 167 225.5t225 333t248 389t241 396.5t197.5 356t114.5 266q11 31 11 57q0 56 -139 56q-61 0 -138 -5t-143 -20l-16 5q11 41 31 61q215 10 422.5 23t355.5 39q26 -16 26 -41q0 -11 -31 -21q-41 -10 -66.5 -46t-51.5 -82 q-107 -200 -242.5 -445.5t-289.5 -509t-315 -525t-310 -486.5q-41 -56 -92 -87t-97 -41q-56 -10 -123 -12.5t-118 2.5q-10 5 -10 25zM1582 2714q0 66 48.5 127.5t120.5 61.5q66 0 66 -67q0 -61 -53.5 -122.5t-120.5 -61.5q-61 0 -61 62zM1950 2683q0 66 49 127.5t120 61.5 q67 0 67 -66q0 -62 -54 -123.5t-120 -61.5q-62 0 -62 62z" />
<glyph unicode="&#xd0;" horiz-adv-x="2882" d="M332 15q0 31 64 92.5t136 194.5q15 31 61 107.5t107.5 184t138.5 238.5t153 269q-20 0 -58.5 -2.5t-82 -8t-84.5 -8t-56 -2.5q-82 0 -82 87q0 11 10 11q10 -6 79.5 -11t110.5 -5t102 2.5t97 2.5q103 174 197.5 343t169 305t120.5 225.5t46 104.5q0 16 -15.5 21t-25.5 5 q-164 0 -335.5 -33.5t-304.5 -33.5q-87 0 -87 82q0 10 5 38.5t20 28.5q11 0 77.5 -28.5t137.5 -28.5q180 0 423 18t560 18q185 0 379.5 -23t350.5 -97t258.5 -215t102.5 -371q0 -210 -79.5 -425t-210 -404.5t-304.5 -340.5t-363 -238q-195 -87 -400 -123t-414 -36 q-200 0 -323 23t-197 54t-115 54t-82 23q-36 0 -74.5 -18t-77 -38.5t-69 -38.5t-46.5 -18h-5q-15 0 -15 15zM767 236q0 -21 36 -62t107.5 -79.5t176.5 -66.5t243 -28q185 0 359 41t322 113q185 87 338.5 243t268.5 348t179 402t64 409q0 185 -82 305t-207 194.5t-284 102.5 t-312 28q-72 0 -103 -10t-56 -51q-133 -205 -276.5 -448t-286.5 -499q148 5 273.5 7.5t222.5 2.5q113 0 128 -5q26 0 26 -46q0 -41 -21 -41q-25 20 -158 20h-226q-128 0 -286 -10q-123 -220 -233 -427.5t-192 -376.5q-21 -41 -21 -66z" />
<glyph unicode="&#xd1;" horiz-adv-x="2810" d="M409 148q0 52 33.5 118.5t68.5 122.5q62 108 182 310t336 561q117 194 224.5 393.5t153.5 317.5q21 51 21 87q0 57 -33.5 82.5t-89.5 25.5q-61 0 -138 -2.5t-133 -7.5q-21 0 -33.5 23t-12.5 48q0 21 15 21q51 -16 125.5 -23.5t145.5 -7.5q98 0 195 15.5t159 35.5 q35 0 41 -46q10 -41 28 -120.5t33 -135.5q41 -154 107.5 -346t141 -396.5t148.5 -404t130 -363.5q11 -41 21 -66.5t36 -25.5q15 0 33 28t33 59q118 240 243.5 491t253.5 496.5t258.5 476t258.5 430.5q31 51 74.5 107.5t97 102.5t112.5 76.5t126 30.5q35 0 89 -33t69 -74 q0 -10 -15 -10q-62 0 -123 -15.5t-130.5 -56.5t-143.5 -118t-161 -194q-246 -338 -481.5 -778.5t-435.5 -885.5q-56 -133 -115 -271.5t-115 -251.5q-15 -35 -31 -35q-20 0 -46 35q-61 215 -145.5 471t-174 507t-171.5 471.5t-139 353.5q-30 66 -56 66t-66 -61 q-128 -200 -238.5 -374t-202.5 -340.5t-174 -325t-153 -322.5q-21 -46 -39 -107.5t-33.5 -130.5t-25.5 -138.5t-10 -120.5h-15q-11 5 -28.5 36t-38 64t-33.5 69t-13 56zM2011.5 2555q-20.5 10 15.5 56q41 57 117.5 128.5t148.5 127.5q67 51 133 51q57 0 110.5 -46 t107.5 -99.5t112.5 -99.5t125.5 -46q87 0 141 71.5t54 153.5q0 25 23 38t23 -38q-16 -118 -103 -218t-205 -100q-71 0 -132.5 43.5t-115.5 97.5t-105 97.5t-107 43.5q-41 0 -84.5 -25.5t-84.5 -64t-74.5 -77t-53.5 -69.5q-26 -35 -46.5 -25z" />
<glyph unicode="&#xd2;" horiz-adv-x="3015" d="M614 620q0 163 59 345t151 356t210 327.5t230 256.5q220 199 496.5 291.5t568.5 92.5q159 0 325.5 -31t302 -105t222.5 -199.5t82 -320.5q-5 -317 -148.5 -619t-376.5 -537.5t-540 -379t-640 -143.5q-200 0 -371.5 30.5t-297 107.5t-199.5 205t-74 323zM860 568 q0 -164 48.5 -274t135.5 -174t207.5 -92t263.5 -28q302 0 571 158.5t473.5 402t325 538t120.5 570.5q0 159 -51 269t-138 179t-210 102.5t-272 33.5q-271 0 -486 -105t-394 -310q-98 -107 -203 -261t-192 -328t-143 -350.5t-56 -330.5zM2206 3082q0 21 20.5 49t31.5 28 q15 0 20 -20q20 -52 51 -128.5t64 -156t61.5 -159t43.5 -140.5q0 -10 -7.5 -12.5t-17.5 7.5q-67 118 -133.5 246t-117.5 230q-16 31 -16 56z" />
<glyph unicode="&#xd3;" horiz-adv-x="3015" d="M614 620q0 163 59 345t151 356t210 327.5t230 256.5q220 199 496.5 291.5t568.5 92.5q159 0 325.5 -31t302 -105t222.5 -199.5t82 -320.5q-5 -317 -148.5 -619t-376.5 -537.5t-540 -379t-640 -143.5q-200 0 -371.5 30.5t-297 107.5t-199.5 205t-74 323zM860 568 q0 -164 48.5 -274t135.5 -174t207.5 -92t263.5 -28q302 0 571 158.5t473.5 402t325 538t120.5 570.5q0 159 -51 269t-138 179t-210 102.5t-272 33.5q-271 0 -486 -105t-394 -310q-98 -107 -203 -261t-192 -328t-143 -350.5t-56 -330.5zM2306 2516.5q-8 7.5 3 17.5 q189 154 396.5 323t401.5 323q21 10 26 10q10 0 25.5 -18t15.5 -33q0 -11 -15 -26q-180 -138 -392.5 -291.5t-427.5 -297.5q-25 -15 -33 -7.5z" />
<glyph unicode="&#xd4;" horiz-adv-x="3015" d="M614 620q0 163 59 345t151 356t210 327.5t230 256.5q220 199 496.5 291.5t568.5 92.5q159 0 325.5 -31t302 -105t222.5 -199.5t82 -320.5q-5 -317 -148.5 -619t-376.5 -537.5t-540 -379t-640 -143.5q-200 0 -371.5 30.5t-297 107.5t-199.5 205t-74 323zM860 568 q0 -164 48.5 -274t135.5 -174t207.5 -92t263.5 -28q302 0 571 158.5t473.5 402t325 538t120.5 570.5q0 159 -51 269t-138 179t-210 102.5t-272 33.5q-271 0 -486 -105t-394 -310q-98 -107 -203 -261t-192 -328t-143 -350.5t-56 -330.5zM2242 2580q0 31 46 67 q87 77 189.5 174t189.5 184q41 41 82 79.5t82 64.5q20 10 26 10q20 0 20 -26q5 -143 15.5 -276t10.5 -220q0 -62 -21 -77q-15 -10 -40.5 -35.5t-41.5 -25.5q-15 0 -15 35q0 103 -5 231t-10 230q0 31 -21 31q-10 0 -26 -15q-97 -87 -202 -195t-192 -205q-46 -56 -66 -56 q-21 0 -21 25z" />
<glyph unicode="&#xd5;" horiz-adv-x="3015" d="M614 620q0 163 59 345t151 356t210 327.5t230 256.5q220 199 496.5 291.5t568.5 92.5q159 0 325.5 -31t302 -105t222.5 -199.5t82 -320.5q-5 -317 -148.5 -619t-376.5 -537.5t-540 -379t-640 -143.5q-200 0 -371.5 30.5t-297 107.5t-199.5 205t-74 323zM860 568 q0 -164 48.5 -274t135.5 -174t207.5 -92t263.5 -28q302 0 571 158.5t473.5 402t325 538t120.5 570.5q0 159 -51 269t-138 179t-210 102.5t-272 33.5q-271 0 -486 -105t-394 -310q-98 -107 -203 -261t-192 -328t-143 -350.5t-56 -330.5zM2042.5 2555q-20.5 10 15.5 56 q41 57 117.5 128.5t148.5 127.5q67 51 133 51q57 0 110.5 -46t107.5 -99.5t112.5 -99.5t125.5 -46q87 0 140.5 71.5t53.5 153.5q0 25 23.5 38t23.5 -38q-16 -118 -103 -218t-205 -100q-71 0 -132.5 43.5t-115.5 97.5t-105 97.5t-107 43.5q-41 0 -84.5 -25.5t-84.5 -64 t-74.5 -77t-53.5 -69.5q-26 -35 -46.5 -25z" />
<glyph unicode="&#xd6;" horiz-adv-x="3015" d="M614 620q0 163 59 345t151 356t210 327.5t230 256.5q220 199 496.5 291.5t568.5 92.5q159 0 325.5 -31t302 -105t222.5 -199.5t82 -320.5q-5 -317 -148.5 -619t-376.5 -537.5t-540 -379t-640 -143.5q-200 0 -371.5 30.5t-297 107.5t-199.5 205t-74 323zM860 568 q0 -164 48.5 -274t135.5 -174t207.5 -92t263.5 -28q302 0 571 158.5t473.5 402t325 538t120.5 570.5q0 159 -51 269t-138 179t-210 102.5t-272 33.5q-271 0 -486 -105t-394 -310q-98 -107 -203 -261t-192 -328t-143 -350.5t-56 -330.5zM2350 2714q0 66 48.5 127.5 t120.5 61.5q66 0 66 -67q0 -61 -53.5 -122.5t-120.5 -61.5q-61 0 -61 62zM2718 2683q0 66 49 127.5t120 61.5q67 0 67 -66q0 -62 -54 -123.5t-120 -61.5q-62 0 -62 62z" />
<glyph unicode="&#xd7;" d="M593 200q31 25 89.5 68.5t128 92.5t141 97.5t127.5 84.5q-15 56 -30.5 168.5t-15.5 194.5l113 21v-185q0 -92 10 -148q72 56 202.5 145.5t248.5 166.5l102 -61q-36 -16 -97.5 -51.5t-133 -81.5t-151 -97.5t-155.5 -102.5q10 -51 38 -166.5t64 -181.5l-108 -31 q-15 56 -38 151t-33 177q-21 -16 -69.5 -51.5t-110 -81.5t-125.5 -97.5t-115 -97.5z" />
<glyph unicode="&#xd8;" horiz-adv-x="3015" d="M555.5 -143.5q-38.5 30.5 53.5 112.5l200 174q-92 77 -143.5 195t-51.5 282q0 163 59 345t151 356t210 327.5t231 256.5q220 199 496.5 291.5t567.5 92.5q164 0 333 -31t307 -108l210 205q26 21 51.5 31t43.5 5t15.5 -23t-43.5 -59l-215 -200q107 -76 171 -194t59 -282 q-5 -317 -148.5 -619t-376 -537.5t-540 -379t-640.5 -143.5q-199 0 -373 30.5t-308 117.5q-56 -56 -107 -104.5t-108 -105.5q-66 -66 -104.5 -35.5zM860 568q0 -194 72 -312q414 384 882.5 814t1062.5 988q-87 103 -227.5 149t-314.5 46q-272 0 -487 -105t-394 -310 q-97 -107 -202 -261t-192 -328t-143.5 -350.5t-56.5 -330.5zM968 195q87 -108 227.5 -151.5t319.5 -43.5q302 0 571 158.5t474 402t325 538t120 570.5q0 200 -87 333q-302 -271 -563 -509.5t-496.5 -456t-453 -422t-437.5 -419.5z" />
<glyph unicode="&#xd9;" horiz-adv-x="3159" d="M593 369q0 153 102 343q77 143 184.5 314.5t220.5 350.5t220.5 353.5t188.5 322.5q21 41 21 62q0 46 -77 46q-36 0 -100 -2.5t-135 -2.5q-36 0 -67 2.5t-56 2.5q-41 0 -43.5 30.5t38.5 30.5q51 0 166 -7.5t243 -7.5q123 0 205 7.5t135.5 15t94.5 13t77 5.5q26 0 26 -21 q0 -15 -31 -25q-41 -11 -87 -23.5t-87 -58.5q-102 -128 -209.5 -284.5t-212.5 -322.5t-207.5 -337.5t-189.5 -330.5q-128 -225 -128 -420q0 -164 102.5 -261t306.5 -97q215 0 425 81.5t402 220t353.5 315t284.5 360.5q71 108 150.5 251.5t156.5 286.5t143.5 271t112.5 205 q36 57 74.5 95t104.5 64q16 5 62 18t94.5 25.5t92 23t58.5 10.5q26 0 31 -25.5t-20 -25.5q-26 -6 -54 -21t-54 -41q-107 -133 -214.5 -286.5t-207.5 -312.5t-192 -317.5t-164 -307.5q-36 -66 -79.5 -158t-82 -189.5t-64 -195t-25.5 -178.5q0 -108 51 -172t169 -64 q72 0 143.5 20.5t135.5 46t107.5 48.5t48.5 23q26 0 31 -20.5t-20 -30.5q-149 -67 -305 -115.5t-320 -48.5q-338 0 -338 261q0 82 33.5 169t71.5 161.5t69 128t31 64.5q0 10 -5 12.5t-11 -7.5q-199 -226 -404 -374.5t-394.5 -235.5t-353 -122.5t-281.5 -35.5 q-97 0 -194.5 23t-177 74t-128 133t-48.5 195zM2528 3031q0 21 20.5 49t31.5 28q15 0 20 -21q21 -51 51.5 -127.5t64 -156t61.5 -159t43 -140.5q0 -11 -7.5 -13.5t-17.5 8.5q-67 117 -133.5 245t-117.5 231q-16 30 -16 56z" />
<glyph unicode="&#xda;" horiz-adv-x="3159" d="M593 369q0 153 102 343q77 143 184.5 314.5t220.5 350.5t220.5 353.5t188.5 322.5q21 41 21 62q0 46 -77 46q-36 0 -100 -2.5t-135 -2.5q-36 0 -67 2.5t-56 2.5q-41 0 -43.5 30.5t38.5 30.5q51 0 166 -7.5t243 -7.5q123 0 205 7.5t135.5 15t94.5 13t77 5.5q26 0 26 -21 q0 -15 -31 -25q-41 -11 -87 -23.5t-87 -58.5q-102 -128 -209.5 -284.5t-212.5 -322.5t-207.5 -337.5t-189.5 -330.5q-128 -225 -128 -420q0 -164 102.5 -261t306.5 -97q215 0 425 81.5t402 220t353.5 315t284.5 360.5q71 108 150.5 251.5t156.5 286.5t143.5 271t112.5 205 q36 57 74.5 95t104.5 64q16 5 62 18t94.5 25.5t92 23t58.5 10.5q26 0 31 -25.5t-20 -25.5q-26 -6 -54 -21t-54 -41q-107 -133 -214.5 -286.5t-207.5 -312.5t-192 -317.5t-164 -307.5q-36 -66 -79.5 -158t-82 -189.5t-64 -195t-25.5 -178.5q0 -108 51 -172t169 -64 q72 0 143.5 20.5t135.5 46t107.5 48.5t48.5 23q26 0 31 -20.5t-20 -30.5q-149 -67 -305 -115.5t-320 -48.5q-338 0 -338 261q0 82 33.5 169t71.5 161.5t69 128t31 64.5q0 10 -5 12.5t-11 -7.5q-199 -226 -404 -374.5t-394.5 -235.5t-353 -122.5t-281.5 -35.5 q-97 0 -194.5 23t-177 74t-128 133t-48.5 195zM2643.5 2465.5q-7.5 7.5 2.5 17.5q190 154 397 323t402 322q20 11 25 11q11 0 26 -18t15 -34q0 -10 -15 -25q-179 -138 -391.5 -292t-427.5 -297q-26 -15 -33.5 -7.5z" />
<glyph unicode="&#xdb;" horiz-adv-x="3159" d="M593 369q0 153 102 343q77 143 184.5 314.5t220.5 350.5t220.5 353.5t188.5 322.5q21 41 21 62q0 46 -77 46q-36 0 -100 -2.5t-135 -2.5q-36 0 -67 2.5t-56 2.5q-41 0 -43.5 30.5t38.5 30.5q51 0 166 -7.5t243 -7.5q123 0 205 7.5t135.5 15t94.5 13t77 5.5q26 0 26 -21 q0 -15 -31 -25q-41 -11 -87 -23.5t-87 -58.5q-102 -128 -209.5 -284.5t-212.5 -322.5t-207.5 -337.5t-189.5 -330.5q-128 -225 -128 -420q0 -164 102.5 -261t306.5 -97q215 0 425 81.5t402 220t353.5 315t284.5 360.5q71 108 150.5 251.5t156.5 286.5t143.5 271t112.5 205 q36 57 74.5 95t104.5 64q16 5 62 18t94.5 25.5t92 23t58.5 10.5q26 0 31 -25.5t-20 -25.5q-26 -6 -54 -21t-54 -41q-107 -133 -214.5 -286.5t-207.5 -312.5t-192 -317.5t-164 -307.5q-36 -66 -79.5 -158t-82 -189.5t-64 -195t-25.5 -178.5q0 -108 51 -172t169 -64 q72 0 143.5 20.5t135.5 46t107.5 48.5t48.5 23q26 0 31 -20.5t-20 -30.5q-149 -67 -305 -115.5t-320 -48.5q-338 0 -338 261q0 82 33.5 169t71.5 161.5t69 128t31 64.5q0 10 -5 12.5t-11 -7.5q-199 -226 -404 -374.5t-394.5 -235.5t-353 -122.5t-281.5 -35.5 q-97 0 -194.5 23t-177 74t-128 133t-48.5 195zM2436 2529q0 31 46 67q87 77 189.5 174t189.5 184q41 41 82 79.5t82 64.5q20 10 26 10q20 0 20 -26q5 -143 15.5 -276t10.5 -220q0 -62 -21 -77q-15 -10 -40.5 -36t-41.5 -26q-15 0 -15 36q0 103 -5 231t-10 230q0 31 -21 31 q-10 0 -26 -16q-97 -87 -202 -194.5t-192 -204.5q-46 -56 -66 -56q-21 0 -21 25z" />
<glyph unicode="&#xdc;" horiz-adv-x="3159" d="M593 369q0 153 102 343q77 143 184.5 314.5t220.5 350.5t220.5 353.5t188.5 322.5q21 41 21 62q0 46 -77 46q-36 0 -100 -2.5t-135 -2.5q-36 0 -67 2.5t-56 2.5q-41 0 -43.5 30.5t38.5 30.5q51 0 166 -7.5t243 -7.5q123 0 205 7.5t135.5 15t94.5 13t77 5.5q26 0 26 -21 q0 -15 -31 -25q-41 -11 -87 -23.5t-87 -58.5q-102 -128 -209.5 -284.5t-212.5 -322.5t-207.5 -337.5t-189.5 -330.5q-128 -225 -128 -420q0 -164 102.5 -261t306.5 -97q215 0 425 81.5t402 220t353.5 315t284.5 360.5q71 108 150.5 251.5t156.5 286.5t143.5 271t112.5 205 q36 57 74.5 95t104.5 64q16 5 62 18t94.5 25.5t92 23t58.5 10.5q26 0 31 -25.5t-20 -25.5q-26 -6 -54 -21t-54 -41q-107 -133 -214.5 -286.5t-207.5 -312.5t-192 -317.5t-164 -307.5q-36 -66 -79.5 -158t-82 -189.5t-64 -195t-25.5 -178.5q0 -108 51 -172t169 -64 q72 0 143.5 20.5t135.5 46t107.5 48.5t48.5 23q26 0 31 -20.5t-20 -30.5q-149 -67 -305 -115.5t-320 -48.5q-338 0 -338 261q0 82 33.5 169t71.5 161.5t69 128t31 64.5q0 10 -5 12.5t-11 -7.5q-199 -226 -404 -374.5t-394.5 -235.5t-353 -122.5t-281.5 -35.5 q-97 0 -194.5 23t-177 74t-128 133t-48.5 195zM2498 2662q0 67 48.5 128.5t120.5 61.5q66 0 66 -67q0 -61 -53.5 -122.5t-120.5 -61.5q-61 0 -61 61zM2866 2632q0 66 49 127.5t120 61.5q67 0 67 -66q0 -62 -54 -123.5t-120 -61.5q-62 0 -62 62z" />
<glyph unicode="&#xdd;" horiz-adv-x="2053" d="M316.5 1845.5q-25.5 2.5 0.5 43.5q153 195 347.5 282t430.5 87q148 0 255.5 -59t174 -156t97.5 -228t31 -269q0 -61 -7.5 -135.5t-18 -138.5t-18 -112.5t-7.5 -58.5q-5 -26 7.5 -38.5t33.5 7.5q368 282 734 576t725 545q107 77 245.5 149t271.5 72q61 0 115 -49t74 -85 q0 -20 -15 -15q-26 10 -46 10h-67q-153 0 -399 -120t-525 -304.5t-555.5 -407t-486.5 -427.5q-61 -62 -112 -118t-92 -123q-128 -225 -230.5 -417t-138.5 -315q-5 -21 -15.5 -33.5t-51.5 -7.5q-76 10 -117 10t-69.5 -7.5t-54 -25.5t-71.5 -49q-15 -5 -17.5 15.5t12.5 36.5 q51 40 122.5 130t148.5 205t146 240.5t121 232.5q56 123 102 302.5t46 322.5q0 133 -28 258.5t-94.5 223t-177 153.5t-268.5 56q-185 0 -305 -56t-212 -184q-16 -21 -41.5 -18.5zM2188 2414q-8 8 3 18q189 154 396.5 323t401.5 322q21 10 26 10q10 0 25.5 -17.5t15.5 -33.5 q0 -10 -16 -25q-179 -139 -391.5 -292.5t-427.5 -296.5q-25 -16 -33 -8z" />
<glyph unicode="&#xde;" horiz-adv-x="2135" d="M471 72q0 41 105 235.5t325 603.5q118 221 220.5 418t176.5 353t117.5 258.5t43.5 133.5q0 71 -102 71q-21 0 -64.5 -2.5t-89.5 -2.5t-87 -2.5t-56 -2.5q-36 0 -38.5 28t38.5 28q66 0 150.5 5.5t187.5 15.5l338 31q41 0 41 -26q0 -5 -62 -128q-194 -389 -194 -384 q0 -10 15 -10q26 0 77 23t205 23q117 0 230 -23t202.5 -77t145.5 -141t56 -215q0 -189 -104.5 -332.5t-263.5 -241t-348.5 -146t-358.5 -43.5q-77 0 -123 5t-92 31q-15 10 -15 26q0 20 31 10q25 -10 66 -20.5t118 -10.5q164 0 315 56.5t268.5 159t189.5 240.5t72 307 q0 369 -389 369q-103 0 -218 -31t-161 -123q-169 -333 -294.5 -576t-207.5 -409.5t-123 -269t-41 -148.5q0 -82 118 -112q25 -6 56 -8.5t67 -2.5q36 -35 0 -35q-205 0 -302.5 2.5t-148.5 7.5q-92 5 -92 82z" />
<glyph unicode="&#xdf;" horiz-adv-x="1223" d="M-2222 -2089q-5 15 2.5 25.5t23.5 0.5q56 -52 176.5 -82.5t222.5 -30.5q292 0 525 128t455.5 397t455.5 683.5t520 993.5q-138 92 -138 215q0 41 18 94.5t46 110t58.5 110t56.5 89.5q25 15 25 -10q-46 -72 -71.5 -156.5t-25.5 -150.5q0 -72 23 -126t59 -79 q205 461 410 847.5t394 698.5q113 184 289.5 409.5t360.5 414.5q179 185 304.5 277t223.5 92q56 0 97 -33t41 -90q0 -61 -23 -125t-107.5 -182t-253.5 -310t-466 -509q-164 -174 -251 -274t-87 -192q0 -184 33.5 -315t33.5 -300q0 -81 -59 -178.5t-156.5 -182t-225.5 -141 t-261 -56.5q-72 0 -120.5 3t-114.5 13q-303 -543 -559 -963t-501.5 -709t-491.5 -437.5t-522 -148.5q-118 0 -233 46t-187 133zM313 51q51 -25 97 -30.5t102 -5.5q123 0 215 41t151 105t87 143.5t28 156.5q0 92 -5 151t-12.5 112.5t-12.5 112.5t-5 146q0 46 33 128t115 164 q205 205 386.5 399.5t320 366t220.5 312t82 233.5q0 41 -23 76.5t-80 35.5q-71 0 -155.5 -71.5t-166.5 -166.5t-146 -192t-95 -148q-230 -395 -389 -681.5t-281.5 -522t-230 -438t-235.5 -427.5z" />
<glyph unicode="&#xe0;" horiz-adv-x="1459" d="M128 77q0 118 92 297t248.5 345.5t356 286.5t414.5 120q26 52 46.5 72.5t40.5 30.5l143 41l11 -5q-26 -26 -49 -64.5t-49 -79.5q26 0 77 -5t77 -10q26 -10 26 -26q0 -15 -16 -15q-30 10 -91.5 15t-92.5 5q-236 -414 -346 -657.5t-110 -360.5q0 -47 23 -77.5t95 -30.5 q82 0 194.5 59t240.5 164t264 243t258 292q11 15 21 7.5t10 -23.5q-118 -143 -258.5 -289t-284 -263.5t-284.5 -189.5t-258 -72q-103 0 -144 51.5t-41 128.5q0 71 43.5 191.5t130.5 258.5q-66 -87 -153 -184t-179 -176.5t-184.5 -133.5t-163.5 -54q-108 0 -108 108zM328 108 q0 -41 30 -41q31 0 95 40.5t146 110t166.5 161.5t156.5 200q82 122 158.5 260.5t138.5 245.5l-6 6q-174 0 -332.5 -123t-281.5 -289.5t-197 -330.5t-74 -240zM942 1956q0 20 20.5 48.5t30.5 28.5q16 0 21 -21q20 -51 51 -128t64 -156t61.5 -158.5t43.5 -141.5 q0 -10 -7.5 -12.5t-18.5 7.5q-66 118 -132.5 246t-118.5 231q-15 30 -15 56z" />
<glyph unicode="&#xe1;" horiz-adv-x="1459" d="M128 77q0 118 92 297t248.5 345.5t356 286.5t414.5 120q26 52 46.5 72.5t40.5 30.5l143 41l11 -5q-26 -26 -49 -64.5t-49 -79.5q26 0 77 -5t77 -10q26 -10 26 -26q0 -15 -16 -15q-30 10 -91.5 15t-92.5 5q-236 -414 -346 -657.5t-110 -360.5q0 -47 23 -77.5t95 -30.5 q82 0 194.5 59t240.5 164t264 243t258 292q11 15 21 7.5t10 -23.5q-118 -143 -258.5 -289t-284 -263.5t-284.5 -189.5t-258 -72q-103 0 -144 51.5t-41 128.5q0 71 43.5 191.5t130.5 258.5q-66 -87 -153 -184t-179 -176.5t-184.5 -133.5t-163.5 -54q-108 0 -108 108zM328 108 q0 -41 30 -41q31 0 95 40.5t146 110t166.5 161.5t156.5 200q82 122 158.5 260.5t138.5 245.5l-6 6q-174 0 -332.5 -123t-281.5 -289.5t-197 -330.5t-74 -240zM914 1390q-8 8 2 18q190 154 397.5 323t401.5 322q21 10 26 10q10 0 25.5 -17.5t15.5 -33.5q0 -10 -16 -25 q-179 -139 -391.5 -292.5t-427.5 -296.5q-25 -16 -33 -8z" />
<glyph unicode="&#xe2;" horiz-adv-x="1459" d="M128 77q0 118 92 297t248.5 345.5t356 286.5t414.5 120q26 52 46.5 72.5t40.5 30.5l143 41l11 -5q-26 -26 -49 -64.5t-49 -79.5q26 0 77 -5t77 -10q26 -10 26 -26q0 -15 -16 -15q-30 10 -91.5 15t-92.5 5q-236 -414 -346 -657.5t-110 -360.5q0 -47 23 -77.5t95 -30.5 q82 0 194.5 59t240.5 164t264 243t258 292q11 15 21 7.5t10 -23.5q-118 -143 -258.5 -289t-284 -263.5t-284.5 -189.5t-258 -72q-103 0 -144 51.5t-41 128.5q0 71 43.5 191.5t130.5 258.5q-66 -87 -153 -184t-179 -176.5t-184.5 -133.5t-163.5 -54q-108 0 -108 108zM328 108 q0 -41 30 -41q31 0 95 40.5t146 110t166.5 161.5t156.5 200q82 122 158.5 260.5t138.5 245.5l-6 6q-174 0 -332.5 -123t-281.5 -289.5t-197 -330.5t-74 -240zM932 1454q0 31 46 67q87 76 189.5 173.5t189.5 184.5q41 41 82 79.5t82 63.5q20 11 25 11q21 0 21 -26 q5 -143 15 -276.5t10 -220.5q0 -61 -20 -76q-16 -11 -41.5 -36.5t-40.5 -25.5t-15 36q0 102 -5.5 230t-10.5 231q0 31 -20 31q-11 0 -26 -16q-97 -87 -202 -194.5t-192 -204.5q-46 -57 -67 -57q-20 0 -20 26z" />
<glyph unicode="&#xe3;" horiz-adv-x="1459" d="M128 77q0 118 92 297t248.5 345.5t356 286.5t414.5 120q26 52 46.5 72.5t40.5 30.5l143 41l11 -5q-26 -26 -49 -64.5t-49 -79.5q26 0 77 -5t77 -10q26 -10 26 -26q0 -15 -16 -15q-30 10 -91.5 15t-92.5 5q-236 -414 -346 -657.5t-110 -360.5q0 -47 23 -77.5t95 -30.5 q82 0 194.5 59t240.5 164t264 243t258 292q11 15 21 7.5t10 -23.5q-118 -143 -258.5 -289t-284 -263.5t-284.5 -189.5t-258 -72q-103 0 -144 51.5t-41 128.5q0 71 43.5 191.5t130.5 258.5q-66 -87 -153 -184t-179 -176.5t-184.5 -133.5t-163.5 -54q-108 0 -108 108zM328 108 q0 -41 30 -41q31 0 95 40.5t146 110t166.5 161.5t156.5 200q82 122 158.5 260.5t138.5 245.5l-6 6q-174 0 -332.5 -123t-281.5 -289.5t-197 -330.5t-74 -240zM711.5 1531q-20.5 10 15.5 56q41 57 118 128.5t148 127.5q67 51 133 51q57 0 110.5 -46t107.5 -99.5t113 -99.5 t125 -46q87 0 141 71.5t54 153.5q0 25 23 38t23 -38q-16 -118 -103 -218t-204 -100q-72 0 -133.5 43.5t-115.5 97.5t-105 97.5t-107 43.5q-41 0 -84.5 -25.5t-84.5 -64t-74.5 -77t-53.5 -69.5q-26 -35 -46.5 -25z" />
<glyph unicode="&#xe4;" horiz-adv-x="1459" d="M128 77q0 118 92 297t248.5 345.5t356 286.5t414.5 120q26 52 46.5 72.5t40.5 30.5l143 41l11 -5q-26 -26 -49 -64.5t-49 -79.5q26 0 77 -5t77 -10q26 -10 26 -26q0 -15 -16 -15q-30 10 -91.5 15t-92.5 5q-236 -414 -346 -657.5t-110 -360.5q0 -47 23 -77.5t95 -30.5 q82 0 194.5 59t240.5 164t264 243t258 292q11 15 21 7.5t10 -23.5q-118 -143 -258.5 -289t-284 -263.5t-284.5 -189.5t-258 -72q-103 0 -144 51.5t-41 128.5q0 71 43.5 191.5t130.5 258.5q-66 -87 -153 -184t-179 -176.5t-184.5 -133.5t-163.5 -54q-108 0 -108 108zM328 108 q0 -41 30 -41q31 0 95 40.5t146 110t166.5 161.5t156.5 200q82 122 158.5 260.5t138.5 245.5l-6 6q-174 0 -332.5 -123t-281.5 -289.5t-197 -330.5t-74 -240zM1096 1690q0 66 48.5 127.5t120.5 61.5q66 0 66 -67q0 -61 -53.5 -122.5t-120.5 -61.5q-61 0 -61 62zM1464 1659 q0 66 49 127.5t120 61.5q67 0 67 -66q0 -62 -54 -123.5t-120 -61.5q-62 0 -62 62z" />
<glyph unicode="&#xe5;" horiz-adv-x="1459" d="M128 77q0 118 92 297t248.5 345.5t356 286.5t414.5 120q26 52 46.5 72.5t40.5 30.5l143 41l11 -5q-26 -26 -49 -64.5t-49 -79.5q26 0 77 -5t77 -10q26 -10 26 -26q0 -15 -16 -15q-30 10 -91.5 15t-92.5 5q-236 -414 -346 -657.5t-110 -360.5q0 -47 23 -77.5t95 -30.5 q82 0 194.5 59t240.5 164t264 243t258 292q11 15 21 7.5t10 -23.5q-118 -143 -258.5 -289t-284 -263.5t-284.5 -189.5t-258 -72q-103 0 -144 51.5t-41 128.5q0 71 43.5 191.5t130.5 258.5q-66 -87 -153 -184t-179 -176.5t-184.5 -133.5t-163.5 -54q-108 0 -108 108zM328 108 q0 -41 30 -41q31 0 95 40.5t146 110t166.5 161.5t156.5 200q82 122 158.5 260.5t138.5 245.5l-6 6q-174 0 -332.5 -123t-281.5 -289.5t-197 -330.5t-74 -240zM1091 1725q0 52 20.5 110.5t64 112.5t112.5 90t166 36q251 0 251 -221q0 -128 -94.5 -238t-274.5 -110 q-107 0 -176 56.5t-69 163.5zM1162 1736q0 -92 56.5 -146t138.5 -54q71 0 122.5 28t84.5 74t51 100t18 105q0 87 -41 143.5t-143 56.5q-149 0 -218 -95t-69 -212z" />
<glyph unicode="&#xe6;" horiz-adv-x="1571" d="M51 92q0 46 41 141t125.5 212.5t217.5 250.5t312 256q92 62 197 113t203 51q41 72 76.5 128t46.5 77q10 10 22.5 -8t12.5 -33q0 -5 -2.5 -15.5t-12.5 -38.5t-30.5 -81.5t-51.5 -140.5q169 168 348 184q128 0 128 -97q0 -62 -38.5 -141.5t-115 -148.5t-194.5 -115 t-281 -46q-26 -67 -57 -159t-31 -194q0 -103 36 -167t154 -64t246 56.5t245.5 148.5t222.5 202t182 218q10 10 23 5t13 -20q-98 -128 -223 -256t-268.5 -225.5t-294.5 -159t-300 -61.5q-66 0 -120 36t-79 97q-5 16 -41 3t-77 -54q-15 -15 -26 -15q-10 0 0 10 q77 133 143.5 284t163.5 407q-250 -368 -465 -560t-338 -198q-113 0 -113 118zM256 143q0 -30 18 -43t38 -13q41 0 128 69t199.5 199.5t240.5 312.5t246 407q-10 5 -36 5q-102 0 -245.5 -107.5t-274 -258.5t-222.5 -309.5t-92 -261.5zM1075 686q10 -5 35.5 -7.5t41.5 -2.5 q71 0 140.5 33t120.5 87t82 123t31 146q0 67 -62 67q-92 0 -204.5 -133.5t-184.5 -312.5z" />
<glyph unicode="&#xe7;" horiz-adv-x="1095" d="M112 -676q0 10 26 21q25 5 84 28t115.5 53.5t100 69t43.5 74.5q0 31 -26 51.5t-56.5 38t-56 38t-25.5 51.5q0 36 41 77t94.5 77t110 64t81.5 38q16 0 28.5 -5t-12.5 -20q-21 -6 -51.5 -21t-61.5 -33t-54 -43.5t-23 -46.5q0 -25 26 -40.5t56.5 -31t56 -38.5t25.5 -59 q0 -56 -66 -107q-77 -67 -184.5 -141t-194.5 -115q-21 -11 -36 -11q-10 0 -25.5 10.5t-15.5 20.5zM255 205q0 92 41 194q98 241 274.5 428t381.5 274q61 25 102 25q190 0 190 -148q0 -77 -36 -118q-31 -31 -103 -87l-15 5q15 41 15 87q0 51 -38.5 97.5t-119.5 46.5 q-98 0 -187.5 -64t-158.5 -169t-110 -241t-41 -279q0 -108 59 -161.5t146 -53.5q143 0 386 166.5t520 504.5q26 25 38.5 12.5t-12.5 -38.5q-77 -97 -174.5 -197t-200 -189.5t-210 -161t-204.5 -112.5q-77 -31 -141 -44t-120 -13q-282 0 -282 236z" />
<glyph unicode="&#xe8;" horiz-adv-x="1049" d="M240 179q0 144 74 310t192 307t259 235.5t269 94.5q71 0 99.5 -25.5t28.5 -66.5q0 -61 -38.5 -133t-115.5 -136t-194.5 -107.5t-281.5 -43.5q-26 -46 -56.5 -145.5t-30.5 -202.5q0 -210 189 -210q118 0 243.5 56.5t243 141t217.5 184.5t167 187q10 10 22.5 5t12.5 -21 q-87 -107 -207 -222.5t-261 -210t-292 -153.5t-299 -59q-241 0 -241 215zM552 666q11 -6 36.5 -8.5t40.5 -2.5q149 0 261.5 105t112.5 249q0 66 -67 66q-51 0 -104.5 -38.5t-105 -99.5t-97.5 -133t-77 -138zM813 1956q0 20 20.5 48.5t31.5 28.5q15 0 20 -21 q21 -51 51.5 -128t64 -156t61.5 -158.5t43 -141.5q0 -10 -7.5 -12.5t-17.5 7.5q-67 118 -133.5 246t-117.5 231q-16 30 -16 56z" />
<glyph unicode="&#xe9;" horiz-adv-x="1049" d="M240 179q0 144 74 310t192 307t259 235.5t269 94.5q71 0 99.5 -25.5t28.5 -66.5q0 -61 -38.5 -133t-115.5 -136t-194.5 -107.5t-281.5 -43.5q-26 -46 -56.5 -145.5t-30.5 -202.5q0 -210 189 -210q118 0 243.5 56.5t243 141t217.5 184.5t167 187q10 10 22.5 5t12.5 -21 q-87 -107 -207 -222.5t-261 -210t-292 -153.5t-299 -59q-241 0 -241 215zM552 666q11 -6 36.5 -8.5t40.5 -2.5q149 0 261.5 105t112.5 249q0 66 -67 66q-51 0 -104.5 -38.5t-105 -99.5t-97.5 -133t-77 -138zM816 1390q-8 8 3 18q189 154 396.5 323t401.5 322q21 10 26 10 q10 0 25.5 -17.5t15.5 -33.5q0 -10 -16 -25q-179 -139 -391.5 -292.5t-427.5 -296.5q-25 -16 -33 -8z" />
<glyph unicode="&#xea;" horiz-adv-x="1049" d="M240 179q0 144 74 310t192 307t259 235.5t269 94.5q71 0 99.5 -25.5t28.5 -66.5q0 -61 -38.5 -133t-115.5 -136t-194.5 -107.5t-281.5 -43.5q-26 -46 -56.5 -145.5t-30.5 -202.5q0 -210 189 -210q118 0 243.5 56.5t243 141t217.5 184.5t167 187q10 10 22.5 5t12.5 -21 q-87 -107 -207 -222.5t-261 -210t-292 -153.5t-299 -59q-241 0 -241 215zM552 666q11 -6 36.5 -8.5t40.5 -2.5q149 0 261.5 105t112.5 249q0 66 -67 66q-51 0 -104.5 -38.5t-105 -99.5t-97.5 -133t-77 -138zM742 1454q0 31 46 67q87 76 189.5 173.5t189.5 184.5 q41 41 82 79.5t82 63.5q20 11 25 11q21 0 21 -26q5 -143 15 -276.5t10 -220.5q0 -61 -20 -76q-16 -11 -41.5 -36.5t-40.5 -25.5q-16 0 -16 36q0 102 -5 230t-10 231q0 31 -20 31q-11 0 -26 -16q-97 -87 -202 -194.5t-192 -204.5q-46 -57 -67 -57q-20 0 -20 26z" />
<glyph unicode="&#xeb;" horiz-adv-x="1049" d="M240 179q0 144 74 310t192 307t259 235.5t269 94.5q71 0 99.5 -25.5t28.5 -66.5q0 -61 -38.5 -133t-115.5 -136t-194.5 -107.5t-281.5 -43.5q-26 -46 -56.5 -145.5t-30.5 -202.5q0 -210 189 -210q118 0 243.5 56.5t243 141t217.5 184.5t167 187q10 10 22.5 5t12.5 -21 q-87 -107 -207 -222.5t-261 -210t-292 -153.5t-299 -59q-241 0 -241 215zM552 666q11 -6 36.5 -8.5t40.5 -2.5q149 0 261.5 105t112.5 249q0 66 -67 66q-51 0 -104.5 -38.5t-105 -99.5t-97.5 -133t-77 -138zM890 1690q0 66 49 127.5t120 61.5q67 0 67 -67q0 -61 -54 -122.5 t-120 -61.5q-62 0 -62 62zM1259 1659q0 66 48.5 127.5t120.5 61.5q66 0 66 -66q0 -62 -53.5 -123.5t-120.5 -61.5q-61 0 -61 62z" />
<glyph unicode="&#xec;" horiz-adv-x="926" d="M235 174q0 67 51 182t120.5 238t138.5 235.5t110 168.5q25 41 89 69.5t85 28.5q26 0 26 -16q0 -10 -8 -30.5t-18 -30.5q-67 -103 -136 -225.5t-125.5 -238t-89.5 -212.5t-33 -154q0 -61 33 -89t90 -28q102 0 225 69t243.5 166t222.5 205t159 184q25 26 27.5 13t-7.5 -38 q-123 -159 -281.5 -302.5t-291.5 -230.5q-103 -66 -210.5 -102t-194.5 -36q-30 0 -71 5t-74.5 25.5t-56.5 54t-23 89.5zM665 1956q0 20 20.5 48.5t30.5 28.5q16 0 21 -21q20 -51 51 -128t64 -156t61.5 -158.5t43.5 -141.5q0 -10 -7.5 -12.5t-18.5 7.5q-66 118 -132.5 246 t-118.5 231q-15 30 -15 56z" />
<glyph unicode="&#xed;" horiz-adv-x="926" d="M235 174q0 67 51 182t120.5 238t138.5 235.5t110 168.5q25 41 89 69.5t85 28.5q26 0 26 -16q0 -10 -8 -30.5t-18 -30.5q-67 -103 -136 -225.5t-125.5 -238t-89.5 -212.5t-33 -154q0 -61 33 -89t90 -28q102 0 225 69t243.5 166t222.5 205t159 184q25 26 27.5 13t-7.5 -38 q-123 -159 -281.5 -302.5t-291.5 -230.5q-103 -66 -210.5 -102t-194.5 -36q-30 0 -71 5t-74.5 25.5t-56.5 54t-23 89.5zM688 1390q-8 8 3 18q189 154 396.5 323t401.5 322q21 10 26 10q10 0 25.5 -17.5t15.5 -33.5q0 -10 -15 -25q-180 -139 -392.5 -292.5t-427.5 -296.5 q-25 -16 -33 -8z" />
<glyph unicode="&#xee;" horiz-adv-x="926" d="M235 174q0 67 51 182t120.5 238t138.5 235.5t110 168.5q25 41 89 69.5t85 28.5q26 0 26 -16q0 -10 -8 -30.5t-18 -30.5q-67 -103 -136 -225.5t-125.5 -238t-89.5 -212.5t-33 -154q0 -61 33 -89t90 -28q102 0 225 69t243.5 166t222.5 205t159 184q25 26 27.5 13t-7.5 -38 q-123 -159 -281.5 -302.5t-291.5 -230.5q-103 -66 -210.5 -102t-194.5 -36q-30 0 -71 5t-74.5 25.5t-56.5 54t-23 89.5zM583 1454q0 31 46 67q87 76 189.5 173.5t189.5 184.5q41 41 82 79.5t82 63.5q20 11 26 11q20 0 20 -26q5 -143 15.5 -276.5t10.5 -220.5q0 -61 -21 -76 q-15 -11 -40.5 -36.5t-41.5 -25.5q-15 0 -15 36q0 102 -5 230t-10 231q0 31 -21 31q-10 0 -26 -16q-97 -87 -202 -194.5t-192 -204.5q-46 -57 -66 -57q-21 0 -21 26z" />
<glyph unicode="&#xef;" horiz-adv-x="926" d="M235 174q0 67 51 182t120.5 238t138.5 235.5t110 168.5q25 41 89 69.5t85 28.5q26 0 26 -16q0 -10 -8 -30.5t-18 -30.5q-67 -103 -136 -225.5t-125.5 -238t-89.5 -212.5t-33 -154q0 -61 33 -89t90 -28q102 0 225 69t243.5 166t222.5 205t159 184q25 26 27.5 13t-7.5 -38 q-123 -159 -281.5 -302.5t-291.5 -230.5q-103 -66 -210.5 -102t-194.5 -36q-30 0 -71 5t-74.5 25.5t-56.5 54t-23 89.5zM701 1690q0 66 48.5 127.5t120.5 61.5q66 0 66 -67q0 -61 -53.5 -122.5t-120.5 -61.5q-61 0 -61 62zM1070 1659q0 66 48.5 127.5t120.5 61.5 q66 0 66 -66q0 -62 -53.5 -123.5t-120.5 -61.5q-61 0 -61 62z" />
<glyph unicode="&#xf0;" horiz-adv-x="1198" d="M174 2949q0 10 23 15.5t54 13t64 10t48 2.5q41 0 57 -15q71 -108 173.5 -271.5t205.5 -368.5q117 25 222 53.5t177 53.5q41 16 41 -10q0 -15 -13 -35.5t-38 -25.5q-164 -26 -369 -72q149 -292 266.5 -617t117.5 -617q0 -149 -33 -297t-94.5 -279t-146 -238.5 t-182.5 -173.5q-87 -57 -156 -80t-156 -23q-200 0 -200 190q0 112 64 266t177 305t264 279t325 189q25 10 25 46q0 57 -30.5 164.5t-89.5 243t-138 294t-172 317.5q-117 -25 -212 -51t-136 -46q-56 -21 -25 15l46 57l307 61q-92 154 -197 302.5t-213 276.5q-20 25 -38 40.5 t-18 25.5zM410 154q0 -123 97 -123q107 0 214.5 110t192 271t138.5 350.5t54 343.5q0 66 -26 66q-138 -61 -261 -194t-212.5 -286.5t-143 -299.5t-53.5 -238z" />
<glyph unicode="&#xf1;" horiz-adv-x="1341" d="M138 113q0 46 64 125t141 177q82 164 169 345.5t148 324.5q16 26 46 26q31 0 56.5 -25.5t25.5 -56.5q0 -20 -74 -140.5t-146 -279.5q97 87 212.5 184.5t220.5 179.5t184 135.5t110 53.5q21 0 38.5 -23t17.5 -43q0 -21 -25 -62q-56 -82 -138 -210t-156.5 -263.5 t-125.5 -258.5t-51 -194q0 -62 25.5 -85t81.5 -23q87 0 205 66.5t243.5 166.5t238 223t184.5 235q10 16 30.5 8t-5.5 -39q-92 -128 -212 -258.5t-256 -232.5t-276.5 -169t-274.5 -67q-61 0 -112 18t-51 90t51 182t120 233t143.5 251t120.5 235q10 26 2.5 44t-33.5 2 q-56 -36 -133 -97.5t-156.5 -130.5t-153.5 -140.5t-120 -127.5q-82 -128 -141 -236t-146 -241q-20 -30 -31 -30q-25 0 -43 56t-18 72zM634.5 1531q-20.5 10 15.5 56q41 57 118 128.5t148 127.5q67 51 133 51q57 0 110.5 -46t107.5 -99.5t112.5 -99.5t125.5 -46 q87 0 141 71.5t54 153.5q0 25 23 38t23 -38q-16 -118 -103 -218t-205 -100q-71 0 -132.5 43.5t-115.5 97.5t-105 97.5t-107 43.5q-41 0 -84.5 -25.5t-84.5 -64t-74.5 -77t-53.5 -69.5q-26 -35 -46.5 -25z" />
<glyph unicode="&#xf2;" horiz-adv-x="1280" d="M209 128q0 92 33.5 189.5t84.5 189.5t110 174t110 133q107 118 245.5 200t297.5 97q10 41 30.5 95t71.5 64q26 5 51.5 10t45.5 15q16 11 31 3t5 -28q-36 -57 -54 -144t-18 -189q0 -143 54 -235.5t187 -92.5t240.5 87t179.5 190q10 25 33 15t3 -31q-87 -117 -212.5 -212 t-284.5 -95q-87 0 -171.5 43.5t-135.5 130.5q-36 -82 -92.5 -187t-133 -209.5t-171.5 -192t-202 -143.5q-92 -41 -154 -41q-184 0 -184 164zM419 138q0 -36 13 -66.5t59 -30.5q87 0 189 97.5t194.5 228t156.5 263.5t74 205q-10 46 -15 107.5t-5 117.5q0 25 -21 25 q-56 0 -117.5 -38t-123 -102t-123 -146t-112.5 -169q-67 -113 -120.5 -243.5t-48.5 -248.5zM926 1956q0 20 20.5 48.5t30.5 28.5q15 0 20 -21q21 -51 51.5 -128t64 -156t61.5 -158.5t44 -141.5q0 -10 -8 -12.5t-18 7.5q-67 118 -133.5 246t-117.5 231q-15 30 -15 56z" />
<glyph unicode="&#xf3;" horiz-adv-x="1280" d="M209 128q0 92 33.5 189.5t84.5 189.5t110 174t110 133q107 118 245.5 200t297.5 97q10 41 30.5 95t71.5 64q26 5 51.5 10t45.5 15q16 11 31 3t5 -28q-36 -57 -54 -144t-18 -189q0 -143 54 -235.5t187 -92.5t240.5 87t179.5 190q10 25 33 15t3 -31q-87 -117 -212.5 -212 t-284.5 -95q-87 0 -171.5 43.5t-135.5 130.5q-36 -82 -92.5 -187t-133 -209.5t-171.5 -192t-202 -143.5q-92 -41 -154 -41q-184 0 -184 164zM419 138q0 -36 13 -66.5t59 -30.5q87 0 189 97.5t194.5 228t156.5 263.5t74 205q-10 46 -15 107.5t-5 117.5q0 25 -21 25 q-56 0 -117.5 -38t-123 -102t-123 -146t-112.5 -169q-67 -113 -120.5 -243.5t-48.5 -248.5zM851.5 1390q-7.5 8 2.5 18q190 154 397 323t402 322q20 10 25 10q11 0 26 -17.5t15 -33.5q0 -10 -15 -25q-179 -139 -391.5 -292.5t-427.5 -296.5q-26 -16 -33.5 -8z" />
<glyph unicode="&#xf4;" horiz-adv-x="1280" d="M209 128q0 92 33.5 189.5t84.5 189.5t110 174t110 133q107 118 245.5 200t297.5 97q10 41 30.5 95t71.5 64q26 5 51.5 10t45.5 15q16 11 31 3t5 -28q-36 -57 -54 -144t-18 -189q0 -143 54 -235.5t187 -92.5t240.5 87t179.5 190q10 25 33 15t3 -31q-87 -117 -212.5 -212 t-284.5 -95q-87 0 -171.5 43.5t-135.5 130.5q-36 -82 -92.5 -187t-133 -209.5t-171.5 -192t-202 -143.5q-92 -41 -154 -41q-184 0 -184 164zM419 138q0 -36 13 -66.5t59 -30.5q87 0 189 97.5t194.5 228t156.5 263.5t74 205q-10 46 -15 107.5t-5 117.5q0 25 -21 25 q-56 0 -117.5 -38t-123 -102t-123 -146t-112.5 -169q-67 -113 -120.5 -243.5t-48.5 -248.5zM895 1454q0 31 46 67q87 76 189.5 173.5t189.5 184.5q41 41 82 79.5t82 63.5q20 11 25 11q21 0 21 -26q5 -143 15.5 -276.5t10.5 -220.5q0 -61 -21 -76q-15 -11 -40.5 -36.5 t-41.5 -25.5q-15 0 -15 36q0 102 -5 230t-11 231q0 31 -20 31q-10 0 -26 -16q-97 -87 -202 -194.5t-192 -204.5q-46 -57 -66 -57q-21 0 -21 26z" />
<glyph unicode="&#xf5;" horiz-adv-x="1280" d="M209 128q0 92 33.5 189.5t84.5 189.5t110 174t110 133q107 118 245.5 200t297.5 97q10 41 30.5 95t71.5 64q26 5 51.5 10t45.5 15q16 11 31 3t5 -28q-36 -57 -54 -144t-18 -189q0 -143 54 -235.5t187 -92.5t240.5 87t179.5 190q10 25 33 15t3 -31q-87 -117 -212.5 -212 t-284.5 -95q-87 0 -171.5 43.5t-135.5 130.5q-36 -82 -92.5 -187t-133 -209.5t-171.5 -192t-202 -143.5q-92 -41 -154 -41q-184 0 -184 164zM419 138q0 -36 13 -66.5t59 -30.5q87 0 189 97.5t194.5 228t156.5 263.5t74 205q-10 46 -15 107.5t-5 117.5q0 25 -21 25 q-56 0 -117.5 -38t-123 -102t-123 -146t-112.5 -169q-67 -113 -120.5 -243.5t-48.5 -248.5zM710.5 1531q-20.5 10 15.5 56q41 57 118 128.5t148 127.5q67 51 133 51q57 0 110.5 -46t107.5 -99.5t113 -99.5t125 -46q87 0 141 71.5t54 153.5q0 25 23 38t23 -38 q-16 -118 -103 -218t-204 -100q-72 0 -133.5 43.5t-115 97.5t-105 97.5t-107.5 43.5q-41 0 -84.5 -25.5t-84.5 -64t-74.5 -77t-53.5 -69.5q-26 -35 -46.5 -25z" />
<glyph unicode="&#xf6;" horiz-adv-x="1280" d="M209 128q0 92 33.5 189.5t84.5 189.5t110 174t110 133q107 118 245.5 200t297.5 97q10 41 30.5 95t71.5 64q26 5 51.5 10t45.5 15q16 11 31 3t5 -28q-36 -57 -54 -144t-18 -189q0 -143 54 -235.5t187 -92.5t240.5 87t179.5 190q10 25 33 15t3 -31q-87 -117 -212.5 -212 t-284.5 -95q-87 0 -171.5 43.5t-135.5 130.5q-36 -82 -92.5 -187t-133 -209.5t-171.5 -192t-202 -143.5q-92 -41 -154 -41q-184 0 -184 164zM419 138q0 -36 13 -66.5t59 -30.5q87 0 189 97.5t194.5 228t156.5 263.5t74 205q-10 46 -15 107.5t-5 117.5q0 25 -21 25 q-56 0 -117.5 -38t-123 -102t-123 -146t-112.5 -169q-67 -113 -120.5 -243.5t-48.5 -248.5zM997 1690q0 66 49 127.5t120 61.5q67 0 67 -67q0 -61 -54 -122.5t-120 -61.5q-62 0 -62 62zM1366 1659q0 66 48.5 127.5t120.5 61.5q67 0 67 -66q0 -62 -54 -123.5t-120 -61.5 q-62 0 -62 62z" />
<glyph unicode="&#xf7;" d="M711 548l82 102q77 -25 164 -38t215 -13q143 0 273.5 2.5t340.5 12.5l-56 -107h-379t-274 5t-202 12.5t-164 23.5zM987 225q0 41 33.5 79.5t79.5 38.5q41 0 54 -20.5t13 -46.5q0 -40 -33.5 -73.5t-74.5 -33.5q-25 0 -48.5 15.5t-23.5 40.5zM1310 809q0 41 36 77t77 36 t53.5 -20.5t12.5 -46.5q0 -36 -33 -71.5t-74 -35.5q-72 0 -72 61z" />
<glyph unicode="&#xf8;" horiz-adv-x="1203" d="M115 -189.5q-13 10.5 13 51.5l158 189q-30 57 -30 133q0 62 25.5 161.5t76.5 192.5q56 102 169 214.5t348 266.5q143 92 181.5 110t49.5 18q10 0 25 -15q26 -52 46 -72q41 51 95 112.5t79 92.5q26 30 38.5 20t-12.5 -46q-31 -36 -82 -92t-92 -108q56 -46 143 -61t241 -15 q71 0 166 12.5t167 33.5q20 0 22.5 -8t-22.5 -18q-82 -26 -202.5 -38.5t-192.5 -12.5q-71 0 -163.5 2.5t-163.5 12.5q-21 -235 -123.5 -429.5t-265.5 -358.5q-103 -98 -190 -141.5t-179 -43.5q-72 0 -128 36q-51 -51 -89.5 -99.5t-69.5 -84.5q-25 -26 -38 -15.5zM384 154 q71 82 160.5 184t182 209.5t182 212.5t166.5 187q-16 77 -77 77q-51 0 -158.5 -61.5t-212.5 -176.5t-179.5 -274t-63.5 -358zM399 113q20 -41 53.5 -59t59.5 -18q107 0 209.5 92t182 225t128 279t48.5 254v20q-77 -87 -166.5 -192l-179 -210t-176.5 -204.5t-159 -186.5z" />
<glyph unicode="&#xf9;" horiz-adv-x="1315" d="M204 133q0 41 18 102.5t66.5 166.5t133 261t217.5 387q26 51 46 51q36 0 74.5 -43.5t38.5 -59.5q0 -15 -31 -61q-82 -123 -153.5 -246t-125.5 -230.5t-87 -192t-33 -130.5q0 -77 56 -77q51 0 141 79.5t212 269.5q47 82 95.5 171.5t94.5 171.5t87 151t61 105q26 35 41 35 q21 0 46.5 -43.5t25.5 -104.5q0 -41 -20 -77q-62 -92 -131 -181.5t-128 -187t-100 -205t-41 -235.5q0 -112 108 -112q71 0 171 53.5t218 151t243 235.5t238 302q31 10 31 -26q-87 -122 -205 -258t-246 -248.5t-261 -187t-251 -74.5q-87 0 -135.5 46.5t-48.5 143.5 q0 46 13 105t43 130q-30 -35 -68.5 -84t-87.5 -92.5t-107.5 -71.5t-130.5 -28q-56 0 -92 33t-36 105zM839 1956q0 20 20.5 48.5t30.5 28.5q15 0 21 -21q20 -51 50.5 -128t64 -156t61.5 -158.5t44 -141.5q0 -10 -8 -12.5t-18 7.5q-66 118 -133 246t-118 231q-15 30 -15 56z " />
<glyph unicode="&#xfa;" horiz-adv-x="1315" d="M204 133q0 41 18 102.5t66.5 166.5t133 261t217.5 387q26 51 46 51q36 0 74.5 -43.5t38.5 -59.5q0 -15 -31 -61q-82 -123 -153.5 -246t-125.5 -230.5t-87 -192t-33 -130.5q0 -77 56 -77q51 0 141 79.5t212 269.5q47 82 95.5 171.5t94.5 171.5t87 151t61 105q26 35 41 35 q21 0 46.5 -43.5t25.5 -104.5q0 -41 -20 -77q-62 -92 -131 -181.5t-128 -187t-100 -205t-41 -235.5q0 -112 108 -112q71 0 171 53.5t218 151t243 235.5t238 302q31 10 31 -26q-87 -122 -205 -258t-246 -248.5t-261 -187t-251 -74.5q-87 0 -135.5 46.5t-48.5 143.5 q0 46 13 105t43 130q-30 -35 -68.5 -84t-87.5 -92.5t-107.5 -71.5t-130.5 -28q-56 0 -92 33t-36 105zM913 1390q-8 8 3 18q189 154 396.5 323t401.5 322q21 10 26 10q10 0 25.5 -17.5t15.5 -33.5q0 -10 -15 -25q-180 -139 -392.5 -292.5t-427.5 -296.5q-25 -16 -33 -8z" />
<glyph unicode="&#xfb;" horiz-adv-x="1315" d="M204 133q0 41 18 102.5t66.5 166.5t133 261t217.5 387q26 51 46 51q36 0 74.5 -43.5t38.5 -59.5q0 -15 -31 -61q-82 -123 -153.5 -246t-125.5 -230.5t-87 -192t-33 -130.5q0 -77 56 -77q51 0 141 79.5t212 269.5q47 82 95.5 171.5t94.5 171.5t87 151t61 105q26 35 41 35 q21 0 46.5 -43.5t25.5 -104.5q0 -41 -20 -77q-62 -92 -131 -181.5t-128 -187t-100 -205t-41 -235.5q0 -112 108 -112q71 0 171 53.5t218 151t243 235.5t238 302q31 10 31 -26q-87 -122 -205 -258t-246 -248.5t-261 -187t-251 -74.5q-87 0 -135.5 46.5t-48.5 143.5 q0 46 13 105t43 130q-30 -35 -68.5 -84t-87.5 -92.5t-107.5 -71.5t-130.5 -28q-56 0 -92 33t-36 105zM808 1454q0 31 46 67q87 76 189.5 173.5t189.5 184.5q41 41 82 79.5t82 63.5q20 11 26 11q20 0 20 -26q5 -143 15.5 -276.5t10.5 -220.5q0 -61 -21 -76 q-15 -11 -40.5 -36.5t-41.5 -25.5q-15 0 -15 36q0 102 -5 230t-10 231q0 31 -21 31q-10 0 -26 -16q-97 -87 -202 -194.5t-192 -204.5q-46 -57 -66 -57q-21 0 -21 26z" />
<glyph unicode="&#xfc;" horiz-adv-x="1315" d="M204 133q0 41 18 102.5t66.5 166.5t133 261t217.5 387q26 51 46 51q36 0 74.5 -43.5t38.5 -59.5q0 -15 -31 -61q-82 -123 -153.5 -246t-125.5 -230.5t-87 -192t-33 -130.5q0 -77 56 -77q51 0 141 79.5t212 269.5q47 82 95.5 171.5t94.5 171.5t87 151t61 105q26 35 41 35 q21 0 46.5 -43.5t25.5 -104.5q0 -41 -20 -77q-62 -92 -131 -181.5t-128 -187t-100 -205t-41 -235.5q0 -112 108 -112q71 0 171 53.5t218 151t243 235.5t238 302q31 10 31 -26q-87 -122 -205 -258t-246 -248.5t-261 -187t-251 -74.5q-87 0 -135.5 46.5t-48.5 143.5 q0 46 13 105t43 130q-30 -35 -68.5 -84t-87.5 -92.5t-107.5 -71.5t-130.5 -28q-56 0 -92 33t-36 105zM957 1690q0 66 48.5 127.5t120.5 61.5q66 0 66 -67q0 -61 -53.5 -122.5t-120.5 -61.5q-61 0 -61 62zM1325 1659q0 66 49 127.5t120 61.5q67 0 67 -66q0 -62 -54 -123.5 t-120 -61.5q-62 0 -62 62z" />
<glyph unicode="&#xfd;" horiz-adv-x="1162" d="M-1986 -1843q0 41 7.5 84.5t18.5 68.5q5 16 15 21t10 -15q0 -139 102.5 -251.5t363.5 -112.5q210 0 417.5 105t404.5 279t381.5 404.5t356 481.5t325 504.5t281.5 478.5q10 20 0 15t-15 -10q-57 -46 -154 -100t-200 -54q-71 0 -112 31t-41 92q0 103 125.5 305t304.5 479 q20 25 33 38t28 23q26 5 69.5 12.5t53.5 7.5q21 0 21 -15q-185 -322 -310.5 -524.5t-125.5 -315.5q0 -61 57 -61q25 0 66 15.5t87 41t87 53.5t62 54q46 46 135.5 217.5t217.5 401.5q61 113 115 190t90 77q20 -11 38 -52t18 -82q0 -20 -46 -94t-117.5 -174t-156 -212.5 t-161.5 -210.5q-184 -281 -371 -580.5t-376.5 -578.5t-389 -527.5t-412 -433t-440.5 -292t-479 -107.5q-148 0 -266 72t-118 251zM1011.5 1390q-7.5 8 2.5 18q190 154 397 323t402 322q21 10 26 10q10 0 25.5 -17.5t15.5 -33.5q0 -10 -16 -25q-179 -139 -391.5 -292.5 t-427.5 -296.5q-26 -16 -33.5 -8z" />
<glyph unicode="&#xfe;" horiz-adv-x="1126" d="M-1310 -1526q0 16 15 26q159 51 277 107.5t240 189.5q77 82 177 215t210 294.5t222.5 333t210.5 334.5q-26 11 -31 26t-5 36q0 31 33 36t54 10l235 384q164 266 394.5 660.5t507.5 926.5q35 67 35 133q0 128 -179 128q-72 0 -169 -20q-25 -5 -25 10q0 20 25 26 q41 10 107.5 22.5t138.5 23t138.5 18t102.5 7.5q35 0 68.5 -30.5t33.5 -92.5q0 -35 -13 -71t-23 -57q-72 -122 -189.5 -306.5t-238 -374t-225.5 -353.5t-156 -251q51 57 112.5 118t123 112.5t123 84.5t112.5 33t84.5 -30.5t33.5 -102.5q0 -51 -51 -166t-161.5 -256 t-289.5 -289.5t-440 -271.5q138 16 309.5 49t356 112.5t368.5 215t348 350.5q5 11 18 8t13 -28q-271 -343 -581 -509.5t-648 -243.5q-118 -25 -192 -38t-182 -33q-61 -108 -168.5 -295t-220 -384t-210 -368.5t-138.5 -248.5q-10 -20 -35.5 -40.5t-94.5 -43.5t-194.5 -56.5 t-340.5 -79.5q-26 -5 -26 10zM170 82q169 46 325 161t276.5 248.5t194.5 269t74 217.5q0 20 -7.5 51t-53.5 31q-26 0 -79.5 -33.5t-123 -92t-141 -135.5t-133.5 -164q-87 -123 -168.5 -264t-163.5 -289z" />
<glyph unicode="&#xff;" horiz-adv-x="1162" d="M-1986 -1843q0 41 7.5 84.5t18.5 68.5q5 16 15 21t10 -15q0 -139 102.5 -251.5t363.5 -112.5q210 0 417.5 105t404.5 279t381.5 404.5t356 481.5t325 504.5t281.5 478.5q10 20 0 15t-15 -10q-57 -46 -154 -100t-200 -54q-71 0 -112 31t-41 92q0 103 125.5 305t304.5 479 q20 25 33 38t28 23q26 5 69.5 12.5t53.5 7.5q21 0 21 -15q-185 -322 -310.5 -524.5t-125.5 -315.5q0 -61 57 -61q25 0 66 15.5t87 41t87 53.5t62 54q46 46 135.5 217.5t217.5 401.5q61 113 115 190t90 77q20 -11 38 -52t18 -82q0 -20 -46 -94t-117.5 -174t-156 -212.5 t-161.5 -210.5q-184 -281 -371 -580.5t-376.5 -578.5t-389 -527.5t-412 -433t-440.5 -292t-479 -107.5q-148 0 -266 72t-118 251zM907 1690q0 66 48.5 127.5t120.5 61.5q66 0 66 -67q0 -61 -53.5 -122.5t-120.5 -61.5q-61 0 -61 62zM1275 1659q0 66 49 127.5t120 61.5 q67 0 67 -66q0 -62 -54 -123.5t-120 -61.5q-62 0 -62 62z" />
<glyph unicode="&#x152;" horiz-adv-x="4311" d="M614 594q0 123 51 297t148.5 361t241 368.5t327.5 327.5t407 235.5t479 89.5q261 0 425 -53.5t256 -143t125 -207.5t33 -251v-51q0 -26 -5 -51q41 87 90 179t92.5 176.5t76.5 151t43 102.5q11 36 -10 66q0 26 51 26q261 5 555.5 15.5t540.5 10.5q51 0 87 -5.5t36 -20.5 t-15 -41q-16 -20 -28.5 -46t-23.5 -51q-10 -21 -22.5 -23.5t-23.5 28.5q-10 25 -46 36q-77 15 -179 22.5t-212.5 13t-218 8t-199.5 2.5q-148 -215 -296.5 -476.5t-266.5 -481.5q72 -10 169 -10h174q87 0 192 2.5t210 10.5t194.5 18t140.5 20q36 11 26 -20 q-10 -16 -20.5 -41.5t-15.5 -40.5q-5 -21 -41 -21h-5q-133 6 -286.5 8.5t-312.5 2.5h-230q-108 0 -200 -5q-41 0 -56 -31q-16 -26 -75 -136t-123 -248t-115 -271.5t-51 -209.5q0 -118 82 -174.5t261 -56.5q215 0 466 41t451 97q112 31 250.5 87.5t225.5 112.5q10 5 36 5 q25 0 -11 -36q-66 -61 -107 -123q-36 -66 -149 -92q-261 -56 -537.5 -94.5t-537.5 -48.5q-353 0 -537.5 28t-184.5 161q0 87 87 246q-230 -220 -493.5 -343t-560.5 -123q-200 0 -353.5 31t-261 107.5t-164 204.5t-56.5 328zM875 522q0 -235 148.5 -386t486.5 -151 q164 0 351 58.5t368.5 194.5t340.5 351t266 522q41 118 61.5 241t20.5 240q0 108 -18 223t-84.5 210t-197 153.5t-355.5 58.5q-195 0 -374 -89.5t-333 -235.5t-279 -332.5t-215 -376t-138.5 -369t-48.5 -312.5z" />
<glyph unicode="&#x153;" horiz-adv-x="1827" d="M209 184q0 92 48.5 212.5t120.5 238.5q61 87 212 215t387 261q26 -5 20.5 -18t-15.5 -23q-138 -66 -245.5 -171t-184.5 -223t-115.5 -243.5t-38.5 -237.5q0 -67 23.5 -115.5t63.5 -48.5q98 0 197.5 82t181.5 204.5t133.5 261t51.5 250.5q0 123 -31 185q5 10 53.5 35.5 t89.5 35.5q31 11 31 -10q10 -61 5 -153.5t-31 -179.5q154 215 312.5 299.5t246.5 84.5q102 0 102 -87q0 -82 -79.5 -181.5t-194.5 -197t-240.5 -179.5t-222.5 -123q-11 -25 -11 -51v-46q0 -82 72 -148.5t220 -66.5q190 0 430.5 123t470.5 404q21 26 26 5.5t-10 -35.5 q-241 -277 -504.5 -425.5t-530.5 -148.5q-153 0 -250.5 43.5t-97.5 192.5q0 36 11 77q-118 -154 -274.5 -236t-248.5 -82q-102 0 -143 64t-41 156zM1100 399q133 67 245.5 156.5t194.5 176.5t128 166.5t46 120.5q0 51 -38.5 58.5t-109.5 -33.5q-72 -46 -143.5 -115 t-135.5 -156t-113 -184t-74 -190z" />
<glyph unicode="&#x178;" horiz-adv-x="2053" d="M316.5 1845.5q-25.5 2.5 0.5 43.5q153 195 347.5 282t430.5 87q148 0 255.5 -59t174 -156t97.5 -228t31 -269q0 -61 -7.5 -135.5t-18 -138.5t-18 -112.5t-7.5 -58.5q-5 -26 7.5 -38.5t33.5 7.5q368 282 734 576t725 545q107 77 245.5 149t271.5 72q61 0 115 -49t74 -85 q0 -20 -15 -15q-26 10 -46 10h-67q-153 0 -399 -120t-525 -304.5t-555.5 -407t-486.5 -427.5q-61 -62 -112 -118t-92 -123q-128 -225 -230.5 -417t-138.5 -315q-5 -21 -15.5 -33.5t-51.5 -7.5q-76 10 -117 10t-69.5 -7.5t-54 -25.5t-71.5 -49q-15 -5 -17.5 15.5t12.5 36.5 q51 40 122.5 130t148.5 205t146 240.5t121 232.5q56 123 102 302.5t46 322.5q0 133 -28 258.5t-94.5 223t-177 153.5t-268.5 56q-185 0 -305 -56t-212 -184q-16 -21 -41.5 -18.5zM2063 2662q0 67 48.5 128.5t119.5 61.5q67 0 67 -67q0 -61 -53.5 -122.5t-120.5 -61.5 q-61 0 -61 61zM2431 2632q0 66 48.5 127.5t120.5 61.5q67 0 67 -66q0 -62 -54 -123.5t-120 -61.5q-62 0 -62 62z" />
<glyph unicode="&#x2c6;" horiz-adv-x="1177" d="M261 1454q0 31 46 67q87 76 189.5 173.5t189.5 184.5q41 41 82 79.5t82 63.5q20 11 25 11q21 0 21 -26q5 -143 15 -276.5t10 -220.5q0 -61 -20 -76q-15 -11 -41 -36.5t-41 -25.5t-15 36q0 102 -5.5 230t-10.5 231q0 31 -20 31q-10 0 -26 -16q-97 -87 -202 -194.5 t-192 -204.5q-46 -57 -67 -57q-20 0 -20 26z" />
<glyph unicode="&#x2dc;" horiz-adv-x="1177" d="M40.5 1531q-20.5 10 15.5 56q41 57 117.5 128.5t148.5 127.5q67 51 133 51q57 0 110.5 -46t107.5 -99.5t112.5 -99.5t125.5 -46q87 0 140.5 71.5t53.5 153.5q0 25 23.5 38t23.5 -38q-16 -118 -103 -218t-205 -100q-71 0 -132.5 43.5t-115.5 97.5t-105 97.5t-107 43.5 q-41 0 -84.5 -25.5t-84.5 -64t-74.5 -77t-53.5 -69.5q-26 -35 -46.5 -25z" />
<glyph unicode="&#x2000;" horiz-adv-x="1920" />
<glyph unicode="&#x2001;" horiz-adv-x="3840" />
<glyph unicode="&#x2002;" horiz-adv-x="1920" />
<glyph unicode="&#x2003;" horiz-adv-x="3840" />
<glyph unicode="&#x2004;" horiz-adv-x="1280" />
<glyph unicode="&#x2005;" horiz-adv-x="960" />
<glyph unicode="&#x2006;" horiz-adv-x="640" />
<glyph unicode="&#x2007;" horiz-adv-x="640" />
<glyph unicode="&#x2008;" horiz-adv-x="480" />
<glyph unicode="&#x2009;" horiz-adv-x="768" />
<glyph unicode="&#x200a;" horiz-adv-x="213" />
<glyph unicode="&#x2010;" horiz-adv-x="1617" d="M716 681q0 15 15.5 30.5t45.5 15.5q57 0 139 -2.5t169 -2.5q148 0 276 5t200 5q56 0 56 -36q0 -41 -66 -41h-154t-199.5 -2.5t-220.5 -2.5h-210q-51 0 -51 31z" />
<glyph unicode="&#x2011;" horiz-adv-x="1617" d="M716 681q0 15 15.5 30.5t45.5 15.5q57 0 139 -2.5t169 -2.5q148 0 276 5t200 5q56 0 56 -36q0 -41 -66 -41h-154t-199.5 -2.5t-220.5 -2.5h-210q-51 0 -51 31z" />
<glyph unicode="&#x2012;" horiz-adv-x="1617" d="M716 681q0 15 15.5 30.5t45.5 15.5q57 0 139 -2.5t169 -2.5q148 0 276 5t200 5q56 0 56 -36q0 -41 -66 -41h-154t-199.5 -2.5t-220.5 -2.5h-210q-51 0 -51 31z" />
<glyph unicode="&#x2013;" horiz-adv-x="2560" d="M677.5 691q2.5 41 28.5 36q71 0 150.5 -2.5t161.5 -2.5h297q210 0 432.5 2.5t412 5t251.5 2.5q15 5 22.5 -7.5t7.5 -28.5q0 -15 -7.5 -28t-22.5 -13q-41 0 -87 2.5t-98 2.5q-102 0 -317 -2.5t-456 -2.5q-235 0 -445 -2.5t-307 -2.5q-26 0 -23.5 41z" />
<glyph unicode="&#x2014;" horiz-adv-x="5120" d="M931 691q5 41 46 36q118 0 248.5 -2.5t263.5 -2.5h292h425q236 0 489 2.5t474 2.5q225 0 394 2.5t235 2.5q52 5 46.5 -38.5t-51.5 -38.5q-71 0 -143 2.5t-159 2.5h-276q-185 0 -412.5 -2.5t-483.5 -2.5q-251 0 -481.5 -2.5t-414.5 -2.5h-277h-179q-41 0 -36 41z" />
<glyph unicode="&#x2018;" horiz-adv-x="1075" d="M819 1347q0 133 115 378.5t433 573.5q15 10 28 -2.5t13 -28.5q-77 -77 -156.5 -164t-143.5 -184t-105 -202t-41 -218q0 -66 20.5 -127.5t61.5 -97.5q21 -15 21 -31q0 -5 -15.5 -30.5t-38.5 -51t-46 -48.5t-38 -23q-21 0 -64.5 56t-43.5 200z" />
<glyph unicode="&#x2019;" horiz-adv-x="1075" d="M783 1172q77 77 156.5 164t143.5 184.5t104.5 202.5t40.5 217q0 67 -20.5 128.5t-60.5 97.5q-21 15 -21 30q0 6 15.5 31.5t38.5 51t46 48.5t38 23q21 0 64.5 -56.5t43.5 -199.5q0 -133 -115.5 -379t-432.5 -573q-15 -10 -28 2.5t-13 27.5z" />
<glyph unicode="&#x201a;" horiz-adv-x="1075" d="M184 -461q77 77 156.5 164t143.5 184.5t104.5 202.5t40.5 217q0 67 -20.5 128.5t-60.5 96.5q-21 16 -21 31q0 5 15.5 31t38.5 51.5t46 48.5t38 23q21 0 64.5 -56.5t43.5 -199.5q0 -133 -115.5 -379t-432.5 -574q-15 -10 -28 3t-13 28z" />
<glyph unicode="&#x201c;" horiz-adv-x="1397" d="M768 1347q0 133 115 378.5t433 573.5q15 10 28 -2.5t13 -28.5q-77 -77 -156.5 -164t-143.5 -184t-105 -202t-41 -218q0 -66 20.5 -127.5t61.5 -97.5q21 -15 21 -31q0 -5 -15.5 -30.5t-38.5 -51t-46 -48.5t-38 -23q-21 0 -64.5 56t-43.5 200zM1193 1347q0 133 115 378.5 t433 573.5q15 10 28 -2.5t13 -28.5q-77 -77 -156.5 -164t-143.5 -184t-105 -202t-41 -218q0 -66 20.5 -127.5t61.5 -97.5q21 -15 21 -31q0 -5 -15.5 -30.5t-38.5 -51t-46 -48.5t-39 -23q-20 0 -63.5 56t-43.5 200z" />
<glyph unicode="&#x201d;" horiz-adv-x="1397" d="M732 1172q77 77 156.5 164t143.5 184.5t104.5 202.5t40.5 217q0 67 -20.5 128.5t-60.5 97.5q-21 15 -21 30q0 6 15.5 31.5t38.5 51t46 48.5t38 23q21 0 64.5 -56.5t43.5 -199.5q0 -133 -115.5 -379t-432.5 -573q-15 -10 -28 2.5t-13 27.5zM1157 1172q77 77 156 164 t143 184.5t105 202.5t41 217q0 67 -20.5 128.5t-61.5 97.5q-20 15 -20 30q0 6 15.5 31.5t38.5 51t46 48.5t38 23q21 0 64.5 -56.5t43.5 -199.5q0 -133 -115.5 -379t-432.5 -573q-15 -10 -28 2.5t-13 27.5z" />
<glyph unicode="&#x201e;" horiz-adv-x="1500" d="M184 -461q77 77 156.5 164t143.5 184.5t104.5 202.5t40.5 217q0 67 -20.5 128.5t-60.5 96.5q-21 16 -21 31q0 5 15.5 31t38.5 51.5t46 48.5t38 23q21 0 64.5 -56.5t43.5 -199.5q0 -133 -115.5 -379t-432.5 -574q-15 -10 -28 3t-13 28zM609 -461q77 77 156 164t143 184.5 t105 202.5t41 217q0 67 -20.5 128.5t-61.5 96.5q-20 16 -20 31q0 5 15.5 31t38.5 51.5t46 48.5t38 23q21 0 64.5 -56.5t43.5 -199.5q0 -133 -115.5 -379t-432.5 -574q-15 -10 -28 3t-13 28z" />
<glyph unicode="&#x2022;" horiz-adv-x="2560" d="M1331 1132q0 168 115 283.5t284 115.5t284.5 -115.5t115.5 -283.5q0 -169 -115.5 -284.5t-284.5 -115.5t-284 115.5t-115 284.5z" />
<glyph unicode="&#x2026;" horiz-adv-x="2964" d="M465 56q0 103 69 179.5t156 76.5q26 0 62 -18t36 -69q0 -25 -20.5 -68.5t-54 -84.5t-74.5 -69.5t-82 -28.5q-36 0 -64 20.5t-28 61.5zM1346 56q0 103 69 179.5t156 76.5q26 0 61.5 -18t35.5 -69q0 -25 -20.5 -68.5t-53.5 -84.5t-74 -69.5t-82 -28.5q-36 0 -64 20.5 t-28 61.5zM2267 56q0 103 69 179.5t157 76.5q25 0 61 -18t36 -69q0 -25 -20.5 -68.5t-54 -84.5t-74.5 -69.5t-82 -28.5q-35 0 -63.5 20.5t-28.5 61.5z" />
<glyph unicode="&#x202f;" horiz-adv-x="768" />
<glyph unicode="&#x2039;" horiz-adv-x="1408" d="M634 507q0 20 41 51q77 56 182 138t215 169t217.5 174t189.5 154q15 15 25 15q6 0 16 -10t10 -31q0 -15 -31 -35q-15 -6 -94.5 -67t-187 -145.5t-220 -172t-189.5 -148.5q-26 -20 -26 -51q0 -26 46.5 -174.5t153.5 -424.5q10 -31 10 -38.5t-15 -7.5q-26 -5 -77 -18 t-71 -13q-16 0 -26 41q-72 292 -120.5 435.5t-48.5 158.5z" />
<glyph unicode="&#x203a;" horiz-adv-x="1408" d="M440 -128q0 15 31 41q148 113 324.5 261.5t325.5 286.5q41 31 41 61q0 21 -21 46q-46 72 -104.5 159t-110 169t-87 141t-35.5 74q0 26 61 41t82 15q25 0 46 -35q67 -118 146 -259t166 -259q11 -20 11 -30q0 -31 -21 -46q-174 -134 -376.5 -310.5t-355.5 -340.5 q-10 -10 -33 -25.5t-49 -15.5q-10 0 -25.5 8t-15.5 18z" />
<glyph unicode="&#x205f;" horiz-adv-x="960" />
<glyph unicode="&#x20ac;" horiz-adv-x="2493" d="M327 1019q0 20 33.5 38t58.5 18h236q97 0 169 5q25 57 63.5 133.5t64.5 122.5q-57 0 -131 -5t-140.5 -7.5t-115.5 -7.5t-59 -5q-41 0 -41 10q0 5 33.5 30.5t58.5 25.5h236t184 5q123 195 279 359t338 286.5t384 192t412 69.5q103 0 208 -15.5t197 -51.5t161 -100 t100 -166l-164 -200h-20q-26 231 -149 361.5t-338 130.5q-312 0 -611.5 -233t-530.5 -633q379 0 635 18t369 18q36 0 36 -20q0 -5 -33.5 -31t-58.5 -26h-215q-149 0 -305 -2.5t-289 -2.5h-169q-77 -123 -128 -251q379 0 637.5 18t370.5 18q36 0 36 -20q0 -5 -33 -31t-59 -26 h-215q-148 0 -302 -2.5t-287 -2.5h-169q-61 -143 -94.5 -291.5t-33.5 -266.5q0 -138 41 -227.5t113 -138t164 -69t194 -20.5q313 0 533 130.5t379 294.5q25 0 25 -26q0 -10 -5 -35.5t-15 -36.5q-164 -148 -417.5 -260.5t-535.5 -112.5q-143 0 -273.5 17.5t-228 74 t-156 161.5t-58.5 284q0 108 25.5 243.5t81.5 273.5q-56 0 -130.5 -5t-141 -7.5t-115 -7.5t-58.5 -5q-31 0 -31 10z" />
<glyph unicode="&#x2122;" horiz-adv-x="2560" d="M727 1178q31 46 95 166t140.5 263.5t151 284.5t115.5 233q-72 0 -174.5 -5t-204.5 -16l46 82q72 -5 189 -5h231h199q113 0 216 10l-36 -76q-67 10 -146.5 12.5t-181.5 2.5q-51 -92 -115 -212.5t-128 -248.5t-123 -256t-105 -235h-169zM1208 1178q67 76 164 201.5 t207.5 264t220.5 276.5t192 246l123 30q-11 -66 -23.5 -181t-23 -238t-18 -241t-7.5 -189q66 71 166 186.5t205 235.5t197 233t144 179l117 26q-25 -82 -61 -225.5t-66.5 -297t-56.5 -292t-36 -214.5h-153q20 66 45.5 168.5t54 220t54 238t45.5 217.5q-36 -41 -128 -145.5 t-197 -230t-205 -246t-151 -187.5l-107 -35q5 25 15 140.5t18 261t15.5 281.5t12.5 197q-77 -97 -176.5 -227.5t-197 -261t-171.5 -238t-100 -153.5h-118z" />
<glyph unicode="&#xe000;" horiz-adv-x="1125" d="M0 0v1125h1125v-1125h-1125z" />
<glyph unicode="&#xfb01;" horiz-adv-x="1873" d="M-1863 -1014q0 72 13 110.5t54 104.5q41 72 81.5 128.5t102.5 112.5q25 20 30.5 2.5t-10.5 -28.5q-66 -51 -89 -125t-23 -202q0 -103 28 -238.5t84.5 -258.5t148.5 -210t215 -87q189 0 404 225q236 251 410 550.5t338 596.5q189 343 368.5 686t358.5 651q-164 -6 -236 -6 h-122q-82 0 -118 36q-10 10 -10 16q0 10 35 10h180q71 0 155.5 -2.5t146.5 -2.5q76 133 150.5 253t146.5 233q210 307 437.5 550.5t504.5 407.5q87 51 179 84t179 33q62 0 138.5 -30.5t76.5 -107.5q0 -92 -87 -184q-10 -16 -30.5 -39t-30.5 -43q-16 -26 -28.5 -8t-2.5 28 q46 57 46 98q0 35 -64 86.5t-182 51.5q-133 0 -256 -77t-233 -187t-199.5 -238t-150.5 -230q-205 -333 -395 -681h287t256 5q72 0 125.5 5t97 10t84.5 10.5t92 5.5q21 0 21 -16q0 -20 -77 -122.5t-179 -266.5q-31 -51 -79.5 -130.5t-94.5 -166.5t-79.5 -174t-33.5 -148 q0 -118 103 -118h30q21 0 41 10q266 92 502 281.5t420 435.5q10 15 25 15q21 0 0 -41q-378 -481 -885 -717q-190 -92 -308 -92q-143 0 -143 128q0 77 48.5 189.5t125.5 243t164 266.5t164 254q10 15 25.5 38t15.5 33q0 21 -31 21h-353q-190 0 -389 -5q-179 -333 -356 -661 t-371 -660q-200 -338 -389.5 -599t-389.5 -487q-163 -184 -340 -286.5t-341 -102.5q-143 0 -245.5 77t-166.5 192t-92 250.5t-28 253.5zM1977 1659q0 66 36 127.5t107 61.5q31 0 62 -18t31 -48q0 -62 -54 -123.5t-121 -61.5q-61 0 -61 62z" />
<glyph unicode="&#xfb02;" horiz-adv-x="2017" d="M-2959 -1577q0 87 13 171.5t38 171.5q16 26 23.5 18t2.5 -33q-26 -113 -26 -210q0 -195 82 -323t212.5 -204.5t289.5 -107.5t312 -31q210 0 404.5 59t366 159t325 238t281.5 297q77 97 149 207t151 251t169 317.5t207 407.5q62 122 138.5 270.5t161 310t166.5 317.5 t159 295q-102 -6 -195 -6h-169q-56 0 -112.5 18t-56.5 34q0 10 26 10h543q148 281 322 563t374 507q292 322 550.5 511.5t458.5 189.5q66 0 120 -30.5t54 -107.5q0 -41 5 -66.5t31 -51.5q87 133 186.5 251t243.5 236q41 30 115 89t161 113t169 95t133 41q41 0 66.5 -23 t25.5 -69q0 -52 -25.5 -126t-61 -151t-74 -148.5t-64.5 -112.5q-522 -886 -1285 -1388q-66 -41 -127.5 -79t-133.5 -74q-77 -138 -161.5 -289.5t-156 -294.5t-117.5 -266t-46 -210q0 -159 143 -159q138 0 358 149q62 41 131 99.5t138 130.5t135.5 146t118.5 141q30 31 33 18 t-8 -39q-117 -148 -260.5 -299t-271.5 -238q-149 -103 -279.5 -151.5t-227.5 -48.5q-102 0 -163.5 56.5t-61.5 163.5q0 179 153.5 430t353.5 579q-216 -77 -436 -102.5t-450 -35.5q-185 -349 -371.5 -694.5t-386.5 -683.5q-210 -353 -404.5 -634.5t-373.5 -486.5 q-138 -154 -310 -307.5t-366.5 -271t-404 -192t-419.5 -74.5q-349 0 -571.5 194.5t-222.5 563.5zM896 1065q231 10 456 30.5t440 107.5q174 292 353.5 612t440.5 709q-61 77 -133 110.5t-169 33.5q-133 0 -263.5 -61.5t-243.5 -159t-207.5 -212.5t-161.5 -218 q-41 -66 -102 -176t-130.5 -238t-141 -269t-138.5 -269zM1987 1295q56 31 105 62t105 71q701 477 1106 1265q56 108 112.5 230.5t56.5 250.5q0 82 -57 82q-35 0 -104.5 -58.5t-141 -135.5t-130.5 -148.5t-74 -97.5q-51 -77 -169 -256t-258.5 -399.5t-286.5 -450.5t-264 -415 z" />
<glyph unicode="&#xfb03;" horiz-adv-x="2867" d="M-2012 -1372q0 20 10 20t26 -36q41 -128 143 -220q67 -61 154 -87q82 -30 179 -30q159 0 333 71q169 67 317 195q92 77 128 123q-30 61 -30 92q0 97 97 179q15 15 31 15q25 0 25 -41q0 -25 31 -81q138 179 240 343q103 163 210 353q103 184 195 374q97 184 179 363 q87 184 164 348q82 164 154 302l-231 -5h-10q-46 0 -46 16q0 15 15 30l21 16q36 30 102 30h5q41 0 87 -5h103q102 185 194 338q98 154 190 277q97 128 194 230q103 102 220 190q251 189 466 204h41q123 0 190 -51q36 -31 36 -87v-15q-6 -16 -16 -36q-5 -15 -15 -31 q-5 -5 -5 -15q-11 -26 -21 -26t-25 16q-62 76 -180 97q-25 5 -56 5q-25 5 -51 5q-174 0 -333 -107q-72 -52 -153 -159q-82 -103 -154 -220q-62 -103 -149 -261q-81 -159 -184 -359q92 -5 190 -5h148h118q66 5 123 5h102q51 0 108 5q71 123 138 241q66 123 138 230 q215 323 405 517q194 200 419 359q210 148 369 215q164 66 292 82q25 5 77 5q215 0 292 -133q20 -41 20 -113q0 -25 -5 -51q0 -21 -5 -46q0 -21 -16 -21l-5 6q-5 0 -5 15v20q0 21 -25 57q-36 46 -103 66q-66 21 -138 31q-41 5 -77 5q-36 5 -72 5q-322 0 -568 -184 q-102 -72 -189 -159t-164 -184q-72 -92 -164 -231q-87 -138 -184 -312l-113 -205q-36 -66 -107 -204q296 5 849 81h11q46 0 61 -102v-20q0 -26 -20 -52q-103 -102 -190 -245q-194 -308 -256 -518q-15 -51 -15 -81q0 -118 107 -118q31 0 62 10q471 143 952 742q10 11 21 11 q15 0 15 -16q0 -10 -10 -20q-451 -533 -912 -743q-204 -97 -312 -97q-138 0 -138 128q0 103 102 297q169 318 389 655q57 88 0 88q-353 -36 -747 -52q-26 -56 -62 -123q-148 -271 -332 -629q-185 -348 -400 -671q-189 -282 -415 -497q-225 -220 -471 -338 q-138 -71 -256 -107q-122 -36 -235 -36q-72 0 -143 15q-72 16 -149 67q-41 -41 -61 -67q-26 -25 -67 -61q-389 -343 -701 -343q-231 0 -379 179q-46 56 -72 128t-41 138v16zM-537 -1208q20 -31 71 -57q108 -61 256 -61q159 0 292 61q246 103 440 328q195 225 349 512 q117 215 235 456q118 245 246 496q56 108 107 210q57 108 113 210q-97 -5 -189 -10q-87 0 -159 -5q-97 -5 -205 -10q-102 0 -246 -6l-56 -112q-179 -359 -348 -676q-164 -312 -369 -625q-97 -163 -230 -338q-133 -179 -307 -373zM2934 1628q0 67 51 128q51 62 118 62 q66 0 66 -67q0 -61 -56 -123q-56 -61 -118 -61q-61 0 -61 61z" />
</font>
</defs>
</svg>
